<svg xmlns="http://www.w3.org/2000/svg" width="85" height="85" viewBox="0 0 85 85">
  <g id="Grupo_1102528" data-name="Grupo 1102528" transform="translate(-305 -3636)">
    <rect id="Rectángulo_403044" data-name="Rectángulo 403044" width="85" height="85" rx="10" transform="translate(305 3636)" fill="#f2e5fd"/>
    <g id="Grupo_1102527" data-name="Grupo 1102527" transform="translate(322.848 3645.703)">
      <g id="Grupo_1102525" data-name="Grupo 1102525" transform="translate(15.145 0)">
        <path id="Trazado_877974" data-name="Trazado 877974" d="M192.613,12.232c-3.05,2.145-6.508,4.577-8.36,8.6-3.218,7.019,6.584,14.675,7,15a.541.541,0,0,0,.81-.678c-.035-.068-3.554-6.9-3.423-11.8.046-1.708,2.436-3.645,4.966-5.7,2.317-1.878,4.943-4.007,6.48-6.5,3.374-5.482-.376-10.872-.414-10.926a.541.541,0,0,0-.97.427,11.515,11.515,0,0,1-1.292,7.273C196.576,9.444,194.74,10.736,192.613,12.232Z" transform="translate(-183.606 0)" fill="#db380e"/>
        <path id="Trazado_877975" data-name="Trazado 877975" d="M263.913,107.041a.541.541,0,0,0-.518-.938c-.518.2-12.689,4.889-12.689,10.557a10.8,10.8,0,0,0,2.888,7.48,5.694,5.694,0,0,1,1.027,1.538c.383,1.256-.524,3.527-.906,4.3a.541.541,0,0,0,.794.685c.209-.145,5.115-3.614,4.235-7.792a10.306,10.306,0,0,0-1.8-3.773c-1.067-1.587-1.837-2.733-.668-4.849C257.648,111.776,263.85,107.088,263.913,107.041Z" transform="translate(-242.054 -92.392)" fill="#db380e"/>
      </g>
      <g id="Grupo_1102526" data-name="Grupo 1102526" transform="translate(0 34.777)">
        <path id="Trazado_877976" data-name="Trazado 877976" d="M106.7,279.376a1.921,1.921,0,0,0,.285,1.793c1.319,1.832,5.993,2.84,13.16,2.84h0c.971,0,2-.019,3.047-.057,11.459-.41,15.71-3.98,15.885-4.132a.541.541,0,0,0-.5-.931c-4.036,1.1-11.572,1.493-16.8,1.493-5.849,0-8.828-.421-9.557-.732.374-.514,2.682-1.431,5.542-1.994a.541.541,0,0,0-.1-1.072C115.983,276.584,107.576,276.719,106.7,279.376Z" transform="translate(-101.375 -275.699)" fill="#73a1fb"/>
        <path id="Trazado_877977" data-name="Trazado 877977" d="M364.791,269.718a11.306,11.306,0,0,0-4.7,1.235.541.541,0,0,0,.255,1.018c.05,0,5.042.041,5.494,2.893.4,2.46-4.723,6.447-6.731,7.775a.541.541,0,0,0,.411.98c.477-.1,11.657-2.566,10.475-9.075C369.275,270.555,366.767,269.718,364.791,269.718Z" transform="translate(-321.124 -269.718)" fill="#73a1fb"/>
        <path id="Trazado_877978" data-name="Trazado 877978" d="M168.582,339.482a.542.542,0,0,0-.221-.542l-2.681-1.878a.543.543,0,0,0-.449-.08,52.72,52.72,0,0,1-6.9,1.2,47.908,47.908,0,0,1-5.233.277c-4.069,0-6.73-.478-7.117-.829-.051-.1-.035-.143-.026-.168a1.365,1.365,0,0,1,.691-.52.541.541,0,0,0-.315-1.034c-2.689.649-4,1.556-3.908,2.7.17,2.023,4.855,3.061,8.815,3.335.57.039,1.185.059,1.83.059h0a76.9,76.9,0,0,0,15.112-2.087A.54.54,0,0,0,168.582,339.482Z" transform="translate(-132.582 -327.357)" fill="#73a1fb"/>
        <path id="Trazado_877979" data-name="Trazado 877979" d="M161.093,390.7a.541.541,0,0,0-.31-.994c-.36.01-3.526.152-3.748,2.168a2.1,2.1,0,0,0,.513,1.636c1.137,1.347,4.205,2.148,9.379,2.448.612.037,1.234.055,1.848.055a28.2,28.2,0,0,0,11.193-2.147.541.541,0,0,0,.051-.951l-3.388-2.068a.545.545,0,0,0-.392-.068c-.021,0-2.172.451-5.419.891a17.465,17.465,0,0,1-2.286.126,28.367,28.367,0,0,1-7.541-.877A.217.217,0,0,1,161.093,390.7Z" transform="translate(-145.303 -374.237)" fill="#73a1fb"/>
        <path id="Trazado_877980" data-name="Trazado 877980" d="M86.549,433.578c15.067-.013,23.153-2.692,24.711-4.378a1.866,1.866,0,0,0,.564-1.53,2.363,2.363,0,0,0-1.036-1.524.546.546,0,0,0-.706.1.535.535,0,0,0,0,.7c.1.122.15.327-.128.605-.623.582-6.9,2.347-17.362,2.878-1.433.074-2.935.112-4.466.113-9.364,0-16.217-1.283-17.116-2.03.347-.5,2.771-1.294,5.349-1.744a.541.541,0,0,0-.165-1.07c-.073.01-.319.025-.605.042-4.253.26-9.169.838-9.425,3.03a2.23,2.23,0,0,0,.59,1.8c1.149,1.291,4.45,3.007,19.8,3.007Z" transform="translate(-66.142 -405.582)" fill="#73a1fb"/>
        <path id="Trazado_877981" data-name="Trazado 877981" d="M177.733,456.24a.54.54,0,0,0-.624.123c-.022.024-2.287,2.393-9.1,3.784-2.608.522-7.5.787-14.548.787s-13.775-.278-13.842-.281a.541.541,0,0,0-.148,1.067,80.568,80.568,0,0,0,16.733,1.666,78,78,0,0,0,13.351-1.115c7.912-1.387,8.466-5.31,8.485-5.476A.541.541,0,0,0,177.733,456.24Z" transform="translate(-129.655 -432.146)" fill="#73a1fb"/>
      </g>
    </g>
  </g>
</svg>
