<svg xmlns="http://www.w3.org/2000/svg" width="73.259" height="73.259" viewBox="0 0 73.259 73.259">
  <g id="Grupo_1100426" data-name="Grupo 1100426" transform="translate(7936 8404)">
    <path id="Trazado_875880" data-name="Trazado 875880" d="M73.259,36.629A36.63,36.63,0,1,1,36.629,0a36.63,36.63,0,0,1,36.63,36.629" transform="translate(-7936 -8404)" fill="#d6e1fd"/>
    <path id="Trazado_875881" data-name="Trazado 875881" d="M9.6,11.888A36.627,36.627,0,0,0,61.35,63.635Z" transform="translate(-7936 -8404)" fill="#aec4fa"/>
    <path id="Trazado_875882" data-name="Trazado 875882" d="M66.417,36.629A29.787,29.787,0,1,1,36.63,6.842,29.788,29.788,0,0,1,66.417,36.629" transform="translate(-7936 -8404)" fill="#fff"/>
    <path id="Trazado_878005" data-name="Trazado 878005" d="M9.147-17.749c0,2.033-.907,2.686-2.4,2.686H5.19v3.63H6.533c1.815,0,2.613.871,2.613,3.23v2c0,2.25-.8,2.867-2.069,2.867s-2.069-.69-2.069-2.5V-8.2H1.234V-6.1C1.234-2.033,3.267.29,7.187.29S13.139-2.033,13.139-6.1v-2c0-2.577-.8-4.464-2.795-5.335,1.924-.8,2.795-2.5,2.795-5.227v-.653c0-4.065-2.033-6.388-5.953-6.388s-5.953,2.323-5.953,6.388v1.379H5.009v-1.633c0-1.815.8-2.5,2.069-2.5s2.069.617,2.069,2.9Z" transform="translate(-7906.371 -8354.72)" fill="#585f6b"/>
  </g>
</svg>
