<svg xmlns="http://www.w3.org/2000/svg" width="73.259" height="73.259" viewBox="0 0 73.259 73.259">
  <g id="Grupo_1100428" data-name="Grupo 1100428" transform="translate(7936 8404)">
    <path id="Trazado_875880" data-name="Trazado 875880" d="M73.259,36.629A36.63,36.63,0,1,1,36.629,0a36.63,36.63,0,0,1,36.63,36.629" transform="translate(-7936 -8404)" fill="#d6e1fd"/>
    <path id="Trazado_875881" data-name="Trazado 875881" d="M9.6,11.888A36.627,36.627,0,0,0,61.35,63.635Z" transform="translate(-7936 -8404)" fill="#aec4fa"/>
    <path id="Trazado_875882" data-name="Trazado 875882" d="M66.417,36.629A29.787,29.787,0,1,1,36.63,6.842,29.788,29.788,0,0,1,66.417,36.629" transform="translate(-7936 -8404)" fill="#fff"/>
    <path id="Trazado_878007" data-name="Trazado 878007" d="M1.27-8.2V-6.1C1.27-2.033,3.3.29,7.223.29S13.175-2.033,13.175-6.1V-11.76c0-3.738-1.488-5.807-4.428-5.807a3.809,3.809,0,0,0-3.484,1.851l.327-6.061h6.932v-3.63H2L1.27-10.671H5.045v-.762c0-1.815.8-2.5,2.069-2.5s2.069.69,2.069,2.5v5.59c0,1.815-.8,2.468-2.069,2.468S5.045-4.029,5.045-5.844V-8.2Z" transform="translate(-7906.371 -8354.72)" fill="#585f6b"/>
  </g>
</svg>
