<svg xmlns="http://www.w3.org/2000/svg" xmlns:xlink="http://www.w3.org/1999/xlink" width="119" height="119" viewBox="0 0 119 119">
  <defs>
    <filter id="Trazado_826199" x="0" y="0" width="119" height="119" filterUnits="userSpaceOnUse">
      <feOffset input="SourceAlpha"/>
      <feGaussianBlur stdDeviation="5.5" result="blur"/>
      <feFlood flood-color="#fff" flood-opacity="0.659"/>
      <feComposite operator="in" in2="blur"/>
      <feComposite in="SourceGraphic"/>
    </filter>
  </defs>
  <g id="Grupo_1102072" data-name="Grupo 1102072" transform="translate(-1108.5 -4340.5)">
    <g transform="matrix(1, 0, 0, 1, 1108.5, 4340.5)" filter="url(#Trazado_826199)">
      <path id="Trazado_826199-2" data-name="Trazado 826199" d="M43,0A43,43,0,1,1,0,43,43,43,0,0,1,43,0Z" transform="translate(16.5 16.5)" fill="#4df5df"/>
    </g>
    <g id="Grupo_1102137" data-name="Grupo 1102137" transform="translate(1141.578 4363.245)">
      <path id="Trazado_877319" data-name="Trazado 877319" d="M13.936,11.522H2.322A2.325,2.325,0,0,0,0,13.844V24.128a.774.774,0,1,0,1.548,0V13.844a.775.775,0,0,1,.774-.774H13.936a.775.775,0,0,1,.774.774V59.666a.775.775,0,0,1-.774.774H2.322a.775.775,0,0,1-.774-.774V27.844a.774.774,0,0,0-1.548,0V59.666a2.325,2.325,0,0,0,2.322,2.322H13.936a2.325,2.325,0,0,0,2.322-2.322V13.844a2.325,2.325,0,0,0-2.322-2.322Z" fill="#3a1d71"/>
      <path id="Trazado_877320" data-name="Trazado 877320" d="M191.172,11.522H179.558a2.325,2.325,0,0,0-2.322,2.322V59.666a2.325,2.325,0,0,0,2.322,2.322h11.614a2.325,2.325,0,0,0,2.322-2.322V13.844a2.325,2.325,0,0,0-2.322-2.322Zm.774,48.144a.775.775,0,0,1-.774.774H179.558a.775.775,0,0,1-.774-.774V13.844a.775.775,0,0,1,.774-.774h11.614a.775.775,0,0,1,.774.774Z" transform="translate(-158.943)" fill="#3a1d71"/>
      <path id="Trazado_877321" data-name="Trazado 877321" d="M368.408,11.522H356.794a2.325,2.325,0,0,0-2.322,2.322V41.738a.774.774,0,1,0,1.548,0V13.844a.775.775,0,0,1,.774-.774h11.614a.775.775,0,0,1,.774.774V59.666a.775.775,0,0,1-.774.774H356.794a.775.775,0,0,1-.774-.774V45.453a.774.774,0,1,0-1.548,0V59.666a2.325,2.325,0,0,0,2.322,2.322h11.614a2.325,2.325,0,0,0,2.322-2.322V13.844a2.325,2.325,0,0,0-2.322-2.322Z" transform="translate(-317.886)" fill="#3a1d71"/>
      <path id="Trazado_877322" data-name="Trazado 877322" d="M37.4,58.131h4.373A2.325,2.325,0,0,0,44.1,55.809V51.436a2.325,2.325,0,0,0-2.322-2.322H37.4a2.325,2.325,0,0,0-2.322,2.322v4.373A2.325,2.325,0,0,0,37.4,58.131Zm-.774-6.695a.775.775,0,0,1,.774-.774h4.373a.775.775,0,0,1,.774.774v4.373a.775.775,0,0,1-.774.774H37.4a.775.775,0,0,1-.774-.774Z" transform="translate(-31.46 -33.712)" fill="#3a1d71"/>
      <path id="Trazado_877323" data-name="Trazado 877323" d="M35.081,161.458A2.325,2.325,0,0,0,37.4,163.78h4.373a2.325,2.325,0,0,0,2.322-2.322v-4.373a2.325,2.325,0,0,0-2.322-2.322H37.4a2.325,2.325,0,0,0-2.322,2.322Zm1.548-4.373a.775.775,0,0,1,.774-.774h4.373a.775.775,0,0,1,.774.774v4.373a.775.775,0,0,1-.774.774H37.4a.775.775,0,0,1-.774-.774Z" transform="translate(-31.46 -128.457)" fill="#3a1d71"/>
      <path id="Trazado_877324" data-name="Trazado 877324" d="M35.081,267.107a2.325,2.325,0,0,0,2.322,2.322h4.373a2.325,2.325,0,0,0,2.322-2.322v-4.373a2.325,2.325,0,0,0-2.322-2.322H37.4a2.325,2.325,0,0,0-2.322,2.322Zm1.548-4.373a.775.775,0,0,1,.774-.774h4.373a.775.775,0,0,1,.774.774v4.373a.775.775,0,0,1-.774.774H37.4a.775.775,0,0,1-.774-.774Z" transform="translate(-31.46 -223.202)" fill="#3a1d71"/>
      <path id="Trazado_877325" data-name="Trazado 877325" d="M219.011,49.114h-4.373a2.325,2.325,0,0,0-2.322,2.322v4.373a2.325,2.325,0,0,0,2.322,2.322h4.373a2.325,2.325,0,0,0,2.322-2.322V51.436A2.325,2.325,0,0,0,219.011,49.114Zm.774,6.695a.775.775,0,0,1-.774.774h-4.373a.775.775,0,0,1-.774-.774V51.436a.775.775,0,0,1,.774-.774h4.373a.775.775,0,0,1,.774.774Z" transform="translate(-190.403 -33.712)" fill="#3a1d71"/>
      <path id="Trazado_877326" data-name="Trazado 877326" d="M219.011,154.763h-4.373a2.325,2.325,0,0,0-2.322,2.322v4.373a2.325,2.325,0,0,0,2.322,2.322h4.373a2.325,2.325,0,0,0,2.322-2.322v-4.373A2.325,2.325,0,0,0,219.011,154.763Zm.774,6.7a.775.775,0,0,1-.774.774h-4.373a.775.775,0,0,1-.774-.774v-4.373a.775.775,0,0,1,.774-.774h4.373a.775.775,0,0,1,.774.774Z" transform="translate(-190.403 -128.457)" fill="#3a1d71"/>
      <path id="Trazado_877327" data-name="Trazado 877327" d="M219.011,260.413h-4.373a2.325,2.325,0,0,0-2.322,2.322v4.373a2.325,2.325,0,0,0,2.322,2.322h4.373a2.325,2.325,0,0,0,2.322-2.322v-4.373A2.325,2.325,0,0,0,219.011,260.413Zm.774,6.695a.775.775,0,0,1-.774.774h-4.373a.775.775,0,0,1-.774-.774v-4.373a.775.775,0,0,1,.774-.774h4.373a.775.775,0,0,1,.774.774Z" transform="translate(-190.403 -223.203)" fill="#3a1d71"/>
      <path id="Trazado_877328" data-name="Trazado 877328" d="M391.875,58.131h4.373a2.325,2.325,0,0,0,2.322-2.322V51.436a2.325,2.325,0,0,0-2.322-2.322h-4.373a2.325,2.325,0,0,0-2.322,2.322v4.373A2.325,2.325,0,0,0,391.875,58.131Zm-.774-6.695a.775.775,0,0,1,.774-.774h4.373a.775.775,0,0,1,.774.774v4.373a.775.775,0,0,1-.774.774h-4.373a.775.775,0,0,1-.774-.774Z" transform="translate(-349.347 -33.712)" fill="#3a1d71"/>
      <path id="Trazado_877329" data-name="Trazado 877329" d="M389.553,161.458a2.325,2.325,0,0,0,2.322,2.322h4.373a2.325,2.325,0,0,0,2.322-2.322v-4.373a2.325,2.325,0,0,0-2.322-2.322h-4.373a2.325,2.325,0,0,0-2.322,2.322Zm1.548-4.373a.775.775,0,0,1,.774-.774h4.373a.775.775,0,0,1,.774.774v4.373a.775.775,0,0,1-.774.774h-4.373a.775.775,0,0,1-.774-.774Z" transform="translate(-349.347 -128.457)" fill="#3a1d71"/>
      <path id="Trazado_877330" data-name="Trazado 877330" d="M389.553,267.107a2.325,2.325,0,0,0,2.322,2.322h4.373a2.325,2.325,0,0,0,2.322-2.322v-4.373a2.325,2.325,0,0,0-2.322-2.322h-4.373a2.325,2.325,0,0,0-2.322,2.322Zm1.548-4.373a.775.775,0,0,1,.774-.774h4.373a.775.775,0,0,1,.774.774v4.373a.775.775,0,0,1-.774.774h-4.373a.775.775,0,0,1-.774-.774Z" transform="translate(-349.347 -223.202)" fill="#3a1d71"/>
      <path id="Trazado_877331" data-name="Trazado 877331" d="M35.855,375.37h7.469a.774.774,0,0,0,0-1.548H35.855a.774.774,0,0,0,0,1.548Z" transform="translate(-31.46 -324.907)" fill="#3a1d71"/>
      <path id="Trazado_877332" data-name="Trazado 877332" d="M35.855,412.008h7.469a.774.774,0,1,0,0-1.548H35.855a.774.774,0,1,0,0,1.548Z" transform="translate(-31.46 -357.763)" fill="#3a1d71"/>
      <path id="Trazado_877333" data-name="Trazado 877333" d="M35.855,448.646h7.469a.774.774,0,0,0,0-1.548H35.855a.774.774,0,0,0,0,1.548Z" transform="translate(-31.46 -390.62)" fill="#3a1d71"/>
      <path id="Trazado_877334" data-name="Trazado 877334" d="M220.559,373.822H213.09a.774.774,0,0,0,0,1.548h7.469a.774.774,0,0,0,0-1.548Z" transform="translate(-190.403 -324.907)" fill="#3a1d71"/>
      <path id="Trazado_877335" data-name="Trazado 877335" d="M220.559,410.46H213.09a.774.774,0,1,0,0,1.548h7.469a.774.774,0,0,0,0-1.548Z" transform="translate(-190.403 -357.763)" fill="#3a1d71"/>
      <path id="Trazado_877336" data-name="Trazado 877336" d="M220.559,447.1H213.09a.774.774,0,0,0,0,1.548h7.469a.774.774,0,0,0,0-1.548Z" transform="translate(-190.403 -390.62)" fill="#3a1d71"/>
      <path id="Trazado_877337" data-name="Trazado 877337" d="M390.327,378.153H397.8a.774.774,0,0,0,0-1.548h-7.469a.774.774,0,1,0,0,1.548Z" transform="translate(-349.347 -327.402)" fill="#3a1d71"/>
      <path id="Trazado_877338" data-name="Trazado 877338" d="M390.327,414.791H397.8a.774.774,0,1,0,0-1.548h-7.469a.774.774,0,1,0,0,1.548Z" transform="translate(-349.347 -360.259)" fill="#3a1d71"/>
      <path id="Trazado_877339" data-name="Trazado 877339" d="M390.327,451.429H397.8a.774.774,0,0,0,0-1.548h-7.469a.774.774,0,1,0,0,1.548Z" transform="translate(-349.347 -393.115)" fill="#3a1d71"/>
    </g>
  </g>
</svg>
