<svg xmlns="http://www.w3.org/2000/svg" xmlns:xlink="http://www.w3.org/1999/xlink" width="103" height="103" viewBox="0 0 103 103">
  <defs>
    <filter id="Elipse_11591" x="0" y="0" width="103" height="103" filterUnits="userSpaceOnUse">
      <feOffset input="SourceAlpha"/>
      <feGaussianBlur stdDeviation="3" result="blur"/>
      <feFlood flood-opacity="0.161"/>
      <feComposite operator="in" in2="blur"/>
      <feComposite in="SourceGraphic"/>
    </filter>
    <linearGradient id="linear-gradient" x1="0.5" y1="1" x2="0.5" gradientUnits="objectBoundingBox">
      <stop offset="0" stop-color="#9f2fff"/>
      <stop offset="1" stop-color="#0bb1d3"/>
    </linearGradient>
  </defs>
  <g id="Grupo_1102063" data-name="Grupo 1102063" transform="translate(-591 -3994)">
    <g transform="matrix(1, 0, 0, 1, 591, 3994)" filter="url(#Elipse_11591)">
      <circle id="Elipse_11591-2" data-name="Elipse 11591" cx="42.5" cy="42.5" r="42.5" transform="translate(9 9)" fill="#00ffdf"/>
    </g>
    <path id="Trazado_877994" data-name="Trazado 877994" d="M23.149,5.839h2.044V13.9H23.581V8.1l-.942,1.413L21.3,8.618Zm.431,40.323A2.422,2.422,0,0,0,26,43.742v-.353a2.416,2.416,0,0,0-1.832-2.347l-1.394-.349V39.71H26V38.1H21.161v3.856l2.615.653a.807.807,0,0,1,.611.783v.353a.806.806,0,0,1-1.613,0v-.806H21.161v.806A2.422,2.422,0,0,0,23.581,46.161ZM26,28.419V26.806A1.6,1.6,0,0,0,25.776,26,1.6,1.6,0,0,0,26,25.194V23.581a1.615,1.615,0,0,0-1.613-1.613H22.774v1.613h1.613v1.613H22.774v1.613h1.613v1.613H22.774v1.613h1.613A1.615,1.615,0,0,0,26,28.419ZM51,5.032V14.71a2.422,2.422,0,0,1-2.419,2.419H38.9a2.422,2.422,0,0,1-2.419-2.419V10.677H31.645V14.71a2.422,2.422,0,0,1-2.419,2.419H19.548a2.422,2.422,0,0,1-2.419-2.419V10.677H12.29V25.194h4.839V21.161a2.422,2.422,0,0,1,2.419-2.419h9.677a2.422,2.422,0,0,1,2.419,2.419v4.032h4.839V21.161A2.422,2.422,0,0,1,38.9,18.742h9.677A2.422,2.422,0,0,1,51,21.161v9.677a2.422,2.422,0,0,1-2.419,2.419H38.9a2.422,2.422,0,0,1-2.419-2.419V26.806H31.645v4.032a2.422,2.422,0,0,1-2.419,2.419H19.548a2.422,2.422,0,0,1-2.419-2.419V26.806H12.29V41.323h4.839V37.29a2.422,2.422,0,0,1,2.419-2.419h9.677a2.422,2.422,0,0,1,2.419,2.419v4.032h4.839V37.29A2.422,2.422,0,0,1,38.9,34.871h9.677A2.422,2.422,0,0,1,51,37.29v9.677a2.422,2.422,0,0,1-2.419,2.419H38.9a2.422,2.422,0,0,1-2.419-2.419V42.935H31.645v4.032a2.422,2.422,0,0,1-2.419,2.419H19.548a2.422,2.422,0,0,1-2.419-2.419V42.935H12.29v1.038L8.563,49.938a2.262,2.262,0,0,1-3.835,0L1,43.973V6.645a5.645,5.645,0,0,1,11.29,0V9.065h4.839V5.032a2.422,2.422,0,0,1,2.419-2.419h9.677a2.422,2.422,0,0,1,2.419,2.419V9.065h4.839V5.032A2.422,2.422,0,0,1,38.9,2.613h9.677A2.422,2.422,0,0,1,51,5.032ZM38.1,46.968a.807.807,0,0,0,.806.806h9.677a.807.807,0,0,0,.806-.806V37.29a.807.807,0,0,0-.806-.806H38.9a.807.807,0,0,0-.806.806Zm-19.355,0a.807.807,0,0,0,.806.806h9.677a.807.807,0,0,0,.806-.806V37.29a.807.807,0,0,0-.806-.806H19.548a.807.807,0,0,0-.806.806ZM38.1,30.839a.807.807,0,0,0,.806.806h9.677a.807.807,0,0,0,.806-.806V21.161a.807.807,0,0,0-.806-.806H38.9a.807.807,0,0,0-.806.806Zm-19.355,0a.807.807,0,0,0,.806.806h9.677a.807.807,0,0,0,.806-.806V21.161a.807.807,0,0,0-.806-.806H19.548a.807.807,0,0,0-.806.806Zm-8.065,11.6V9.065H9.065V41.631ZM4.226,9.065H2.613V42.437l1.613-.806ZM5.839,41.8l.806.806.806-.806V9.065H5.839ZM2.613,6.645v.806h8.065V6.645a4.032,4.032,0,0,0-8.065,0ZM10.33,44.067,8.417,43.11,6.645,44.882,4.873,43.11l-1.913.956L6.1,49.082a.671.671,0,0,0,1.1,0Zm19.7-39.035a.807.807,0,0,0-.806-.806H19.548a.807.807,0,0,0-.806.806V14.71a.807.807,0,0,0,.806.806h9.677a.807.807,0,0,0,.806-.806Zm19.355,0a.807.807,0,0,0-.806-.806H38.9a.807.807,0,0,0-.806.806V14.71a.807.807,0,0,0,.806.806h9.677a.807.807,0,0,0,.806-.806Zm-5.645.806a2.422,2.422,0,0,0-2.419,2.419v.806h1.613V8.258a.806.806,0,1,1,1.613,0V8.4a.813.813,0,0,1-.236.57l-2.99,2.99V13.9h4.839V12.29H43.269l2.183-2.183a2.4,2.4,0,0,0,.709-1.71V8.258a2.422,2.422,0,0,0-2.419-2.419Zm.806,24.194h1.613V21.968H44.548v3.226H42.935V21.968H41.323v4.839h3.226Zm-3.226,13.71V40.516a2.419,2.419,0,0,1,4.839,0H44.548a.806.806,0,0,0-1.613,0v.955a2.392,2.392,0,0,1,.806-.148,2.419,2.419,0,1,1-2.419,2.419Zm1.613,0a.806.806,0,1,0,.806-.806A.807.807,0,0,0,42.935,43.742Z" transform="translate(617 4020)" fill="url(#linear-gradient)"/>
  </g>
</svg>
