<svg xmlns="http://www.w3.org/2000/svg" xmlns:xlink="http://www.w3.org/1999/xlink" width="103" height="103" viewBox="0 0 103 103">
  <defs>
    <filter id="Elipse_11593" x="0" y="0" width="103" height="103" filterUnits="userSpaceOnUse">
      <feOffset input="SourceAlpha"/>
      <feGaussianBlur stdDeviation="3" result="blur"/>
      <feFlood flood-opacity="0.161"/>
      <feComposite operator="in" in2="blur"/>
      <feComposite in="SourceGraphic"/>
    </filter>
    <linearGradient id="linear-gradient" x1="-5.371" y1="4.052" x2="5.497" y2="-2.469" gradientUnits="objectBoundingBox">
      <stop offset="0" stop-color="#0dafd4"/>
      <stop offset="1" stop-color="#9d31fe"/>
    </linearGradient>
    <linearGradient id="linear-gradient-2" x1="-0.021" y1="1.021" x2="0.997" y2="0.003" xlink:href="#linear-gradient"/>
    <linearGradient id="linear-gradient-3" x1="-7.896" y1="5.537" x2="2.973" y2="-0.984" xlink:href="#linear-gradient"/>
    <linearGradient id="linear-gradient-4" x1="-4.705" y1="3.652" x2="6.164" y2="-2.869" xlink:href="#linear-gradient"/>
    <linearGradient id="linear-gradient-5" x1="-2.229" y1="2.138" x2="8.639" y2="-4.384" xlink:href="#linear-gradient"/>
  </defs>
  <g id="Grupo_1102061" data-name="Grupo 1102061" transform="translate(-1221 -3994)">
    <g transform="matrix(1, 0, 0, 1, 1221, 3994)" filter="url(#Elipse_11593)">
      <circle id="Elipse_11593-2" data-name="Elipse 11593" cx="42.5" cy="42.5" r="42.5" transform="translate(9 9)" fill="#00ffdf"/>
    </g>
    <g id="Grupo_1102547" data-name="Grupo 1102547" transform="translate(1247.5 4020.502)">
      <path id="Trazado_877996" data-name="Trazado 877996" d="M17.125,12.688v2.344a.781.781,0,0,0,1.563,0V9.563A1.563,1.563,0,0,0,17.125,8H15.563A1.562,1.562,0,0,0,14,9.563v5.469a.781.781,0,0,0,1.563,0V12.688Zm0-3.125v1.563H15.563V9.563Z" transform="translate(-3.063 -1.752)" fill="url(#linear-gradient)"/>
      <path id="Trazado_877997" data-name="Trazado 877997" d="M48.438,22.654H40.625a1.562,1.562,0,0,0-1.562-1.562V20.027a10.156,10.156,0,1,0-4.687,0v1.064a1.563,1.563,0,0,0-1.562,1.563H17.188a1.563,1.563,0,0,0-1.562-1.562V20.027a10.156,10.156,0,1,0-4.687,0v1.064a1.563,1.563,0,0,0-1.562,1.563H1.563A1.563,1.563,0,0,0,0,24.216v1.563a1.563,1.563,0,0,0,1.563,1.563H9.375A1.563,1.563,0,0,0,10.938,28.9v1.064a10.156,10.156,0,1,0,4.687,0V28.9a1.563,1.563,0,0,0,1.563-1.562H32.813A1.563,1.563,0,0,0,34.375,28.9v1.064a10.156,10.156,0,1,0,4.687,0V28.9a1.563,1.563,0,0,0,1.563-1.562h7.813A1.563,1.563,0,0,0,50,25.779V24.216A1.562,1.562,0,0,0,48.438,22.654ZM31.25,10.154a5.469,5.469,0,1,1,5.469,5.469A5.469,5.469,0,0,1,31.25,10.154Zm-3.125,0a8.594,8.594,0,1,1,10.938,8.263V16.776a7.031,7.031,0,1,0-4.688,0v1.641a8.554,8.554,0,0,1-6.25-8.263Zm7.813,6.985a6.641,6.641,0,0,0,1.563,0v3.952H35.938ZM7.813,10.154a5.469,5.469,0,1,1,5.469,5.469,5.469,5.469,0,0,1-5.469-5.469Zm-3.125,0a8.594,8.594,0,1,1,10.937,8.263V16.776a7.031,7.031,0,1,0-4.687,0v1.641a8.554,8.554,0,0,1-6.25-8.263ZM12.5,17.139a6.641,6.641,0,0,0,1.563,0v3.952H12.5ZM1.563,25.779V24.216H9.375v1.563ZM18.75,39.841a5.469,5.469,0,1,1-5.469-5.469,5.469,5.469,0,0,1,5.469,5.469Zm3.125,0a8.594,8.594,0,1,1-10.937-8.263v1.641a7.031,7.031,0,1,0,4.687,0V31.578a8.554,8.554,0,0,1,6.25,8.263Zm-7.812-6.985a6.64,6.64,0,0,0-1.562,0V28.9h1.563Zm.781-5.515H10.938V22.654h4.688v4.688Zm2.344-1.562V24.216H32.813v1.563Zm25,14.062a5.469,5.469,0,1,1-5.469-5.469,5.469,5.469,0,0,1,5.469,5.469Zm3.125,0a8.594,8.594,0,1,1-10.937-8.263v1.641a7.031,7.031,0,1,0,4.688,0V31.578A8.554,8.554,0,0,1,45.313,39.841ZM37.5,32.856a6.64,6.64,0,0,0-1.562,0V28.9H37.5Zm.781-5.515H34.375V22.654h4.688v4.688Zm2.344-1.562V24.216h7.813v1.563Z" transform="translate(0 0)" fill="url(#linear-gradient-2)"/>
      <path id="Trazado_877998" data-name="Trazado 877998" d="M48.688,14.25a.781.781,0,0,0-1.562,0H45.563V9.563h1.563a.781.781,0,0,0,1.563,0A1.562,1.562,0,0,0,47.125,8H45.563A1.562,1.562,0,0,0,44,9.563V14.25a1.562,1.562,0,0,0,1.563,1.563h1.563A1.563,1.563,0,0,0,48.688,14.25Z" transform="translate(-9.625 -1.752)" fill="url(#linear-gradient-3)"/>
      <path id="Trazado_877999" data-name="Trazado 877999" d="M44,47.563v5.469a.781.781,0,0,0,1.563,0V50.688h1.563v2.344a.781.781,0,0,0,1.563,0V47.563A1.562,1.562,0,0,0,47.125,46H45.563A1.562,1.562,0,0,0,44,47.563Zm3.125,1.563H45.563V47.563h1.563Z" transform="translate(-9.625 -10.065)" fill="url(#linear-gradient-4)"/>
      <path id="Trazado_878000" data-name="Trazado 878000" d="M14,47.563V52.25a1.562,1.562,0,0,0,1.563,1.563h1.563a1.562,1.562,0,0,0,1.563-1.562.781.781,0,0,0-1.562,0H15.563V47.563h1.563a.781.781,0,0,0,1.563,0A1.563,1.563,0,0,0,17.125,46H15.563A1.562,1.562,0,0,0,14,47.563Z" transform="translate(-3.063 -10.065)" fill="url(#linear-gradient-5)"/>
    </g>
  </g>
</svg>
