<svg xmlns="http://www.w3.org/2000/svg" xmlns:xlink="http://www.w3.org/1999/xlink" width="119" height="119" viewBox="0 0 119 119">
  <defs>
    <filter id="Trazado_826199" x="0" y="0" width="119" height="119" filterUnits="userSpaceOnUse">
      <feOffset input="SourceAlpha"/>
      <feGaussianBlur stdDeviation="5.5" result="blur"/>
      <feFlood flood-color="#fff" flood-opacity="0.659"/>
      <feComposite operator="in" in2="blur"/>
      <feComposite in="SourceGraphic"/>
    </filter>
  </defs>
  <g id="Grupo_1098581" data-name="Grupo 1098581" transform="translate(-1108.5 -4340.5)">
    <g transform="matrix(1, 0, 0, 1, 1108.5, 4340.5)" filter="url(#Trazado_826199)">
      <path id="Trazado_826199-2" data-name="Trazado 826199" d="M43,0A43,43,0,1,1,0,43,43,43,0,0,1,43,0Z" transform="translate(16.5 16.5)" fill="#4df5df"/>
    </g>
    <g id="Grupo_1102082" data-name="Grupo 1102082" transform="translate(1142.776 4374.775)">
      <g id="Grupo_1102081" data-name="Grupo 1102081">
        <path id="Trazado_877257" data-name="Trazado 877257" d="M378.7,52.638h-.006a.988.988,0,1,0,.006,0Z" transform="translate(-340.491 -47.451)" fill="#3a1d71"/>
        <path id="Trazado_877258" data-name="Trazado 877258" d="M432.667,52.638h-.006a.988.988,0,1,0,.006,0Z" transform="translate(-389.145 -47.451)" fill="#3a1d71"/>
        <path id="Trazado_877259" data-name="Trazado 877259" d="M324.726,52.638h-.006a.988.988,0,1,0,.006,0Z" transform="translate(-291.839 -47.451)" fill="#3a1d71"/>
        <path id="Trazado_877260" data-name="Trazado 877260" d="M76.054,52.638H61.248a.985.985,0,0,0,0,1.971H76.054a.985.985,0,0,0,0-1.971Z" transform="translate(-54.325 -47.451)" fill="#3a1d71"/>
        <path id="Trazado_877261" data-name="Trazado 877261" d="M47.288,0H3.161A3.165,3.165,0,0,0,0,3.161V39.646a3.165,3.165,0,0,0,3.161,3.161H8.438v3.969a3.676,3.676,0,0,0,3.672,3.672H38.339a3.676,3.676,0,0,0,3.672-3.672V42.807h5.277a3.165,3.165,0,0,0,3.161-3.161V3.161A3.165,3.165,0,0,0,47.288,0Zm1.19,39.646a1.192,1.192,0,0,1-1.19,1.19H42.011V20.548a3.676,3.676,0,0,0-3.672-3.672H29.644a.985.985,0,1,0,0,1.971h8.695a1.7,1.7,0,0,1,1.7,1.7V46.777a1.7,1.7,0,0,1-1.7,1.7H12.11a1.7,1.7,0,0,1-1.7-1.7V20.548a1.7,1.7,0,0,1,1.7-1.7h8.683a.985.985,0,1,0,0-1.971H12.11a3.676,3.676,0,0,0-3.672,3.672V40.836H3.161a1.192,1.192,0,0,1-1.19-1.19v-27.3H48.478Zm0-29.27H1.971V3.161a1.192,1.192,0,0,1,1.19-1.19H47.288a1.192,1.192,0,0,1,1.19,1.19Z" fill="#3a1d71"/>
        <path id="Trazado_877262" data-name="Trazado 877262" d="M130.016,221.02a.985.985,0,0,0,.985-.985v-3.4h3.4a.985.985,0,0,0,0-1.971h-4.385a.985.985,0,0,0-.985.985v4.385A.985.985,0,0,0,130.016,221.02Z" transform="translate(-116.317 -193.513)" fill="#3a1d71"/>
        <path id="Trazado_877263" data-name="Trazado 877263" d="M319.423,216.635h3.4v3.4a.985.985,0,0,0,1.971,0v-4.385a.985.985,0,0,0-.985-.985h-4.388a.985.985,0,0,0,0,1.971Z" transform="translate(-287.061 -193.513)" fill="#3a1d71"/>
        <path id="Trazado_877264" data-name="Trazado 877264" d="M134.4,408.459H131v-3.4a.985.985,0,0,0-1.971,0v4.388a.985.985,0,0,0,.985.985H134.4a.985.985,0,0,0,0-1.971Z" transform="translate(-116.317 -364.257)" fill="#3a1d71"/>
        <path id="Trazado_877265" data-name="Trazado 877265" d="M323.811,404.071a.985.985,0,0,0-.985.985v3.4h-3.4a.985.985,0,1,0,0,1.971h4.388a.985.985,0,0,0,.985-.985v-4.388A.985.985,0,0,0,323.811,404.071Z" transform="translate(-287.061 -364.257)" fill="#3a1d71"/>
        <path id="Trazado_877266" data-name="Trazado 877266" d="M220.418,309.556a3.506,3.506,0,1,0,3.5-3.5A3.51,3.51,0,0,0,220.418,309.556Zm5.041,0a1.535,1.535,0,1,1-1.537-1.534A1.538,1.538,0,0,1,225.459,309.556Z" transform="translate(-198.7 -275.895)" fill="#3a1d71"/>
        <path id="Trazado_877267" data-name="Trazado 877267" d="M132.832,267.8c-1.753,1.209-3.8,3.168-3.8,4.707s2.048,3.5,3.8,4.708a14.748,14.748,0,0,0,17.418,0c1.754-1.209,3.8-3.168,3.8-4.709s-2.048-3.5-3.8-4.707a14.743,14.743,0,0,0-17.418,0ZM131,272.5a6.99,6.99,0,0,1,2.609-2.844,8.42,8.42,0,0,0,0,5.69A6.982,6.982,0,0,1,131,272.5Zm18.465-2.846a7,7,0,0,1,2.612,2.846,6.988,6.988,0,0,1-2.613,2.847,8.426,8.426,0,0,0,0-5.693Zm-1.476,2.846a6.461,6.461,0,0,1-2.114,4.776,12.055,12.055,0,0,1-8.674,0,6.445,6.445,0,0,1,0-9.556,12.047,12.047,0,0,1,8.666,0,6.45,6.45,0,0,1,2.117,4.777Z" transform="translate(-116.317 -238.843)" fill="#3a1d71"/>
        <path id="Trazado_877268" data-name="Trazado 877268" d="M246.943,173.237h0a.985.985,0,1,0-.988-.985.984.984,0,0,0,.988.985Z" transform="translate(-221.723 -154.391)" fill="#3a1d71"/>
      </g>
    </g>
  </g>
</svg>
