<svg xmlns="http://www.w3.org/2000/svg" width="73.259" height="73.259" viewBox="0 0 73.259 73.259">
  <g id="Grupo_1100425" data-name="Grupo 1100425" transform="translate(7936 8404)">
    <path id="Trazado_875880" data-name="Trazado 875880" d="M73.259,36.629A36.63,36.63,0,1,1,36.629,0a36.63,36.63,0,0,1,36.63,36.629" transform="translate(-7936 -8404)" fill="#d6e1fd"/>
    <path id="Trazado_875881" data-name="Trazado 875881" d="M9.6,11.888A36.627,36.627,0,0,0,61.35,63.635Z" transform="translate(-7936 -8404)" fill="#aec4fa"/>
    <path id="Trazado_875882" data-name="Trazado 875882" d="M66.417,36.629A29.787,29.787,0,1,1,36.63,6.842,29.788,29.788,0,0,1,66.417,36.629" transform="translate(-7936 -8404)" fill="#fff"/>
    <path id="Trazado_878004" data-name="Trazado 878004" d="M9.364-19.164c0,7.332-7.912,8.566-7.912,16.043V0H12.994V-3.63H5.444a2.747,2.747,0,0,1-.036-.544c0-4.174,7.949-7.15,7.949-15.135,0-4.065-2.033-6.388-5.953-6.388s-5.953,2.323-5.953,6.388v2.468H5.227v-2.722c0-1.815.8-2.5,2.069-2.5S9.364-21.451,9.364-19.164Z" transform="translate(-7906.371 -8354.72)" fill="#585f6b"/>
  </g>
</svg>
