<svg xmlns="http://www.w3.org/2000/svg" xmlns:xlink="http://www.w3.org/1999/xlink" width="103" height="103" viewBox="0 0 103 103">
  <defs>
    <filter id="Elipse_11592" x="0" y="0" width="103" height="103" filterUnits="userSpaceOnUse">
      <feOffset input="SourceAlpha"/>
      <feGaussianBlur stdDeviation="3" result="blur"/>
      <feFlood flood-opacity="0.161"/>
      <feComposite operator="in" in2="blur"/>
      <feComposite in="SourceGraphic"/>
    </filter>
    <linearGradient id="linear-gradient" x1="0.5" y1="1" x2="0.5" gradientUnits="objectBoundingBox">
      <stop offset="0" stop-color="#9f2fff"/>
      <stop offset="1" stop-color="#0bb1d3"/>
    </linearGradient>
  </defs>
  <g id="Grupo_1102062" data-name="Grupo 1102062" transform="translate(-906 -3994)">
    <g transform="matrix(1, 0, 0, 1, 906, 3994)" filter="url(#Elipse_11592)">
      <circle id="Elipse_11592-2" data-name="Elipse 11592" cx="42.5" cy="42.5" r="42.5" transform="translate(9 9)" fill="#00ffdf"/>
    </g>
    <path id="Trazado_877995" data-name="Trazado 877995" d="M46.731,41.893l-1.849,1.849,1.849,1.849-1.14,1.14-1.849-1.849-1.849,1.849-1.14-1.14L42.6,43.742l-1.849-1.849,1.14-1.14L43.742,42.6l1.849-1.849ZM51,43.742a7.257,7.257,0,0,1-14.469.806H31.645V33.258H28.419V26.806H21.161v9.677h4.032V51H15.516V36.484h4.032V26.806H12.29V42.319L8.534,49.832a2.112,2.112,0,0,1-3.777,0L1,42.319V5.032A4.037,4.037,0,0,1,5.032,1H8.258A4.037,4.037,0,0,1,12.29,5.032V25.194h7.258V15.516H15.516V1h9.677V15.516H21.161v9.677h7.258V18.742h3.226V9.065H39.71V4.226h8.835l1.012-1.3,1.273.991L49.387,5.769v9.747H39.71V10.677H33.258v8.065h3.226v6.452H39.71V20.355h8.835l1.012-1.3,1.273.991L49.387,21.9v9.747H39.71V26.806H36.484v6.452H33.258v9.677h3.273A7.257,7.257,0,0,1,51,43.742Zm-9.677-13.71h6.452v-6.06l-3.15,4.05-2.259-2.259,1.14-1.14.967.967,2.818-3.623H41.323Zm0-16.129h6.452V7.844l-3.15,4.05L42.365,9.635l1.14-1.14.967.967L47.29,5.839H41.323Zm-24.194,0h6.452V2.613H17.129ZM4.724,46.161H8.565l1.613-3.226H3.111Zm5.953-37.1H2.613v1.613h8.065ZM2.613,12.29V41.323H5.839V12.29Zm8.065,29.032V12.29H7.452V41.323ZM2.613,5.032V7.452h8.065V5.032A2.422,2.422,0,0,0,8.258,2.613H5.032A2.422,2.422,0,0,0,2.613,5.032ZM7.091,49.11l.668-1.336H5.531L6.2,49.111A.517.517,0,0,0,7.091,49.11ZM23.581,38.1H17.129v11.29h6.452Zm6.452-6.452h4.839V20.355H30.032Zm19.355,12.1a5.645,5.645,0,1,0-5.645,5.645A5.652,5.652,0,0,0,49.387,43.742ZM31.645,23.581h1.613V21.968H31.645Zm0,3.226h1.613V25.194H31.645Zm0,3.226h1.613V28.419H31.645Z" transform="translate(932 4020)" fill="url(#linear-gradient)"/>
  </g>
</svg>
