<svg xmlns="http://www.w3.org/2000/svg" width="73.259" height="73.259" viewBox="0 0 73.259 73.259">
  <g id="Grupo_1100429" data-name="Grupo 1100429" transform="translate(7936 8404)">
    <path id="Trazado_875880" data-name="Trazado 875880" d="M73.259,36.629A36.63,36.63,0,1,1,36.629,0a36.63,36.63,0,0,1,36.63,36.629" transform="translate(-7936 -8404)" fill="#d6e1fd"/>
    <path id="Trazado_875881" data-name="Trazado 875881" d="M9.6,11.888A36.627,36.627,0,0,0,61.35,63.635Z" transform="translate(-7936 -8404)" fill="#aec4fa"/>
    <path id="Trazado_875882" data-name="Trazado 875882" d="M66.417,36.629A29.787,29.787,0,1,1,36.63,6.842,29.788,29.788,0,0,1,66.417,36.629" transform="translate(-7936 -8404)" fill="#fff"/>
    <path id="Trazado_878008" data-name="Trazado 878008" d="M1.2-6.1C1.2-2.033,3.339.29,7.259.29S13.321-2.033,13.321-6.1v-4.646c0-3.738-1.488-5.807-4.428-5.807a3.8,3.8,0,0,0-3.7,2.25v-4.646c0-2.432.8-3.121,2.214-3.121,1.27,0,2.069.69,2.069,2.5v.907h3.775v-.653c0-4.065-2.033-6.388-5.953-6.388-4.138,0-6.1,2.323-6.1,6.606Zm6.061-6.824c1.27,0,2.069.69,2.069,2.5v4.573c0,1.815-.8,2.468-2.069,2.468S5.19-4.029,5.19-5.844v-4.573C5.19-12.232,5.989-12.921,7.259-12.921Z" transform="translate(-7906.371 -8354.72)" fill="#585f6b"/>
  </g>
</svg>
