<svg xmlns="http://www.w3.org/2000/svg" width="73.259" height="73.259" viewBox="0 0 73.259 73.259">
  <g id="Grupo_1100427" data-name="Grupo 1100427" transform="translate(7936 8404)">
    <path id="Trazado_875880" data-name="Trazado 875880" d="M73.259,36.629A36.63,36.63,0,1,1,36.629,0a36.63,36.63,0,0,1,36.63,36.629" transform="translate(-7936 -8404)" fill="#d6e1fd"/>
    <path id="Trazado_875881" data-name="Trazado 875881" d="M9.6,11.888A36.627,36.627,0,0,0,61.35,63.635Z" transform="translate(-7936 -8404)" fill="#aec4fa"/>
    <path id="Trazado_875882" data-name="Trazado 875882" d="M66.417,36.629A29.787,29.787,0,1,1,36.63,6.842,29.788,29.788,0,0,1,66.417,36.629" transform="translate(-7936 -8404)" fill="#fff"/>
    <path id="Trazado_878006" data-name="Trazado 878006" d="M.508-4.61H8.2V0h3.92V-4.61H14.01v-3.63H12.123V-25.407H7.767L.508-8.239Zm3.666-3.63L8.2-17.785v9.546Z" transform="translate(-7906.371 -8354.72)" fill="#585f6b"/>
  </g>
</svg>
