<svg xmlns="http://www.w3.org/2000/svg" width="100" height="100" viewBox="0 0 100 100">
  <g id="Grupo_1102254" data-name="Grupo 1102254" transform="translate(-315 -7125)">
    <circle id="Elipse_11618" data-name="Elipse 11618" cx="50" cy="50" r="50" transform="translate(315 7125)" fill="#0b47db"/>
    <g id="Grupo_1102301" data-name="Grupo 1102301" transform="translate(333.929 7110.612)">
      <g id="Grupo_1102250" data-name="Grupo 1102250" transform="translate(5.289 59.266)">
        <g id="Grupo_1102249" data-name="Grupo 1102249">
          <path id="Trazado_877597" data-name="Trazado 877597" d="M46.31,213.8H44.495a.911.911,0,1,0,0,1.822H46.31a.911.911,0,1,0,0-1.822Z" transform="translate(-43.584 -213.796)" fill="#fff"/>
        </g>
      </g>
      <g id="Grupo_1102252" data-name="Grupo 1102252" transform="translate(5.289 54.894)">
        <g id="Grupo_1102251" data-name="Grupo 1102251">
          <path id="Trazado_877598" data-name="Trazado 877598" d="M46.31,177.778H44.495a.911.911,0,0,0,0,1.822H46.31a.911.911,0,1,0,0-1.822Z" transform="translate(-43.584 -177.778)" fill="#fff"/>
        </g>
      </g>
      <g id="Grupo_1102254-2" data-name="Grupo 1102254" transform="translate(5.289 63.637)">
        <g id="Grupo_1102253" data-name="Grupo 1102253" transform="translate(0 0)">
          <path id="Trazado_877599" data-name="Trazado 877599" d="M46.31,249.814H44.495a.911.911,0,0,0,0,1.822H46.31a.911.911,0,1,0,0-1.822Z" transform="translate(-43.584 -249.814)" fill="#fff"/>
        </g>
      </g>
      <g id="Grupo_1102256" data-name="Grupo 1102256" transform="translate(5.289 68.009)">
        <g id="Grupo_1102255" data-name="Grupo 1102255">
          <path id="Trazado_877600" data-name="Trazado 877600" d="M46.31,285.832H44.495a.911.911,0,0,0,0,1.822H46.31a.911.911,0,1,0,0-1.822Z" transform="translate(-43.584 -285.832)" fill="#fff"/>
        </g>
      </g>
      <g id="Grupo_1102258" data-name="Grupo 1102258" transform="translate(5.289 72.38)">
        <g id="Grupo_1102257" data-name="Grupo 1102257" transform="translate(0 0)">
          <path id="Trazado_877601" data-name="Trazado 877601" d="M46.31,321.851H44.495a.911.911,0,0,0,0,1.822H46.31a.911.911,0,1,0,0-1.822Z" transform="translate(-43.584 -321.851)" fill="#fff"/>
        </g>
      </g>
      <g id="Grupo_1102260" data-name="Grupo 1102260" transform="translate(5.289 76.752)">
        <g id="Grupo_1102259" data-name="Grupo 1102259" transform="translate(0 0)">
          <path id="Trazado_877602" data-name="Trazado 877602" d="M46.31,357.869H44.495a.911.911,0,1,0,0,1.822H46.31a.911.911,0,1,0,0-1.822Z" transform="translate(-43.584 -357.869)" fill="#fff"/>
        </g>
      </g>
      <g id="Grupo_1102262" data-name="Grupo 1102262" transform="translate(5.289 81.124)">
        <g id="Grupo_1102261" data-name="Grupo 1102261">
          <path id="Trazado_877603" data-name="Trazado 877603" d="M46.31,393.887H44.495a.911.911,0,0,0,0,1.822H46.31a.911.911,0,1,0,0-1.822Z" transform="translate(-43.584 -393.887)" fill="#fff"/>
        </g>
      </g>
      <g id="Grupo_1102264" data-name="Grupo 1102264" transform="translate(20.978 74.788)">
        <g id="Grupo_1102263" data-name="Grupo 1102263">
          <path id="Trazado_877604" data-name="Trazado 877604" d="M176.644,346.448l-1.6-1.6,1.6-1.6a.911.911,0,0,0-1.288-1.288l-2.248,2.248a.911.911,0,0,0,0,1.288l2.248,2.248a.911.911,0,1,0,1.288-1.288Z" transform="translate(-172.841 -341.686)" fill="#fff"/>
        </g>
      </g>
      <g id="Grupo_1102266" data-name="Grupo 1102266" transform="translate(30.736 74.788)">
        <g id="Grupo_1102265" data-name="Grupo 1102265">
          <path id="Trazado_877605" data-name="Trazado 877605" d="M257.042,344.2l-2.248-2.247a.911.911,0,1,0-1.288,1.288l1.6,1.6-1.6,1.6a.911.911,0,0,0,1.288,1.288l2.248-2.248A.911.911,0,0,0,257.042,344.2Z" transform="translate(-253.239 -341.686)" fill="#fff"/>
        </g>
      </g>
      <g id="Grupo_1102268" data-name="Grupo 1102268" transform="translate(25.619 73.768)">
        <g id="Grupo_1102267" data-name="Grupo 1102267" transform="translate(0 0)">
          <path id="Trazado_877606" data-name="Trazado 877606" d="M214.833,333.339a.911.911,0,0,0-1.167.544l-2.524,6.936a.911.911,0,1,0,1.712.623l2.524-6.936A.911.911,0,0,0,214.833,333.339Z" transform="translate(-211.086 -333.284)" fill="#fff"/>
        </g>
      </g>
      <g id="Grupo_1102270" data-name="Grupo 1102270" transform="translate(5.289 42.735)">
        <g id="Grupo_1102269" data-name="Grupo 1102269" transform="translate(0 0)">
          <path id="Trazado_877607" data-name="Trazado 877607" d="M45.385,78.33a.949.949,0,0,0-.051-.17A.923.923,0,0,0,45.251,78a.91.91,0,0,0-1.4-.139.846.846,0,0,0-.114.139.832.832,0,0,0-.083.157.857.857,0,0,0-.052.17.892.892,0,0,0-.018.179.912.912,0,0,0,.911.911.9.9,0,0,0,.179-.018.836.836,0,0,0,.17-.052A.909.909,0,0,0,45,79.266a.891.891,0,0,0,.138-.113.9.9,0,0,0,.247-.822Z" transform="translate(-43.582 -77.598)" fill="#fff"/>
        </g>
      </g>
      <g id="Grupo_1102272" data-name="Grupo 1102272" transform="translate(8.376 42.735)">
        <g id="Grupo_1102271" data-name="Grupo 1102271">
          <path id="Trazado_877608" data-name="Trazado 877608" d="M70.57,77.866a.909.909,0,1,0,.267.644A.917.917,0,0,0,70.57,77.866Z" transform="translate(-69.014 -77.599)" fill="#fff"/>
        </g>
      </g>
      <g id="Grupo_1102274" data-name="Grupo 1102274" transform="translate(11.464 42.735)">
        <g id="Grupo_1102273" data-name="Grupo 1102273" transform="translate(0 0)">
          <path id="Trazado_877609" data-name="Trazado 877609" d="M96.259,78.328a.942.942,0,0,0-.052-.17A.923.923,0,0,0,96.124,78a.785.785,0,0,0-.113-.139.9.9,0,0,0-.3-.2,1.07,1.07,0,0,0-.171-.052.924.924,0,0,0-.356,0,1.024,1.024,0,0,0-.17.052.939.939,0,0,0-.158.084.975.975,0,0,0-.139.114.846.846,0,0,0-.113.139.9.9,0,0,0-.084.157.956.956,0,0,0-.052.17.99.99,0,0,0-.017.179.919.919,0,0,0,.266.644.874.874,0,0,0,.139.113.941.941,0,0,0,.328.136.908.908,0,0,0,.527-.052.9.9,0,0,0,.157-.084.879.879,0,0,0,.138-.113.9.9,0,0,0,.249-.822Z" transform="translate(-94.456 -77.595)" fill="#fff"/>
        </g>
      </g>
      <g id="Grupo_1102276" data-name="Grupo 1102276" transform="translate(15.256 42.735)">
        <g id="Grupo_1102275" data-name="Grupo 1102275" transform="translate(0 0)">
          <path id="Trazado_877610" data-name="Trazado 877610" d="M148.326,77.6H126.61a.911.911,0,1,0,0,1.822h21.716a.911.911,0,0,0,0-1.822Z" transform="translate(-125.699 -77.598)" fill="#fff"/>
        </g>
      </g>
      <g id="Grupo_1102278" data-name="Grupo 1102278" transform="translate(40.175 42.735)">
        <g id="Grupo_1102277" data-name="Grupo 1102277" transform="translate(0 0)">
          <path id="Trazado_877611" data-name="Trazado 877611" d="M335.644,77.6H331.92a.911.911,0,0,0,0,1.822h3.724a.911.911,0,0,0,0-1.822Z" transform="translate(-331.009 -77.598)" fill="#fff"/>
        </g>
      </g>
      <g id="Grupo_1102280" data-name="Grupo 1102280" transform="translate(39.396 61.572)">
        <g id="Grupo_1102279" data-name="Grupo 1102279">
          <path id="Trazado_877612" data-name="Trazado 877612" d="M337.449,232.8H325.5a.911.911,0,0,0,0,1.822h11.949a.911.911,0,0,0,0-1.822Z" transform="translate(-324.59 -232.799)" fill="#fff"/>
        </g>
      </g>
      <g id="Grupo_1102282" data-name="Grupo 1102282" transform="translate(42.789 57.2)">
        <g id="Grupo_1102281" data-name="Grupo 1102281" transform="translate(0 0)">
          <path id="Trazado_877613" data-name="Trazado 877613" d="M356.923,196.78h-3.461a.911.911,0,0,0,0,1.822h3.461a.911.911,0,0,0,0-1.822Z" transform="translate(-352.551 -196.78)" fill="#fff"/>
        </g>
      </g>
      <g id="Grupo_1102284" data-name="Grupo 1102284" transform="translate(49.741 57.2)">
        <g id="Grupo_1102283" data-name="Grupo 1102283" transform="translate(0 0)">
          <path id="Trazado_877614" data-name="Trazado 877614" d="M416.374,196.78h-5.633a.911.911,0,0,0,0,1.822h5.633a.911.911,0,0,0,0-1.822Z" transform="translate(-409.83 -196.78)" fill="#fff"/>
        </g>
      </g>
      <g id="Grupo_1102286" data-name="Grupo 1102286" transform="translate(27.367 57.2)">
        <g id="Grupo_1102285" data-name="Grupo 1102285" transform="translate(0 0)">
          <path id="Trazado_877615" data-name="Trazado 877615" d="M237.9,196.78H226.4a.911.911,0,0,0,0,1.822H237.9a.911.911,0,1,0,0-1.822Z" transform="translate(-225.487 -196.78)" fill="#fff"/>
        </g>
      </g>
      <g id="Grupo_1102288" data-name="Grupo 1102288" transform="translate(32.557 61.572)">
        <g id="Grupo_1102287" data-name="Grupo 1102287">
          <path id="Trazado_877616" data-name="Trazado 877616" d="M272.621,232.8H269.16a.911.911,0,1,0,0,1.822h3.461a.911.911,0,1,0,0-1.822Z" transform="translate(-268.249 -232.799)" fill="#fff"/>
        </g>
      </g>
      <g id="Grupo_1102290" data-name="Grupo 1102290" transform="translate(27.201 61.572)">
        <g id="Grupo_1102289" data-name="Grupo 1102289">
          <path id="Trazado_877617" data-name="Trazado 877617" d="M226.847,232.8h-1.815a.911.911,0,1,0,0,1.822h1.815a.911.911,0,1,0,0-1.822Z" transform="translate(-224.121 -232.799)" fill="#fff"/>
        </g>
      </g>
      <g id="Grupo_1102292" data-name="Grupo 1102292" transform="translate(20.856 61.572)">
        <g id="Grupo_1102291" data-name="Grupo 1102291">
          <path id="Trazado_877618" data-name="Trazado 877618" d="M174.566,232.8h-1.815a.911.911,0,1,0,0,1.822h1.815a.911.911,0,1,0,0-1.822Z" transform="translate(-171.84 -232.799)" fill="#fff"/>
        </g>
      </g>
      <g id="Grupo_1102294" data-name="Grupo 1102294" transform="translate(20.856 57.2)">
        <g id="Grupo_1102293" data-name="Grupo 1102293" transform="translate(0 0)">
          <path id="Trazado_877619" data-name="Trazado 877619" d="M174.566,196.78h-1.815a.911.911,0,1,0,0,1.822h1.815a.911.911,0,1,0,0-1.822Z" transform="translate(-171.84 -196.78)" fill="#fff"/>
        </g>
      </g>
      <g id="Grupo_1102296" data-name="Grupo 1102296" transform="translate(55.374 61.572)">
        <g id="Grupo_1102295" data-name="Grupo 1102295" transform="translate(0 0)">
          <path id="Trazado_877620" data-name="Trazado 877620" d="M458.043,233.531a.865.865,0,0,0-.052-.171.882.882,0,0,0-.084-.157.839.839,0,0,0-.113-.139.89.89,0,0,0-.139-.114.885.885,0,0,0-.328-.135.877.877,0,0,0-.356,0,.917.917,0,0,0-.17.051.988.988,0,0,0-.158.084.967.967,0,0,0-.138.114.92.92,0,0,0-.249.466.965.965,0,0,0-.017.177.989.989,0,0,0,.017.179.9.9,0,0,0,.052.17.921.921,0,0,0,.084.157.9.9,0,0,0,.113.139.949.949,0,0,0,.138.114.975.975,0,0,0,.158.084.914.914,0,0,0,.17.051.89.89,0,0,0,.179.018.878.878,0,0,0,.177-.018.956.956,0,0,0,.171-.051.981.981,0,0,0,.157-.084.907.907,0,0,0,.139-.114.781.781,0,0,0,.113-.139.928.928,0,0,0,.136-.327.881.881,0,0,0,0-.356Z" transform="translate(-456.239 -232.798)" fill="#fff"/>
        </g>
      </g>
      <g id="Grupo_1102298" data-name="Grupo 1102298" transform="translate(-0.001 37.919)">
        <g id="Grupo_1102297" data-name="Grupo 1102297" transform="translate(0 0)">
          <path id="Trazado_877621" data-name="Trazado 877621" d="M59.774,70.861H50.155V67.583h9.619a2.371,2.371,0,0,0,2.368-2.368V55.379a2.371,2.371,0,0,0-2.368-2.368H57.233a.911.911,0,0,0,0,1.822h2.541a.554.554,0,0,1,.546.546v9.835a.554.554,0,0,1-.546.546H17.624a.554.554,0,0,1-.546-.546V55.379a.554.554,0,0,1,.546-.546H52.983a.911.911,0,1,0,0-1.822H50.155V42.393a4.478,4.478,0,0,0-4.473-4.473c-43.826.006-41.175-.013-41.535.014a4.476,4.476,0,0,0-3.982,3.3c-.227.845-.154.911-.154,12.448a.911.911,0,0,0,1.822,0V49.371h46.5v3.64H17.624a2.371,2.371,0,0,0-2.368,2.368v9.835a2.371,2.371,0,0,0,2.368,2.368H48.333v3.279H17.624a2.371,2.371,0,0,0-2.368,2.368v9.836a2.371,2.371,0,0,0,2.368,2.368H48.333v.951a2.655,2.655,0,0,1-2.652,2.652H14.5a.911.911,0,0,0,0,1.822H45.681a4.478,4.478,0,0,0,4.473-4.473v-.951h9.619a2.371,2.371,0,0,0,2.368-2.368V73.229A2.371,2.371,0,0,0,59.774,70.861ZM1.832,47.55c0-5.335-.279-6.066.863-7.112a2.649,2.649,0,0,1,1.789-.7h41.2a2.655,2.655,0,0,1,2.652,2.652V47.55ZM60.321,83.064a.554.554,0,0,1-.546.546H17.624a.554.554,0,0,1-.546-.546V73.229a.554.554,0,0,1,.546-.546h42.15a.554.554,0,0,1,.546.546Z" transform="translate(0.001 -37.919)" fill="#fff"/>
        </g>
      </g>
      <g id="Grupo_1102300" data-name="Grupo 1102300" transform="translate(0.011 57.019)">
        <g id="Grupo_1102299" data-name="Grupo 1102299">
          <path id="Trazado_877622" data-name="Trazado 877622" d="M10.331,227.3H4.566a2.655,2.655,0,0,1-2.652-2.652V196.2a.911.911,0,1,0-1.822,0v28.454a4.478,4.478,0,0,0,4.473,4.473h5.765a.911.911,0,1,0,0-1.822Z" transform="translate(-0.093 -195.286)" fill="#fff"/>
        </g>
      </g>
    </g>
  </g>
</svg>
