<svg xmlns="http://www.w3.org/2000/svg" width="84" height="84" viewBox="0 0 84 84">
  <g id="Grupo_1100434" data-name="Grupo 1100434" transform="translate(-220.5 -1919.5)">
    <circle id="Elipse_11549" data-name="Elipse 11549" cx="40" cy="40" r="40" transform="translate(222.5 1921.5)" fill="#fff" stroke="#8722e2" stroke-width="4"/>
    <g id="Grupo_1100436" data-name="Grupo 1100436" transform="translate(232 1931)">
      <path id="Trazado_875883" data-name="Trazado 875883" d="M59.691,29.846a29.83,29.83,0,0,1-14.765,25.76c-.238.14-.479.277-.721.409a29.906,29.906,0,0,1-25.732,1.433q-.844-.347-1.662-.746A29.848,29.848,0,1,1,59.691,29.846Z" fill="#f2f2f2"/>
      <g id="Grupo_1100435" data-name="Grupo 1100435" transform="translate(14.506 0.537)">
        <path id="Trazado_875884" data-name="Trazado 875884" d="M218.331,4.605c.885,3.377.643,5.066-4.021,8.926s-5.388,3.94-5.388,6.353,3.578,6.232,5.307,7.318a13.492,13.492,0,0,0-.925-1.729c-.643-1.045-2.613-2.814-2.252-5.508s6.051-6.132,7.519-8.725A5.651,5.651,0,0,0,218.331,4.605Z" transform="translate(-199.072 -4.605)" fill="#de0a17"/>
        <path id="Trazado_875885" data-name="Trazado 875885" d="M265.522,77.717c-4.021,1.327-9.006,3.418-9.006,7.478s2.573,3.3,2.573,5.468a2.944,2.944,0,0,1-1.407,2.814s3.7-1.407,3.538-4.222-2.372-2.412-2.372-5.026C258.848,80.922,265.522,77.717,265.522,77.717Z" transform="translate(-241.116 -69.193)" fill="#de0a17"/>
        <path id="Trazado_875886" data-name="Trazado 875886" d="M160.194,201.181c-4.021,0-6.795,1.488-6.795,2.332s4.945,1.649,10.293,1.287,8.162-.8,10.293-2.091a35.755,35.755,0,0,1-6.674.885c-2.895,0-11.168.517-10.976-.724s4.986-1.689,4.986-1.689Z" transform="translate(-150.021 -178.263)" fill="#de0a17"/>
        <path id="Trazado_875887" data-name="Trazado 875887" d="M183,241.531c-2.131.764-2.694,1.528-1.447,2.332s3.7,1.045,7.076,1.045a41.843,41.843,0,0,0,8.082-1.166l-1.528-1.206a19.381,19.381,0,0,1-6.071.764C185.127,243.3,181.126,243.4,183,241.531Z" transform="translate(-174.311 -213.909)" fill="#de0a17"/>
        <path id="Trazado_875888" data-name="Trazado 875888" d="M193.185,280.5c-2.091.724-2.533,1.689-.684,2.573s5.388,1.045,8,.684a26.451,26.451,0,0,0,4.825-1.166,7.408,7.408,0,0,1-2.091-1.206,33.461,33.461,0,0,1-5.951.643C194.391,282.03,192.059,281.628,193.185,280.5Z" transform="translate(-183.535 -248.337)" fill="#de0a17"/>
        <path id="Trazado_875889" data-name="Trazado 875889" d="M330.65,197.829s1.005-1.367,3.538-.322,2.453,3.86.161,5.548a14.518,14.518,0,0,1-5.066,2.252s5.147-2.252,5.026-5.026S331.816,197.588,330.65,197.829Z" transform="translate(-305.4 -174.67)" fill="#de0a17"/>
        <path id="Trazado_875890" data-name="Trazado 875890" d="M129.091,308.54c7.921,1.447,19.983-.04,22.113-.562s1.351-1.657,1.351-1.657c.521.368.753.773.539,1.215-1.166,2.412-12.263,2.814-15.52,2.814s-13.148-.2-13.148-1.97c0-1.748,4.667-2.829,6.409-2.427C127.559,306.89,125.615,307.9,129.091,308.54Z" transform="translate(-124.427 -270.746)" fill="#de0a17"/>
        <path id="Trazado_875891" data-name="Trazado 875891" d="M172.194,332.2s2.8,2.141,16.766.9c5.579-.452,7.9-1.839,8.2-3.377a21.053,21.053,0,0,1-5.73,2.051C188.267,332.385,183.05,333.32,172.194,332.2Z" transform="translate(-166.625 -291.826)" fill="#de0a17"/>
        <path id="Trazado_875892" data-name="Trazado 875892" d="M147.2,377.49h-2.318c.051,1.945.1,3.655.1,5.431,0,1.353-.051,2.943-.051,4.533a5.055,5.055,0,0,1-.726,2.729q.817.4,1.662.746a5.644,5.644,0,0,0,1.28-3.829c-.034-1.286-.034-2.943-.034-4.178C147.115,381.076,147.149,379.283,147.2,377.49Z" transform="translate(-141.901 -334.017)" fill="#de0a17"/>
        <path id="Trazado_875893" data-name="Trazado 875893" d="M255.181,405l-1.4,4.161c-.253.761-.44,1.489-.609,2.216h-.152a11.586,11.586,0,0,0-.575-2.216l-.457-1.336c-.339-.947-.626-1.945-.88-2.909l-2.334.288,3.248,8.424,1.675-.169,1.978-5.125c.39-1,.9-2.183,1.37-3.232Z" transform="translate(-234.273 -358.248)" fill="#de0a17"/>
        <path id="Trazado_875894" data-name="Trazado 875894" d="M331.851,404.908a6.885,6.885,0,0,0-3.467,1l.372,1.319.135.084a4.391,4.391,0,0,1,2.4-1,1.425,1.425,0,0,1,1.506,1.49v.743c-3.7.559-4.618,1.709-4.618,3.045a2.045,2.045,0,0,0,2.115,2.165,4.024,4.024,0,0,0,2.471-1.167l.151.034a1.251,1.251,0,0,0,1.208,1.094c.242-.133.484-.269.721-.409v-5.76C334.847,405.772,333.781,404.908,331.851,404.908Zm.948,6.649a2.6,2.6,0,0,1-1.573.8,1.008,1.008,0,0,1-1.049-1.1c0-.778.524-1.353,2.621-1.658v1.962Z" transform="translate(-304.426 -358.239)" fill="#de0a17"/>
        <path id="Trazado_875895" data-name="Trazado 875895" d="M187.2,404.919a6.888,6.888,0,0,0-3.468,1l.373,1.319.135.085a4.381,4.381,0,0,1,2.4-1,1.425,1.425,0,0,1,1.506,1.489v.744c-3.7.559-4.618,1.709-4.618,3.045a2.045,2.045,0,0,0,2.115,2.165,4.021,4.021,0,0,0,2.469-1.167l.152.034a1.289,1.289,0,0,0,1.437,1.1,2.387,2.387,0,0,0,.491-.055v-6.12C190.191,405.781,189.125,404.919,187.2,404.919Zm.948,6.648a2.605,2.605,0,0,1-1.574.8,1.009,1.009,0,0,1-1.049-1.1c0-.778.525-1.353,2.623-1.658Z" transform="translate(-176.636 -358.248)" fill="#de0a17"/>
      </g>
    </g>
  </g>
</svg>
