<svg id="Grupo_1100347" data-name="Grupo 1100347" xmlns="http://www.w3.org/2000/svg" xmlns:xlink="http://www.w3.org/1999/xlink" width="295" height="231.125" viewBox="0 0 295 231.125">
  <defs>
    <clipPath id="clip-path">
      <rect id="Rectángulo_401872" data-name="Rectángulo 401872" width="295" height="231.125" fill="none"/>
    </clipPath>
    <clipPath id="clip-path-3">
      <rect id="Rectángulo_401844" data-name="Rectángulo 401844" width="2.513" height="145.864" fill="none"/>
    </clipPath>
    <clipPath id="clip-path-4">
      <rect id="Rectángulo_401845" data-name="Rectángulo 401845" width="80.843" height="80.845" fill="none"/>
    </clipPath>
    <clipPath id="clip-path-5">
      <rect id="Rectángulo_401846" data-name="Rectángulo 401846" width="24.154" height="19.078" fill="none"/>
    </clipPath>
    <clipPath id="clip-path-6">
      <rect id="Rectángulo_401849" data-name="Rectángulo 401849" width="11.439" height="8.864" fill="none"/>
    </clipPath>
    <clipPath id="clip-path-7">
      <rect id="Rectángulo_401850" data-name="Rectángulo 401850" width="6.121" height="7.504" fill="none"/>
    </clipPath>
    <clipPath id="clip-path-8">
      <rect id="Rectángulo_401853" data-name="Rectángulo 401853" width="11.119" height="8.864" fill="none"/>
    </clipPath>
    <clipPath id="clip-path-9">
      <rect id="Rectángulo_401854" data-name="Rectángulo 401854" width="5.94" height="7.324" fill="none"/>
    </clipPath>
    <clipPath id="clip-path-10">
      <rect id="Rectángulo_401855" data-name="Rectángulo 401855" width="82.93" height="82.93" fill="none"/>
    </clipPath>
    <clipPath id="clip-path-11">
      <rect id="Rectángulo_401856" data-name="Rectángulo 401856" width="24.779" height="7.011" fill="none"/>
    </clipPath>
    <clipPath id="clip-path-12">
      <rect id="Rectángulo_401858" data-name="Rectángulo 401858" width="11.734" height="9.092" fill="none"/>
    </clipPath>
    <clipPath id="clip-path-13">
      <rect id="Rectángulo_401859" data-name="Rectángulo 401859" width="6.279" height="7.696" fill="none"/>
    </clipPath>
    <clipPath id="clip-path-14">
      <rect id="Rectángulo_401861" data-name="Rectángulo 401861" width="11.406" height="9.092" fill="none"/>
    </clipPath>
    <clipPath id="clip-path-15">
      <rect id="Rectángulo_401862" data-name="Rectángulo 401862" width="6.095" height="7.513" fill="none"/>
    </clipPath>
    <clipPath id="clip-path-16">
      <rect id="Rectángulo_401863" data-name="Rectángulo 401863" width="75.831" height="75.832" fill="none"/>
    </clipPath>
    <clipPath id="clip-path-17">
      <rect id="Rectángulo_401864" data-name="Rectángulo 401864" width="22.658" height="6.411" fill="none"/>
    </clipPath>
    <clipPath id="clip-path-18">
      <rect id="Rectángulo_401866" data-name="Rectángulo 401866" width="10.731" height="8.314" fill="none"/>
    </clipPath>
    <clipPath id="clip-path-19">
      <rect id="Rectángulo_401867" data-name="Rectángulo 401867" width="5.741" height="7.039" fill="none"/>
    </clipPath>
    <clipPath id="clip-path-20">
      <rect id="Rectángulo_401869" data-name="Rectángulo 401869" width="10.429" height="8.314" fill="none"/>
    </clipPath>
    <clipPath id="clip-path-21">
      <rect id="Rectángulo_401870" data-name="Rectángulo 401870" width="5.572" height="6.871" fill="none"/>
    </clipPath>
  </defs>
  <g id="Grupo_1100406" data-name="Grupo 1100406" clip-path="url(#clip-path)">
    <rect id="Rectángulo_401812" data-name="Rectángulo 401812" width="264.862" height="151.447" transform="translate(30.137 43.403)" fill="#292426"/>
    <rect id="Rectángulo_401813" data-name="Rectángulo 401813" width="264.862" height="20.177" transform="translate(30.137 23.226)" fill="#453e41"/>
    <rect id="Rectángulo_401814" data-name="Rectángulo 401814" width="264.862" height="7.659" transform="translate(30.137 194.85)" fill="#453e41"/>
    <g id="Grupo_1100405" data-name="Grupo 1100405">
      <g id="Grupo_1100404" data-name="Grupo 1100404" clip-path="url(#clip-path)">
        <path id="Trazado_875739" data-name="Trazado 875739" d="M288.19,36.379a4.737,4.737,0,1,0-4.738,4.736,4.739,4.739,0,0,0,4.738-4.736" transform="translate(-26.985 -3.063)" fill="#681413"/>
        <path id="Trazado_875740" data-name="Trazado 875740" d="M302.406,36.379a4.737,4.737,0,1,0-4.737,4.736,4.738,4.738,0,0,0,4.737-4.736" transform="translate(-28.361 -3.063)" fill="#e2371a"/>
        <path id="Trazado_875741" data-name="Trazado 875741" d="M316.624,36.379a4.736,4.736,0,1,0-4.737,4.736,4.737,4.737,0,0,0,4.737-4.736" transform="translate(-29.738 -3.063)" fill="#8f9522"/>
        <path id="Trazado_875742" data-name="Trazado 875742" d="M209.348,36.379a4.737,4.737,0,0,1-4.738,4.736H51.717a4.738,4.738,0,1,1,0-9.475H204.609a4.738,4.738,0,0,1,4.738,4.739" transform="translate(-4.548 -3.063)" fill="#d2cfce"/>
        <rect id="Rectángulo_401815" data-name="Rectángulo 401815" width="13.437" height="6.439" transform="translate(184.096 64.587)" fill="#8f9522"/>
        <rect id="Rectángulo_401816" data-name="Rectángulo 401816" width="10.564" height="6.439" transform="translate(198.751 64.587)" fill="#8f9522"/>
        <rect id="Rectángulo_401817" data-name="Rectángulo 401817" width="23.764" height="6.439" transform="translate(210.941 64.587)" fill="#8f9522"/>
        <rect id="Rectángulo_401818" data-name="Rectángulo 401818" width="9.064" height="6.44" transform="translate(184.096 55.695)" fill="#e2371a"/>
        <rect id="Rectángulo_401819" data-name="Rectángulo 401819" width="5.884" height="6.439" transform="translate(198.826 74.783)" fill="#91d1e1"/>
        <rect id="Rectángulo_401820" data-name="Rectángulo 401820" width="60.947" height="6.439" transform="translate(206.607 74.783)" fill="#91d1e1"/>
        <rect id="Rectángulo_401821" data-name="Rectángulo 401821" width="13.652" height="6.439" transform="translate(269.585 74.782)" fill="#91d1e1"/>
        <rect id="Rectángulo_401822" data-name="Rectángulo 401822" width="50.631" height="6.44" transform="translate(210.964 84.976)" fill="#91d1e1"/>
        <rect id="Rectángulo_401823" data-name="Rectángulo 401823" width="12.46" height="6.44" transform="translate(263.22 84.976)" fill="#91d1e1"/>
        <rect id="Rectángulo_401824" data-name="Rectángulo 401824" width="3.176" height="6.439" transform="translate(198.826 95.172)" fill="#91d1e1"/>
        <rect id="Rectángulo_401825" data-name="Rectángulo 401825" width="74.491" height="6.439" transform="translate(204.44 95.172)" fill="#91d1e1"/>
        <rect id="Rectángulo_401826" data-name="Rectángulo 401826" width="2.545" height="6.439" transform="translate(280.693 95.172)" fill="#91d1e1"/>
        <rect id="Rectángulo_401827" data-name="Rectángulo 401827" width="7.613" height="6.439" transform="translate(184.096 105.366)" fill="#8f9522"/>
        <rect id="Rectángulo_401828" data-name="Rectángulo 401828" width="9.209" height="6.439" transform="translate(193.605 105.366)" fill="#8f9522"/>
        <rect id="Rectángulo_401829" data-name="Rectángulo 401829" width="3.878" height="6.439" transform="translate(205.523 105.367)" fill="#91d1e1"/>
        <path id="Trazado_875743" data-name="Trazado 875743" d="M272.343,127.95h-35.62v6.4h-2.438v-6.4H220.14v6.437h52.2Z" transform="translate(-21.314 -12.388)" fill="#91d1e1"/>
        <rect id="Rectángulo_401830" data-name="Rectángulo 401830" width="4.663" height="6.437" transform="translate(251.571 115.563)" fill="#91d1e1"/>
        <rect id="Rectángulo_401831" data-name="Rectángulo 401831" width="2.392" height="6.437" transform="translate(205.977 125.758)" fill="#91d1e1"/>
        <rect id="Rectángulo_401832" data-name="Rectángulo 401832" width="9.345" height="6.437" transform="translate(210.129 125.758)" fill="#91d1e1"/>
        <rect id="Rectángulo_401833" data-name="Rectángulo 401833" width="47.132" height="6.437" transform="translate(220.828 125.758)" fill="#91d1e1"/>
        <rect id="Rectángulo_401834" data-name="Rectángulo 401834" width="9.337" height="6.437" transform="translate(270.128 125.758)" fill="#91d1e1"/>
        <rect id="Rectángulo_401835" data-name="Rectángulo 401835" width="9.975" height="6.439" transform="translate(205.977 135.951)" fill="#91d1e1"/>
        <rect id="Rectángulo_401836" data-name="Rectángulo 401836" width="42.122" height="6.439" transform="translate(217.714 135.951)" fill="#91d1e1"/>
        <rect id="Rectángulo_401837" data-name="Rectángulo 401837" width="19.34" height="6.439" transform="translate(263.898 135.951)" fill="#91d1e1"/>
        <rect id="Rectángulo_401838" data-name="Rectángulo 401838" width="42.934" height="6.439" transform="translate(223.808 146.147)" fill="#91d1e1"/>
        <rect id="Rectángulo_401839" data-name="Rectángulo 401839" width="15.257" height="6.439" transform="translate(205.977 146.147)" fill="#91d1e1"/>
        <rect id="Rectángulo_401840" data-name="Rectángulo 401840" width="41.545" height="6.439" transform="translate(198.826 156.341)" fill="#91d1e1"/>
        <rect id="Rectángulo_401841" data-name="Rectángulo 401841" width="5.039" height="6.439" transform="translate(184.096 166.538)" fill="#8f9522"/>
        <rect id="Rectángulo_401842" data-name="Rectángulo 401842" width="70.491" height="6.439" transform="translate(191.03 166.538)" fill="#91d1e1"/>
        <rect id="Rectángulo_401843" data-name="Rectángulo 401843" width="9.064" height="6.439" transform="translate(184.096 176.733)" fill="#e2371a"/>
        <g id="Grupo_1100349" data-name="Grupo 1100349" transform="translate(168.811 45.85)" style="mix-blend-mode: multiply;isolation: isolate">
          <g id="Grupo_1100348" data-name="Grupo 1100348">
            <g id="Grupo_1100347-2" data-name="Grupo 1100347" clip-path="url(#clip-path-3)">
              <path id="Trazado_875744" data-name="Trazado 875744" d="M189.42,195.371a1.256,1.256,0,1,1-2.513,0V52.022a1.256,1.256,0,0,1,2.513,0Z" transform="translate(-186.907 -50.765)" fill="#bababa"/>
            </g>
          </g>
        </g>
        <path id="Trazado_875745" data-name="Trazado 875745" d="M176.192,130.618a44.048,44.048,0,1,0-44.048,44.049,44.049,44.049,0,0,0,44.048-44.049" transform="translate(-8.529 -8.381)" fill="#9dab05"/>
        <path id="Trazado_875746" data-name="Trazado 875746" d="M132.989,167.646a36.186,36.186,0,1,1,36.186-36.185,36.186,36.186,0,0,1-36.186,36.185" transform="translate(-9.372 -9.224)" fill="#c0bdc1"/>
        <g id="Grupo_1100352" data-name="Grupo 1100352" transform="translate(83.195 81.813)" style="mix-blend-mode: multiply;isolation: isolate">
          <g id="Grupo_1100351" data-name="Grupo 1100351">
            <g id="Grupo_1100350" data-name="Grupo 1100350" clip-path="url(#clip-path-4)">
              <path id="Trazado_875747" data-name="Trazado 875747" d="M132.535,94.82a36.186,36.186,0,1,1-36.188,36.187A36.187,36.187,0,0,1,132.535,94.82m0-4.237a40.423,40.423,0,1,0,40.422,40.424,40.468,40.468,0,0,0-40.422-40.424" transform="translate(-92.113 -90.583)" fill="#bababa"/>
            </g>
          </g>
        </g>
        <path id="Trazado_875748" data-name="Trazado 875748" d="M167.379,145.652a36.195,36.195,0,0,1-68.351,0c.592-9.712,1.416-18.676,2.584-20.373,4.041-5.9,14.322-5.466,20.442-5.683s11.148-.769,11.148-.769,5.032.547,11.153.769,16.4-.221,20.443,5.683c1.162,1.7,1.992,10.661,2.581,20.373" transform="translate(-9.588 -11.505)" fill="#3a1d71"/>
        <g id="Grupo_1100355" data-name="Grupo 1100355" transform="translate(111.483 107.324)" style="mix-blend-mode: multiply;isolation: isolate">
          <g id="Grupo_1100354" data-name="Grupo 1100354">
            <g id="Grupo_1100353" data-name="Grupo 1100353" clip-path="url(#clip-path-5)">
              <path id="Trazado_875749" data-name="Trazado 875749" d="M124.194,119.6c-.585.278-1.087.7-.494,1.6.917,1.388,11.811,16.7,11.811,16.7s12.138-16.056,12.076-16.941a2.4,2.4,0,0,0-.816-1.369l-.054,0c-6.123-.219-11.151-.766-11.151-.766s-5.028.547-11.15.766l-.222.008" transform="translate(-123.434 -118.829)" fill="#a3a3a3"/>
            </g>
          </g>
        </g>
        <path id="Trazado_875750" data-name="Trazado 875750" d="M142.86,109.9H129.088l-1.443,10.166a18.339,18.339,0,0,0,16.658,0Z" transform="translate(-12.358 -10.641)" fill="#d18569"/>
        <path id="Trazado_875751" data-name="Trazado 875751" d="M134.916,63.247c-12.315,0-18.2,11.021-18.2,20.006,0,14.933,5.935,21.395,7.379,22.657s6.066,4.56,10.821,4.56,9.38-3.3,10.822-4.56,7.379-7.724,7.379-22.657c0-8.986-5.886-20.006-18.2-20.006" transform="translate(-11.3 -6.123)" fill="#f8b69f"/>
        <path id="Trazado_875752" data-name="Trazado 875752" d="M118.017,89.374c-.847-2.409-2.315-3.271-3.77-2.409-1.57.928-.775,5.357.33,7.959s1.47,5.2,3.873,3.66-.433-9.21-.433-9.21" transform="translate(-10.976 -8.388)" fill="#f8b69f"/>
        <path id="Rectángulo_401847" data-name="Rectángulo 401847" d="M3.788,0h7.277a3.789,3.789,0,0,1,3.789,3.789V6.814A3.786,3.786,0,0,1,11.068,10.6H3.787A3.787,3.787,0,0,1,0,6.813V3.788A3.788,3.788,0,0,1,3.788,0Z" transform="translate(106.651 75.434)" fill="#91d1e1"/>
        <path id="Rectángulo_401848" data-name="Rectángulo 401848" d="M3.788,0h7.277a3.789,3.789,0,0,1,3.789,3.789V6.814A3.786,3.786,0,0,1,11.068,10.6H3.787A3.787,3.787,0,0,1,0,6.813V3.788A3.788,3.788,0,0,1,3.788,0Z" transform="translate(106.651 75.434)" fill="none" stroke="#292426" stroke-miterlimit="10" stroke-width="1"/>
        <path id="Trazado_875753" data-name="Trazado 875753" d="M129.425,84.3a2.553,2.553,0,0,1,2.551,2.553v3.757a2.553,2.553,0,0,1-2.551,2.552h-8.013a2.552,2.552,0,0,1-2.552-2.552V86.849a2.552,2.552,0,0,1,2.552-2.553Zm0-1.737h-8.013a4.294,4.294,0,0,0-4.289,4.29v3.757a4.294,4.294,0,0,0,4.289,4.289h8.013a4.294,4.294,0,0,0,4.288-4.289V86.849a4.294,4.294,0,0,0-4.288-4.29" transform="translate(-11.34 -7.993)" fill="#372724"/>
        <path id="Trazado_875754" data-name="Trazado 875754" d="M136.554,85.063h-2.1a.819.819,0,0,0-.819.819v1.2a.819.819,0,0,0,.819.819h2.1Z" transform="translate(-12.939 -8.236)" fill="#372724"/>
        <path id="Trazado_875755" data-name="Trazado 875755" d="M121.313,66.645A45.9,45.9,0,0,1,120,62.135c-.095-.35-.209-.692-.333-1.027-1.009.709-2.047,1.375-3.062,2.074a14.6,14.6,0,0,0-2.066,2.253c-.05.16-.107.32-.158.471-.247.709-.571,1.386-.761,2.115a21,21,0,0,0-.53,3,25.588,25.588,0,0,0,.052,6.426,8.608,8.608,0,0,0,.777,2.83c.471.872,1.343,1.642,1.415,2.682a.27.27,0,0,0,.078.173c.029.495.051.989.061,1.487a38.892,38.892,0,0,0,.891,8.57.238.238,0,0,0,.456,0c.464-1.395-.04-2.726-.175-4.128-.13-1.368-.226-2.752-.274-4.128.031-.735.1-1.469.183-2.2.447-2.67,1.213-8.955,5.695-8.955V69.372c-.287-.914-.6-1.824-.936-2.728" transform="translate(-10.932 -5.916)" fill="#1f1c25"/>
        <g id="Grupo_1100358" data-name="Grupo 1100358" transform="translate(108.245 76.303)" style="mix-blend-mode: soft-light;isolation: isolate">
          <g id="Grupo_1100357" data-name="Grupo 1100357">
            <g id="Grupo_1100356" data-name="Grupo 1100356" clip-path="url(#clip-path-6)">
              <path id="Trazado_875756" data-name="Trazado 875756" d="M131.288,85.048a2.539,2.539,0,0,0-1.6-.566h-3.6s-4.791,6.528-6.242,8.093a2.545,2.545,0,0,0,1.826.771h3.3s5.387-7.09,6.316-8.3" transform="translate(-119.849 -84.482)" fill="#fff"/>
            </g>
          </g>
        </g>
        <g id="Grupo_1100361" data-name="Grupo 1100361" transform="translate(114.516 77.663)" style="mix-blend-mode: soft-light;isolation: isolate">
          <g id="Grupo_1100360" data-name="Grupo 1100360">
            <g id="Grupo_1100359" data-name="Grupo 1100359" clip-path="url(#clip-path-7)">
              <path id="Trazado_875757" data-name="Trazado 875757" d="M132.42,89.035c.162-.264.326-.528.493-.787V87.182a2.53,2.53,0,0,0-.3-1.193c-.883,1.149-5.824,7.5-5.824,7.5h2.276s2.683-3.536,3.352-4.457" transform="translate(-126.792 -85.988)" fill="#fff"/>
            </g>
          </g>
        </g>
        <path id="Trazado_875758" data-name="Trazado 875758" d="M155.07,89.374c.846-2.409,2.313-3.271,3.769-2.409,1.57.928.776,5.357-.33,7.959s-1.47,5.2-3.872,3.66.433-9.21.433-9.21" transform="translate(-14.878 -8.388)" fill="#f8b69f"/>
        <path id="Rectángulo_401851" data-name="Rectángulo 401851" d="M3.787,0h7.278a3.789,3.789,0,0,1,3.789,3.789V6.814A3.786,3.786,0,0,1,11.068,10.6H3.787A3.787,3.787,0,0,1,0,6.813V3.787A3.787,3.787,0,0,1,3.787,0Z" transform="translate(125.726 75.434)" fill="#91d1e1"/>
        <path id="Rectángulo_401852" data-name="Rectángulo 401852" d="M3.787,0h7.278a3.789,3.789,0,0,1,3.789,3.789V6.814A3.786,3.786,0,0,1,11.068,10.6H3.787A3.787,3.787,0,0,1,0,6.813V3.787A3.787,3.787,0,0,1,3.787,0Z" transform="translate(125.726 75.434)" fill="none" stroke="#292426" stroke-miterlimit="10" stroke-width="1"/>
        <path id="Trazado_875759" data-name="Trazado 875759" d="M150.544,84.3a2.552,2.552,0,0,1,2.552,2.553v3.757a2.552,2.552,0,0,1-2.552,2.552H142.53a2.552,2.552,0,0,1-2.552-2.552V86.849A2.552,2.552,0,0,1,142.53,84.3Zm0-1.737H142.53a4.3,4.3,0,0,0-4.289,4.29v3.757A4.3,4.3,0,0,0,142.53,94.9h8.014a4.3,4.3,0,0,0,4.289-4.289V86.849a4.3,4.3,0,0,0-4.289-4.29" transform="translate(-13.384 -7.993)" fill="#372724"/>
        <g id="Grupo_1100364" data-name="Grupo 1100364" transform="translate(127.545 76.303)" style="mix-blend-mode: soft-light;isolation: isolate">
          <g id="Grupo_1100363" data-name="Grupo 1100363">
            <g id="Grupo_1100362" data-name="Grupo 1100362" clip-path="url(#clip-path-8)">
              <path id="Trazado_875760" data-name="Trazado 875760" d="M152.336,84.976a2.531,2.531,0,0,0-1.5-.494h-2.889c-.172.21-5.517,6.976-6.726,8.3a2.536,2.536,0,0,0,1.6.568h3.227c.051-.062,5.115-6.826,6.29-8.37" transform="translate(-141.217 -84.482)" fill="#fff"/>
            </g>
          </g>
        </g>
        <g id="Grupo_1100367" data-name="Grupo 1100367" transform="translate(133.772 77.843)" style="mix-blend-mode: soft-light;isolation: isolate">
          <g id="Grupo_1100366" data-name="Grupo 1100366">
            <g id="Grupo_1100365" data-name="Grupo 1100365" clip-path="url(#clip-path-9)">
              <path id="Trazado_875761" data-name="Trazado 875761" d="M154.052,88.857V87.2a2.555,2.555,0,0,0-.209-1.014c-1.116,1.634-4.954,6.488-5.726,7.317l-.005.007h2.726Z" transform="translate(-148.112 -86.187)" fill="#fff"/>
            </g>
          </g>
        </g>
        <path id="Trazado_875762" data-name="Trazado 875762" d="M136.867,85.063h2.1a.819.819,0,0,1,.819.819v1.2a.819.819,0,0,1-.819.819h-2.1Z" transform="translate(-13.251 -8.236)" fill="#372724"/>
        <path id="Trazado_875763" data-name="Trazado 875763" d="M151.42,66.645a46.151,46.151,0,0,0,1.313-4.51c.095-.35.209-.692.333-1.027,1.008.709,2.045,1.375,3.063,2.074a14.686,14.686,0,0,1,2.066,2.253c.051.16.107.32.159.471.246.709.571,1.386.76,2.115a21.512,21.512,0,0,1,.529,3,25.588,25.588,0,0,1-.051,6.426,8.653,8.653,0,0,1-.778,2.83c-.471.872-1.343,1.642-1.415,2.682a.266.266,0,0,1-.079.173c-.027.495-.051.989-.063,1.487a38.728,38.728,0,0,1-.889,8.57.239.239,0,0,1-.457,0c-.464-1.395.041-2.726.174-4.128.132-1.368.229-2.752.275-4.128-.03-.735-.1-1.469-.183-2.2a23.722,23.722,0,0,0-2.862-7.589c-1.212.306-1.031-2.351-2.833-2.351V69.372c.288-.914.6-1.824.937-2.728" transform="translate(-14.569 -5.916)" fill="#1f1c25"/>
        <path id="Trazado_875764" data-name="Trazado 875764" d="M117.976,85.063h-2.1a.819.819,0,0,0-.818.819v1.2a.818.818,0,0,0,.818.819h2.1Z" transform="translate(-11.14 -8.236)" fill="#372724"/>
        <path id="Trazado_875765" data-name="Trazado 875765" d="M155.446,85.063h2.1a.819.819,0,0,1,.819.819v1.2a.819.819,0,0,1-.819.819h-2.1Z" transform="translate(-15.05 -8.236)" fill="#372724"/>
        <path id="Trazado_875766" data-name="Trazado 875766" d="M148.943,49.212a6.475,6.475,0,0,1-.273,2.412,5.431,5.431,0,0,1-5.318,3.58c-.193.051-.388.1-.582.138-3.664.761-7.149-.843-10.524-2.052-3.87-1.388-7.793-2.013-11.377.445-.187.126-.358.272-.534.409a17.52,17.52,0,0,0-3.319,3.6,33.13,33.13,0,0,0-2.455,4.139,13.014,13.014,0,0,0,.574,5.251c.611,1.717,1.993,2.946,2.745,4.572a1.1,1.1,0,0,0-.089.192c-.068.2.251.336.343.145.468-.965,3.087.247,3.741.5,1.245.479,2.447,1.1,3.71,1.531a35.143,35.143,0,0,0,15.864,1.308,20.235,20.235,0,0,0,6.451-2.075,7.487,7.487,0,0,0,3.874-3.469,10.3,10.3,0,0,0,2.831-5.743c.865-5.313-1.357-11.583-5.662-14.882" transform="translate(-11.087 -4.765)" fill="#1f1c25"/>
        <path id="Trazado_875767" data-name="Trazado 875767" d="M128.984,158.038a1.146,1.146,0,0,1,.577.594,1,1,0,0,1-.018.872.9.9,0,0,1-.627.5,1.088,1.088,0,0,1-.839-.086l-8.831-4.711-.034-.036a1.1,1.1,0,0,1,0-1.535l8.866-4.747a1.136,1.136,0,0,1,.8-.121.935.935,0,0,1,.628.4,1.014,1.014,0,0,1,.141.82.959.959,0,0,1-.489.646l-7.608,3.77Z" transform="translate(-11.511 -14.401)" fill="#edeced"/>
        <path id="Trazado_875768" data-name="Trazado 875768" d="M150.909,154.409l-7.61-3.77a.956.956,0,0,1-.489-.646,1.028,1.028,0,0,1,.141-.82.937.937,0,0,1,.629-.4,1.135,1.135,0,0,1,.8.121l8.866,4.747a1.095,1.095,0,0,1,0,1.535l-.034.036-8.831,4.711a1.084,1.084,0,0,1-.837.086.9.9,0,0,1-.629-.5,1,1,0,0,1-.016-.873,1.138,1.138,0,0,1,.574-.594Z" transform="translate(-13.824 -14.401)" fill="#edeced"/>
        <path id="Trazado_875769" data-name="Trazado 875769" d="M138.459,142.966a1.067,1.067,0,0,1,.541-.63,1.024,1.024,0,0,1,.821-.07,1.242,1.242,0,0,1,.628.558.972.972,0,0,1,.069.8l-6.7,20.941a1.22,1.22,0,0,1-.558.63.972.972,0,0,1-.8.069,1.064,1.064,0,0,1-.663-.54.908.908,0,0,1-.033-.818Z" transform="translate(-12.749 -13.769)" fill="#edeced"/>
        <path id="Trazado_875770" data-name="Trazado 875770" d="M151.118,102.573c.179-.808.656-2.176.342-2.713-.018-.03-.236.749-.247.779-2.653,7.517-8.289,9.866-14.379,10.056a25.315,25.315,0,0,1-8.193-1.236c-2.658-.822-7.161-2.69-8.161-5.5l0,0c-.462-1.272-.906-2.55-1.391-3.786-.05-.127-.323-.341-.289-.2.866,3.532,1.518,7.265,3.351,10.462,2.2,3.832,7.971,6.17,13.112,6.17s10.653-3.069,12.444-5.894a26.752,26.752,0,0,0,3.412-8.136" transform="translate(-11.502 -9.668)" fill="#1f1c25"/>
        <path id="Trazado_875771" data-name="Trazado 875771" d="M90.37,201.03a45.185,45.185,0,1,0-45.185,45.183A45.185,45.185,0,0,0,90.37,201.03" transform="translate(0 -15.089)" fill="#9dab05"/>
        <path id="Trazado_875772" data-name="Trazado 875772" d="M46.051,239.014a37.12,37.12,0,1,1,37.119-37.12,37.121,37.121,0,0,1-37.119,37.12" transform="translate(-0.864 -15.953)" fill="#c0bdc1"/>
        <g id="Grupo_1100370" data-name="Grupo 1100370" transform="translate(3.72 144.476)" style="mix-blend-mode: multiply;isolation: isolate">
          <g id="Grupo_1100369" data-name="Grupo 1100369">
            <g id="Grupo_1100368" data-name="Grupo 1100368" clip-path="url(#clip-path-10)">
              <path id="Trazado_875773" data-name="Trazado 875773" d="M45.585,164.307A37.12,37.12,0,1,1,8.463,201.429a37.12,37.12,0,0,1,37.122-37.122m0-4.344A41.465,41.465,0,1,0,87.05,201.429a41.512,41.512,0,0,0-41.465-41.466" transform="translate(-4.119 -159.963)" fill="#bababa"/>
            </g>
          </g>
        </g>
        <path id="Trazado_875774" data-name="Trazado 875774" d="M81.329,216.452a37.129,37.129,0,0,1-70.116,0c.607-9.961,1.452-19.157,2.651-20.9,4.146-6.056,14.69-5.606,20.969-5.829s11.435-.788,11.435-.788,5.162.561,11.442.788,16.82-.227,20.969,5.829c1.194,1.741,2.045,10.938,2.65,20.9" transform="translate(-1.086 -18.293)" fill="#0b47db"/>
        <g id="Grupo_1100373" data-name="Grupo 1100373" transform="translate(32.74 170.645)" style="mix-blend-mode: multiply;isolation: isolate">
          <g id="Grupo_1100372" data-name="Grupo 1100372">
            <g id="Grupo_1100371" data-name="Grupo 1100371" clip-path="url(#clip-path-11)">
              <path id="Trazado_875775" data-name="Trazado 875775" d="M37.029,189.731c-.6.285-1.115.723-.506,1.643a8.267,8.267,0,0,0,4.02,2.966,23.551,23.551,0,0,0,9.345,1.591,19.04,19.04,0,0,0,9.4-2.808c.633-.4,1.8-1.087,1.737-2a2.442,2.442,0,0,0-.837-1.4l-.056,0c-6.28-.223-11.438-.785-11.438-.785s-5.157.562-11.438.785l-.228.008" transform="translate(-36.25 -188.938)" fill="#a3a3a3"/>
            </g>
          </g>
        </g>
        <path id="Trazado_875776" data-name="Trazado 875776" d="M56.178,179.783H42.048l-1.479,10.428a18.812,18.812,0,0,0,17.087,0Z" transform="translate(-3.928 -17.406)" fill="#d18569"/>
        <path id="Trazado_875777" data-name="Trazado 875777" d="M48.028,131.921c-12.634,0-18.671,11.306-18.671,20.523,0,15.318,6.089,21.946,7.57,23.242s6.222,4.678,11.1,4.678,9.622-3.385,11.1-4.678,7.569-7.924,7.569-23.242c0-9.217-6.037-20.523-18.671-20.523" transform="translate(-2.842 -12.772)" fill="#f8b69f"/>
        <path id="Trazado_875778" data-name="Trazado 875778" d="M30.692,158.722c-.869-2.473-2.374-3.357-3.867-2.473-1.61.953-.8,5.5.34,8.166s1.506,5.333,3.972,3.754-.445-9.446-.445-9.446" transform="translate(-2.51 -15.095)" fill="#f8b69f"/>
        <path id="Rectángulo_401857" data-name="Rectángulo 401857" d="M3.886,0h7.467a3.885,3.885,0,0,1,3.885,3.885v3.1a3.885,3.885,0,0,1-3.885,3.885H3.883A3.883,3.883,0,0,1,0,6.991V3.886A3.886,3.886,0,0,1,3.886,0Z" transform="translate(27.783 137.931)" fill="#91d1e1"/>
        <path id="Trazado_875779" data-name="Trazado 875779" d="M42.394,153.513a2.619,2.619,0,0,1,2.618,2.617v3.858a2.618,2.618,0,0,1-2.618,2.616H34.175a2.618,2.618,0,0,1-2.618-2.616V156.13a2.619,2.619,0,0,1,2.618-2.617Zm0-1.781H34.175a4.4,4.4,0,0,0-4.4,4.4v3.858a4.4,4.4,0,0,0,4.4,4.4h8.219a4.405,4.405,0,0,0,4.4-4.4V156.13a4.4,4.4,0,0,0-4.4-4.4" transform="translate(-2.883 -14.69)" fill="#292426"/>
        <path id="Trazado_875780" data-name="Trazado 875780" d="M49.708,154.3h-2.15a.839.839,0,0,0-.84.841v1.236a.837.837,0,0,0,.84.839h2.15Z" transform="translate(-4.523 -14.939)" fill="#292426"/>
        <path id="Trazado_875781" data-name="Trazado 875781" d="M34.074,135.405a46.751,46.751,0,0,1-1.348-4.626c-.1-.359-.212-.709-.34-1.053-1.034.729-2.1,1.41-3.141,2.127a14.8,14.8,0,0,0-2.12,2.313c-.051.164-.108.326-.163.483-.252.728-.585,1.423-.78,2.169a21.643,21.643,0,0,0-.544,3.08,26.269,26.269,0,0,0,.053,6.592,8.817,8.817,0,0,0,.8,2.9c.483.9,1.377,1.684,1.452,2.751a.277.277,0,0,0,.079.177c.028.507.052,1.015.064,1.525A39.834,39.834,0,0,0,29,162.637a.245.245,0,0,0,.469,0c.476-1.432-.041-2.8-.18-4.235-.135-1.4-.232-2.823-.282-4.235.031-.755.1-1.507.188-2.257.459-2.739,1.244-9.185,5.843-9.185v-4.52c-.294-.938-.611-1.871-.961-2.8" transform="translate(-2.465 -12.56)" fill="#681413"/>
        <g id="Grupo_1100376" data-name="Grupo 1100376" transform="translate(29.419 138.823)" style="mix-blend-mode: soft-light;isolation: isolate">
          <g id="Grupo_1100375" data-name="Grupo 1100375">
            <g id="Grupo_1100374" data-name="Grupo 1100374" clip-path="url(#clip-path-12)">
              <path id="Trazado_875782" data-name="Trazado 875782" d="M44.306,154.285a2.606,2.606,0,0,0-1.641-.581H38.976s-4.915,6.7-6.4,8.3a2.609,2.609,0,0,0,1.874.79h3.382s5.527-7.272,6.479-8.511" transform="translate(-32.572 -153.704)" fill="#fff"/>
            </g>
          </g>
        </g>
        <g id="Grupo_1100379" data-name="Grupo 1100379" transform="translate(35.851 140.218)" style="mix-blend-mode: soft-light;isolation: isolate">
          <g id="Grupo_1100378" data-name="Grupo 1100378">
            <g id="Grupo_1100377" data-name="Grupo 1100377" clip-path="url(#clip-path-13)">
              <path id="Trazado_875783" data-name="Trazado 875783" d="M45.467,158.374c.164-.27.334-.542.506-.807v-1.095a2.6,2.6,0,0,0-.305-1.223c-.906,1.18-5.975,7.7-5.975,7.7h2.336s2.75-3.626,3.438-4.572" transform="translate(-39.694 -155.249)" fill="#fff"/>
            </g>
          </g>
        </g>
        <path id="Trazado_875784" data-name="Trazado 875784" d="M68.7,158.722c.869-2.473,2.373-3.357,3.866-2.473,1.611.953.8,5.5-.339,8.166s-1.507,5.333-3.973,3.754.446-9.446.446-9.446" transform="translate(-6.512 -15.095)" fill="#f8b69f"/>
        <path id="Rectángulo_401860" data-name="Rectángulo 401860" d="M3.886,0h7.467a3.885,3.885,0,0,1,3.885,3.885v3.1a3.885,3.885,0,0,1-3.885,3.885H3.883A3.883,3.883,0,0,1,0,6.991V3.886A3.886,3.886,0,0,1,3.886,0Z" transform="translate(47.35 137.931)" fill="#91d1e1"/>
        <path id="Trazado_875785" data-name="Trazado 875785" d="M64.059,153.513a2.619,2.619,0,0,1,2.619,2.617v3.858a2.618,2.618,0,0,1-2.619,2.616H55.84a2.618,2.618,0,0,1-2.619-2.616V156.13a2.619,2.619,0,0,1,2.619-2.617Zm0-1.781H55.84a4.4,4.4,0,0,0-4.4,4.4v3.858a4.405,4.405,0,0,0,4.4,4.4h8.219a4.405,4.405,0,0,0,4.4-4.4V156.13a4.4,4.4,0,0,0-4.4-4.4" transform="translate(-4.98 -14.69)" fill="#292426"/>
        <g id="Grupo_1100382" data-name="Grupo 1100382" transform="translate(49.215 138.823)" style="mix-blend-mode: soft-light;isolation: isolate">
          <g id="Grupo_1100381" data-name="Grupo 1100381">
            <g id="Grupo_1100380" data-name="Grupo 1100380" clip-path="url(#clip-path-14)">
              <path id="Trazado_875786" data-name="Trazado 875786" d="M65.9,154.209a2.609,2.609,0,0,0-1.543-.5H61.39c-.176.215-5.658,7.156-6.9,8.51a2.608,2.608,0,0,0,1.645.582h3.309c.051-.062,5.247-7,6.451-8.587" transform="translate(-54.491 -153.704)" fill="#fff"/>
            </g>
          </g>
        </g>
        <g id="Grupo_1100385" data-name="Grupo 1100385" transform="translate(55.603 140.401)" style="mix-blend-mode: soft-light;isolation: isolate">
          <g id="Grupo_1100384" data-name="Grupo 1100384">
            <g id="Grupo_1100383" data-name="Grupo 1100383" clip-path="url(#clip-path-15)">
              <path id="Trazado_875787" data-name="Trazado 875787" d="M67.659,158.191v-1.7a2.636,2.636,0,0,0-.217-1.039c-1.143,1.676-5.081,6.656-5.873,7.506l-.005.006h2.8Z" transform="translate(-61.563 -155.452)" fill="#fff"/>
            </g>
          </g>
        </g>
        <path id="Trazado_875788" data-name="Trazado 875788" d="M50.029,154.3h2.15a.839.839,0,0,1,.84.841v1.236a.837.837,0,0,1-.84.839h-2.15Z" transform="translate(-4.844 -14.939)" fill="#292426"/>
        <path id="Trazado_875789" data-name="Trazado 875789" d="M64.958,135.405a47.242,47.242,0,0,0,1.347-4.626c.1-.359.213-.709.34-1.053,1.035.729,2.1,1.41,3.141,2.127a14.848,14.848,0,0,1,2.12,2.313c.051.164.107.326.163.483.252.728.585,1.423.78,2.169a21.771,21.771,0,0,1,.544,3.08,26.269,26.269,0,0,1-.053,6.592,8.84,8.84,0,0,1-.8,2.9c-.483.9-1.377,1.684-1.451,2.751a.283.283,0,0,1-.081.177c-.029.507-.052,1.015-.065,1.525a39.942,39.942,0,0,1-.911,8.791.245.245,0,0,1-.47,0c-.475-1.432.041-2.8.181-4.235.134-1.4.232-2.823.281-4.235-.031-.755-.1-1.507-.188-2.257a24.323,24.323,0,0,0-2.938-7.785c-1.24.314-1.055-2.411-2.9-2.411v-3.51c.3-.938.611-1.871.962-2.8" transform="translate(-6.196 -12.56)" fill="#681413"/>
        <path id="Trazado_875790" data-name="Trazado 875790" d="M65.5,130.219a6.028,6.028,0,0,0-1.356-3.232c-1.067-1.218-2.847-1.541-4.346-1.864a55.84,55.84,0,0,0-12.828-.753c-2.326.047-4.652.128-6.979.182-.308.007-.616.016-.922.019a3.955,3.955,0,0,1-2.106.613,5.339,5.339,0,0,1-3.924-1.871c-.432.967-1.058,3.021-2.191,1.925-1.009-.975-1.081-3.018-.93-4.314a.213.213,0,0,0,0-.08,11.925,11.925,0,0,0-1.264,1.574,11.212,11.212,0,0,0-1.78,4.906c-.107,1.341-2.036,6.594,3.647,12.127A14.148,14.148,0,0,0,41.732,143.1c1.251-.112,2.491-.326,3.745-.419,1.353-.1,9.164-1.161,11.749-1.388,1.508-.135,3.218.208,4.671-.3,1.28-.452,1.887-1.839,2.357-3a15.775,15.775,0,0,0,1.243-7.767" transform="translate(-2.562 -11.7)" fill="#681413"/>
        <path id="Trazado_875791" data-name="Trazado 875791" d="M30.65,154.3H28.5a.839.839,0,0,0-.84.841v1.236a.837.837,0,0,0,.84.839h2.15Z" transform="translate(-2.678 -14.939)" fill="#292426"/>
        <path id="Trazado_875792" data-name="Trazado 875792" d="M69.087,154.3h2.15a.84.84,0,0,1,.84.841v1.236a.838.838,0,0,1-.84.839h-2.15Z" transform="translate(-6.689 -14.939)" fill="#292426"/>
        <path id="Trazado_875793" data-name="Trazado 875793" d="M39.853,224.365a1.5,1.5,0,0,1,.745.767,1.3,1.3,0,0,1-.023,1.131,1.175,1.175,0,0,1-.812.654,1.423,1.423,0,0,1-1.084-.114L27.261,220.71l-.044-.046a1.415,1.415,0,0,1,0-1.985l11.462-6.137a1.48,1.48,0,0,1,1.039-.16,1.229,1.229,0,0,1,.812.521,1.316,1.316,0,0,1,.181,1.059,1.231,1.231,0,0,1-.632.834l-9.838,4.877Z" transform="translate(-2.596 -20.559)" fill="#edeced"/>
        <path id="Trazado_875794" data-name="Trazado 875794" d="M68.2,219.673,58.362,214.8a1.237,1.237,0,0,1-.632-.833,1.332,1.332,0,0,1,.182-1.06,1.229,1.229,0,0,1,.812-.52,1.477,1.477,0,0,1,1.038.159l11.464,6.137a1.419,1.419,0,0,1,0,1.986l-.044.045L59.761,226.8a1.42,1.42,0,0,1-1.083.113,1.173,1.173,0,0,1-.811-.654,1.3,1.3,0,0,1-.023-1.131,1.5,1.5,0,0,1,.744-.767Z" transform="translate(-5.585 -20.559)" fill="#edeced"/>
        <path id="Trazado_875795" data-name="Trazado 875795" d="M52.1,204.875a1.38,1.38,0,0,1,.7-.812,1.312,1.312,0,0,1,1.062-.091,1.6,1.6,0,0,1,.813.723,1.259,1.259,0,0,1,.089,1.039L46.1,232.814a1.6,1.6,0,0,1-.722.811,1.247,1.247,0,0,1-1.038.089,1.372,1.372,0,0,1-.859-.7,1.19,1.19,0,0,1-.044-1.06Z" transform="translate(-4.196 -19.741)" fill="#edeced"/>
        <path id="Trazado_875796" data-name="Trazado 875796" d="M86.916,73.184A41.317,41.317,0,1,0,45.6,114.5,41.317,41.317,0,0,0,86.916,73.184" transform="translate(-0.415 -3.085)" fill="#9dab05"/>
        <path id="Trazado_875797" data-name="Trazado 875797" d="M46.391,107.915A33.942,33.942,0,1,1,80.332,73.974a33.942,33.942,0,0,1-33.941,33.941" transform="translate(-1.205 -3.876)" fill="#c0bdc1"/>
        <g id="Grupo_1100388" data-name="Grupo 1100388" transform="translate(7.27 32.181)" style="mix-blend-mode: multiply;isolation: isolate">
          <g id="Grupo_1100387" data-name="Grupo 1100387">
            <g id="Grupo_1100386" data-name="Grupo 1100386" clip-path="url(#clip-path-16)">
              <path id="Trazado_875798" data-name="Trazado 875798" d="M45.966,39.605A33.942,33.942,0,1,1,12.022,73.548,33.943,33.943,0,0,1,45.966,39.605m0-3.973A37.916,37.916,0,1,0,83.881,73.548,37.959,37.959,0,0,0,45.966,35.632" transform="translate(-8.049 -35.631)" fill="#bababa"/>
            </g>
          </g>
        </g>
        <path id="Trazado_875799" data-name="Trazado 875799" d="M65.736,56.579c-.859-3.552-2.794-6.64-3.456-10.268-1.194-6.543-9.892-6.411-15-6.736a53,53,0,0,0-6.858.136,15.147,15.147,0,0,0-4.352.692c-.4.145-2.728.927-3.4,1.77a.254.254,0,0,0-.252.241,72.337,72.337,0,0,1-1.044,7.955c-.488,2.331-1.432,4.6-1.693,6.968-.428,3.882,3.135,6.42,6.559,7.018a54.768,54.768,0,0,0,6.268.323c2.875.168,5.737.415,8.617.481,3.731.088,7.963.433,11.466-1.081,3.129-1.353,3.887-4.452,3.15-7.5" transform="translate(-2.87 -3.825)" fill="#441e14"/>
        <path id="Trazado_875800" data-name="Trazado 875800" d="M78.648,87.284a33.949,33.949,0,0,1-64.112,0c.555-9.109,1.328-11.21,2.423-12.8C20.75,68.946,30.393,63.05,36.135,62.845s10.455-.72,10.455-.72,4.719.512,10.462.72,15.381,6.1,19.175,11.638c1.091,1.59,1.87,3.691,2.422,12.8" transform="translate(-1.407 -6.015)" fill="#a854f3"/>
        <g id="Grupo_1100391" data-name="Grupo 1100391" transform="translate(33.805 56.112)" style="mix-blend-mode: multiply;isolation: isolate">
          <g id="Grupo_1100390" data-name="Grupo 1100390">
            <g id="Grupo_1100389" data-name="Grupo 1100389" clip-path="url(#clip-path-17)">
              <path id="Trazado_875801" data-name="Trazado 875801" d="M38.141,62.851c-.546.262-1.019.661-.462,1.5a7.565,7.565,0,0,0,3.676,2.711A21.533,21.533,0,0,0,49.9,68.522,17.418,17.418,0,0,0,58.5,65.954c.577-.363,1.646-.993,1.589-1.824a2.247,2.247,0,0,0-.766-1.283h-.051c-5.742-.205-10.457-.718-10.457-.718s-4.717.513-10.46.718l-.21.006" transform="translate(-37.429 -62.127)" fill="#a3a3a3"/>
            </g>
          </g>
        </g>
        <path id="Trazado_875802" data-name="Trazado 875802" d="M55.651,53.754H42.732L41.379,63.29A17.184,17.184,0,0,0,57,63.29Z" transform="translate(-4.006 -5.204)" fill="#d18569"/>
        <path id="Trazado_875803" data-name="Trazado 875803" d="M48.2,9.99c-11.553,0-17.072,10.337-17.072,18.766,0,19.362,15.107,25.528,17.072,25.528s17.071-5.211,17.071-25.528c0-8.429-5.519-18.766-17.071-18.766" transform="translate(-3.014 -0.967)" fill="#f8b69f"/>
        <path id="Trazado_875804" data-name="Trazado 875804" d="M32.346,34.5c-.793-2.262-2.169-3.069-3.534-2.262-1.472.873-.728,5.026.311,7.467s1.376,4.879,3.632,3.433-.408-8.638-.408-8.638" transform="translate(-2.71 -3.091)" fill="#f8b69f"/>
        <path id="Rectángulo_401865" data-name="Rectángulo 401865" d="M3.553,0h6.826a3.554,3.554,0,0,1,3.554,3.554V6.39A3.553,3.553,0,0,1,10.38,9.943H3.553A3.553,3.553,0,0,1,0,6.39V3.553A3.553,3.553,0,0,1,3.553,0Z" transform="translate(29.272 26.199)" fill="#91d1e1"/>
        <path id="Trazado_875805" data-name="Trazado 875805" d="M43.048,29.735a2.4,2.4,0,0,1,2.394,2.4v3.523a2.4,2.4,0,0,1-2.394,2.4H35.533a2.4,2.4,0,0,1-2.394-2.4V32.131a2.4,2.4,0,0,1,2.394-2.4Zm0-1.628H35.533a4.028,4.028,0,0,0-4.024,4.024v3.523a4.028,4.028,0,0,0,4.024,4.024h7.515a4.028,4.028,0,0,0,4.024-4.024V32.131a4.028,4.028,0,0,0-4.024-4.024" transform="translate(-3.051 -2.721)" fill="#292426"/>
        <path id="Trazado_875806" data-name="Trazado 875806" d="M49.737,30.455H47.769a.768.768,0,0,0-.767.768v1.132a.768.768,0,0,0,.767.768h1.968Z" transform="translate(-4.551 -2.949)" fill="#292426"/>
        <path id="Trazado_875807" data-name="Trazado 875807" d="M35.44,13.176a42.655,42.655,0,0,1-1.231-4.228c-.089-.329-.2-.649-.312-.965-.947.666-1.919,1.291-2.874,1.945a13.66,13.66,0,0,0-1.937,2.114c-.048.15-.1.3-.148.442-.23.666-.536,1.3-.714,1.985a19.723,19.723,0,0,0-.5,2.814,24,24,0,0,0,.049,6.028,8.06,8.06,0,0,0,.729,2.654c.442.818,1.259,1.54,1.327,2.514a.253.253,0,0,0,.073.163c.025.463.048.927.06,1.395a36.329,36.329,0,0,0,.835,8.037.223.223,0,0,0,.428,0c.434-1.308-.037-2.556-.164-3.871-.123-1.284-.212-2.582-.257-3.874.027-.689.094-1.377.173-2.064.417-2.5,1.136-8.4,5.341-8.4V15.737c-.269-.858-.559-1.71-.879-2.561" transform="translate(-2.668 -0.773)" fill="#5f2214"/>
        <g id="Grupo_1100394" data-name="Grupo 1100394" transform="translate(30.768 27.013)" style="mix-blend-mode: soft-light;isolation: isolate">
          <g id="Grupo_1100393" data-name="Grupo 1100393">
            <g id="Grupo_1100392" data-name="Grupo 1100392" clip-path="url(#clip-path-18)">
              <path id="Trazado_875808" data-name="Trazado 875808" d="M44.8,30.44a2.391,2.391,0,0,0-1.5-.531H39.921s-4.493,6.124-5.855,7.59a2.382,2.382,0,0,0,1.714.724h3.092s5.053-6.65,5.925-7.784" transform="translate(-34.066 -29.909)" fill="#fff"/>
            </g>
          </g>
        </g>
        <g id="Grupo_1100397" data-name="Grupo 1100397" transform="translate(36.65 28.288)" style="mix-blend-mode: soft-light;isolation: isolate">
          <g id="Grupo_1100396" data-name="Grupo 1100396">
            <g id="Grupo_1100395" data-name="Grupo 1100395" clip-path="url(#clip-path-19)">
              <path id="Trazado_875809" data-name="Trazado 875809" d="M45.857,34.179c.151-.247.306-.495.462-.738v-1a2.411,2.411,0,0,0-.278-1.121c-.83,1.081-5.463,7.039-5.463,7.039h2.136s2.514-3.316,3.143-4.181" transform="translate(-40.579 -31.32)" fill="#fff"/>
            </g>
          </g>
        </g>
        <path id="Trazado_875810" data-name="Trazado 875810" d="M67.1,34.5c.794-2.262,2.172-3.069,3.534-2.262,1.475.873.729,5.026-.307,7.467s-1.379,4.879-3.634,3.433S67.1,34.5,67.1,34.5" transform="translate(-6.37 -3.091)" fill="#f8b69f"/>
        <path id="Rectángulo_401868" data-name="Rectángulo 401868" d="M3.554,0h6.825a3.554,3.554,0,0,1,3.554,3.554V6.39A3.553,3.553,0,0,1,10.38,9.943H3.553A3.553,3.553,0,0,1,0,6.39V3.554A3.554,3.554,0,0,1,3.554,0Z" transform="translate(47.164 26.199)" fill="#91d1e1"/>
        <path id="Trazado_875811" data-name="Trazado 875811" d="M62.857,29.735a2.4,2.4,0,0,1,2.393,2.4v3.523a2.4,2.4,0,0,1-2.393,2.4H55.343a2.4,2.4,0,0,1-2.4-2.4V32.131a2.4,2.4,0,0,1,2.4-2.4Zm0-1.628H55.343a4.028,4.028,0,0,0-4.024,4.024v3.523a4.028,4.028,0,0,0,4.024,4.024h7.514a4.028,4.028,0,0,0,4.024-4.024V32.131a4.028,4.028,0,0,0-4.024-4.024" transform="translate(-4.969 -2.721)" fill="#292426"/>
        <g id="Grupo_1100400" data-name="Grupo 1100400" transform="translate(48.87 27.013)" style="mix-blend-mode: soft-light;isolation: isolate">
          <g id="Grupo_1100399" data-name="Grupo 1100399">
            <g id="Grupo_1100398" data-name="Grupo 1100398" clip-path="url(#clip-path-20)">
              <path id="Trazado_875812" data-name="Trazado 875812" d="M64.538,30.371a2.389,2.389,0,0,0-1.41-.462h-2.71c-.162.2-5.174,6.544-6.309,7.782a2.384,2.384,0,0,0,1.5.533h3.026c.047-.058,4.8-6.4,5.9-7.852" transform="translate(-54.108 -29.909)" fill="#fff"/>
            </g>
          </g>
        </g>
        <g id="Grupo_1100403" data-name="Grupo 1100403" transform="translate(54.711 28.456)" style="mix-blend-mode: soft-light;isolation: isolate">
          <g id="Grupo_1100402" data-name="Grupo 1100402">
            <g id="Grupo_1100401" data-name="Grupo 1100401" clip-path="url(#clip-path-21)">
              <path id="Trazado_875813" data-name="Trazado 875813" d="M66.148,34.012V32.459a2.375,2.375,0,0,0-.2-.952c-1.045,1.534-4.645,6.087-5.369,6.864l-.006.006h2.558Z" transform="translate(-60.576 -31.506)" fill="#fff"/>
            </g>
          </g>
        </g>
        <path id="Trazado_875814" data-name="Trazado 875814" d="M50.03,30.455H52a.767.767,0,0,1,.767.768v1.132a.767.767,0,0,1-.767.768H50.03Z" transform="translate(-4.844 -2.949)" fill="#292426"/>
        <path id="Trazado_875815" data-name="Trazado 875815" d="M63.68,13.176a43.15,43.15,0,0,0,1.231-4.228c.088-.329.2-.649.313-.965.945.666,1.919,1.291,2.871,1.945a13.716,13.716,0,0,1,1.939,2.114c.046.15.1.3.147.442.231.666.536,1.3.714,1.985a19.978,19.978,0,0,1,.5,2.814,23.915,23.915,0,0,1-.05,6.028,8.08,8.08,0,0,1-.727,2.654c-.442.818-1.26,1.54-1.328,2.514a.25.25,0,0,1-.075.163c-.024.463-.047.927-.057,1.395a36.384,36.384,0,0,1-.835,8.037.224.224,0,0,1-.429,0c-.434-1.308.039-2.556.166-3.871.123-1.284.21-2.582.257-3.874-.029-.689-.094-1.377-.172-2.064a22.22,22.22,0,0,0-2.688-7.118c-1.133.287-.964-2.2-2.655-2.2v-3.21c.271-.858.56-1.71.881-2.561" transform="translate(-6.08 -0.773)" fill="#5f2214"/>
        <path id="Trazado_875816" data-name="Trazado 875816" d="M32.309,30.455H30.344a.768.768,0,0,0-.769.768v1.132a.768.768,0,0,0,.769.768h1.965Z" transform="translate(-2.863 -2.949)" fill="#292426"/>
        <path id="Trazado_875817" data-name="Trazado 875817" d="M67.455,30.455h1.967a.768.768,0,0,1,.769.768v1.132a.768.768,0,0,1-.769.768H67.455Z" transform="translate(-6.531 -2.949)" fill="#292426"/>
        <path id="Trazado_875818" data-name="Trazado 875818" d="M60.056,3.926c-3.979-3.71-11.1-4.034-16.23-3.9C38.16.166,32.233,2.26,30.323,8.1c-1.375,4.2-.488,10.9,4.87,11.423a.407.407,0,0,0,.334-.111,21.823,21.823,0,0,0,10.678.265,9.2,9.2,0,0,0,2.581-1.189c.253-.159-.286,2.067-.38,2.37-.686,2.265-4.267,5.427-4.094,5.437,3.613.187,4.976-2.919,6.544-5.621.182-.311.378-.608.583-.9.32-.463.49-1.015.66-.422a11.116,11.116,0,0,1,.272,3.167c-.028,2.284-2.159,7.259-1.953,7.136a11.862,11.862,0,0,0,4.824-6.435c.139-.37,1.3-4,.965-4,.176,0,3.563,4.526,3.571,4.253a26.75,26.75,0,0,1,.53-6.065c.559-2.105,1.879-3.912,2.372-6.061a8.131,8.131,0,0,0-2.625-7.418" transform="translate(-2.88 0)" fill="#5f2214"/>
        <path id="Trazado_875819" data-name="Trazado 875819" d="M40.724,94.521a1.359,1.359,0,0,1,.681.7,1.188,1.188,0,0,1-.021,1.032,1.073,1.073,0,0,1-.743.6,1.283,1.283,0,0,1-.989-.1L29.21,91.178l-.041-.042a1.292,1.292,0,0,1,0-1.814l10.483-5.613a1.345,1.345,0,0,1,.947-.145,1.115,1.115,0,0,1,.743.475,1.211,1.211,0,0,1,.166.968,1.13,1.13,0,0,1-.578.763l-9,4.458Z" transform="translate(-2.788 -8.088)" fill="#edeced"/>
        <path id="Trazado_875820" data-name="Trazado 875820" d="M66.644,90.228l-9-4.458a1.123,1.123,0,0,1-.578-.762,1.216,1.216,0,0,1,.164-.969,1.126,1.126,0,0,1,.743-.475,1.357,1.357,0,0,1,.95.145l10.481,5.613a1.292,1.292,0,0,1,0,1.814l-.04.042L58.928,96.75a1.3,1.3,0,0,1-.992.1,1.07,1.07,0,0,1-.742-.6,1.193,1.193,0,0,1-.022-1.033,1.362,1.362,0,0,1,.681-.7Z" transform="translate(-5.522 -8.088)" fill="#edeced"/>
        <path id="Trazado_875821" data-name="Trazado 875821" d="M51.926,76.7a1.258,1.258,0,0,1,.64-.742,1.2,1.2,0,0,1,.97-.083,1.465,1.465,0,0,1,.742.66,1.147,1.147,0,0,1,.082.95l-7.925,24.761a1.449,1.449,0,0,1-.659.742,1.145,1.145,0,0,1-.949.081,1.25,1.25,0,0,1-.783-.638A1.093,1.093,0,0,1,44,101.46Z" transform="translate(-4.251 -7.34)" fill="#edeced"/>
      </g>
    </g>
  </g>
</svg>
