<svg xmlns="http://www.w3.org/2000/svg" width="270.5" height="559" viewBox="0 0 270.5 559">
  <g id="Grupo_1102545" data-name="Grupo 1102545" transform="translate(1476.5 7133)">
    <g id="Grupo_1102538" data-name="Grupo 1102538" transform="translate(-2311 -11205)">
      <rect id="Rectángulo_403053" data-name="Rectángulo 403053" width="229" height="122" rx="10" transform="translate(876 4337)" fill="#f7eefe"/>
      <path id="Rectángulo_403054" data-name="Rectángulo 403054" d="M10,0H219a10,10,0,0,1,10,10V40a0,0,0,0,1,0,0H0a0,0,0,0,1,0,0V10A10,10,0,0,1,10,0Z" transform="translate(876 4337)" fill="#debefb"/>
      <path id="Trazado_878006" data-name="Trazado 878006" d="M7.859,10.055h-4.5v3.063H8.641V15H1.016V3.625H8.625v1.9H3.359V8.234h4.5Zm4.125-3.508.07.945a2.971,2.971,0,0,1,2.43-1.1A2.255,2.255,0,0,1,16.727,7.68a2.9,2.9,0,0,1,2.539-1.289,2.521,2.521,0,0,1,2.047.8,3.681,3.681,0,0,1,.672,2.41V15H19.719V9.6a1.616,1.616,0,0,0-.281-1.053,1.245,1.245,0,0,0-.992-.333,1.409,1.409,0,0,0-1.406.971L17.047,15H14.789V9.6A1.6,1.6,0,0,0,14.5,8.54a1.257,1.257,0,0,0-.984-.329,1.463,1.463,0,0,0-1.391.8V15H9.867V6.547Zm19.344,4.3a5.07,5.07,0,0,1-.887,3.129,2.843,2.843,0,0,1-2.395,1.176,2.633,2.633,0,0,1-2.07-.891V18.25H23.719V6.547h2.094l.078.828a2.654,2.654,0,0,1,2.141-.984,2.862,2.862,0,0,1,2.43,1.156,5.207,5.207,0,0,1,.867,3.188Zm-2.258-.172a3.345,3.345,0,0,0-.418-1.826,1.36,1.36,0,0,0-1.215-.643,1.478,1.478,0,0,0-1.461.815V12.5a1.5,1.5,0,0,0,1.477.839Q29.07,13.336,29.07,10.679ZM35.109,15H32.844V3h2.266Zm5.75.156a4.15,4.15,0,0,1-3.027-1.141,4.054,4.054,0,0,1-1.168-3.039v-.219a5.106,5.106,0,0,1,.492-2.277,3.612,3.612,0,0,1,1.395-1.547,3.914,3.914,0,0,1,2.059-.543,3.508,3.508,0,0,1,2.73,1.094,4.444,4.444,0,0,1,1,3.1v.922H38.953a2.1,2.1,0,0,0,.66,1.328,2,2,0,0,0,1.395.5,2.437,2.437,0,0,0,2.039-.945l1.109,1.242a3.389,3.389,0,0,1-1.375,1.121A4.511,4.511,0,0,1,40.859,15.156ZM40.6,8.211a1.411,1.411,0,0,0-1.09.455,2.357,2.357,0,0,0-.535,1.3h3.141V9.788a1.681,1.681,0,0,0-.406-1.165A1.456,1.456,0,0,0,40.6,8.211ZM50.516,15a2.507,2.507,0,0,1-.227-.758,2.732,2.732,0,0,1-2.133.914,3,3,0,0,1-2.059-.719,2.312,2.312,0,0,1-.816-1.812,2.389,2.389,0,0,1,1-2.062,4.915,4.915,0,0,1,2.879-.727H50.2V9.352a1.393,1.393,0,0,0-.3-.937,1.183,1.183,0,0,0-.949-.352,1.345,1.345,0,0,0-.895.273.929.929,0,0,0-.324.75H45.469a2.268,2.268,0,0,1,.453-1.359,3,3,0,0,1,1.281-.98,4.669,4.669,0,0,1,1.859-.355,3.689,3.689,0,0,1,2.48.785,2.747,2.747,0,0,1,.918,2.207v3.664a4.041,4.041,0,0,0,.336,1.82V15Zm-1.867-1.57a1.945,1.945,0,0,0,.922-.223,1.462,1.462,0,0,0,.625-.6V11.156h-.844q-1.7,0-1.8,1.172l-.008.133a.9.9,0,0,0,.3.7A1.153,1.153,0,0,0,48.648,13.43Zm5.2-2.719a5.094,5.094,0,0,1,.887-3.148,2.877,2.877,0,0,1,2.426-1.172,2.589,2.589,0,0,1,2.039.922V3h2.266V15H59.422l-.109-.9a2.657,2.657,0,0,1-2.172,1.055,2.869,2.869,0,0,1-2.395-1.176A5.258,5.258,0,0,1,53.844,10.711Zm2.258.161a3.355,3.355,0,0,0,.414,1.829,1.348,1.348,0,0,0,1.2.636,1.51,1.51,0,0,0,1.477-.887V9.1a1.489,1.489,0,0,0-1.461-.887Q56.1,8.211,56.1,10.872Zm6.758-.176a5.013,5.013,0,0,1,.484-2.242A3.546,3.546,0,0,1,64.738,6.93a4.069,4.069,0,0,1,2.113-.539,3.849,3.849,0,0,1,2.793,1.047,4.2,4.2,0,0,1,1.207,2.844l.016.578a4.418,4.418,0,0,1-1.086,3.121,4.209,4.209,0,0,1-5.832,0,4.5,4.5,0,0,1-1.09-3.187Zm2.258.16A3.16,3.16,0,0,0,65.57,12.7a1.628,1.628,0,0,0,2.578.008,3.457,3.457,0,0,0,.461-2.015,3.128,3.128,0,0,0-.461-1.831,1.5,1.5,0,0,0-1.3-.649,1.474,1.474,0,0,0-1.281.646A3.516,3.516,0,0,0,65.117,10.856Z" transform="translate(896 4348)" fill="#12263f"/>
      <path id="Trazado_878007" data-name="Trazado 878007" d="M5.258,11.039H.859V9.219h4.4Zm6.391,1.625a.727.727,0,0,0-.41-.652,4.659,4.659,0,0,0-1.316-.426q-3.016-.633-3.016-2.562A2.323,2.323,0,0,1,7.84,7.145a3.766,3.766,0,0,1,2.441-.754,4.053,4.053,0,0,1,2.574.758,2.388,2.388,0,0,1,.965,1.969H11.563a1.092,1.092,0,0,0-.312-.8A1.322,1.322,0,0,0,10.273,8a1.351,1.351,0,0,0-.883.258.814.814,0,0,0-.312.656.7.7,0,0,0,.355.605,3.657,3.657,0,0,0,1.2.4,9.8,9.8,0,0,1,1.422.379,2.336,2.336,0,0,1,1.789,2.273,2.2,2.2,0,0,1-.992,1.871,4.28,4.28,0,0,1-2.562.715A4.47,4.47,0,0,1,8.4,14.777a3.166,3.166,0,0,1-1.293-1.039,2.414,2.414,0,0,1-.469-1.426H8.781a1.179,1.179,0,0,0,.445.922,1.766,1.766,0,0,0,1.109.32,1.635,1.635,0,0,0,.98-.246A.766.766,0,0,0,11.648,12.664Zm8.711,1.477a2.831,2.831,0,0,1-2.312,1.016,2.67,2.67,0,0,1-2.074-.781,3.335,3.335,0,0,1-.73-2.289V6.547H17.5v5.467q0,1.322,1.2,1.322a1.63,1.63,0,0,0,1.578-.8V6.547h2.266V15H20.422Zm7.781,1.016a4.15,4.15,0,0,1-3.027-1.141,4.054,4.054,0,0,1-1.168-3.039v-.219a5.106,5.106,0,0,1,.492-2.277,3.612,3.612,0,0,1,1.395-1.547,3.914,3.914,0,0,1,2.059-.543,3.508,3.508,0,0,1,2.73,1.094,4.444,4.444,0,0,1,1,3.1v.922H26.234a2.1,2.1,0,0,0,.66,1.328,2,2,0,0,0,1.395.5,2.437,2.437,0,0,0,2.039-.945l1.109,1.242a3.389,3.389,0,0,1-1.375,1.121A4.511,4.511,0,0,1,28.141,15.156Zm-.258-6.945a1.411,1.411,0,0,0-1.09.455,2.357,2.357,0,0,0-.535,1.3H29.4V9.788a1.681,1.681,0,0,0-.406-1.165A1.456,1.456,0,0,0,27.883,8.211ZM35.281,15H33.016V3h2.266Zm1.508-4.289a5.094,5.094,0,0,1,.887-3.148A2.877,2.877,0,0,1,40.1,6.391a2.589,2.589,0,0,1,2.039.922V3h2.266V15H42.367l-.109-.9a2.657,2.657,0,0,1-2.172,1.055,2.869,2.869,0,0,1-2.395-1.176A5.258,5.258,0,0,1,36.789,10.711Zm2.258.161a3.355,3.355,0,0,0,.414,1.829,1.348,1.348,0,0,0,1.2.636,1.51,1.51,0,0,0,1.477-.887V9.1a1.489,1.489,0,0,0-1.461-.887Q39.047,8.211,39.047,10.872ZM45.8,10.7a5.013,5.013,0,0,1,.484-2.242A3.546,3.546,0,0,1,47.684,6.93,4.069,4.069,0,0,1,49.8,6.391,3.849,3.849,0,0,1,52.59,7.438,4.2,4.2,0,0,1,53.8,10.281l.016.578a4.418,4.418,0,0,1-1.086,3.121,4.209,4.209,0,0,1-5.832,0A4.5,4.5,0,0,1,45.8,10.8Zm2.258.16a3.16,3.16,0,0,0,.453,1.843,1.628,1.628,0,0,0,2.578.008,3.457,3.457,0,0,0,.461-2.015,3.128,3.128,0,0,0-.461-1.831,1.5,1.5,0,0,0-1.3-.649,1.474,1.474,0,0,0-1.281.646A3.516,3.516,0,0,0,48.063,10.856Z" transform="translate(895 4386)" fill="#12263f"/>
      <path id="Trazado_878008" data-name="Trazado 878008" d="M5.422,8.633h2.82v2.039H5.422v3.188H3.273V10.672H.445V8.633H3.273V5.578H5.422Zm6.3-2.086.07.945a2.971,2.971,0,0,1,2.43-1.1A2.255,2.255,0,0,1,16.461,7.68,2.9,2.9,0,0,1,19,6.391a2.521,2.521,0,0,1,2.047.8,3.681,3.681,0,0,1,.672,2.41V15H19.453V9.6a1.616,1.616,0,0,0-.281-1.053,1.245,1.245,0,0,0-.992-.333,1.409,1.409,0,0,0-1.406.971L16.781,15H14.523V9.6a1.6,1.6,0,0,0-.289-1.065,1.257,1.257,0,0,0-.984-.329,1.463,1.463,0,0,0-1.391.8V15H9.6V6.547ZM23.1,10.7a5.013,5.013,0,0,1,.484-2.242A3.546,3.546,0,0,1,24.98,6.93a4.069,4.069,0,0,1,2.113-.539,3.849,3.849,0,0,1,2.793,1.047,4.2,4.2,0,0,1,1.207,2.844l.016.578a4.418,4.418,0,0,1-1.086,3.121,3.775,3.775,0,0,1-2.914,1.176,3.793,3.793,0,0,1-2.918-1.172A4.5,4.5,0,0,1,23.1,10.8Zm2.258.16a3.16,3.16,0,0,0,.453,1.843,1.628,1.628,0,0,0,2.578.008,3.457,3.457,0,0,0,.461-2.015,3.128,3.128,0,0,0-.461-1.831,1.5,1.5,0,0,0-1.3-.649,1.474,1.474,0,0,0-1.281.646A3.516,3.516,0,0,0,25.359,10.856Zm11.719,1.808a.727.727,0,0,0-.41-.652,4.659,4.659,0,0,0-1.316-.426q-3.016-.633-3.016-2.562a2.323,2.323,0,0,1,.934-1.879,3.766,3.766,0,0,1,2.441-.754,4.053,4.053,0,0,1,2.574.758,2.388,2.388,0,0,1,.965,1.969H36.992a1.092,1.092,0,0,0-.312-.8A1.322,1.322,0,0,0,35.7,8a1.351,1.351,0,0,0-.883.258.814.814,0,0,0-.312.656.7.7,0,0,0,.355.605,3.657,3.657,0,0,0,1.2.4,9.8,9.8,0,0,1,1.422.379,2.336,2.336,0,0,1,1.789,2.273,2.2,2.2,0,0,1-.992,1.871,4.28,4.28,0,0,1-2.562.715,4.47,4.47,0,0,1-1.887-.379,3.166,3.166,0,0,1-1.293-1.039,2.414,2.414,0,0,1-.469-1.426h2.141a1.179,1.179,0,0,0,.445.922,1.766,1.766,0,0,0,1.109.32,1.635,1.635,0,0,0,.98-.246A.766.766,0,0,0,37.078,12.664Zm6.352-8.2V6.547h1.445V8.2H43.43v4.219a1.007,1.007,0,0,0,.18.672.9.9,0,0,0,.688.2,3.6,3.6,0,0,0,.664-.055v1.711a4.648,4.648,0,0,1-1.367.2,2.156,2.156,0,0,1-2.422-2.4V8.2H39.938V6.547h1.234V4.469Zm7.453,4.2A6.134,6.134,0,0,0,50.07,8.6a1.654,1.654,0,0,0-1.68.867V15H46.133V6.547h2.133l.063,1.008a2.092,2.092,0,0,1,1.883-1.164,2.366,2.366,0,0,1,.7.1ZM56.633,15a2.507,2.507,0,0,1-.227-.758,2.732,2.732,0,0,1-2.133.914,3,3,0,0,1-2.059-.719,2.312,2.312,0,0,1-.816-1.812,2.389,2.389,0,0,1,1-2.062,4.915,4.915,0,0,1,2.879-.727h1.039V9.352a1.393,1.393,0,0,0-.3-.937,1.183,1.183,0,0,0-.949-.352,1.345,1.345,0,0,0-.895.273.929.929,0,0,0-.324.75H51.586a2.268,2.268,0,0,1,.453-1.359,3,3,0,0,1,1.281-.98,4.669,4.669,0,0,1,1.859-.355,3.689,3.689,0,0,1,2.48.785,2.747,2.747,0,0,1,.918,2.207v3.664a4.041,4.041,0,0,0,.336,1.82V15Zm-1.867-1.57a1.945,1.945,0,0,0,.922-.223,1.462,1.462,0,0,0,.625-.6V11.156h-.844q-1.7,0-1.8,1.172l-.008.133a.9.9,0,0,0,.3.7A1.153,1.153,0,0,0,54.766,13.43Zm10.3-4.766A6.134,6.134,0,0,0,64.25,8.6a1.654,1.654,0,0,0-1.68.867V15H60.313V6.547h2.133l.063,1.008a2.092,2.092,0,0,1,1.883-1.164,2.366,2.366,0,0,1,.7.1Zm8.078,1.391h-4.5v3.063h5.281V15H66.3V3.625h7.609v1.9H68.641V8.234h4.5Zm4.125-3.508.07.945a2.971,2.971,0,0,1,2.43-1.1A2.255,2.255,0,0,1,82.008,7.68a2.9,2.9,0,0,1,2.539-1.289,2.521,2.521,0,0,1,2.047.8,3.681,3.681,0,0,1,.672,2.41V15H85V9.6a1.616,1.616,0,0,0-.281-1.053,1.245,1.245,0,0,0-.992-.333,1.409,1.409,0,0,0-1.406.971L82.328,15H80.07V9.6a1.6,1.6,0,0,0-.289-1.065,1.257,1.257,0,0,0-.984-.329,1.463,1.463,0,0,0-1.391.8V15H75.148V6.547Zm19.344,4.3a5.07,5.07,0,0,1-.887,3.129,2.843,2.843,0,0,1-2.395,1.176,2.633,2.633,0,0,1-2.07-.891V18.25H89V6.547h2.094l.078.828a2.654,2.654,0,0,1,2.141-.984,2.862,2.862,0,0,1,2.43,1.156,5.207,5.207,0,0,1,.867,3.188Zm-2.258-.172a3.345,3.345,0,0,0-.418-1.826,1.36,1.36,0,0,0-1.215-.643,1.478,1.478,0,0,0-1.461.815V12.5a1.5,1.5,0,0,0,1.477.839Q94.352,13.336,94.352,10.679ZM100.391,15H98.125V3h2.266Zm5.75.156a4.15,4.15,0,0,1-3.027-1.141,4.054,4.054,0,0,1-1.168-3.039v-.219a5.106,5.106,0,0,1,.492-2.277,3.612,3.612,0,0,1,1.395-1.547,3.914,3.914,0,0,1,2.059-.543,3.508,3.508,0,0,1,2.73,1.094,4.444,4.444,0,0,1,1,3.1v.922h-5.383a2.1,2.1,0,0,0,.66,1.328,2,2,0,0,0,1.395.5,2.437,2.437,0,0,0,2.039-.945l1.109,1.242a3.389,3.389,0,0,1-1.375,1.121A4.511,4.511,0,0,1,106.141,15.156Zm-.258-6.945a1.411,1.411,0,0,0-1.09.455,2.357,2.357,0,0,0-.535,1.3H107.4V9.788a1.681,1.681,0,0,0-.406-1.165A1.456,1.456,0,0,0,105.883,8.211ZM115.8,15a2.507,2.507,0,0,1-.227-.758,2.732,2.732,0,0,1-2.133.914,3,3,0,0,1-2.059-.719,2.312,2.312,0,0,1-.816-1.812,2.389,2.389,0,0,1,1-2.062,4.915,4.915,0,0,1,2.879-.727h1.039V9.352a1.393,1.393,0,0,0-.3-.937,1.183,1.183,0,0,0-.949-.352,1.345,1.345,0,0,0-.895.273.929.929,0,0,0-.324.75H110.75a2.268,2.268,0,0,1,.453-1.359,3,3,0,0,1,1.281-.98,4.669,4.669,0,0,1,1.859-.355,3.689,3.689,0,0,1,2.48.785,2.747,2.747,0,0,1,.918,2.207v3.664a4.041,4.041,0,0,0,.336,1.82V15Zm-1.867-1.57a1.945,1.945,0,0,0,.922-.223,1.462,1.462,0,0,0,.625-.6V11.156h-.844q-1.7,0-1.8,1.172l-.008.133a.9.9,0,0,0,.3.7A1.153,1.153,0,0,0,113.93,13.43Zm5.2-2.719a5.094,5.094,0,0,1,.887-3.148,2.877,2.877,0,0,1,2.426-1.172,2.589,2.589,0,0,1,2.039.922V3h2.266V15H124.7l-.109-.9a2.657,2.657,0,0,1-2.172,1.055,2.869,2.869,0,0,1-2.395-1.176A5.258,5.258,0,0,1,119.125,10.711Zm2.258.161A3.355,3.355,0,0,0,121.8,12.7a1.348,1.348,0,0,0,1.2.636,1.51,1.51,0,0,0,1.477-.887V9.1a1.489,1.489,0,0,0-1.461-.887Q121.383,8.211,121.383,10.872Zm6.758-.176a5.013,5.013,0,0,1,.484-2.242A3.546,3.546,0,0,1,130.02,6.93a4.069,4.069,0,0,1,2.113-.539,3.849,3.849,0,0,1,2.793,1.047,4.2,4.2,0,0,1,1.207,2.844l.016.578a4.418,4.418,0,0,1-1.086,3.121,4.209,4.209,0,0,1-5.832,0,4.5,4.5,0,0,1-1.09-3.187Zm2.258.16a3.16,3.16,0,0,0,.453,1.843,1.628,1.628,0,0,0,2.578.008,3.457,3.457,0,0,0,.461-2.015,3.128,3.128,0,0,0-.461-1.831,1.5,1.5,0,0,0-1.3-.649,1.474,1.474,0,0,0-1.281.646A3.516,3.516,0,0,0,130.4,10.856Zm11.719,1.808a.727.727,0,0,0-.41-.652,4.659,4.659,0,0,0-1.316-.426q-3.016-.633-3.016-2.562a2.323,2.323,0,0,1,.934-1.879,3.766,3.766,0,0,1,2.441-.754,4.053,4.053,0,0,1,2.574.758,2.388,2.388,0,0,1,.965,1.969h-2.258a1.092,1.092,0,0,0-.312-.8A1.322,1.322,0,0,0,140.742,8a1.351,1.351,0,0,0-.883.258.814.814,0,0,0-.312.656.7.7,0,0,0,.355.605,3.657,3.657,0,0,0,1.2.4,9.8,9.8,0,0,1,1.422.379,2.336,2.336,0,0,1,1.789,2.273,2.205,2.205,0,0,1-.992,1.871,4.28,4.28,0,0,1-2.562.715,4.47,4.47,0,0,1-1.887-.379,3.166,3.166,0,0,1-1.293-1.039,2.414,2.414,0,0,1-.469-1.426h2.141a1.179,1.179,0,0,0,.445.922,1.766,1.766,0,0,0,1.109.32,1.635,1.635,0,0,0,.98-.246A.766.766,0,0,0,142.117,12.664Z" transform="translate(895 4426)" fill="#12263f"/>
      <line id="Línea_775" data-name="Línea 775" x2="230" transform="translate(875 4417)" fill="none" stroke="#debefb" stroke-width="1"/>
      <circle id="Elipse_11628" data-name="Elipse 11628" cx="30" cy="30" r="30" transform="translate(1035 4307)" fill="#a854f3"/>
      <g id="Grupo_1102532" data-name="Grupo 1102532" transform="translate(1050 4316)">
        <path id="Trazado_877982" data-name="Trazado 877982" d="M65.684,41.144h6.055a.6.6,0,1,0,0-1.206H70.081V29.5a.6.6,0,1,0-1.206,0V39.938H65.684a.443.443,0,0,1-.443-.443V30.119A4.781,4.781,0,0,1,68,25.812l5.033-1.966,3.04,2.521a1.171,1.171,0,0,0,1.249.157l.421.659L76.416,39.938H74.552a.6.6,0,1,0,0,1.206H93.239A1.65,1.65,0,0,0,94.887,39.5V35.719a.6.6,0,1,0-1.206,0V39.5a.443.443,0,0,1-.443.443H90.048V29.5a.6.6,0,1,0-1.206,0V39.938H82.507L81.179,27.182l.421-.659a1.17,1.17,0,0,0,1.249-.157l3.026-2.509,5.048,1.955a4.772,4.772,0,0,1,2.759,4.307v2.787a.6.6,0,1,0,1.206,0V30.119a5.942,5.942,0,0,0-3.511-5.424l-.012,0-8.092-3.134V19.965a6.4,6.4,0,0,0,2.522-4.153,2.9,2.9,0,0,0,2.242-4.992l.2-3.568a4.437,4.437,0,0,1,.156-.942A8.287,8.287,0,0,0,88.014.969,1,1,0,0,0,86.52.517a3.755,3.755,0,0,1-3.151.168c-6.892-1.857-9.446.4-10.375,2.629a.625.625,0,0,1-.42.373,2.287,2.287,0,0,0-1.9,2.329c0,.991.114,3.1.216,4.8a2.9,2.9,0,0,0,2.235,4.992,6.259,6.259,0,0,0,2.524,4.162v1.556l-8.09,3.16-.01,0a5.942,5.942,0,0,0-3.511,5.424V39.5a1.65,1.65,0,0,0,1.648,1.649Zm11.944-1.206.125-1.2,1.2,1.2Zm3.666,0h-.638L77.914,37.2l.163-1.562,3.092,3.092Zm-.908-8.723.2,1.924L78.548,31.1l.163-1.562ZM78.872,28l.037-.357h1.106l.174,1.675Zm1.914,7.048.185,1.78-2.733-2.733.15-1.444Zm-.557-8.611H78.7l-.541-.845c.618-.915.616-.905.662-1h1.289c.045.087.033.065.662,1Zm.173-3.279a1.179,1.179,0,0,0-.214.232H78.736a1.185,1.185,0,0,0-.214-.232l-1.684-1.4a1.255,1.255,0,0,0,.015-.186v-.91a6.629,6.629,0,0,0,5.213.015v.9a1.207,1.207,0,0,0,.015.185Zm4.187.206-2.481,2.057-.914-1.354,1.659-1.376Zm1.28-8.75V11.237a1.694,1.694,0,1,1,0,3.371Zm-12.814,0a1.694,1.694,0,1,1,0-3.371Zm0-5.3v.724a2.966,2.966,0,0,0-1,.114c-.117-2-.178-3.42-.178-4.125a1.088,1.088,0,0,1,.98-1.157,1.834,1.834,0,0,0,1.249-1.081C75.471.513,79.657.934,83.055,1.85a5.086,5.086,0,0,0,3.929-.2,7.14,7.14,0,0,1,.247,4.338,5.656,5.656,0,0,0-.2,1.2l-.167,2.957a2.964,2.964,0,0,0-1-.114V9.3A2.08,2.08,0,0,0,83.32,7.277a18.314,18.314,0,0,1-7.717,0A2.08,2.08,0,0,0,73.055,9.3Zm1.206,5.573V9.3a.875.875,0,0,1,1.073-.852,19.52,19.52,0,0,0,8.257,0,.875.875,0,0,1,1.073.852v5.531A5.167,5.167,0,0,1,79.545,20H79.52a5.158,5.158,0,0,1-5.259-5.118Zm1.789,7.792,1.681,1.394-.914,1.354-2.5-2.071Z" transform="translate(-64.036 0.001)" fill="#fff"/>
      </g>
    </g>
    <g id="Grupo_1102537" data-name="Grupo 1102537" transform="translate(-1931 -11033)">
      <rect id="Rectángulo_403051" data-name="Rectángulo 403051" width="229" height="122" rx="10" transform="translate(496 4337)" fill="#f7eefe"/>
      <path id="Rectángulo_403052" data-name="Rectángulo 403052" d="M10,0H219a10,10,0,0,1,10,10V40a0,0,0,0,1,0,0H0a0,0,0,0,1,0,0V10A10,10,0,0,1,10,0Z" transform="translate(496 4337)" fill="#debefb"/>
      <path id="Trazado_878009" data-name="Trazado 878009" d="M9.945,11.211A4.025,4.025,0,0,1,8.59,14.1a4.76,4.76,0,0,1-3.223,1.055,4.28,4.28,0,0,1-3.441-1.473A6.038,6.038,0,0,1,.672,9.641v-.7A6.819,6.819,0,0,1,1.25,6.055,4.332,4.332,0,0,1,2.9,4.137a4.629,4.629,0,0,1,2.5-.668A4.637,4.637,0,0,1,8.57,4.523,4.326,4.326,0,0,1,9.961,7.484H7.617A2.376,2.376,0,0,0,7,5.887a2.271,2.271,0,0,0-1.605-.5,1.991,1.991,0,0,0-1.754.84,4.707,4.707,0,0,0-.6,2.605V9.7a5.038,5.038,0,0,0,.559,2.7,1.954,1.954,0,0,0,1.762.852,2.314,2.314,0,0,0,1.621-.5A2.241,2.241,0,0,0,7.6,11.211ZM13.719,15H11.453V3h2.266Zm4.242,0H15.7V6.547h2.266Zm-2.4-10.641a1.112,1.112,0,0,1,.34-.836,1.465,1.465,0,0,1,1.848,0,1.105,1.105,0,0,1,.344.836,1.108,1.108,0,0,1-.348.844,1.448,1.448,0,0,1-1.836,0A1.108,1.108,0,0,1,15.563,4.359Zm8.148,10.8a4.15,4.15,0,0,1-3.027-1.141,4.054,4.054,0,0,1-1.168-3.039v-.219a5.106,5.106,0,0,1,.492-2.277A3.612,3.612,0,0,1,21.4,6.934a3.914,3.914,0,0,1,2.059-.543,3.508,3.508,0,0,1,2.73,1.094,4.444,4.444,0,0,1,1,3.1v.922H21.8a2.1,2.1,0,0,0,.66,1.328,2,2,0,0,0,1.395.5,2.437,2.437,0,0,0,2.039-.945l1.109,1.242a3.389,3.389,0,0,1-1.375,1.121A4.511,4.511,0,0,1,23.711,15.156Zm-.258-6.945a1.411,1.411,0,0,0-1.09.455,2.357,2.357,0,0,0-.535,1.3h3.141V9.788a1.681,1.681,0,0,0-.406-1.165A1.456,1.456,0,0,0,23.453,8.211Zm7.094-1.664.07.977a2.951,2.951,0,0,1,2.43-1.133,2.453,2.453,0,0,1,2,.789,3.682,3.682,0,0,1,.672,2.359V15H33.461V9.581a1.47,1.47,0,0,0-.312-1.045,1.4,1.4,0,0,0-1.039-.325,1.553,1.553,0,0,0-1.43.814V15H28.422V6.547Zm9.586-2.078V6.547h1.445V8.2H40.133v4.219a1.007,1.007,0,0,0,.18.672.9.9,0,0,0,.688.2,3.6,3.6,0,0,0,.664-.055v1.711a4.648,4.648,0,0,1-1.367.2,2.156,2.156,0,0,1-2.422-2.4V8.2H36.641V6.547h1.234V4.469Zm6.594,10.688A4.15,4.15,0,0,1,43.7,14.016a4.054,4.054,0,0,1-1.168-3.039v-.219a5.106,5.106,0,0,1,.492-2.277,3.612,3.612,0,0,1,1.395-1.547,3.914,3.914,0,0,1,2.059-.543,3.508,3.508,0,0,1,2.73,1.094,4.444,4.444,0,0,1,1,3.1v.922H44.82a2.1,2.1,0,0,0,.66,1.328,2,2,0,0,0,1.395.5,2.437,2.437,0,0,0,2.039-.945l1.109,1.242a3.389,3.389,0,0,1-1.375,1.121A4.511,4.511,0,0,1,46.727,15.156Zm-.258-6.945a1.411,1.411,0,0,0-1.09.455,2.357,2.357,0,0,0-.535,1.3h3.141V9.788a1.681,1.681,0,0,0-.406-1.165A1.456,1.456,0,0,0,46.469,8.211Z" transform="translate(516 4348)" fill="#12263f"/>
      <path id="Trazado_878010" data-name="Trazado 878010" d="M5.258,11.039H.859V9.219h4.4Zm5.328,2.3a1.481,1.481,0,0,0,1.016-.344,1.2,1.2,0,0,0,.406-.914h2.117a2.9,2.9,0,0,1-.469,1.574,3.093,3.093,0,0,1-1.262,1.109,3.949,3.949,0,0,1-1.77.395A3.67,3.67,0,0,1,7.766,14,4.56,4.56,0,0,1,6.719,10.82v-.148A4.508,4.508,0,0,1,7.758,7.555a3.627,3.627,0,0,1,2.852-1.164,3.555,3.555,0,0,1,2.543.9,3.2,3.2,0,0,1,.973,2.4H12.008A1.551,1.551,0,0,0,11.6,8.623a1.354,1.354,0,0,0-1.031-.412,1.36,1.36,0,0,0-1.191.575,3.333,3.333,0,0,0-.4,1.866v.235a3.375,3.375,0,0,0,.4,1.878A1.377,1.377,0,0,0,10.586,13.336ZM20.313,15a2.507,2.507,0,0,1-.227-.758,2.732,2.732,0,0,1-2.133.914,3,3,0,0,1-2.059-.719,2.312,2.312,0,0,1-.816-1.812,2.389,2.389,0,0,1,1-2.062,4.915,4.915,0,0,1,2.879-.727h1.039V9.352a1.393,1.393,0,0,0-.3-.937,1.183,1.183,0,0,0-.949-.352,1.345,1.345,0,0,0-.895.273.929.929,0,0,0-.324.75H15.266a2.268,2.268,0,0,1,.453-1.359A3,3,0,0,1,17,6.746a4.669,4.669,0,0,1,1.859-.355,3.689,3.689,0,0,1,2.48.785,2.747,2.747,0,0,1,.918,2.207v3.664a4.041,4.041,0,0,0,.336,1.82V15Zm-1.867-1.57a1.945,1.945,0,0,0,.922-.223,1.462,1.462,0,0,0,.625-.6V11.156h-.844q-1.7,0-1.8,1.172l-.008.133a.9.9,0,0,0,.3.7A1.153,1.153,0,0,0,18.445,13.43ZM26.7,4.469V6.547h1.445V8.2H26.7v4.219a1.007,1.007,0,0,0,.18.672.9.9,0,0,0,.688.2,3.6,3.6,0,0,0,.664-.055v1.711a4.648,4.648,0,0,1-1.367.2,2.156,2.156,0,0,1-2.422-2.4V8.2H23.2V6.547h1.234V4.469Zm6.594,10.688a4.15,4.15,0,0,1-3.027-1.141,4.054,4.054,0,0,1-1.168-3.039v-.219a5.106,5.106,0,0,1,.492-2.277A3.612,3.612,0,0,1,30.98,6.934a3.914,3.914,0,0,1,2.059-.543,3.508,3.508,0,0,1,2.73,1.094,4.444,4.444,0,0,1,1,3.1v.922H31.383a2.1,2.1,0,0,0,.66,1.328,2,2,0,0,0,1.395.5,2.437,2.437,0,0,0,2.039-.945l1.109,1.242a3.389,3.389,0,0,1-1.375,1.121A4.511,4.511,0,0,1,33.289,15.156Zm-.258-6.945a1.411,1.411,0,0,0-1.09.455,2.357,2.357,0,0,0-.535,1.3h3.141V9.788a1.681,1.681,0,0,0-.406-1.165A1.456,1.456,0,0,0,33.031,8.211Zm4.688,2.5a4.954,4.954,0,0,1,.926-3.133,3,3,0,0,1,2.5-1.187,2.631,2.631,0,0,1,2.164.953l.094-.8h2.047v8.172a3.613,3.613,0,0,1-.5,1.93,3.236,3.236,0,0,1-1.418,1.25,4.985,4.985,0,0,1-2.141.43,4.635,4.635,0,0,1-1.812-.371A3.217,3.217,0,0,1,38.234,17l1-1.375a2.645,2.645,0,0,0,2.047.945,1.936,1.936,0,0,0,1.4-.48,1.8,1.8,0,0,0,.5-1.363v-.453a2.612,2.612,0,0,1-2.055.883,2.992,2.992,0,0,1-2.465-1.191,4.953,4.953,0,0,1-.941-3.16Zm2.258.161a3.1,3.1,0,0,0,.461,1.809,1.465,1.465,0,0,0,1.266.655,1.567,1.567,0,0,0,1.477-.777V8.988a1.563,1.563,0,0,0-1.461-.777,1.474,1.474,0,0,0-1.277.667A3.5,3.5,0,0,0,39.977,10.872Zm6.852-.176a5.013,5.013,0,0,1,.484-2.242A3.546,3.546,0,0,1,48.707,6.93a4.069,4.069,0,0,1,2.113-.539,3.849,3.849,0,0,1,2.793,1.047,4.2,4.2,0,0,1,1.207,2.844l.016.578A4.418,4.418,0,0,1,53.75,13.98a4.209,4.209,0,0,1-5.832,0,4.5,4.5,0,0,1-1.09-3.187Zm2.258.16a3.16,3.16,0,0,0,.453,1.843,1.628,1.628,0,0,0,2.578.008,3.457,3.457,0,0,0,.461-2.015,3.128,3.128,0,0,0-.461-1.831,1.5,1.5,0,0,0-1.3-.649,1.474,1.474,0,0,0-1.281.646A3.516,3.516,0,0,0,49.086,10.856ZM60.977,8.664a6.134,6.134,0,0,0-.812-.062,1.654,1.654,0,0,0-1.68.867V15H56.227V6.547h2.133l.063,1.008A2.092,2.092,0,0,1,60.3,6.391a2.366,2.366,0,0,1,.7.1ZM64.5,15H62.242V6.547H64.5ZM63.836,3.117H66.3L64.133,5.539H62.3ZM71.344,15a2.507,2.507,0,0,1-.227-.758,2.732,2.732,0,0,1-2.133.914,3,3,0,0,1-2.059-.719,2.312,2.312,0,0,1-.816-1.812,2.389,2.389,0,0,1,1-2.062,4.915,4.915,0,0,1,2.879-.727h1.039V9.352a1.393,1.393,0,0,0-.3-.937,1.183,1.183,0,0,0-.949-.352,1.345,1.345,0,0,0-.895.273.929.929,0,0,0-.324.75H66.3a2.268,2.268,0,0,1,.453-1.359,3,3,0,0,1,1.281-.98,4.669,4.669,0,0,1,1.859-.355,3.689,3.689,0,0,1,2.48.785,2.747,2.747,0,0,1,.918,2.207v3.664a4.041,4.041,0,0,0,.336,1.82V15Zm-1.867-1.57a1.945,1.945,0,0,0,.922-.223,1.462,1.462,0,0,0,.625-.6V11.156H70.18q-1.7,0-1.8,1.172l-.008.133a.9.9,0,0,0,.3.7A1.153,1.153,0,0,0,69.477,13.43Z" transform="translate(515 4386)" fill="#12263f"/>
      <path id="Trazado_878011" data-name="Trazado 878011" d="M5.422,8.633h2.82v2.039H5.422v3.188H3.273V10.672H.445V8.633H3.273V5.578H5.422Zm6.3-2.086.07.945a2.971,2.971,0,0,1,2.43-1.1A2.255,2.255,0,0,1,16.461,7.68,2.9,2.9,0,0,1,19,6.391a2.521,2.521,0,0,1,2.047.8,3.681,3.681,0,0,1,.672,2.41V15H19.453V9.6a1.616,1.616,0,0,0-.281-1.053,1.245,1.245,0,0,0-.992-.333,1.409,1.409,0,0,0-1.406.971L16.781,15H14.523V9.6a1.6,1.6,0,0,0-.289-1.065,1.257,1.257,0,0,0-.984-.329,1.463,1.463,0,0,0-1.391.8V15H9.6V6.547ZM23.1,10.7a5.013,5.013,0,0,1,.484-2.242A3.546,3.546,0,0,1,24.98,6.93a4.069,4.069,0,0,1,2.113-.539,3.849,3.849,0,0,1,2.793,1.047,4.2,4.2,0,0,1,1.207,2.844l.016.578a4.418,4.418,0,0,1-1.086,3.121,3.775,3.775,0,0,1-2.914,1.176,3.793,3.793,0,0,1-2.918-1.172A4.5,4.5,0,0,1,23.1,10.8Zm2.258.16a3.16,3.16,0,0,0,.453,1.843,1.628,1.628,0,0,0,2.578.008,3.457,3.457,0,0,0,.461-2.015,3.128,3.128,0,0,0-.461-1.831,1.5,1.5,0,0,0-1.3-.649,1.474,1.474,0,0,0-1.281.646A3.516,3.516,0,0,0,25.359,10.856Zm11.719,1.808a.727.727,0,0,0-.41-.652,4.659,4.659,0,0,0-1.316-.426q-3.016-.633-3.016-2.562a2.323,2.323,0,0,1,.934-1.879,3.766,3.766,0,0,1,2.441-.754,4.053,4.053,0,0,1,2.574.758,2.388,2.388,0,0,1,.965,1.969H36.992a1.092,1.092,0,0,0-.312-.8A1.322,1.322,0,0,0,35.7,8a1.351,1.351,0,0,0-.883.258.814.814,0,0,0-.312.656.7.7,0,0,0,.355.605,3.657,3.657,0,0,0,1.2.4,9.8,9.8,0,0,1,1.422.379,2.336,2.336,0,0,1,1.789,2.273,2.2,2.2,0,0,1-.992,1.871,4.28,4.28,0,0,1-2.562.715,4.47,4.47,0,0,1-1.887-.379,3.166,3.166,0,0,1-1.293-1.039,2.414,2.414,0,0,1-.469-1.426h2.141a1.179,1.179,0,0,0,.445.922,1.766,1.766,0,0,0,1.109.32,1.635,1.635,0,0,0,.98-.246A.766.766,0,0,0,37.078,12.664Zm6.352-8.2V6.547h1.445V8.2H43.43v4.219a1.007,1.007,0,0,0,.18.672.9.9,0,0,0,.688.2,3.6,3.6,0,0,0,.664-.055v1.711a4.648,4.648,0,0,1-1.367.2,2.156,2.156,0,0,1-2.422-2.4V8.2H39.938V6.547h1.234V4.469Zm7.453,4.2A6.134,6.134,0,0,0,50.07,8.6a1.654,1.654,0,0,0-1.68.867V15H46.133V6.547h2.133l.063,1.008a2.092,2.092,0,0,1,1.883-1.164,2.366,2.366,0,0,1,.7.1ZM56.633,15a2.507,2.507,0,0,1-.227-.758,2.732,2.732,0,0,1-2.133.914,3,3,0,0,1-2.059-.719,2.312,2.312,0,0,1-.816-1.812,2.389,2.389,0,0,1,1-2.062,4.915,4.915,0,0,1,2.879-.727h1.039V9.352a1.393,1.393,0,0,0-.3-.937,1.183,1.183,0,0,0-.949-.352,1.345,1.345,0,0,0-.895.273.929.929,0,0,0-.324.75H51.586a2.268,2.268,0,0,1,.453-1.359,3,3,0,0,1,1.281-.98,4.669,4.669,0,0,1,1.859-.355,3.689,3.689,0,0,1,2.48.785,2.747,2.747,0,0,1,.918,2.207v3.664a4.041,4.041,0,0,0,.336,1.82V15Zm-1.867-1.57a1.945,1.945,0,0,0,.922-.223,1.462,1.462,0,0,0,.625-.6V11.156h-.844q-1.7,0-1.8,1.172l-.008.133a.9.9,0,0,0,.3.7A1.153,1.153,0,0,0,54.766,13.43Zm10.3-4.766A6.134,6.134,0,0,0,64.25,8.6a1.654,1.654,0,0,0-1.68.867V15H60.313V6.547h2.133l.063,1.008a2.092,2.092,0,0,1,1.883-1.164,2.366,2.366,0,0,1,.7.1ZM66.3,15V3.625h3.5A5.315,5.315,0,0,1,72.48,4.3a4.712,4.712,0,0,1,1.848,1.922,5.928,5.928,0,0,1,.664,2.832v.523a5.945,5.945,0,0,1-.652,2.82,4.672,4.672,0,0,1-1.84,1.914A5.355,5.355,0,0,1,69.82,15Zm2.344-9.477v7.594h1.133a2.545,2.545,0,0,0,2.1-.9,4.06,4.06,0,0,0,.742-2.57v-.6A4.124,4.124,0,0,0,71.9,6.418a2.537,2.537,0,0,0-2.1-.895ZM81.445,15a2.507,2.507,0,0,1-.227-.758,2.732,2.732,0,0,1-2.133.914,3,3,0,0,1-2.059-.719,2.312,2.312,0,0,1-.816-1.812,2.389,2.389,0,0,1,1-2.062,4.915,4.915,0,0,1,2.879-.727h1.039V9.352a1.393,1.393,0,0,0-.3-.937,1.183,1.183,0,0,0-.949-.352,1.345,1.345,0,0,0-.895.273.929.929,0,0,0-.324.75H76.4a2.268,2.268,0,0,1,.453-1.359,3,3,0,0,1,1.281-.98,4.669,4.669,0,0,1,1.859-.355,3.689,3.689,0,0,1,2.48.785,2.747,2.747,0,0,1,.918,2.207v3.664a4.041,4.041,0,0,0,.336,1.82V15Zm-1.867-1.57a1.945,1.945,0,0,0,.922-.223,1.462,1.462,0,0,0,.625-.6V11.156h-.844q-1.7,0-1.8,1.172l-.008.133a.9.9,0,0,0,.3.7A1.153,1.153,0,0,0,79.578,13.43Zm8.25-8.961V6.547h1.445V8.2H87.828v4.219a1.007,1.007,0,0,0,.18.672.9.9,0,0,0,.688.2,3.6,3.6,0,0,0,.664-.055v1.711a4.648,4.648,0,0,1-1.367.2,2.156,2.156,0,0,1-2.422-2.4V8.2H84.336V6.547H85.57V4.469ZM89.945,10.7a5.013,5.013,0,0,1,.484-2.242A3.546,3.546,0,0,1,91.824,6.93a4.069,4.069,0,0,1,2.113-.539A3.849,3.849,0,0,1,96.73,7.438a4.2,4.2,0,0,1,1.207,2.844l.016.578a4.418,4.418,0,0,1-1.086,3.121,4.209,4.209,0,0,1-5.832,0,4.5,4.5,0,0,1-1.09-3.187Zm2.258.16a3.16,3.16,0,0,0,.453,1.843,1.628,1.628,0,0,0,2.578.008,3.457,3.457,0,0,0,.461-2.015,3.128,3.128,0,0,0-.461-1.831,1.5,1.5,0,0,0-1.3-.649,1.474,1.474,0,0,0-1.281.646A3.516,3.516,0,0,0,92.2,10.856Zm11.719,1.808a.727.727,0,0,0-.41-.652,4.659,4.659,0,0,0-1.316-.426q-3.016-.633-3.016-2.562a2.323,2.323,0,0,1,.934-1.879,3.766,3.766,0,0,1,2.441-.754,4.053,4.053,0,0,1,2.574.758,2.388,2.388,0,0,1,.965,1.969h-2.258a1.092,1.092,0,0,0-.312-.8A1.322,1.322,0,0,0,102.547,8a1.351,1.351,0,0,0-.883.258.814.814,0,0,0-.312.656.7.7,0,0,0,.355.605,3.657,3.657,0,0,0,1.2.4,9.8,9.8,0,0,1,1.422.379,2.336,2.336,0,0,1,1.789,2.273,2.2,2.2,0,0,1-.992,1.871,4.28,4.28,0,0,1-2.562.715,4.47,4.47,0,0,1-1.887-.379,3.166,3.166,0,0,1-1.293-1.039,2.414,2.414,0,0,1-.469-1.426h2.141a1.179,1.179,0,0,0,.445.922,1.766,1.766,0,0,0,1.109.32,1.635,1.635,0,0,0,.98-.246A.766.766,0,0,0,103.922,12.664Z" transform="translate(515 4426)" fill="#12263f"/>
      <line id="Línea_774" data-name="Línea 774" x2="230" transform="translate(495 4417)" fill="none" stroke="#debefb" stroke-width="1"/>
      <g id="Grupo_1102535" data-name="Grupo 1102535">
        <circle id="Elipse_11629" data-name="Elipse 11629" cx="30" cy="30" r="30" transform="translate(655 4307)" fill="#a854f3"/>
        <g id="Grupo_1102533" data-name="Grupo 1102533" transform="translate(670 4319)">
          <path id="Trazado_877986" data-name="Trazado 877986" d="M68.481,27.957A.521.521,0,0,0,69,27.435V25.818a3.433,3.433,0,0,0-2.379-3.272l-6.447-2.031V18.441a5.622,5.622,0,0,0,2.181-4.767,2.152,2.152,0,0,0,2.5-1.974V10.611a1.966,1.966,0,0,0-.535-1.349c.007-.034.01-1.487.01-1.487a.521.521,0,1,0-1.043,0v.862h-7.3a1.566,1.566,0,0,1-1.564-1.564V2.607a1.566,1.566,0,0,1,1.564-1.564h3.539A3.764,3.764,0,0,1,63.29,4.8v.7a.521.521,0,1,0,1.043,0V4.8a4.807,4.807,0,0,0-4.8-4.8H55.992a2.61,2.61,0,0,0-2.568,2.159H52.55A3.654,3.654,0,0,0,48.9,5.809s0,3.406.007,3.433a1.967,1.967,0,0,0-.554,1.369V11.7a2.156,2.156,0,0,0,2.5,1.974,5.543,5.543,0,0,0,2.181,4.767v2.095l-4.69,1.753a2.609,2.609,0,0,0-1.152.851l-3.021,3.921V25.316a1.56,1.56,0,0,0-.54-1.181V21.976a1.6,1.6,0,1,0-3.2,0v1.776a1.439,1.439,0,0,0-1.619,1.564v4.392A1.567,1.567,0,0,0,39.889,31.2v1.789a2.633,2.633,0,0,0,4.8,1.47l2.76-3.335v3.948a.521.521,0,0,0,.521.521H68.481A.521.521,0,0,0,69,35.067v-5.36a.521.521,0,1,0-1.043,0v4.838H64.684V27.628a.521.521,0,1,0-1.043,0v.422H48.49v-.538a.521.521,0,0,0-1.043,0v1.971l-3.58,4.325c-.853,1.03-2.935,1.061-2.935-.824V31.273h1.656v.558a.521.521,0,1,0,1.043,0v-.942a1.561,1.561,0,0,0,.54-1.181v-.939l3.846-4.993a1.567,1.567,0,0,1,.691-.511l4.761-1.78,2.821,2.124a.546.546,0,0,0,.661-.025l2.8-2.11,6.552,2.064a2.392,2.392,0,0,1,1.654,2.279v1.617a.521.521,0,0,0,.521.521Zm-4.84,1.137v3.3h-8.95a.521.521,0,1,0,0,1.043h8.95v1.114H48.49V33.432h3.93a.521.521,0,1,0,0-1.043H48.49v-3.3ZM41.472,21.976a.558.558,0,1,1,1.116,0v1.776H41.472Zm-1.619,3.34a.522.522,0,0,1,.521-.521h2.233a.522.522,0,0,1,.521.521v.6H41.491a.521.521,0,1,0,0,1.043h1.638v1.117H41.491a.521.521,0,1,0,0,1.043h1.638v.6c0,.348-.211.5-.521.521H40.374a.522.522,0,0,1-.521-.521ZM63.815,11.7a.932.932,0,0,1-.931.931h-.525V9.68h.525a.932.932,0,0,1,.931.931ZM49.943,5.809A2.61,2.61,0,0,1,52.55,3.2h.835V7.073h0a1.566,1.566,0,0,1-1.564,1.564H49.943Zm.384,6.822A.932.932,0,0,1,49.4,11.7V10.611a.932.932,0,0,1,.931-.931h.526v2.951h-.526Zm1.568,1.5V9.678a2.6,2.6,0,0,0,2.01-1.043A2.6,2.6,0,0,0,55.992,9.68h5.323v4.453c0,5.729-9.419,5.722-9.419,0Zm7.238,4.91v1.593l-2.529,1.906-2.529-1.906V19.043A6.169,6.169,0,0,0,59.134,19.042Z" transform="translate(-38.81 0)" fill="#fff"/>
          <path id="Trazado_877987" data-name="Trazado 877987" d="M63.34,173.538a.521.521,0,0,0,.737,0l2.159-2.159a.521.521,0,0,0-.737-.737l-1.791,1.791L63,171.721a.521.521,0,1,0-.737.737Z" transform="translate(-60.488 -158.638)" fill="#fff"/>
          <path id="Trazado_877988" data-name="Trazado 877988" d="M40.375,133.271h4.392a1.566,1.566,0,0,0,1.564-1.564v-.6H47.97c.551,0,.794-.424.371-.888l-2.009-2.032v-3.086a1.566,1.566,0,0,0-1.564-1.564H40.375a1.566,1.566,0,0,0-1.564,1.564v6.6A1.566,1.566,0,0,0,40.375,133.271Zm-.521-8.165a.522.522,0,0,1,.521-.521h4.392a.522.522,0,0,1,.521.521v3.3a.521.521,0,0,0,.151.367l1.281,1.3H45.81a.521.521,0,0,0-.521.521v1.117a.522.522,0,0,1-.521.521H40.375a.522.522,0,0,1-.521-.521Z" transform="translate(-38.811 -114.954)" fill="#fff"/>
        </g>
      </g>
    </g>
    <g id="Grupo_1102539" data-name="Grupo 1102539" transform="translate(-2161 -11205)">
      <rect id="Rectángulo_403047" data-name="Rectángulo 403047" width="269" height="193" rx="10" transform="translate(686 4102)" fill="#f7eefe"/>
      <path id="Rectángulo_403048" data-name="Rectángulo 403048" d="M10,0H259a10,10,0,0,1,10,10V40a0,0,0,0,1,0,0H0a0,0,0,0,1,0,0V10A10,10,0,0,1,10,0Z" transform="translate(686 4102)" fill="#debefb"/>
      <path id="Trazado_878003" data-name="Trazado 878003" d="M3.359,10.992V15H1.016V3.625H5.453a5.134,5.134,0,0,1,2.254.469A3.454,3.454,0,0,1,9.2,5.426a3.714,3.714,0,0,1,.523,1.965,3.266,3.266,0,0,1-1.145,2.637,4.767,4.767,0,0,1-3.168.965Zm0-1.9H5.453a2.059,2.059,0,0,0,1.418-.437,1.591,1.591,0,0,0,.488-1.25,1.876,1.876,0,0,0-.492-1.352,1.839,1.839,0,0,0-1.359-.531H3.359Zm11.617,6.063a4.15,4.15,0,0,1-3.027-1.141,4.054,4.054,0,0,1-1.168-3.039v-.219a5.106,5.106,0,0,1,.492-2.277,3.612,3.612,0,0,1,1.395-1.547,3.914,3.914,0,0,1,2.059-.543,3.508,3.508,0,0,1,2.73,1.094,4.444,4.444,0,0,1,1,3.1v.922H13.07a2.1,2.1,0,0,0,.66,1.328,2,2,0,0,0,1.395.5,2.437,2.437,0,0,0,2.039-.945l1.109,1.242A3.389,3.389,0,0,1,16.9,14.754,4.511,4.511,0,0,1,14.977,15.156Zm-.258-6.945a1.411,1.411,0,0,0-1.09.455,2.357,2.357,0,0,0-.535,1.3h3.141V9.788a1.681,1.681,0,0,0-.406-1.165A1.456,1.456,0,0,0,14.719,8.211Zm9.766.453a6.134,6.134,0,0,0-.812-.062,1.654,1.654,0,0,0-1.68.867V15H19.734V6.547h2.133l.063,1.008a2.092,2.092,0,0,1,1.883-1.164,2.366,2.366,0,0,1,.7.1Zm5.664,4a.727.727,0,0,0-.41-.652,4.659,4.659,0,0,0-1.316-.426q-3.016-.633-3.016-2.562a2.323,2.323,0,0,1,.934-1.879,3.766,3.766,0,0,1,2.441-.754,4.053,4.053,0,0,1,2.574.758,2.388,2.388,0,0,1,.965,1.969H30.063a1.092,1.092,0,0,0-.312-.8A1.322,1.322,0,0,0,28.773,8a1.351,1.351,0,0,0-.883.258.814.814,0,0,0-.312.656.7.7,0,0,0,.355.605,3.657,3.657,0,0,0,1.2.4,9.8,9.8,0,0,1,1.422.379,2.336,2.336,0,0,1,1.789,2.273,2.2,2.2,0,0,1-.992,1.871,4.28,4.28,0,0,1-2.562.715,4.47,4.47,0,0,1-1.887-.379,3.166,3.166,0,0,1-1.293-1.039,2.414,2.414,0,0,1-.469-1.426h2.141a1.179,1.179,0,0,0,.445.922,1.766,1.766,0,0,0,1.109.32,1.635,1.635,0,0,0,.98-.246A.766.766,0,0,0,30.148,12.664Zm3.3-1.969a5.013,5.013,0,0,1,.484-2.242A3.546,3.546,0,0,1,35.324,6.93a4.069,4.069,0,0,1,2.113-.539A3.849,3.849,0,0,1,40.23,7.438a4.2,4.2,0,0,1,1.207,2.844l.016.578a4.418,4.418,0,0,1-1.086,3.121,4.209,4.209,0,0,1-5.832,0,4.5,4.5,0,0,1-1.09-3.187Zm2.258.16a3.16,3.16,0,0,0,.453,1.843,1.628,1.628,0,0,0,2.578.008,3.457,3.457,0,0,0,.461-2.015,3.128,3.128,0,0,0-.461-1.831,1.5,1.5,0,0,0-1.3-.649,1.474,1.474,0,0,0-1.281.646A3.516,3.516,0,0,0,35.7,10.856Zm9.219-4.309.07.977a2.951,2.951,0,0,1,2.43-1.133,2.453,2.453,0,0,1,2,.789,3.682,3.682,0,0,1,.672,2.359V15H47.836V9.581a1.47,1.47,0,0,0-.312-1.045,1.4,1.4,0,0,0-1.039-.325,1.553,1.553,0,0,0-1.43.814V15H42.8V6.547ZM56.7,15a2.507,2.507,0,0,1-.227-.758,2.732,2.732,0,0,1-2.133.914,3,3,0,0,1-2.059-.719,2.312,2.312,0,0,1-.816-1.812,2.389,2.389,0,0,1,1-2.062,4.915,4.915,0,0,1,2.879-.727h1.039V9.352a1.393,1.393,0,0,0-.3-.937,1.183,1.183,0,0,0-.949-.352,1.345,1.345,0,0,0-.895.273.929.929,0,0,0-.324.75H51.656a2.268,2.268,0,0,1,.453-1.359,3,3,0,0,1,1.281-.98,4.669,4.669,0,0,1,1.859-.355,3.689,3.689,0,0,1,2.48.785,2.747,2.747,0,0,1,.918,2.207v3.664a4.041,4.041,0,0,0,.336,1.82V15Zm-1.867-1.57a1.945,1.945,0,0,0,.922-.223,1.462,1.462,0,0,0,.625-.6V11.156h-.844q-1.7,0-1.8,1.172l-.008.133a.9.9,0,0,0,.3.7A1.153,1.153,0,0,0,54.836,13.43Z" transform="translate(706 4113)" fill="#12263f"/>
      <path id="Trazado_878004" data-name="Trazado 878004" d="M5.258,11.039H.859V9.219h4.4ZM9.148,6.547l.07.977a2.951,2.951,0,0,1,2.43-1.133,2.453,2.453,0,0,1,2,.789,3.682,3.682,0,0,1,.672,2.359V15H12.063V9.581a1.47,1.47,0,0,0-.312-1.045,1.4,1.4,0,0,0-1.039-.325,1.553,1.553,0,0,0-1.43.814V15H7.023V6.547ZM15.68,10.7a5.013,5.013,0,0,1,.484-2.242A3.546,3.546,0,0,1,17.559,6.93a4.069,4.069,0,0,1,2.113-.539,3.849,3.849,0,0,1,2.793,1.047,4.2,4.2,0,0,1,1.207,2.844l.016.578A4.418,4.418,0,0,1,22.6,13.98a3.775,3.775,0,0,1-2.914,1.176,3.793,3.793,0,0,1-2.918-1.172A4.5,4.5,0,0,1,15.68,10.8Zm2.258.16a3.16,3.16,0,0,0,.453,1.843,1.628,1.628,0,0,0,2.578.008,3.457,3.457,0,0,0,.461-2.015,3.128,3.128,0,0,0-.461-1.831,1.5,1.5,0,0,0-1.3-.649,1.474,1.474,0,0,0-1.281.646A3.516,3.516,0,0,0,17.938,10.856ZM27.2,6.547l.07.945a2.971,2.971,0,0,1,2.43-1.1A2.255,2.255,0,0,1,31.938,7.68a2.9,2.9,0,0,1,2.539-1.289,2.521,2.521,0,0,1,2.047.8A3.681,3.681,0,0,1,37.2,9.6V15H34.93V9.6a1.616,1.616,0,0,0-.281-1.053,1.245,1.245,0,0,0-.992-.333,1.409,1.409,0,0,0-1.406.971L32.258,15H30V9.6a1.6,1.6,0,0,0-.289-1.065,1.257,1.257,0,0,0-.984-.329,1.463,1.463,0,0,0-1.391.8V15H25.078V6.547Zm19.352,4.3a5.119,5.119,0,0,1-.867,3.168,2.872,2.872,0,0,1-2.422,1.137,2.639,2.639,0,0,1-2.2-1.055l-.1.9H38.93V3h2.258V7.3a2.571,2.571,0,0,1,2.055-.914,2.9,2.9,0,0,1,2.426,1.137,5.126,5.126,0,0,1,.879,3.2Zm-2.258-.172A3.381,3.381,0,0,0,43.883,8.8a1.372,1.372,0,0,0-1.211-.592,1.489,1.489,0,0,0-1.484.885v3.346a1.509,1.509,0,0,0,1.5.893,1.4,1.4,0,0,0,1.438-1.081A5.6,5.6,0,0,0,44.289,10.679Zm8.4-2.015a6.134,6.134,0,0,0-.812-.062,1.654,1.654,0,0,0-1.68.867V15H47.938V6.547H50.07l.063,1.008a2.092,2.092,0,0,1,1.883-1.164,2.366,2.366,0,0,1,.7.1Zm4.828,6.492a4.15,4.15,0,0,1-3.027-1.141,4.054,4.054,0,0,1-1.168-3.039v-.219a5.106,5.106,0,0,1,.492-2.277,3.612,3.612,0,0,1,1.395-1.547,3.914,3.914,0,0,1,2.059-.543A3.508,3.508,0,0,1,60,7.484a4.444,4.444,0,0,1,1,3.1v.922H55.609a2.1,2.1,0,0,0,.66,1.328,2,2,0,0,0,1.395.5,2.437,2.437,0,0,0,2.039-.945l1.109,1.242a3.389,3.389,0,0,1-1.375,1.121A4.511,4.511,0,0,1,57.516,15.156Zm-.258-6.945a1.411,1.411,0,0,0-1.09.455,2.357,2.357,0,0,0-.535,1.3h3.141V9.788a1.681,1.681,0,0,0-.406-1.165A1.456,1.456,0,0,0,57.258,8.211Zm-52,26.828H.859v-1.82h4.4ZM11.969,39a2.507,2.507,0,0,1-.227-.758,2.732,2.732,0,0,1-2.133.914,3,3,0,0,1-2.059-.719,2.312,2.312,0,0,1-.816-1.812,2.389,2.389,0,0,1,1-2.062,4.915,4.915,0,0,1,2.879-.727h1.039v-.484a1.393,1.393,0,0,0-.3-.937,1.183,1.183,0,0,0-.949-.352,1.345,1.345,0,0,0-.895.273.929.929,0,0,0-.324.75H6.922a2.268,2.268,0,0,1,.453-1.359,3,3,0,0,1,1.281-.98,4.669,4.669,0,0,1,1.859-.355,3.689,3.689,0,0,1,2.48.785,2.747,2.747,0,0,1,.918,2.207v3.664a4.041,4.041,0,0,0,.336,1.82V39ZM10.1,37.43a1.945,1.945,0,0,0,.922-.223,1.462,1.462,0,0,0,.625-.6V35.156H10.8q-1.7,0-1.8,1.172l-.008.133a.9.9,0,0,0,.3.7A1.153,1.153,0,0,0,10.1,37.43Zm13.156-2.578a5.07,5.07,0,0,1-.887,3.129,2.843,2.843,0,0,1-2.395,1.176,2.633,2.633,0,0,1-2.07-.891V42.25H15.648v-11.7h2.094l.078.828a2.654,2.654,0,0,1,2.141-.984,2.862,2.862,0,0,1,2.43,1.156,5.207,5.207,0,0,1,.867,3.188ZM21,34.679a3.345,3.345,0,0,0-.418-1.826,1.36,1.36,0,0,0-1.215-.643,1.478,1.478,0,0,0-1.461.815V36.5a1.5,1.5,0,0,0,1.477.839Q21,37.336,21,34.679Zm7.547,4.477a4.15,4.15,0,0,1-3.027-1.141,4.054,4.054,0,0,1-1.168-3.039v-.219a5.106,5.106,0,0,1,.492-2.277,3.612,3.612,0,0,1,1.395-1.547,3.914,3.914,0,0,1,2.059-.543,3.508,3.508,0,0,1,2.73,1.094,4.444,4.444,0,0,1,1,3.1v.922H26.641a2.1,2.1,0,0,0,.66,1.328,2,2,0,0,0,1.395.5,2.437,2.437,0,0,0,2.039-.945l1.109,1.242a3.389,3.389,0,0,1-1.375,1.121A4.511,4.511,0,0,1,28.547,39.156Zm-.258-6.945a1.411,1.411,0,0,0-1.09.455,2.357,2.357,0,0,0-.535,1.3H29.8v-.181a1.681,1.681,0,0,0-.406-1.165A1.456,1.456,0,0,0,28.289,32.211ZM35.688,39H33.422V27h2.266Zm4.242,0H37.664V27H39.93Zm4.242,0H41.906V30.547h2.266Zm-2.4-10.641a1.112,1.112,0,0,1,.34-.836,1.465,1.465,0,0,1,1.848,0,1.193,1.193,0,0,1,0,1.68,1.448,1.448,0,0,1-1.836,0A1.108,1.108,0,0,1,41.773,28.359Zm3.906,6.352a5.094,5.094,0,0,1,.887-3.148,2.877,2.877,0,0,1,2.426-1.172,2.589,2.589,0,0,1,2.039.922V27H53.3V39H51.258l-.109-.9a2.657,2.657,0,0,1-2.172,1.055,2.869,2.869,0,0,1-2.395-1.176A5.258,5.258,0,0,1,45.68,34.711Zm2.258.161a3.355,3.355,0,0,0,.414,1.829,1.348,1.348,0,0,0,1.2.636,1.51,1.51,0,0,0,1.477-.887V33.1a1.489,1.489,0,0,0-1.461-.887Q47.937,32.211,47.938,34.872ZM54.7,34.7a5.013,5.013,0,0,1,.484-2.242,3.546,3.546,0,0,1,1.395-1.523,4.069,4.069,0,0,1,2.113-.539,3.849,3.849,0,0,1,2.793,1.047,4.2,4.2,0,0,1,1.207,2.844l.016.578a4.418,4.418,0,0,1-1.086,3.121,4.209,4.209,0,0,1-5.832,0A4.5,4.5,0,0,1,54.7,34.8Zm2.258.16a3.16,3.16,0,0,0,.453,1.843,1.628,1.628,0,0,0,2.578.008,3.457,3.457,0,0,0,.461-2.015,3.128,3.128,0,0,0-.461-1.831,1.5,1.5,0,0,0-1.3-.649,1.474,1.474,0,0,0-1.281.646A3.516,3.516,0,0,0,56.953,34.856ZM5.258,59.039H.859v-1.82h4.4Zm1.461-.328a5.094,5.094,0,0,1,.887-3.148,2.877,2.877,0,0,1,2.426-1.172,2.589,2.589,0,0,1,2.039.922V51h2.266V63H12.3l-.109-.9a2.657,2.657,0,0,1-2.172,1.055A2.869,2.869,0,0,1,7.621,61.98,5.258,5.258,0,0,1,6.719,58.711Zm2.258.161A3.355,3.355,0,0,0,9.391,60.7a1.348,1.348,0,0,0,1.2.636,1.51,1.51,0,0,0,1.477-.887V57.1a1.489,1.489,0,0,0-1.461-.887Q8.977,56.211,8.977,58.872Zm6.758-.176a5.013,5.013,0,0,1,.484-2.242,3.546,3.546,0,0,1,1.395-1.523,4.069,4.069,0,0,1,2.113-.539,3.849,3.849,0,0,1,2.793,1.047,4.2,4.2,0,0,1,1.207,2.844l.016.578a4.418,4.418,0,0,1-1.086,3.121,3.775,3.775,0,0,1-2.914,1.176,3.793,3.793,0,0,1-2.918-1.172,4.5,4.5,0,0,1-1.09-3.187Zm2.258.16a3.16,3.16,0,0,0,.453,1.843,1.628,1.628,0,0,0,2.578.008,3.457,3.457,0,0,0,.461-2.015,3.128,3.128,0,0,0-.461-1.831,1.5,1.5,0,0,0-1.3-.649,1.474,1.474,0,0,0-1.281.646A3.516,3.516,0,0,0,17.992,58.856Zm10.656,2.48a1.481,1.481,0,0,0,1.016-.344,1.2,1.2,0,0,0,.406-.914h2.117a2.9,2.9,0,0,1-.469,1.574,3.093,3.093,0,0,1-1.262,1.109,3.949,3.949,0,0,1-1.77.395A3.67,3.67,0,0,1,25.828,62a4.56,4.56,0,0,1-1.047-3.184v-.148a4.508,4.508,0,0,1,1.039-3.117,3.627,3.627,0,0,1,2.852-1.164,3.555,3.555,0,0,1,2.543.9,3.2,3.2,0,0,1,.973,2.4H30.07a1.551,1.551,0,0,0-.406-1.072,1.51,1.51,0,0,0-2.223.163,3.333,3.333,0,0,0-.4,1.866v.235a3.375,3.375,0,0,0,.4,1.878A1.377,1.377,0,0,0,28.648,61.336Zm9.891.8a2.831,2.831,0,0,1-2.312,1.016,2.67,2.67,0,0,1-2.074-.781,3.335,3.335,0,0,1-.73-2.289V54.547H35.68v5.467q0,1.322,1.2,1.322a1.63,1.63,0,0,0,1.578-.8V54.547h2.266V63H38.6Zm6.008-7.594.07.945a2.971,2.971,0,0,1,2.43-1.1,2.255,2.255,0,0,1,2.242,1.289,2.9,2.9,0,0,1,2.539-1.289,2.521,2.521,0,0,1,2.047.8,3.681,3.681,0,0,1,.672,2.41V63H52.281V57.6A1.616,1.616,0,0,0,52,56.544a1.245,1.245,0,0,0-.992-.333,1.409,1.409,0,0,0-1.406.971L49.609,63H47.352V57.6a1.6,1.6,0,0,0-.289-1.065,1.257,1.257,0,0,0-.984-.329,1.463,1.463,0,0,0-1.391.8V63H42.43V54.547Zm15.625,8.609a4.15,4.15,0,0,1-3.027-1.141,4.054,4.054,0,0,1-1.168-3.039v-.219a5.106,5.106,0,0,1,.492-2.277,3.612,3.612,0,0,1,1.395-1.547,3.914,3.914,0,0,1,2.059-.543,3.508,3.508,0,0,1,2.73,1.094,4.444,4.444,0,0,1,1,3.1v.922H58.266a2.1,2.1,0,0,0,.66,1.328,2,2,0,0,0,1.395.5,2.437,2.437,0,0,0,2.039-.945l1.109,1.242a3.389,3.389,0,0,1-1.375,1.121A4.511,4.511,0,0,1,60.172,63.156Zm-.258-6.945a1.411,1.411,0,0,0-1.09.455,2.357,2.357,0,0,0-.535,1.3H61.43v-.181a1.681,1.681,0,0,0-.406-1.165A1.456,1.456,0,0,0,59.914,56.211Zm7.094-1.664.07.977a2.951,2.951,0,0,1,2.43-1.133,2.453,2.453,0,0,1,2,.789,3.682,3.682,0,0,1,.672,2.359V63H69.922V57.581a1.47,1.47,0,0,0-.312-1.045,1.4,1.4,0,0,0-1.039-.325,1.553,1.553,0,0,0-1.43.814V63H64.883V54.547Zm9.586-2.078v2.078h1.445V56.2H76.594v4.219a1.007,1.007,0,0,0,.18.672.9.9,0,0,0,.688.2,3.6,3.6,0,0,0,.664-.055v1.711a4.648,4.648,0,0,1-1.367.2,2.156,2.156,0,0,1-2.422-2.4V56.2H73.1V54.547h1.234V52.469ZM78.711,58.7a5.013,5.013,0,0,1,.484-2.242A3.546,3.546,0,0,1,80.59,54.93a4.069,4.069,0,0,1,2.113-.539A3.849,3.849,0,0,1,85.5,55.438,4.2,4.2,0,0,1,86.7,58.281l.016.578a4.418,4.418,0,0,1-1.086,3.121,4.209,4.209,0,0,1-5.832,0,4.5,4.5,0,0,1-1.09-3.187Zm2.258.16a3.16,3.16,0,0,0,.453,1.843A1.628,1.628,0,0,0,84,60.706a3.457,3.457,0,0,0,.461-2.015A3.128,3.128,0,0,0,84,56.86a1.5,1.5,0,0,0-1.3-.649,1.474,1.474,0,0,0-1.281.646A3.516,3.516,0,0,0,80.969,58.856Z" transform="translate(705 4151)" fill="#12263f"/>
      <path id="Trazado_878005" data-name="Trazado 878005" d="M5.422,8.633h2.82v2.039H5.422v3.188H3.273V10.672H.445V8.633H3.273V5.578H5.422Zm3.852,2.078A4.954,4.954,0,0,1,10.2,7.578a3,3,0,0,1,2.5-1.187,2.631,2.631,0,0,1,2.164.953l.094-.8H17v8.172a3.613,3.613,0,0,1-.5,1.93,3.236,3.236,0,0,1-1.418,1.25,4.985,4.985,0,0,1-2.141.43,4.635,4.635,0,0,1-1.812-.371A3.217,3.217,0,0,1,9.789,17l1-1.375a2.645,2.645,0,0,0,2.047.945,1.936,1.936,0,0,0,1.4-.48,1.8,1.8,0,0,0,.5-1.363v-.453a2.612,2.612,0,0,1-2.055.883,2.992,2.992,0,0,1-2.465-1.191,4.953,4.953,0,0,1-.941-3.16Zm2.258.161a3.1,3.1,0,0,0,.461,1.809,1.465,1.465,0,0,0,1.266.655,1.567,1.567,0,0,0,1.477-.777V8.988a1.563,1.563,0,0,0-1.461-.777A1.474,1.474,0,0,0,12,8.878,3.5,3.5,0,0,0,11.531,10.872Zm11.094,4.285A4.15,4.15,0,0,1,19.6,14.016a4.054,4.054,0,0,1-1.168-3.039v-.219a5.106,5.106,0,0,1,.492-2.277,3.612,3.612,0,0,1,1.395-1.547,3.914,3.914,0,0,1,2.059-.543,3.508,3.508,0,0,1,2.73,1.094,4.444,4.444,0,0,1,1,3.1v.922H20.719a2.1,2.1,0,0,0,.66,1.328,2,2,0,0,0,1.395.5,2.437,2.437,0,0,0,2.039-.945l1.109,1.242a3.389,3.389,0,0,1-1.375,1.121A4.511,4.511,0,0,1,22.625,15.156Zm-.258-6.945a1.411,1.411,0,0,0-1.09.455,2.357,2.357,0,0,0-.535,1.3h3.141V9.788a1.681,1.681,0,0,0-.406-1.165A1.456,1.456,0,0,0,22.367,8.211Zm7.719-3.742V6.547h1.445V8.2H30.086v4.219a1.007,1.007,0,0,0,.18.672.9.9,0,0,0,.688.2,3.6,3.6,0,0,0,.664-.055v1.711a4.648,4.648,0,0,1-1.367.2,2.156,2.156,0,0,1-2.422-2.4V8.2H26.594V6.547h1.234V4.469ZM42.188,15H39.844L35.281,7.516V15H32.938V3.625h2.344l4.57,7.5v-7.5h2.336Zm1.547-4.3a5.013,5.013,0,0,1,.484-2.242A3.546,3.546,0,0,1,45.613,6.93a4.069,4.069,0,0,1,2.113-.539A3.849,3.849,0,0,1,50.52,7.438a4.2,4.2,0,0,1,1.207,2.844l.016.578a4.418,4.418,0,0,1-1.086,3.121,4.209,4.209,0,0,1-5.832,0,4.5,4.5,0,0,1-1.09-3.187Zm2.258.16a3.16,3.16,0,0,0,.453,1.843,1.628,1.628,0,0,0,2.578.008,3.457,3.457,0,0,0,.461-2.015,3.128,3.128,0,0,0-.461-1.831,1.5,1.5,0,0,0-1.3-.649,1.474,1.474,0,0,0-1.281.646A3.516,3.516,0,0,0,45.992,10.856ZM55.25,6.547l.07.945a2.971,2.971,0,0,1,2.43-1.1A2.255,2.255,0,0,1,59.992,7.68a2.9,2.9,0,0,1,2.539-1.289,2.521,2.521,0,0,1,2.047.8A3.681,3.681,0,0,1,65.25,9.6V15H62.984V9.6A1.616,1.616,0,0,0,62.7,8.544a1.245,1.245,0,0,0-.992-.333,1.409,1.409,0,0,0-1.406.971L60.313,15H58.055V9.6a1.6,1.6,0,0,0-.289-1.065,1.257,1.257,0,0,0-.984-.329,1.463,1.463,0,0,0-1.391.8V15H53.133V6.547Zm19.352,4.3a5.119,5.119,0,0,1-.867,3.168,2.872,2.872,0,0,1-2.422,1.137,2.639,2.639,0,0,1-2.2-1.055l-.1.9H66.984V3h2.258V7.3A2.571,2.571,0,0,1,71.3,6.391a2.9,2.9,0,0,1,2.426,1.137,5.126,5.126,0,0,1,.879,3.2Zm-2.258-.172A3.381,3.381,0,0,0,71.938,8.8a1.372,1.372,0,0,0-1.211-.592,1.489,1.489,0,0,0-1.484.885v3.346a1.509,1.509,0,0,0,1.5.893,1.4,1.4,0,0,0,1.438-1.081A5.6,5.6,0,0,0,72.344,10.679Zm8.4-2.015A6.134,6.134,0,0,0,79.93,8.6a1.654,1.654,0,0,0-1.68.867V15H75.992V6.547h2.133l.063,1.008A2.092,2.092,0,0,1,80.07,6.391a2.366,2.366,0,0,1,.7.1Zm4.828,6.492a4.15,4.15,0,0,1-3.027-1.141,4.054,4.054,0,0,1-1.168-3.039v-.219a5.106,5.106,0,0,1,.492-2.277,3.612,3.612,0,0,1,1.395-1.547,3.914,3.914,0,0,1,2.059-.543,3.508,3.508,0,0,1,2.73,1.094,4.444,4.444,0,0,1,1,3.1v.922H83.664a2.1,2.1,0,0,0,.66,1.328,2,2,0,0,0,1.395.5,2.437,2.437,0,0,0,2.039-.945l1.109,1.242a3.389,3.389,0,0,1-1.375,1.121A4.511,4.511,0,0,1,85.57,15.156Zm-.258-6.945a1.411,1.411,0,0,0-1.09.455,2.357,2.357,0,0,0-.535,1.3h3.141V9.788a1.681,1.681,0,0,0-.406-1.165A1.456,1.456,0,0,0,85.313,8.211ZM5.422,32.633h2.82v2.039H5.422v3.188H3.273V34.672H.445V32.633H3.273V29.578H5.422Zm3.852,2.078a4.954,4.954,0,0,1,.926-3.133,3,3,0,0,1,2.5-1.187,2.631,2.631,0,0,1,2.164.953l.094-.8H17v8.172a3.613,3.613,0,0,1-.5,1.93,3.236,3.236,0,0,1-1.418,1.25,4.985,4.985,0,0,1-2.141.43,4.635,4.635,0,0,1-1.812-.371A3.217,3.217,0,0,1,9.789,41l1-1.375a2.645,2.645,0,0,0,2.047.945,1.936,1.936,0,0,0,1.4-.48,1.8,1.8,0,0,0,.5-1.363v-.453a2.612,2.612,0,0,1-2.055.883,2.992,2.992,0,0,1-2.465-1.191,4.953,4.953,0,0,1-.941-3.16Zm2.258.161a3.1,3.1,0,0,0,.461,1.809,1.465,1.465,0,0,0,1.266.655,1.567,1.567,0,0,0,1.477-.777V32.988a1.563,1.563,0,0,0-1.461-.777A1.474,1.474,0,0,0,12,32.878,3.5,3.5,0,0,0,11.531,34.872Zm11.094,4.285A4.15,4.15,0,0,1,19.6,38.016a4.054,4.054,0,0,1-1.168-3.039v-.219a5.106,5.106,0,0,1,.492-2.277,3.612,3.612,0,0,1,1.395-1.547,3.914,3.914,0,0,1,2.059-.543,3.508,3.508,0,0,1,2.73,1.094,4.444,4.444,0,0,1,1,3.1v.922H20.719a2.1,2.1,0,0,0,.66,1.328,2,2,0,0,0,1.395.5,2.437,2.437,0,0,0,2.039-.945l1.109,1.242a3.389,3.389,0,0,1-1.375,1.121A4.511,4.511,0,0,1,22.625,39.156Zm-.258-6.945a1.411,1.411,0,0,0-1.09.455,2.357,2.357,0,0,0-.535,1.3h3.141v-.181a1.681,1.681,0,0,0-.406-1.165A1.456,1.456,0,0,0,22.367,32.211Zm7.719-3.742v2.078h1.445V32.2H30.086v4.219a1.007,1.007,0,0,0,.18.672.9.9,0,0,0,.688.2,3.6,3.6,0,0,0,.664-.055v1.711a4.648,4.648,0,0,1-1.367.2,2.156,2.156,0,0,1-2.422-2.4V32.2H26.594V30.547h1.234V28.469Zm9.273,8.188H35.25L34.469,39H31.977l4.234-11.375h2.172L42.641,39H40.148Zm-3.477-1.9h2.844L37.3,30.5Zm14.906.094A5.07,5.07,0,0,1,49.9,37.98a2.843,2.843,0,0,1-2.395,1.176,2.633,2.633,0,0,1-2.07-.891V42.25H43.18v-11.7h2.094l.078.828a2.654,2.654,0,0,1,2.141-.984,2.862,2.862,0,0,1,2.43,1.156,5.207,5.207,0,0,1,.867,3.188Zm-2.258-.172a3.345,3.345,0,0,0-.418-1.826,1.36,1.36,0,0,0-1.215-.643,1.478,1.478,0,0,0-1.461.815V36.5a1.5,1.5,0,0,0,1.477.839Q48.531,37.336,48.531,34.679Zm7.547,4.477a4.15,4.15,0,0,1-3.027-1.141,4.054,4.054,0,0,1-1.168-3.039v-.219a5.106,5.106,0,0,1,.492-2.277,3.612,3.612,0,0,1,1.395-1.547,3.914,3.914,0,0,1,2.059-.543,3.508,3.508,0,0,1,2.73,1.094,4.444,4.444,0,0,1,1,3.1v.922H54.172a2.1,2.1,0,0,0,.66,1.328,2,2,0,0,0,1.395.5,2.437,2.437,0,0,0,2.039-.945l1.109,1.242A3.389,3.389,0,0,1,58,38.754,4.511,4.511,0,0,1,56.078,39.156Zm-.258-6.945a1.411,1.411,0,0,0-1.09.455,2.357,2.357,0,0,0-.535,1.3h3.141v-.181a1.681,1.681,0,0,0-.406-1.165A1.456,1.456,0,0,0,55.82,32.211ZM63.219,39H60.953V27h2.266Zm4.242,0H65.2V27h2.266ZM71.7,39H69.438V30.547H71.7ZM69.3,28.359a1.112,1.112,0,0,1,.34-.836,1.465,1.465,0,0,1,1.848,0,1.193,1.193,0,0,1,0,1.68,1.448,1.448,0,0,1-1.836,0A1.108,1.108,0,0,1,69.3,28.359Zm3.906,6.352a5.094,5.094,0,0,1,.887-3.148,2.877,2.877,0,0,1,2.426-1.172,2.589,2.589,0,0,1,2.039.922V27h2.266V39H78.789l-.109-.9a2.657,2.657,0,0,1-2.172,1.055,2.869,2.869,0,0,1-2.395-1.176A5.258,5.258,0,0,1,73.211,34.711Zm2.258.161a3.355,3.355,0,0,0,.414,1.829,1.348,1.348,0,0,0,1.2.636,1.51,1.51,0,0,0,1.477-.887V33.1a1.489,1.489,0,0,0-1.461-.887Q75.469,32.211,75.469,34.872Zm6.758-.176a5.013,5.013,0,0,1,.484-2.242,3.546,3.546,0,0,1,1.395-1.523,4.069,4.069,0,0,1,2.113-.539,3.849,3.849,0,0,1,2.793,1.047,4.2,4.2,0,0,1,1.207,2.844l.016.578a4.418,4.418,0,0,1-1.086,3.121,4.209,4.209,0,0,1-5.832,0,4.5,4.5,0,0,1-1.09-3.187Zm2.258.16a3.16,3.16,0,0,0,.453,1.843,1.628,1.628,0,0,0,2.578.008,3.457,3.457,0,0,0,.461-2.015,3.128,3.128,0,0,0-.461-1.831,1.5,1.5,0,0,0-1.3-.649,1.474,1.474,0,0,0-1.281.646A3.516,3.516,0,0,0,84.484,34.856Z" transform="translate(705 4239)" fill="#12263f"/>
      <line id="Línea_772" data-name="Línea 772" x2="270" transform="translate(685 4230)" fill="none" stroke="#debefb" stroke-width="1"/>
      <g id="Grupo_1102536" data-name="Grupo 1102536" transform="translate(885 4072)">
        <circle id="Elipse_11630" data-name="Elipse 11630" cx="30" cy="30" r="30" fill="#a854f3"/>
        <g id="Grupo_1102534" data-name="Grupo 1102534" transform="translate(14 9)">
          <g id="Grupo_1102534-2" data-name="Grupo 1102534" transform="translate(0 0)">
            <path id="Trazado_877989" data-name="Trazado 877989" d="M82.15,25.447a15.539,15.539,0,0,0-2.58-.822V22.077a.6.6,0,0,0-1.207,0v3.016h0v3.323a.379.379,0,0,1-.378.378A4.09,4.09,0,0,1,73.9,24.71V19.6a7.8,7.8,0,0,0,3.205-4.926h.6a1.857,1.857,0,0,0,.659-.121v4.7a.6.6,0,0,0,1.207,0V8.6A8.585,8.585,0,0,0,70.981,0c-1.139,0-2.331,0-2.469,0a8.585,8.585,0,0,0-8.543,8.6c0,.111,0,6.681,0,8.116a9.741,9.741,0,0,0,2.953,7.008,2.16,2.16,0,0,0-.766.45,22.241,22.241,0,0,0-4.769,1.277,6.612,6.612,0,0,0-3.919,6.034V33.4a.6.6,0,0,0,1.207,0V31.482a5.4,5.4,0,0,1,3.2-4.932A18.607,18.607,0,0,1,61.5,25.525a2.061,2.061,0,0,0,.213,1.088l.484.959c.349.693-.3,1.068-1.333,3.031a2.069,2.069,0,0,0,.275,2.458l.019.019L68.282,40H59.848V37.622a.6.6,0,1,0-1.207,0V40H55.809a1.133,1.133,0,0,1-1.131-1.131V36.221a.6.6,0,1,0-1.207,0v2.646a2.341,2.341,0,0,0,2.339,2.339H83.731a2.341,2.341,0,0,0,2.339-2.339V31.482A6.612,6.612,0,0,0,82.15,25.447Zm-5.3,4.43.789,1.338a.856.856,0,0,1-.106,1.008l-5.711,5.546.407-.835A18.529,18.529,0,0,0,74.295,28.5a5.286,5.286,0,0,0,2.553,1.38ZM69.77,39.224,68.4,36.405a17.377,17.377,0,0,1-1.945-7.432,10.609,10.609,0,0,0,6.636,0,17.339,17.339,0,0,1-1.945,7.43ZM72.693,24.71a5.3,5.3,0,0,0,.246,1.6q.09.711.127,1.4a9.392,9.392,0,0,1-6.594,0c.03-.557.086-1.124.169-1.705a20.722,20.722,0,0,0,.2-2.9V20.368a6.965,6.965,0,0,0,2.911.9h.026a6.967,6.967,0,0,0,2.911-.9ZM69.77,20.062c-2.2-.06-6.224-2.743-6.224-6.517L63.53,9.984a.672.672,0,0,1,.672-.675,3,3,0,0,0,2.706-1.7,7.492,7.492,0,0,0,6.036,3.055H76l-.007,2.889c0,3.863-4.117,6.456-6.224,6.514ZM61.177,11.3a.659.659,0,0,1,.658-.645h.491l.013,2.81h-.5a.66.66,0,0,1-.658-.638ZM77.7,13.468h-.5l.007-2.81h.5a.659.659,0,0,1,.658.658V12.81a.66.66,0,0,1-.659.659ZM78.363,8.6v.855h-5.42a6.3,6.3,0,0,1-6.291-6.291v-.04A1.906,1.906,0,0,1,68.433,1.21c.329-.005,1.388,0,2.548,0A7.379,7.379,0,0,1,78.363,8.6Zm-12.6-6.842a5.684,5.684,0,0,0,.236,4.222v.331A1.8,1.8,0,0,1,64.2,8.1a1.879,1.879,0,0,0-1.8,1.351h-.563a1.855,1.855,0,0,0-.658.12V8.6A7.386,7.386,0,0,1,65.759,1.755ZM61.178,16.712V14.556a1.858,1.858,0,0,0,.658.12h.6A7.8,7.8,0,0,0,65.639,19.6v3.077l-1.455.558A8.546,8.546,0,0,1,61.178,16.712Zm.83,15.511a.856.856,0,0,1-.106-1.008c.756-1.593,2.141-2.662,1.371-4.188l-.484-.959a.852.852,0,0,1,.455-1.179l2.374-.911c-.028.618-.086,1.236-.173,1.846a18.216,18.216,0,0,0,1.866,11.108l.407.835Zm22.854,6.644A1.133,1.133,0,0,1,83.731,40H80.9V37.622a.6.6,0,1,0-1.207,0V40H71.258l7.126-6.92.019-.019a2.069,2.069,0,0,0,.275-2.458L78.3,29.97a1.588,1.588,0,0,0,1.267-1.553V25.869a13.443,13.443,0,0,1,2.089.681,5.4,5.4,0,0,1,3.2,4.932v7.385Z" transform="translate(-53.47 0)" fill="#fff"/>
          </g>
        </g>
      </g>
    </g>
    <g id="Grupo_1102541" data-name="Grupo 1102541" transform="translate(-1450.184 -6909.5)">
      <line id="Línea_776" data-name="Línea 776" x1="13.658" transform="translate(0.5 138)" fill="none" stroke="#3a1d71" stroke-linecap="round" stroke-width="1"/>
      <line id="Línea_777" data-name="Línea 777" y1="138" transform="translate(0)" fill="none" stroke="#3a1d71" stroke-linecap="round" stroke-width="1"/>
    </g>
    <g id="Grupo_1102544" data-name="Grupo 1102544" transform="translate(-1468.658 -6909.5)">
      <line id="Línea_776-2" data-name="Línea 776" x1="36.468" transform="translate(0.5 253.416)" fill="none" stroke="#3a1d71" stroke-linecap="round" stroke-width="1"/>
      <line id="Línea_777-2" data-name="Línea 777" y1="253.416" fill="none" stroke="#3a1d71" stroke-linecap="round" stroke-width="1"/>
    </g>
    <path id="Trazado_877991" data-name="Trazado 877991" d="M11.09,0V11.09H0Z" transform="translate(-1450.184 -6894.658) rotate(-135)" fill="#f0c518"/>
    <path id="Trazado_877992" data-name="Trazado 877992" d="M11.09,0V11.09H0Z" transform="translate(-1468.658 -6894.658) rotate(-135)" fill="#f0c518"/>
  </g>
</svg>
