<svg xmlns="http://www.w3.org/2000/svg" width="130" height="130" viewBox="0 0 130 130">
  <g id="Grupo_1102308" data-name="Grupo 1102308" transform="translate(-390 -8162)">
    <rect id="Rectángulo_402592" data-name="Rectángulo 402592" width="130" height="130" rx="21" transform="translate(390 8162)" fill="#f7eefe"/>
    <g id="Grupo_1102312" data-name="Grupo 1102312" transform="translate(418.001 8190.001)">
      <path id="Trazado_877696" data-name="Trazado 877696" d="M39.778,60H34.222a1,1,0,0,1-.988-.845l-1.039-6.6A15.948,15.948,0,0,1,29.4,51.4L24,55.338a1,1,0,0,1-1.3-.1L18.765,51.3a1,1,0,0,1-.1-1.3l3.942-5.4a15.941,15.941,0,0,1-1.158-2.8l-6.6-1.039A1,1,0,0,1,14,39.778V34.223a1,1,0,0,1,.844-.988l6.6-1.04a15.941,15.941,0,0,1,1.158-2.8L18.66,24a1,1,0,0,1,.1-1.3l3.931-3.93a1,1,0,0,1,1.3-.1l5.4,3.942a15.948,15.948,0,0,1,2.8-1.159l1.039-6.6A1,1,0,0,1,34.222,14h5.556a1,1,0,0,1,.988.845l1.039,6.6a15.948,15.948,0,0,1,2.8,1.159l5.4-3.942a1,1,0,0,1,1.3.1l3.931,3.93a1,1,0,0,1,.1,1.3l-3.942,5.4a15.941,15.941,0,0,1,1.158,2.8l6.6,1.04A1,1,0,0,1,60,34.22v5.556a1,1,0,0,1-.845.988l-6.6,1.039a15.942,15.942,0,0,1-1.158,2.8L55.335,50a1,1,0,0,1-.1,1.3L51.3,55.234a1,1,0,0,1-1.3.1l-5.4-3.942a15.948,15.948,0,0,1-2.8,1.159l-1.039,6.6a1,1,0,0,1-.983.849Zm-4.7-2h3.846l1.006-6.392a1,1,0,0,1,.736-.812,13.9,13.9,0,0,0,3.512-1.452,1,1,0,0,1,1.094.057L50.5,53.215,53.22,50.5,49.4,45.271a1,1,0,0,1-.056-1.094A13.979,13.979,0,0,0,50.8,40.665a1,1,0,0,1,.813-.736l6.392-1V35.077l-6.392-1.006a1,1,0,0,1-.812-.736,13.979,13.979,0,0,0-1.451-3.512,1,1,0,0,1,.056-1.094L53.215,23.5,50.5,20.785,45.271,24.6a1,1,0,0,1-1.094.057A13.9,13.9,0,0,0,40.665,23.2a1,1,0,0,1-.736-.812L38.923,16H35.077l-1.006,6.392a1,1,0,0,1-.736.813,13.9,13.9,0,0,0-3.512,1.452,1,1,0,0,1-1.094-.057L23.5,20.785,20.785,23.5,24.6,28.729a1,1,0,0,1,.056,1.094A13.979,13.979,0,0,0,23.2,33.335a1,1,0,0,1-.812.736L16,35.077v3.847l6.392,1a1,1,0,0,1,.813.736,13.979,13.979,0,0,0,1.451,3.512,1,1,0,0,1-.056,1.094L20.785,50.5l2.72,2.719L28.729,49.4a1,1,0,0,1,1.094-.057A13.9,13.9,0,0,0,33.335,50.8a1,1,0,0,1,.736.813Z" fill="#a854f3"/>
      <path id="Trazado_877697" data-name="Trazado 877697" d="M37,45.986A8.986,8.986,0,1,1,45.986,37,8.986,8.986,0,0,1,37,45.986Zm0-15.973A6.986,6.986,0,1,0,43.986,37,6.986,6.986,0,0,0,37,30.013Z" fill="#a854f3"/>
      <path id="Trazado_877698" data-name="Trazado 877698" d="M2.621,43.569a35,35,0,0,1,65.6-22.378l-1.784.9a33,33,0,0,0-61.85,21.1Z" fill="#a854f3"/>
      <path id="Trazado_877699" data-name="Trazado 877699" d="M68,22.975l-7.864-3.027.718-1.867,5.8,2.232,1.633-5.995,1.93.526Z" fill="#a854f3"/>
      <path id="Trazado_877700" data-name="Trazado 877700" d="M37.057,71.989A35.031,35.031,0,0,1,5.781,52.809l1.784-.9a33,33,0,0,0,61.851-21.1l1.964-.377A34.994,34.994,0,0,1,37.057,71.989Z" fill="#a854f3"/>
      <path id="Trazado_877701" data-name="Trazado 877701" d="M5.714,59.682l-1.929-.526L6,51.025l7.864,3.027-.718,1.867-5.8-2.231Z" fill="#a854f3"/>
    </g>
  </g>
</svg>
