<svg xmlns="http://www.w3.org/2000/svg" width="100" height="100" viewBox="0 0 100 100">
  <g id="Grupo_1102255" data-name="Grupo 1102255" transform="translate(-840 -7125)">
    <circle id="Elipse_11619" data-name="Elipse 11619" cx="50" cy="50" r="50" transform="translate(840 7125)" fill="#0b47db"/>
    <g id="Grupo_1102304" data-name="Grupo 1102304" transform="translate(860.084 7144.59)">
      <path id="Trazado_877666" data-name="Trazado 877666" d="M36.275,134.256a.876.876,0,1,0,1.238-1.238l-2.126-2.126,2.126-2.126a.876.876,0,1,0-1.238-1.238l-2.745,2.745a.876.876,0,0,0,0,1.238Zm0,0" transform="translate(-29.386 -111.957)" fill="#fff"/>
      <path id="Trazado_877667" data-name="Trazado 877667" d="M115.313,130.888l-2.126,2.126a.876.876,0,1,0,1.238,1.238l2.746-2.746a.875.875,0,0,0,0-1.238l-2.746-2.746a.875.875,0,0,0-1.238,1.238Zm0,0" transform="translate(-99.735 -111.954)" fill="#fff"/>
      <path id="Trazado_877668" data-name="Trazado 877668" d="M76.973,134.447a.876.876,0,0,0,1.135-.495l2.157-5.491a.875.875,0,1,0-1.63-.64l-2.157,5.491a.876.876,0,0,0,.495,1.135Zm0,0" transform="translate(-67.488 -111.952)" fill="#fff"/>
      <path id="Trazado_877669" data-name="Trazado 877669" d="M38.391,219.966h5.9a.876.876,0,0,0,0-1.751h-5.9a.876.876,0,0,0,0,1.751Zm0,0" transform="translate(-33.132 -192.274)" fill="#fff"/>
      <path id="Trazado_877670" data-name="Trazado 877670" d="M126.758,218.215H116.387a.876.876,0,0,0,0,1.751h10.371a.876.876,0,1,0,0-1.751Zm0,0" transform="translate(-102.014 -192.275)" fill="#fff"/>
      <path id="Trazado_877671" data-name="Trazado 877671" d="M38.391,251.572H40.9a.876.876,0,0,0,0-1.751H38.391a.876.876,0,0,0,0,1.751Zm0,0" transform="translate(-33.132 -220.187)" fill="#fff"/>
      <path id="Trazado_877672" data-name="Trazado 877672" d="M177.723,249.82a.876.876,0,0,0,0,1.751h1.53a.876.876,0,1,0,0-1.751Zm0,0" transform="translate(-156.183 -220.186)" fill="#fff"/>
      <path id="Trazado_877673" data-name="Trazado 877673" d="M94.579,250.7a.876.876,0,0,0-.875-.875H86.188a.876.876,0,0,0,0,1.751H93.7A.876.876,0,0,0,94.579,250.7Zm0,0" transform="translate(-75.344 -220.187)" fill="#fff"/>
      <path id="Trazado_877674" data-name="Trazado 877674" d="M213.7,250.7a.876.876,0,0,0,.875.876h2.866a.876.876,0,1,0,0-1.751h-2.866A.876.876,0,0,0,213.7,250.7Zm0,0" transform="translate(-188.732 -220.187)" fill="#fff"/>
      <path id="Trazado_877675" data-name="Trazado 877675" d="M166.275,151.029H169.3a.876.876,0,1,0,0-1.751h-3.023a.876.876,0,1,0,0,1.751Zm0,0" transform="translate(-146.072 -131.393)" fill="#fff"/>
      <path id="Trazado_877676" data-name="Trazado 877676" d="M221.122,151.029h18.446a.876.876,0,0,0,0-1.751H221.122a.876.876,0,1,0,0,1.751Zm0,0" transform="translate(-194.51 -131.393)" fill="#fff"/>
      <path id="Trazado_877677" data-name="Trazado 877677" d="M298.531,182.246h-7.472a.876.876,0,0,0,0,1.751h7.472a.876.876,0,0,0,0-1.751Zm0,0" transform="translate(-256.275 -160.509)" fill="#fff"/>
      <path id="Trazado_877678" data-name="Trazado 877678" d="M247.67,182.246H245.1a.876.876,0,0,0,0,1.751h2.569a.876.876,0,0,0,0-1.751Zm0,0" transform="translate(-215.688 -160.509)" fill="#fff"/>
      <path id="Trazado_877679" data-name="Trazado 877679" d="M166.275,184h6.292a.876.876,0,0,0,0-1.751h-6.292a.876.876,0,1,0,0,1.751Zm0,0" transform="translate(-146.072 -160.508)" fill="#fff"/>
      <path id="Trazado_877680" data-name="Trazado 877680" d="M106.021,281.16h-5.9a.875.875,0,1,0,0,1.751h5.9a.875.875,0,1,0,0-1.751Zm0,0" transform="translate(-87.65 -247.864)" fill="#fff"/>
      <path id="Trazado_877681" data-name="Trazado 877681" d="M42.923,281.16H38.391a.875.875,0,1,0,0,1.751h4.532a.875.875,0,1,0,0-1.751Zm0,0" transform="translate(-33.132 -247.864)" fill="#fff"/>
      <path id="Trazado_877682" data-name="Trazado 877682" d="M183.87,281.16h-7.705a.875.875,0,1,0,0,1.751h7.705a.875.875,0,0,0,0-1.751Zm0,0" transform="translate(-154.807 -247.864)" fill="#fff"/>
      <path id="Trazado_877683" data-name="Trazado 877683" d="M299.436,242.668h-4.214a.876.876,0,0,0,0,1.751h4.214a.876.876,0,0,0,0-1.751Zm0,0" transform="translate(-259.952 -213.87)" fill="#fff"/>
      <path id="Trazado_877684" data-name="Trazado 877684" d="M393.852,244.419H399.8a.876.876,0,1,0,0-1.751h-5.948a.876.876,0,0,0,0,1.751Zm0,0" transform="translate(-347.057 -213.87)" fill="#fff"/>
      <path id="Trazado_877685" data-name="Trazado 877685" d="M358.095,242.668h-1.363a.876.876,0,1,0,0,1.751h1.363a.876.876,0,0,0,0-1.751Zm0,0" transform="translate(-314.274 -213.87)" fill="#fff"/>
      <path id="Trazado_877686" data-name="Trazado 877686" d="M295.223,326.08h4.214a.875.875,0,1,0,0-1.751h-4.214a.875.875,0,1,0,0,1.751Zm0,0" transform="translate(-259.953 -285.988)" fill="#fff"/>
      <path id="Trazado_877687" data-name="Trazado 877687" d="M393.852,326.08H399.8a.875.875,0,1,0,0-1.751h-5.948a.875.875,0,0,0,0,1.751Zm0,0" transform="translate(-347.057 -285.988)" fill="#fff"/>
      <path id="Trazado_877688" data-name="Trazado 877688" d="M356.735,326.08H358.1a.875.875,0,1,0,0-1.751h-1.363a.875.875,0,0,0,0,1.751Zm0,0" transform="translate(-314.277 -285.988)" fill="#fff"/>
      <path id="Trazado_877689" data-name="Trazado 877689" d="M299.436,405.988h-4.214a.875.875,0,0,0,0,1.751h4.214a.875.875,0,1,0,0-1.751Zm0,0" transform="translate(-259.952 -358.106)" fill="#fff"/>
      <path id="Trazado_877690" data-name="Trazado 877690" d="M399.8,405.988h-5.948a.875.875,0,0,0,0,1.751H399.8a.875.875,0,1,0,0-1.751Zm0,0" transform="translate(-347.057 -358.106)" fill="#fff"/>
      <path id="Trazado_877691" data-name="Trazado 877691" d="M358.095,405.988h-1.363a.875.875,0,1,0,0,1.751h1.363a.875.875,0,1,0,0-1.751Zm0,0" transform="translate(-314.274 -358.106)" fill="#fff"/>
      <path id="Trazado_877692" data-name="Trazado 877692" d="M55.975.5H3.853A3.858,3.858,0,0,0,0,4.354V46.721a3.858,3.858,0,0,0,3.854,3.853h3.3a.875.875,0,1,0,0-1.751h-3.3a2.1,2.1,0,0,1-2.1-2.1V43.4h31.9v1.509h-.694a1.724,1.724,0,0,0-1.722,1.722v2.193H12.472a.875.875,0,1,0,0,1.751h8.419v3.14H18.247a3.2,3.2,0,0,0-3.2,3.2V58.8a1.461,1.461,0,0,0,1.459,1.459H43.253A1.461,1.461,0,0,0,44.712,58.8V56.913a3.2,3.2,0,0,0-3.2-3.2H38.87V52.608H55.057a1.724,1.724,0,0,0,1.722-1.722v-.412a3.859,3.859,0,0,0,2.982-3.753l.066-42.367A3.857,3.857,0,0,0,55.975.5ZM32.986,41.314v-4.2H55.028v4.2ZM35.4,35.366V33.524H52.612v1.842Zm17.209,7.7v1.843H35.4V43.065Zm-29.97,7.509h8.593v.312a1.724,1.724,0,0,0,1.722,1.722h4.162v1.107H22.642Zm18.872,4.892a1.449,1.449,0,0,1,1.447,1.447v1.6H16.8v-1.6a1.449,1.449,0,0,1,1.447-1.447Zm13.514-4.61H32.986v-4.2H55.028Zm2.982-4.135a2.1,2.1,0,0,1-1.231,1.911v-2a1.724,1.724,0,0,0-1.722-1.722h-.694V43.4H58.01Zm0-5.073h-1.26c.018-.1.029-4.56.029-4.56a1.724,1.724,0,0,0-1.722-1.722h-.694V33.524h.694A1.724,1.724,0,0,0,56.779,31.8V27.546a1.724,1.724,0,0,0-1.722-1.722H50.111a.876.876,0,0,0,0,1.751h4.916v4.2H32.986v-4.2H44.663a.876.876,0,0,0,0-1.751H32.957a1.724,1.724,0,0,0-1.722,1.722V31.8a1.724,1.724,0,0,0,1.722,1.722h.694v1.842h-.694a1.724,1.724,0,0,0-1.722,1.722s.011,4.461.029,4.56H1.751V12.411H58.01Zm0-30.989H1.815V4.353a2.1,2.1,0,0,1,2.1-2.1h51.99a2.1,2.1,0,0,1,2.1,2.1Zm0,0" fill="#fff"/>
      <path id="Trazado_877693" data-name="Trazado 877693" d="M35.843,29.262a2.57,2.57,0,1,0,2.57,2.569A2.572,2.572,0,0,0,35.843,29.262Zm0,3.388a.818.818,0,1,1,.818-.818A.819.819,0,0,1,35.843,32.65Zm0,0" transform="translate(-29.386 -25.401)" fill="#fff"/>
      <path id="Trazado_877694" data-name="Trazado 877694" d="M91.828,29.262A2.57,2.57,0,1,0,94.4,31.831,2.573,2.573,0,0,0,91.828,29.262Zm0,3.388a.818.818,0,1,1,.818-.818A.819.819,0,0,1,91.828,32.65Zm0,0" transform="translate(-78.828 -25.401)" fill="#fff"/>
      <path id="Trazado_877695" data-name="Trazado 877695" d="M147.815,29.262a2.57,2.57,0,1,0,2.57,2.569A2.572,2.572,0,0,0,147.815,29.262Zm0,3.388a.818.818,0,1,1,.818-.818A.819.819,0,0,1,147.815,32.65Zm0,0" transform="translate(-128.274 -25.401)" fill="#fff"/>
    </g>
  </g>
</svg>
