<svg xmlns="http://www.w3.org/2000/svg" width="130" height="130" viewBox="0 0 130 130">
  <g id="Grupo_1102310" data-name="Grupo 1102310" transform="translate(-390 -8162)">
    <rect id="Rectángulo_402592" data-name="Rectángulo 402592" width="130" height="130" rx="21" transform="translate(390 8162)" fill="#f7eefe"/>
    <g id="_10-awareness" data-name="10-awareness" transform="translate(413.562 8148.099)">
      <g id="linear_color" data-name="linear color" transform="translate(4 48)">
        <path id="Trazado_877726" data-name="Trazado 877726" d="M59.266,48a4.759,4.759,0,0,0-4.754,4.754v.791c-5.076,5.372-11.943,9.051-16.88,11.212C31.568,67.411,25.988,68.8,23.61,68.8H9.348A5.354,5.354,0,0,0,4,74.147v9.508A5.354,5.354,0,0,0,9.348,89H12.32v12.479a1.783,1.783,0,0,0,1.783,1.783h5.943a1.783,1.783,0,0,0,1.73-1.35l3.2-12.806a52.369,52.369,0,0,1,12.655,3.937c4.937,2.161,11.8,5.839,16.88,11.212v.791a4.754,4.754,0,1,0,9.508,0V52.754A4.759,4.759,0,0,0,59.266,48ZM21.828,85.438H15.885V72.365h5.943ZM7.566,83.655V74.147a1.785,1.785,0,0,1,1.783-1.783H12.32V85.438H9.348a1.785,1.785,0,0,1-1.783-1.783ZM18.653,99.7H15.885V89h5.442Zm6.74-14.124V72.227c6.266-.834,19.749-5.476,29.119-13.736V99.312c-9.369-8.26-22.852-12.9-29.119-13.736Zm35.061,19.473a1.189,1.189,0,1,1-2.377,0V52.754a1.189,1.189,0,1,1,2.377,0Z" transform="translate(-4 -48)" fill="#a854f3"/>
        <path id="Trazado_877727" data-name="Trazado 877727" d="M451.725,244h-5.943a1.783,1.783,0,0,0,0,3.566h5.943a1.783,1.783,0,0,0,0-3.566Z" transform="translate(-378.632 -214.881)" fill="#a854f3"/>
        <path id="Trazado_877728" data-name="Trazado 877728" d="M426.03,146.139a1.774,1.774,0,0,0,.771-.176l5.356-2.575a1.783,1.783,0,0,0-1.545-3.213l-5.356,2.575a1.783,1.783,0,0,0,.774,3.39Z" transform="translate(-361.812 -126.33)" fill="#a854f3"/>
        <path id="Trazado_877729" data-name="Trazado 877729" d="M432.16,333.415,426.8,330.84a1.783,1.783,0,1,0-1.545,3.213l5.356,2.575a1.783,1.783,0,1,0,1.545-3.213Z" transform="translate(-361.814 -288.67)" fill="#a854f3"/>
      </g>
    </g>
  </g>
</svg>
