<svg xmlns="http://www.w3.org/2000/svg" width="130" height="130" viewBox="0 0 130 130">
  <g id="Grupo_1102309" data-name="Grupo 1102309" transform="translate(-390 -8162)">
    <rect id="Rectángulo_402592" data-name="Rectángulo 402592" width="130" height="130" rx="21" transform="translate(390 8162)" fill="#f7eefe"/>
    <g id="Grupo_1102315" data-name="Grupo 1102315" transform="translate(416.237 8188.237)">
      <g id="Grupo_1102314" data-name="Grupo 1102314">
        <g id="Grupo_1102313" data-name="Grupo 1102313">
          <path id="Trazado_877702" data-name="Trazado 877702" d="M45.251,34.133H43.959a1.292,1.292,0,0,0,0,2.584h1.292a1.292,1.292,0,0,0,0-2.584Z" transform="translate(-36.206 -28.965)" fill="#a854f3"/>
          <path id="Trazado_877703" data-name="Trazado 877703" d="M87.918,34.133H86.626a1.292,1.292,0,0,0,0,2.584h1.292a1.292,1.292,0,1,0,0-2.584Z" transform="translate(-72.413 -28.965)" fill="#a854f3"/>
          <path id="Trazado_877704" data-name="Trazado 877704" d="M130.585,34.133h-1.292a1.292,1.292,0,0,0,0,2.584h1.292a1.292,1.292,0,1,0,0-2.584Z" transform="translate(-108.619 -28.965)" fill="#a854f3"/>
          <path id="Trazado_877705" data-name="Trazado 877705" d="M206.846,34.133H171.959a1.292,1.292,0,0,0,0,2.584h34.887a1.292,1.292,0,0,0,0-2.584Z" transform="translate(-144.825 -28.965)" fill="#a854f3"/>
          <path id="Trazado_877706" data-name="Trazado 877706" d="M74.942,46.516H73.65V40.055a14.146,14.146,0,0,0-3.876-9.724V6.461A6.468,6.468,0,0,0,63.313,0H6.461A6.468,6.468,0,0,0,0,6.461V58.145a6.468,6.468,0,0,0,6.461,6.461H41.347v3.876a9.055,9.055,0,0,0,9.045,9.045h18.09a9.055,9.055,0,0,0,9.045-9.045V49.1A2.584,2.584,0,0,0,74.942,46.516Zm-3.876-6.461v6.461H47.808V40.055a11.629,11.629,0,0,1,23.258,0ZM2.584,6.461A3.876,3.876,0,0,1,6.461,2.584H63.313A3.876,3.876,0,0,1,67.19,6.461v3.876H2.584ZM41.347,49.1V62.021H6.461a3.876,3.876,0,0,1-3.876-3.876V12.921H67.19V28.158a14.2,14.2,0,0,0-21.966,11.9v6.461H43.932A2.584,2.584,0,0,0,41.347,49.1Zm33.595,2.584H71.066a1.292,1.292,0,0,0,0,2.584h3.876v2.584H71.066a1.292,1.292,0,0,0,0,2.584h3.876v2.584H71.066a1.292,1.292,0,0,0,0,2.584h3.876v2.584H71.066a1.292,1.292,0,0,0,0,2.584h3.747a6.472,6.472,0,0,1-6.331,5.168H50.392a6.472,6.472,0,0,1-6.331-5.168h3.747a1.292,1.292,0,0,0,0-2.584H43.932V64.605h3.876a1.292,1.292,0,0,0,0-2.584H43.932V59.437h3.876a1.292,1.292,0,0,0,0-2.584H43.932V54.268h3.876a1.292,1.292,0,0,0,0-2.584H43.932V49.1H74.942v2.584Z" fill="#a854f3"/>
          <path id="Trazado_877707" data-name="Trazado 877707" d="M369.525,374.448v2.822a1.292,1.292,0,0,0,2.584,0v-2.822a3.874,3.874,0,1,0-2.584,0Zm1.292-4.931a1.292,1.292,0,1,1-1.292,1.292A1.292,1.292,0,0,1,370.817,369.517Z" transform="translate(-311.38 -311.372)" fill="#a854f3"/>
          <path id="Trazado_877708" data-name="Trazado 877708" d="M65.413,127.22a1.292,1.292,0,0,0-1.292,1.292v3.876H53.784V122.051h5.168a1.292,1.292,0,0,0,0-2.584H53.784a2.584,2.584,0,0,0-2.584,2.584v10.337a2.584,2.584,0,0,0,2.584,2.584H64.121a2.584,2.584,0,0,0,2.584-2.584v-3.876A1.292,1.292,0,0,0,65.413,127.22Z" transform="translate(-43.447 -101.377)" fill="#a854f3"/>
          <path id="Trazado_877709" data-name="Trazado 877709" d="M79.094,125.017a1.292,1.292,0,0,0-1.827,1.827l2.584,2.584a1.292,1.292,0,0,0,.914.379h.058a1.292,1.292,0,0,0,.934-.463l6.461-7.753a1.293,1.293,0,1,0-1.985-1.657L80.677,126.6Z" transform="translate(-65.26 -101.381)" fill="#a854f3"/>
          <path id="Trazado_877710" data-name="Trazado 877710" d="M65.413,272.286a1.292,1.292,0,0,0-1.292,1.292v3.876H53.784V267.118h5.168a1.292,1.292,0,0,0,0-2.584H53.784a2.584,2.584,0,0,0-2.584,2.584v10.337a2.584,2.584,0,0,0,2.584,2.584H64.121a2.584,2.584,0,0,0,2.584-2.584v-3.876A1.292,1.292,0,0,0,65.413,272.286Z" transform="translate(-43.447 -224.479)" fill="#a854f3"/>
          <path id="Trazado_877711" data-name="Trazado 877711" d="M79.094,270.085a1.292,1.292,0,0,0-1.827,1.827l2.584,2.584a1.292,1.292,0,0,0,.914.379h.058a1.292,1.292,0,0,0,.934-.463l6.461-7.753A1.293,1.293,0,0,0,86.233,265l-5.556,6.667Z" transform="translate(-65.26 -224.483)" fill="#a854f3"/>
          <path id="Trazado_877712" data-name="Trazado 877712" d="M180.492,130.584h10.337a1.292,1.292,0,0,0,0-2.584H180.492a1.292,1.292,0,0,0,0,2.584Z" transform="translate(-152.066 -108.618)" fill="#a854f3"/>
          <path id="Trazado_877713" data-name="Trazado 877713" d="M198.582,171.959a1.292,1.292,0,0,0-1.292-1.292h-16.8a1.292,1.292,0,1,0,0,2.584h16.8A1.292,1.292,0,0,0,198.582,171.959Z" transform="translate(-152.066 -144.825)" fill="#a854f3"/>
          <path id="Trazado_877714" data-name="Trazado 877714" d="M190.829,273.067H180.492a1.292,1.292,0,1,0,0,2.584h10.337a1.292,1.292,0,1,0,0-2.584Z" transform="translate(-152.066 -231.72)" fill="#a854f3"/>
          <path id="Trazado_877715" data-name="Trazado 877715" d="M189.538,315.733h-9.045a1.292,1.292,0,1,0,0,2.584h9.045a1.292,1.292,0,0,0,0-2.584Z" transform="translate(-152.067 -267.925)" fill="#a854f3"/>
        </g>
      </g>
    </g>
  </g>
</svg>
