<svg xmlns="http://www.w3.org/2000/svg" width="295" height="90" viewBox="0 0 295 90">
  <g id="Grupo_1102339" data-name="Grupo 1102339" transform="translate(-1125 -9230)">
    <rect id="Rectángulo_402908" data-name="Rectángulo 402908" width="295" height="68" rx="10" transform="translate(1125 9252)" fill="#d6e1fd"/>
    <path id="Trazado_877739" data-name="Trazado 877739" d="M6.844,5.359l2.328,1.3Q8.484,7.75,7.93,8.82a8.39,8.39,0,0,0-.789,2.289l-.453,2.609H2.938L3.328,11.2A8.121,8.121,0,0,1,4.563,7.977,12.106,12.106,0,0,1,6.844,5.359Zm5.313,0,2.328,1.3Q13.8,7.75,13.242,8.82a8.39,8.39,0,0,0-.789,2.289L12,13.719H8.25L8.641,11.2A8.121,8.121,0,0,1,9.875,7.977,12.106,12.106,0,0,1,12.156,5.359Zm1.016,16.156a12.846,12.846,0,0,1,1.4-4.609,8.114,8.114,0,0,1,2.758-3.117,6.641,6.641,0,0,1,3.75-1.023,4.617,4.617,0,0,1,3.844,1.828l.547-1.516,4.75.016-2.766,16.25a7.942,7.942,0,0,1-3.016,5.422,9.6,9.6,0,0,1-6.344,1.891,9.057,9.057,0,0,1-3.266-.672,7.035,7.035,0,0,1-2.7-1.937l2.438-3.031a4.425,4.425,0,0,0,3.531,1.766q3.422.063,4.344-3.641l.125-.516A5.286,5.286,0,0,1,18.7,30.313a5.213,5.213,0,0,1-2.859-.82,5.393,5.393,0,0,1-1.937-2.32,9.024,9.024,0,0,1-.8-3.375A14.672,14.672,0,0,1,13.172,21.516Zm5.078,1.672a4.1,4.1,0,0,0,.516,2.234,1.749,1.749,0,0,0,1.5.828,3.436,3.436,0,0,0,2.641-1.125l1.328-7.172a2.278,2.278,0,0,0-2.094-1.125A2.992,2.992,0,0,0,19.625,18.1a6.865,6.865,0,0,0-1.281,3.43Q18.25,22.516,18.25,23.188Zm20.469,7.125a7.859,7.859,0,0,1-4.039-1.07A6.744,6.744,0,0,1,32,26.3a7.893,7.893,0,0,1-.719-4.148l.047-.437a10.363,10.363,0,0,1,2.9-6.6,8.018,8.018,0,0,1,6.07-2.336,6.538,6.538,0,0,1,3.719,1.1,6.165,6.165,0,0,1,2.266,2.958,9.058,9.058,0,0,1,.469,4.233l-.3,2.144H36.391a3.3,3.3,0,0,0,.75,2.156,2.755,2.755,0,0,0,2.094.875,5.321,5.321,0,0,0,4.016-1.719l2.156,2.852a6.361,6.361,0,0,1-2.664,2.127,9.356,9.356,0,0,1-3.742.8Zm1.25-13.469a2.644,2.644,0,0,0-1.9.684,5.74,5.74,0,0,0-1.4,2.394h5.141l.094-.451a3.429,3.429,0,0,0,.031-1.026A1.809,1.809,0,0,0,39.969,16.844ZM57.016,8.891l-.734,4.2h2.7l-.641,3.656h-2.7l-1.312,7.766a2.07,2.07,0,0,0,.1,1.2q.211.406,1.055.438a12.219,12.219,0,0,0,1.344-.078l-.375,3.813a8.308,8.308,0,0,1-2.766.391,4.556,4.556,0,0,1-3.578-1.406,4.8,4.8,0,0,1-.969-3.734l1.375-8.391H48.422l.625-3.656h2.094l.734-4.2Zm6.25,5.5-2.328-1.3a21.554,21.554,0,0,0,1.4-2.508,9.285,9.285,0,0,0,.648-2.039L63.422,6h3.75L66.8,8.453A9.722,9.722,0,0,1,63.266,14.391Zm5.484,0-2.328-1.3a21.555,21.555,0,0,0,1.4-2.508,9.284,9.284,0,0,0,.648-2.039L68.906,6h3.75l-.375,2.453A9.722,9.722,0,0,1,68.75,14.391ZM94.531,5.359l2.328,1.3Q96.172,7.75,95.617,8.82a8.39,8.39,0,0,0-.789,2.289l-.453,2.609h-3.75l.391-2.516A8.121,8.121,0,0,1,92.25,7.977,12.106,12.106,0,0,1,94.531,5.359Zm5.313,0,2.328,1.3q-.688,1.094-1.242,2.164a8.39,8.39,0,0,0-.789,2.289l-.453,2.609h-3.75l.391-2.516a8.121,8.121,0,0,1,1.234-3.227A12.106,12.106,0,0,1,99.844,5.359ZM109,25.156q.2-1.031-1.594-1.547l-1.109-.281a8.543,8.543,0,0,1-3.984-2.016,3.99,3.99,0,0,1-1.187-3.078,4.9,4.9,0,0,1,2.164-3.961,8.236,8.236,0,0,1,5.086-1.492,7.63,7.63,0,0,1,4.836,1.516,4.944,4.944,0,0,1,1.883,4l-5.125-.016q.062-2-1.766-2a2.518,2.518,0,0,0-1.453.461,1.79,1.79,0,0,0-.8,1.227q-.266,1.266,2.234,1.734a12.985,12.985,0,0,1,3.359,1.2,5.016,5.016,0,0,1,1.813,1.68,4.177,4.177,0,0,1,.578,2.406,4.518,4.518,0,0,1-1,2.734,6.475,6.475,0,0,1-2.758,1.922,9.878,9.878,0,0,1-3.914.672,7.944,7.944,0,0,1-3.4-.766,6.059,6.059,0,0,1-2.453-2.039,5.3,5.3,0,0,1-.914-2.961l4.781.031a1.975,1.975,0,0,0,2.25,2.219,2.953,2.953,0,0,0,1.625-.43A1.858,1.858,0,0,0,109,25.156Zm14.938,5.156a7.859,7.859,0,0,1-4.039-1.07,6.744,6.744,0,0,1-2.68-2.937,7.893,7.893,0,0,1-.719-4.148l.047-.437a10.363,10.363,0,0,1,2.9-6.6,8.018,8.018,0,0,1,6.07-2.336,6.538,6.538,0,0,1,3.719,1.1,6.165,6.165,0,0,1,2.266,2.958,9.058,9.058,0,0,1,.469,4.233l-.3,2.144H121.609a3.3,3.3,0,0,0,.75,2.156,2.755,2.755,0,0,0,2.094.875,5.321,5.321,0,0,0,4.016-1.719l2.156,2.852a6.361,6.361,0,0,1-2.664,2.127,9.356,9.356,0,0,1-3.742.8Zm1.25-13.469a2.644,2.644,0,0,0-1.9.684,5.74,5.74,0,0,0-1.4,2.394h5.141l.094-.451a3.43,3.43,0,0,0,.031-1.026A1.809,1.809,0,0,0,125.188,16.844Zm17.047-7.953-.734,4.2h2.7l-.641,3.656h-2.7l-1.312,7.766a2.07,2.07,0,0,0,.1,1.2q.211.406,1.055.438a12.219,12.219,0,0,0,1.344-.078l-.375,3.813a8.308,8.308,0,0,1-2.766.391,4.556,4.556,0,0,1-3.578-1.406,4.8,4.8,0,0,1-.969-3.734l1.375-8.391h-2.094l.625-3.656h2.094l.734-4.2Zm6.25,5.5-2.328-1.3a21.554,21.554,0,0,0,1.4-2.508,9.285,9.285,0,0,0,.648-2.039L148.641,6h3.75l-.375,2.453A9.722,9.722,0,0,1,148.484,14.391Zm5.484,0-2.328-1.3a21.554,21.554,0,0,0,1.4-2.508,9.285,9.285,0,0,0,.648-2.039L154.125,6h3.75L157.5,8.453A9.722,9.722,0,0,1,153.969,14.391Z" transform="translate(1148.063 9266.739)" fill="#12263f" opacity="0.2"/>
    <circle id="Elipse_11622" data-name="Elipse 11622" cx="11" cy="11" r="11" transform="translate(1162 9265.34) rotate(-180)" fill="#3a1d71"/>
    <g id="Elipse_11623" data-name="Elipse 11623" transform="translate(1409 9302.098) rotate(-180)" fill="none" stroke="#3a1d71" stroke-width="4">
      <circle cx="15" cy="15" r="15" stroke="none"/>
      <circle cx="15" cy="15" r="13" fill="none"/>
    </g>
    <circle id="Elipse_11624" data-name="Elipse 11624" cx="5" cy="5" r="5" transform="translate(1162 9240) rotate(-180)" fill="#3a1d71"/>
    <g id="Grupo_1102338" data-name="Grupo 1102338" transform="translate(1315 9218.004)">
      <path id="Trazado_877730" data-name="Trazado 877730" d="M64.821,55.271a5.086,5.086,0,1,0,5.093,5.086A5.093,5.093,0,0,0,64.821,55.271Zm0,7.139a2.053,2.053,0,1,1,2.059-2.053A2.056,2.056,0,0,1,64.821,62.41Z" transform="translate(-50.749 -36.766)" fill="#a854f3"/>
      <path id="Trazado_877731" data-name="Trazado 877731" d="M284.644,55.271H271.193a5.086,5.086,0,1,0,0,10.173h13.451a5.086,5.086,0,1,0,0-10.173Zm0,7.139H271.193a2.053,2.053,0,1,1,0-4.106h13.451a2.053,2.053,0,1,1,0,4.106Z" transform="translate(-226.081 -36.766)" fill="#a854f3"/>
      <path id="Trazado_877732" data-name="Trazado 877732" d="M152.493,55.271a5.086,5.086,0,1,0,5.092,5.086A5.093,5.093,0,0,0,152.493,55.271Zm0,7.139a2.053,2.053,0,1,1,2.059-2.053A2.056,2.056,0,0,1,152.493,62.41Z" transform="translate(-125.234 -36.766)" fill="#a854f3"/>
      <path id="Trazado_877733" data-name="Trazado 877733" d="M137.234,222.207a1.516,1.516,0,0,0-1.828,1.123L132.4,235.921a1.517,1.517,0,1,0,2.95.705l3.009-12.592A1.517,1.517,0,0,0,137.234,222.207Z" transform="translate(-112.448 -178.558)" fill="#a854f3"/>
      <path id="Trazado_877734" data-name="Trazado 877734" d="M198.945,242.7a1.517,1.517,0,0,0,2.142-.124l4.253-4.775a2.1,2.1,0,0,0,0-2.781l-4.258-4.78a1.517,1.517,0,1,0-2.265,2.018l3.7,4.15-3.7,4.15A1.517,1.517,0,0,0,198.945,242.7Z" transform="translate(-168.591 -184.984)" fill="#a854f3"/>
      <path id="Trazado_877735" data-name="Trazado 877735" d="M63.977,230.114a1.517,1.517,0,0,0-2.142.124l-4.253,4.774a2.1,2.1,0,0,0,0,2.781l4.258,4.779a1.517,1.517,0,1,0,2.265-2.018l-3.7-4.15,3.7-4.15A1.517,1.517,0,0,0,63.977,230.114Z" transform="translate(-48.473 -184.985)" fill="#a854f3"/>
      <path id="Trazado_877736" data-name="Trazado 877736" d="M73.608,61.26h-.563A15.97,15.97,0,0,0,71.9,58.5l.4-.4a3.4,3.4,0,0,0,0-4.807l-.783-.783V20.2c0-4.524-3.193-8.2-7.117-8.2H7.117C3.193,12,0,15.676,0,20.2V62.593c0,4.524,3.193,8.2,7.117,8.2h8.9a1.517,1.517,0,1,0,0-3.033h-8.9c-2.213,0-4.083-2.368-4.083-5.171V35.076H68.49V50.4a3.449,3.449,0,0,0-.526-.044h-.005a3.362,3.362,0,0,0-2.393.992l-.41.408a16.013,16.013,0,0,0-2.8-1.157v-.54a3.4,3.4,0,0,0-3.4-3.4H56.206a3.4,3.4,0,0,0-3.4,3.4v.577a16.1,16.1,0,0,0-2.739,1.147l-.393-.392a3.367,3.367,0,0,0-2.4-1h-.005a3.377,3.377,0,0,0-2.4.993l-1.939,1.938a3.4,3.4,0,0,0,0,4.8l.419.42a16.017,16.017,0,0,0-1.117,2.709h-.576a3.4,3.4,0,0,0-3.4,3.4V67.4a3.419,3.419,0,0,0,.019.362H29.454a1.517,1.517,0,1,0,0,3.033H42.238a15.923,15.923,0,0,0,1.135,2.731l-.41.408a3.4,3.4,0,0,0,0,4.8l1.94,1.94a3.367,3.367,0,0,0,2.4,1h0a3.377,3.377,0,0,0,2.4-.994l.406-.406a16.027,16.027,0,0,0,2.741,1.136V82a3.4,3.4,0,0,0,3.4,3.4h2.749A3.4,3.4,0,0,0,62.4,82v-.583a15.985,15.985,0,0,0,2.753-1.14l.4.4a3.367,3.367,0,0,0,2.4,1h.005a3.378,3.378,0,0,0,2.4-.995L72.3,78.74a3.4,3.4,0,0,0,0-4.807l-.4-.4A16.016,16.016,0,0,0,73.035,70.8h.573a3.4,3.4,0,0,0,3.4-3.4V64.655a3.4,3.4,0,0,0-3.4-3.4ZM3.034,32.042V20.2c0-2.8,1.87-5.171,4.083-5.171h57.29c2.213,0,4.083,2.368,4.083,5.171V32.042H3.034ZM73.975,67.4a.374.374,0,0,1-.367.362H71.874A1.517,1.517,0,0,0,70.4,68.942a13.021,13.021,0,0,1-1.673,4.03,1.517,1.517,0,0,0,.212,1.88l1.227,1.227a.364.364,0,0,1,.105.258.352.352,0,0,1-.106.255l-1.938,1.941a.365.365,0,0,1-.259.106h0a.353.353,0,0,1-.257-.107l-1.232-1.227A1.517,1.517,0,0,0,64.6,77.1a13,13,0,0,1-4.047,1.675,1.517,1.517,0,0,0-1.18,1.479V82a.374.374,0,0,1-.363.366H56.258A.374.374,0,0,1,55.895,82V80.246a1.517,1.517,0,0,0-1.182-1.479,13.014,13.014,0,0,1-4.039-1.672,1.516,1.516,0,0,0-1.877.213l-1.227,1.227a.365.365,0,0,1-.259.106h0a.352.352,0,0,1-.255-.105l-1.943-1.943a.373.373,0,0,1,0-.51l1.232-1.227a1.517,1.517,0,0,0,.212-1.885,12.928,12.928,0,0,1-1.675-4.027A1.517,1.517,0,0,0,43.4,67.765H41.656a.367.367,0,0,1-.363-.362V64.656a.367.367,0,0,1,.363-.362h1.739a1.517,1.517,0,0,0,1.479-1.18A13.011,13.011,0,0,1,46.527,59.1a1.517,1.517,0,0,0-.213-1.874l-1.241-1.244a.348.348,0,0,1-.1-.251.363.363,0,0,1,.105-.258l1.939-1.938a.365.365,0,0,1,.259-.106h0a.354.354,0,0,1,.257.107l1.223,1.218a1.516,1.516,0,0,0,1.883.207,13.085,13.085,0,0,1,4.034-1.691A1.517,1.517,0,0,0,55.844,51.8V50.062a.369.369,0,0,1,.363-.366h2.745a.372.372,0,0,1,.367.366V51.77a1.517,1.517,0,0,0,1.187,1.48A13,13,0,0,1,64.6,54.938a1.517,1.517,0,0,0,1.876-.21L67.711,53.5a.35.35,0,0,1,.252-.1h0a.365.365,0,0,1,.259.106l1.939,1.938a.364.364,0,0,1,.105.258.353.353,0,0,1-.107.256l-1.227,1.231a1.517,1.517,0,0,0-.209,1.88A12.983,12.983,0,0,1,70.4,63.114a1.517,1.517,0,0,0,1.479,1.18h1.726a.374.374,0,0,1,.367.362Z" fill="#a854f3"/>
      <path id="Trazado_877737" data-name="Trazado 877737" d="M330.828,309.652a9.263,9.263,0,1,0,9.265,9.265A9.278,9.278,0,0,0,330.828,309.652Zm0,15.493a6.23,6.23,0,1,1,6.232-6.227A6.239,6.239,0,0,1,330.828,325.145Z" transform="translate(-273.194 -252.886)" fill="#a854f3"/>
      <path id="Trazado_877738" data-name="Trazado 877738" d="M142.718,382.778h-.03a1.517,1.517,0,0,0,0,3.033h.03a1.517,1.517,0,0,0,0-3.033Z" transform="translate(-119.939 -315.014)" fill="#a854f3"/>
    </g>
  </g>
</svg>
