<svg xmlns="http://www.w3.org/2000/svg" width="130" height="130" viewBox="0 0 130 130">
  <g id="Grupo_1102311" data-name="Grupo 1102311" transform="translate(-390 -8162)">
    <rect id="Rectángulo_402592" data-name="Rectángulo 402592" width="130" height="130" rx="21" transform="translate(390 8162)" fill="#f7eefe"/>
    <g id="Grupo_1102336" data-name="Grupo 1102336" transform="translate(411.781 8174.755)">
      <g id="Grupo_1102317" data-name="Grupo 1102317" transform="translate(6.412 17.422)">
        <g id="Grupo_1102316" data-name="Grupo 1102316">
          <path id="Trazado_877716" data-name="Trazado 877716" d="M109.4,75.347a1.269,1.269,0,0,0-1.355,1.171c-1.243,17.047-8.1,38.967-33.651,46.832-16.785-5.165-27.5-16.976-31.861-35.111a78.286,78.286,0,0,1-1.574-25.682c6.529-3.429,13.784-6.927,21.577-10.4A1.266,1.266,0,1,0,61.5,49.842c-8.076,3.6-15.582,7.231-22.309,10.784a1.265,1.265,0,0,0-.661.932,78.612,78.612,0,0,0,1.518,27.2,54.04,54.04,0,0,0,10.165,21.537,47.243,47.243,0,0,0,23.812,15.595,1.267,1.267,0,0,0,.729,0c12.442-3.739,21.861-11.052,28-21.737,4.42-7.7,7.05-16.933,7.816-27.447A1.266,1.266,0,0,0,109.4,75.347Z" transform="translate(-37.983 -49.732)" fill="#a854f3"/>
        </g>
      </g>
      <g id="Grupo_1102319" data-name="Grupo 1102319" transform="translate(33.928 12.14)">
        <g id="Grupo_1102318" data-name="Grupo 1102318">
          <path id="Trazado_877717" data-name="Trazado 877717" d="M245.719,35.552a1.266,1.266,0,0,0-.661-.932c-17.1-9.03-34.556-16.016-34.73-16.085a1.267,1.267,0,0,0-.938,0c-.03.012-3.021,1.206-7.659,3.211a1.266,1.266,0,0,0,1,2.325c3.544-1.532,6.115-2.585,7.123-2.994,2.851,1.157,18.2,7.479,33.436,15.478a72.411,72.411,0,0,1,.423,9.085,1.266,1.266,0,0,0,1.25,1.282h.016a1.266,1.266,0,0,0,1.266-1.25A68.74,68.74,0,0,0,245.719,35.552Z" transform="translate(-200.967 -18.445)" fill="#a854f3"/>
        </g>
      </g>
      <g id="Grupo_1102321" data-name="Grupo 1102321" transform="translate(13.633 20.254)">
        <g id="Grupo_1102320" data-name="Grupo 1102320">
          <path id="Trazado_877718" data-name="Trazado 877718" d="M138.686,80.315a1.266,1.266,0,0,0-.661-.932c-13.6-7.18-27.479-12.736-27.617-12.791a1.267,1.267,0,0,0-.938,0c-.139.055-14.019,5.611-27.617,12.791a1.265,1.265,0,0,0-.661.932A62.318,62.318,0,0,0,83.116,104.7a1.266,1.266,0,1,0,2.428-.718,61.215,61.215,0,0,1-1.927-22.667c11.885-6.231,23.834-11.17,26.321-12.182,2.487,1.012,14.437,5.951,26.321,12.182a61.863,61.863,0,0,1-1.247,20.117c-3.423,14.317-11.859,23.649-25.074,27.742A34.793,34.793,0,0,1,87.024,108.22a1.266,1.266,0,0,0-2.345.954c4.631,11.383,13.007,18.965,24.9,22.537a1.267,1.267,0,0,0,.729,0,37.787,37.787,0,0,0,19.046-12.476,43.191,43.191,0,0,0,8.126-17.213A62.75,62.75,0,0,0,138.686,80.315Z" transform="translate(-80.751 -66.502)" fill="#a854f3"/>
        </g>
      </g>
      <g id="Grupo_1102323" data-name="Grupo 1102323" transform="translate(24.637 38.562)">
        <g id="Grupo_1102322" data-name="Grupo 1102322">
          <path id="Trazado_877719" data-name="Trazado 877719" d="M180.628,176.62a5.726,5.726,0,0,0-8.088,0L159.37,189.791l-3.676-3.676a5.719,5.719,0,0,0-8.088,8.088l7.72,7.719a5.719,5.719,0,0,0,8.087,0l17.215-17.215A5.726,5.726,0,0,0,180.628,176.62Zm-1.791,6.3-17.215,17.215a3.186,3.186,0,0,1-4.506,0l-7.72-7.719a3.187,3.187,0,0,1,4.507-4.506l4.571,4.571a1.267,1.267,0,0,0,1.791,0l14.066-14.066a3.186,3.186,0,1,1,4.506,4.506Z" transform="translate(-145.934 -174.948)" fill="#a854f3"/>
        </g>
      </g>
      <g id="Grupo_1102325" data-name="Grupo 1102325" transform="translate(5.749 85.355)">
        <g id="Grupo_1102324" data-name="Grupo 1102324">
          <path id="Trazado_877720" data-name="Trazado 877720" d="M36.665,452.118H35.318a1.266,1.266,0,1,0,0,2.532h1.347a1.266,1.266,0,0,0,0-2.532Z" transform="translate(-34.052 -452.118)" fill="#a854f3"/>
        </g>
      </g>
      <g id="Grupo_1102327" data-name="Grupo 1102327" transform="translate(5.749 80.115)">
        <g id="Grupo_1102326" data-name="Grupo 1102326">
          <path id="Trazado_877721" data-name="Trazado 877721" d="M36.665,421.084H35.318a1.266,1.266,0,0,0,0,2.532h1.347a1.266,1.266,0,0,0,0-2.532Z" transform="translate(-34.052 -421.084)" fill="#a854f3"/>
        </g>
      </g>
      <g id="Grupo_1102329" data-name="Grupo 1102329" transform="translate(5.749 74.876)">
        <g id="Grupo_1102328" data-name="Grupo 1102328">
          <path id="Trazado_877722" data-name="Trazado 877722" d="M36.665,390.05H35.318a1.266,1.266,0,0,0,0,2.532h1.347a1.266,1.266,0,0,0,0-2.532Z" transform="translate(-34.052 -390.05)" fill="#a854f3"/>
        </g>
      </g>
      <g id="Grupo_1102331" data-name="Grupo 1102331" transform="translate(79.079 18.049)">
        <g id="Grupo_1102330" data-name="Grupo 1102330">
          <path id="Trazado_877723" data-name="Trazado 877723" d="M474.5,55.855h-1.147V54.708a1.266,1.266,0,1,0-2.532,0v1.147h-1.147a1.266,1.266,0,0,0,0,2.532h1.147v1.147a1.266,1.266,0,1,0,2.532,0V58.388H474.5a1.266,1.266,0,0,0,0-2.532Z" transform="translate(-468.41 -53.442)" fill="#a854f3"/>
        </g>
      </g>
      <g id="Grupo_1102333" data-name="Grupo 1102333" transform="translate(0 19.316)">
        <g id="Grupo_1102332" data-name="Grupo 1102332">
          <path id="Trazado_877724" data-name="Trazado 877724" d="M6.093,63.36H4.946V62.213a1.266,1.266,0,0,0-2.532,0V63.36H1.266a1.266,1.266,0,1,0,0,2.532H2.413V67.04a1.266,1.266,0,0,0,2.532,0V65.893H6.093a1.266,1.266,0,1,0,0-2.532Z" transform="translate(0 -60.947)" fill="#a854f3"/>
        </g>
      </g>
      <g id="Grupo_1102335" data-name="Grupo 1102335" transform="translate(10.848 10.86)">
        <g id="Grupo_1102334" data-name="Grupo 1102334">
          <path id="Trazado_877725" data-name="Trazado 877725" d="M70.351,13.273H69.2V12.126a1.266,1.266,0,0,0-2.532,0v1.147H65.524a1.266,1.266,0,1,0,0,2.532h1.147v1.147a1.266,1.266,0,0,0,2.532,0V15.806h1.147a1.266,1.266,0,0,0,0-2.532Z" transform="translate(-64.258 -10.86)" fill="#a854f3"/>
        </g>
      </g>
    </g>
  </g>
</svg>
