<svg xmlns="http://www.w3.org/2000/svg" width="60" height="60" viewBox="0 0 60 60">
  <g id="Grupo_1100338" data-name="Grupo 1100338" transform="translate(-300 -791)">
    <rect id="Rectángulo_401236" data-name="Rectángulo 401236" width="60" height="60" rx="10" transform="translate(300 791)" fill="#fff" opacity="0.3"/>
    <g id="Grupo_1099452" data-name="Grupo 1099452" transform="translate(306.005 797.015)">
      <path id="Trazado_874241" data-name="Trazado 874241" d="M29.865,44.731a5.865,5.865,0,1,1,5.865-5.865,5.865,5.865,0,0,1-5.865,5.865Zm0-10.264a4.4,4.4,0,1,0,4.4,4.4A4.4,4.4,0,0,0,29.865,34.466Z" transform="translate(-5.87 -8.274)" fill="#3a1d71"/>
      <path id="Trazado_874242" data-name="Trazado 874242" d="M37.329,58.8a.733.733,0,0,1-.733-.733v-4.4c0-.746-2.847-2.2-8.065-2.2s-8.065,1.453-8.065,2.2v4.4a.733.733,0,0,1-1.466,0v-4.4C19,51.259,23.795,50,28.531,50s9.531,1.259,9.531,3.666v4.4A.733.733,0,0,1,37.329,58.8Z" transform="translate(-4.536 -12.81)" fill="#3a1d71"/>
      <path id="Trazado_874243" data-name="Trazado 874243" d="M46.865,39.731a5.865,5.865,0,1,1,5.865-5.865,5.865,5.865,0,0,1-5.865,5.865Zm0-10.264a4.4,4.4,0,1,0,4.4,4.4,4.4,4.4,0,0,0-4.4-4.4Z" transform="translate(-10.406 -6.94)" fill="#3a1d71"/>
      <path id="Trazado_874244" data-name="Trazado 874244" d="M54.756,53.8a.733.733,0,0,1-.733-.733v-4.4c0-.746-2.847-2.2-8.065-2.2A16.225,16.225,0,0,0,38.7,47.834a.733.733,0,1,1-.733-1.27c1.7-.978,4.692-1.565,7.992-1.565,4.736,0,9.531,1.259,9.531,3.666v4.4A.733.733,0,0,1,54.756,53.8Z" transform="translate(-9.499 -11.476)" fill="#3a1d71"/>
      <path id="Trazado_874245" data-name="Trazado 874245" d="M12.865,39.731a5.865,5.865,0,1,1,5.865-5.865A5.865,5.865,0,0,1,12.865,39.731Zm0-10.264a4.4,4.4,0,1,0,4.4,4.4A4.4,4.4,0,0,0,12.865,29.466Z" transform="translate(-1.334 -6.94)" fill="#3a1d71"/>
      <path id="Trazado_874246" data-name="Trazado 874246" d="M2.733,53.8A.733.733,0,0,1,2,53.065v-4.4C2,46.259,6.795,45,11.531,45c3.3,0,6.287.587,7.987,1.565a.733.733,0,1,1-.733,1.27c-1.462-.844-4.244-1.368-7.254-1.368-5.218,0-8.065,1.453-8.065,2.2v4.4a.733.733,0,0,1-.733.733Z" transform="translate(0 -11.476)" fill="#3a1d71"/>
      <path id="Trazado_874247" data-name="Trazado 874247" d="M15.529,20.327a.733.733,0,0,1-.686-.474,13.2,13.2,0,0,1,24.7-9.316.733.733,0,1,1-1.372.518,11.734,11.734,0,1,0-21.958,8.28.733.733,0,0,1-.427.945.743.743,0,0,1-.259.047Z" transform="translate(-3.2 0)" fill="#3a1d71"/>
      <path id="Trazado_874248" data-name="Trazado 874248" d="M28.8,25.6a8.8,8.8,0,1,1,8.8-8.8,8.8,8.8,0,0,1-8.8,8.8Zm0-16.13A7.332,7.332,0,1,0,36.13,16.8,7.332,7.332,0,0,0,28.8,9.466Z" transform="translate(-4.803 -1.603)" fill="#3a1d71"/>
      <path id="Trazado_874249" data-name="Trazado 874249" d="M30.4,22.8a4.4,4.4,0,1,1,4.4-4.4A4.4,4.4,0,0,1,30.4,22.8Zm0-7.332A2.933,2.933,0,1,0,33.332,18.4,2.933,2.933,0,0,0,30.4,15.466Z" transform="translate(-6.404 -3.204)" fill="#3a1d71"/>
      <path id="Trazado_874250" data-name="Trazado 874250" d="M50.8,22.332H44.7a.733.733,0,0,1-.507-.205L41.363,19.4h-9.63a.733.733,0,1,1,0-1.466h9.63L44.2,15.205A.733.733,0,0,1,44.705,15H50.8a.733.733,0,0,1,.509,1.261l-2.5,2.4,2.5,2.4a.733.733,0,0,1-.509,1.261ZM45,20.865h3.974L47.455,19.4H43.478Zm-1.523-2.933h3.977l1.523-1.466H45Z" transform="translate(-7.738 -3.471)" fill="#3a1d71"/>
    </g>
  </g>
</svg>
