<svg id="Grupo_1100495" data-name="Grupo 1100495" xmlns="http://www.w3.org/2000/svg" xmlns:xlink="http://www.w3.org/1999/xlink" width="295" height="254.549" viewBox="0 0 295 254.549">
  <defs>
    <clipPath id="clip-path">
      <rect id="Rectángulo_401969" data-name="Rectángulo 401969" width="295" height="254.549" fill="none"/>
    </clipPath>
    <clipPath id="clip-path-3">
      <rect id="Rectángulo_401916" data-name="Rectángulo 401916" width="65.457" height="12.553" fill="none"/>
    </clipPath>
    <clipPath id="clip-path-4">
      <rect id="Rectángulo_401909" data-name="Rectángulo 401909" width="11.588" height="12.553" fill="none"/>
    </clipPath>
    <clipPath id="clip-path-7">
      <rect id="Rectángulo_401912" data-name="Rectángulo 401912" width="11.588" height="12.552" fill="none"/>
    </clipPath>
    <clipPath id="clip-path-9">
      <rect id="Rectángulo_401914" data-name="Rectángulo 401914" width="11.587" height="12.553" fill="none"/>
    </clipPath>
    <clipPath id="clip-path-11">
      <path id="Rectángulo_401922" data-name="Rectángulo 401922" d="M11.465,0H121.454a11.463,11.463,0,0,1,11.463,11.463V207.089a11.463,11.463,0,0,1-11.463,11.463H11.464A11.464,11.464,0,0,1,0,207.088V11.465A11.465,11.465,0,0,1,11.465,0Z" fill="none"/>
    </clipPath>
    <linearGradient id="linear-gradient" x1="-0.718" y1="1.051" x2="-0.712" y2="1.051" gradientUnits="objectBoundingBox">
      <stop offset="0" stop-color="#3d1f81"/>
      <stop offset="1" stop-color="#6b34a6"/>
    </linearGradient>
    <clipPath id="clip-path-13">
      <rect id="Rectángulo_401926" data-name="Rectángulo 401926" width="64.351" height="4.135" fill="none"/>
    </clipPath>
    <clipPath id="clip-path-14">
      <rect id="Rectángulo_401928" data-name="Rectángulo 401928" width="27.164" height="4.135" fill="none"/>
    </clipPath>
    <clipPath id="clip-path-15">
      <rect id="Rectángulo_401930" data-name="Rectángulo 401930" width="11.017" height="4.135" fill="none"/>
    </clipPath>
    <clipPath id="clip-path-16">
      <rect id="Rectángulo_401932" data-name="Rectángulo 401932" width="47.564" height="4.135" fill="none"/>
    </clipPath>
    <clipPath id="clip-path-17">
      <rect id="Rectángulo_401934" data-name="Rectángulo 401934" width="43.13" height="4.135" fill="none"/>
    </clipPath>
    <clipPath id="clip-path-18">
      <rect id="Rectángulo_401935" data-name="Rectángulo 401935" width="49.061" height="57.898" fill="none"/>
    </clipPath>
    <clipPath id="clip-path-19">
      <rect id="Rectángulo_401936" data-name="Rectángulo 401936" width="29.963" height="33.128" fill="none"/>
    </clipPath>
    <clipPath id="clip-path-20">
      <rect id="Rectángulo_401966" data-name="Rectángulo 401966" width="95.985" height="14.544" fill="none"/>
    </clipPath>
    <clipPath id="clip-path-21">
      <rect id="Rectángulo_401967" data-name="Rectángulo 401967" width="73.431" height="6.48" fill="none"/>
    </clipPath>
  </defs>
  <g id="Grupo_1100494" data-name="Grupo 1100494" clip-path="url(#clip-path)">
    <g id="Grupo_1100462" data-name="Grupo 1100462">
      <g id="Grupo_1100461" data-name="Grupo 1100461" clip-path="url(#clip-path)">
        <path id="Trazado_875896" data-name="Trazado 875896" d="M296.409,336.01c0,8.175-65.3,14.8-145.854,14.8S4.7,344.185,4.7,336.01s65.3-14.8,145.854-14.8,145.854,6.627,145.854,14.8" transform="translate(-1.409 -96.264)" fill="#d6e3fe"/>
        <path id="Trazado_875897" data-name="Trazado 875897" d="M80.2,252.254c-1.842.176-3.626.884-5.5.874-2.254-.012-2-7.2-2.272-9.018-.666-4.476-2.528-9.143-6.523-11.608a10.388,10.388,0,0,0-12.127,1.011c-2.184,1.927-3.5,4.57-4.775,7.191-1.025-1.069-2.128-2-2.731-2.592a92.392,92.392,0,0,0-11.827-9.885c-3.24-2.253-7.612-5.069-11.739-4.8-4.622.3-4.923,5.488-4.433,9.007.041.3.1.6.153.9q-1.935-1.507-3.939-2.923c-4-2.812-9.63-3.429-12.837.8a1.635,1.635,0,0,0-.21.372,1.641,1.641,0,0,0-.271.328c-2.742,4.413-.325,9.364,3.622,12.117,1.375.96,2.806,1.848,4.247,2.712-3.316.573-6.631,1.81-7.607,4.789-1.253,3.81,2.663,7.008,5.084,9.227,3.787,3.467,8.488,6.041,13.038,8.365a67.294,67.294,0,0,0,7.554,3.541,29.585,29.585,0,0,0-4.9,6.6c-1.959,3.957-.462,8.9,2.726,11.75,3.57,3.191,8.532,3.243,13.007,2.472,1.715-.295,8.828-3.181,9.721-1.55.807,1.472.893,3.476,1.179,5.095a12.26,12.26,0,0,0,3.118,6.368c3.211,3.366,8.144,3.605,12.47,3.1a49.024,49.024,0,0,0,14.454-4.533c2.479-1.143,4.892-2.426,7.32-3.672,1.152-.589,3.435-2.651,4.813-2.351a2.2,2.2,0,0,0,2.1-.321,2.333,2.333,0,0,0,.457-.428h0c.032-.041.065-.082.1-.124.016-.02.032-.042.046-.064a.576.576,0,0,0,.041-.066c.029-.044.057-.088.083-.134v0a2.278,2.278,0,0,0,.234-.579,2.2,2.2,0,0,0-.451-2.076c-.7-1.062.215-3.479.395-4.609.427-2.673.6-5.43.825-8.125a53.687,53.687,0,0,0-.747-15.233c-.878-4.271-2.856-8.8-6.927-10.876a12.3,12.3,0,0,0-6.975-1.046" transform="translate(0 -66.953)" fill="#bc74e1"/>
        <path id="Trazado_875898" data-name="Trazado 875898" d="M50.183,247.582a1.061,1.061,0,1,0-2.111-.2l-1.4,14.5L34.123,253.25l1.506-15.672a1.061,1.061,0,1,0-2.111-.2l-1.392,14.5q-6.963-4.788-13.925-9.57c-.018-.015-.036-.025-.052-.036a1.061,1.061,0,0,0-1.2,1.748c.018.011.034.023.053.037q6.962,4.785,13.925,9.568l-13.039,6.5a1.06,1.06,0,1,0,.945,1.9L32.92,255q6.279,4.314,12.556,8.631l-13.039,6.5a1.061,1.061,0,1,0,.948,1.9L47.475,265,61,274.3l-13.037,6.5a1.061,1.061,0,0,0,.947,1.9L63,275.67q7.365,5.065,14.73,10.126l-13.036,6.5a1.06,1.06,0,0,0,.945,1.9l14.092-7.024L92.873,296.2a1.062,1.062,0,0,0,1.2-1.749l-13.141-9.032,1.506-15.671a1.061,1.061,0,1,0-2.111-.2l-1.4,14.5q-7.365-5.061-14.73-10.124l1.506-15.671a1.062,1.062,0,1,0-2.114-.2l-1.392,14.5q-6.764-4.645-13.524-9.294Z" transform="translate(-4.943 -70.852)" fill="#a364c8"/>
        <path id="Trazado_875899" data-name="Trazado 875899" d="M123.2,215.591c-2.322-.57-4.8-.464-7.076-1.269-2.746-.972.615-9.633,1.059-11.97,1.09-5.746.8-12.233-3.027-16.94a13.424,13.424,0,0,0-15.227-3.92c-3.484,1.424-6.218,4.086-8.883,6.743-.8-1.74-1.747-3.346-2.231-4.322a119.319,119.319,0,0,0-10.232-17.092c-3-4.127-7.135-9.418-12.284-10.85-5.766-1.6-8.341,4.6-9.239,9.106-.076.384-.13.771-.192,1.157Q54.149,163.575,52.3,161c-3.684-5.133-10.294-8.278-16.008-4.475a2.163,2.163,0,0,0-.413.365,2.077,2.077,0,0,0-.47.285c-5.221,4.219-4.377,11.288-.73,16.328,1.27,1.756,2.641,3.446,4.031,5.115-4.292-.711-8.862-.613-11.321,2.607-3.145,4.119.273,9.687,2.285,13.423,3.146,5.843,7.79,10.979,12.354,15.75a86.214,86.214,0,0,0,7.711,7.531,38.193,38.193,0,0,0-8.779,5.981c-4.075,3.995-4.347,10.665-1.67,15.5,3,5.415,9.035,7.586,14.823,8.545,2.219.37,12.127-.13,12.523,2.24.358,2.139-.389,4.622-.727,6.721a15.829,15.829,0,0,0,1.1,9.1c2.487,5.474,8.406,7.862,13.9,9.076,6.345,1.4,13.141,1.24,19.567.614,3.51-.341,7-.883,10.493-1.37,1.658-.23,5.32-1.777,6.871-.826a2.845,2.845,0,0,0,2.7.5,3.1,3.1,0,0,0,.738-.327h0c.059-.035.116-.074.172-.113.027-.018.057-.036.084-.057s.053-.041.078-.063c.055-.041.107-.084.158-.129h0a3.082,3.082,0,0,0,.533-.606,2.844,2.844,0,0,0,.329-2.726c-.4-1.592,1.744-4.155,2.444-5.458,1.656-3.078,3.043-6.368,4.459-9.562a69.426,69.426,0,0,0,5.563-18.906c.743-5.588.256-11.957-3.831-16.22a15.876,15.876,0,0,0-8.068-4.241" transform="translate(-7.828 -46.404)" fill="#08e1b6"/>
        <path id="Trazado_875900" data-name="Trazado 875900" d="M89.376,196.6a1.371,1.371,0,0,0-2.492-1.146l-7.864,17.1q-5.826-7.934-11.654-15.868l8.5-18.486a1.371,1.371,0,0,0-2.492-1.144l-7.862,17.1-12.925-17.6-.05-.069a1.371,1.371,0,0,0-2.209,1.623c.016.022.033.046.05.068q6.461,8.8,12.924,17.6l-18.673,2.386a1.371,1.371,0,0,0,.347,2.719l20.181-2.579,11.654,15.869-18.672,2.385a1.371,1.371,0,0,0,.347,2.719L78.667,216.7,91.221,233.8l-18.672,2.386A1.371,1.371,0,0,0,72.9,238.9l20.181-2.579,13.673,18.617-18.672,2.386a1.371,1.371,0,1,0,.346,2.719l20.181-2.579,12.2,16.609a1.372,1.372,0,0,0,2.209-1.624l-12.2-16.607,8.5-18.486a1.371,1.371,0,1,0-2.491-1.144l-7.864,17.1L95.287,234.7l8.5-18.485a1.371,1.371,0,0,0-2.492-1.146l-7.863,17.1L80.877,215.081Z" transform="translate(-13.016 -52.729)" fill="#04c89b"/>
        <path id="Trazado_875901" data-name="Trazado 875901" d="M302.033,258.54c-2.983,2.028-4.081,5.772-4.345,9.2a42.4,42.4,0,0,0,.927,12c.44,2.088.852,4.229,1.452,6.278.253.868,1.206,2.67.767,3.571a1.738,1.738,0,0,0-.148,1.67,1.881,1.881,0,0,0,.242.43h0c.025.033.051.066.078.1.013.015.026.032.04.048s.029.03.042.045c.029.029.058.06.088.088h0a1.948,1.948,0,0,0,.4.289,1.736,1.736,0,0,0,1.674.044c1.048-.373,3.039,1.015,4,1.364,2.025.735,4.041,1.5,6.1,2.149a38.72,38.72,0,0,0,11.766,2.114c3.437-.029,7.276-.706,9.456-3.66a9.664,9.664,0,0,0,1.81-5.294,13.408,13.408,0,0,1,.418-4.106c.537-1.367,6.392.188,7.765.249,3.58.161,7.459-.372,9.937-3.226,2.212-2.548,2.9-6.566.968-9.47a23.318,23.318,0,0,0-4.486-4.686,52.878,52.878,0,0,0,5.561-3.522,46.111,46.111,0,0,0,9.377-7.842c1.675-1.977,4.424-4.869,3.067-7.729-1.06-2.236-3.779-2.875-6.432-2.993,1.042-.82,2.076-1.658,3.057-2.545,2.817-2.548,4.217-6.665,1.633-9.847a1.287,1.287,0,0,0-.244-.23,1.223,1.223,0,0,0-.2-.27c-2.931-3-7.278-1.955-10.13.644q-1.429,1.3-2.794,2.679c.011-.239.029-.478.03-.716.035-2.8-.716-6.838-4.364-6.611-3.257.2-6.4,2.838-8.713,4.924a72.91,72.91,0,0,0-8.28,8.913c-.412.522-1.184,1.361-1.881,2.3a17.332,17.332,0,0,0-4.451-5.156,8.2,8.2,0,0,0-9.594.412c-2.884,2.326-3.878,6.165-3.955,9.736-.031,1.452.879,7.052-.884,7.284-1.464.193-2.929-.185-4.388-.138a9.7,9.7,0,0,0-5.357,1.51" transform="translate(-89.184 -68.554)" fill="#08e1b6"/>
        <path id="Trazado_875902" data-name="Trazado 875902" d="M336.618,250.191a.837.837,0,1,1,1.634-.368l2.529,11.215,8.973-8-2.734-12.119a.837.837,0,1,1,1.634-.368l2.529,11.214,9.951-8.874.039-.033a.837.837,0,0,1,1.113,1.25c-.012.011-.025.023-.037.033l-9.952,8.874L363.15,256.8a.838.838,0,0,1-.553,1.581l-11.729-4.1-8.974,8,10.853,3.793a.837.837,0,1,1-.554,1.579l-11.727-4.1q-4.834,4.309-9.666,8.619l10.851,3.792a.837.837,0,0,1-.553,1.581l-11.729-4.1q-5.262,4.695-10.527,9.387l10.851,3.794a.837.837,0,1,1-.552,1.581l-11.729-4.1-9.393,8.375a.838.838,0,0,1-1.114-1.25l9.392-8.373-2.734-12.122a.837.837,0,0,1,1.634-.368l2.53,11.215,10.528-9.388-2.733-12.121a.837.837,0,1,1,1.633-.368l2.53,11.214q4.832-4.309,9.666-8.62Z" transform="translate(-91.894 -71.895)" fill="#04c89b"/>
        <path id="Trazado_875903" data-name="Trazado 875903" d="M316.755,120.613c-1.331,1.818-1.2,4.251-.633,6.326a26.463,26.463,0,0,0,3.055,6.871c.7,1.137,1.386,2.312,2.168,3.392.33.458,1.268,1.319,1.2,1.941a1.084,1.084,0,0,0,.263,1.014,1.123,1.123,0,0,0,.232.2h0c.022.014.043.028.066.041l.033.02.034.018.07.033h0a1.163,1.163,0,0,0,.3.087,1.084,1.084,0,0,0,.994-.324c.541-.438,2-.038,2.642-.034,1.345.008,2.692.037,4.037-.011a24.126,24.126,0,0,0,7.369-1.216c2.018-.737,4.136-1.937,4.8-4.132a6.048,6.048,0,0,0-.043-3.5,8.383,8.383,0,0,1-.613-2.5c.031-.917,3.8-1.227,4.623-1.478,2.14-.654,4.313-1.779,5.175-3.978a5.028,5.028,0,0,0-1.41-5.777,14.567,14.567,0,0,0-3.621-1.819,33.253,33.253,0,0,0,2.538-3.237,28.807,28.807,0,0,0,3.88-6.578c.573-1.515,1.586-3.792.188-5.191-1.091-1.095-2.826-.9-4.413-.417.443-.7.875-1.409,1.268-2.137,1.125-2.089,1.09-4.805-1.1-6.138a.851.851,0,0,0-.193-.085.793.793,0,0,0-.175-.116c-2.352-1.151-4.693.37-5.829,2.5q-.569,1.067-1.084,2.162c-.043-.143-.083-.287-.132-.429-.567-1.658-1.852-3.875-3.953-2.98-1.875.8-3.173,3.011-4.1,4.723a45.542,45.542,0,0,0-3.011,6.978c-.134.393-.412,1.049-.627,1.747a10.807,10.807,0,0,0-3.7-2.1,5.121,5.121,0,0,0-5.562,2.249c-1.211,1.973-.994,4.44-.292,6.558.285.861,1.992,3.968,1,4.474a27.313,27.313,0,0,1-2.613.836,6.056,6.056,0,0,0-2.838,2.01" transform="translate(-94.618 -27.421)" fill="#bc74e1"/>
        <path id="Trazado_875904" data-name="Trazado 875904" d="M336.5,109.567a.523.523,0,0,1,.884-.559l3.835,6.073,3.609-6.588-4.144-6.563a.523.523,0,1,1,.884-.559l3.835,6.074,4-7.306.015-.027a.524.524,0,0,1,.918.5l-.015.028-4,7.3,7.182-.036a.523.523,0,0,1,.006,1.046l-7.762.039q-1.8,3.294-3.609,6.588l7.182-.037a.523.523,0,1,1,0,1.046l-7.761.04q-1.944,3.547-3.888,7.1l7.182-.036a.523.523,0,0,1,0,1.046l-7.762.039q-2.116,3.866-4.233,7.729l7.18-.036a.523.523,0,0,1,.006,1.046l-7.763.039q-1.888,3.448-3.777,6.9a.524.524,0,0,1-.918-.5l3.778-6.895-4.144-6.563a.523.523,0,0,1,.884-.559L331.948,132l4.235-7.729-4.144-6.563a.523.523,0,1,1,.885-.558l3.833,6.072q1.945-3.547,3.888-7.1Z" transform="translate(-98.044 -29.924)" fill="#a364c8"/>
        <g id="Grupo_1100460" data-name="Grupo 1100460" transform="translate(62.667)">
          <g id="Grupo_1100459" data-name="Grupo 1100459">
            <g id="Grupo_1100458" data-name="Grupo 1100458" clip-path="url(#clip-path-3)">
              <g id="Grupo_1100439" data-name="Grupo 1100439">
                <g id="Grupo_1100438" data-name="Grupo 1100438">
                  <g id="Grupo_1100437" data-name="Grupo 1100437" clip-path="url(#clip-path-4)">
                    <path id="Trazado_875905" data-name="Trazado 875905" d="M95.675,12.553h-6.19L94.883,0h6.191Z" transform="translate(-89.485 0)" fill="#6833a3"/>
                  </g>
                </g>
              </g>
              <g id="Grupo_1100442" data-name="Grupo 1100442" transform="translate(8.978)">
                <g id="Grupo_1100441" data-name="Grupo 1100441">
                  <g id="Grupo_1100440" data-name="Grupo 1100440" clip-path="url(#clip-path-4)">
                    <path id="Trazado_875906" data-name="Trazado 875906" d="M108.5,12.553h-6.19L107.7,0h6.189Z" transform="translate(-102.305 0)" fill="#6833a3"/>
                  </g>
                </g>
              </g>
              <g id="Grupo_1100445" data-name="Grupo 1100445" transform="translate(17.956)">
                <g id="Grupo_1100444" data-name="Grupo 1100444">
                  <g id="Grupo_1100443" data-name="Grupo 1100443" clip-path="url(#clip-path-4)">
                    <path id="Trazado_875907" data-name="Trazado 875907" d="M121.316,12.553h-6.19L120.523,0h6.19Z" transform="translate(-115.126 0)" fill="#6833a3"/>
                  </g>
                </g>
              </g>
              <g id="Grupo_1100448" data-name="Grupo 1100448" transform="translate(26.934)" opacity="0.4">
                <g id="Grupo_1100447" data-name="Grupo 1100447">
                  <g id="Grupo_1100446" data-name="Grupo 1100446" clip-path="url(#clip-path-7)">
                    <path id="Trazado_875908" data-name="Trazado 875908" d="M134.136,12.553h-6.19L133.343,0h6.191Z" transform="translate(-127.945 0)" fill="#6833a3"/>
                  </g>
                </g>
              </g>
              <g id="Grupo_1100451" data-name="Grupo 1100451" transform="translate(35.912)" opacity="0.4">
                <g id="Grupo_1100450" data-name="Grupo 1100450">
                  <g id="Grupo_1100449" data-name="Grupo 1100449" clip-path="url(#clip-path-4)">
                    <path id="Trazado_875909" data-name="Trazado 875909" d="M146.957,12.553h-6.19L146.164,0h6.191Z" transform="translate(-140.766 0)" fill="#6833a3"/>
                  </g>
                </g>
              </g>
              <g id="Grupo_1100454" data-name="Grupo 1100454" transform="translate(44.891)" opacity="0.4">
                <g id="Grupo_1100453" data-name="Grupo 1100453">
                  <g id="Grupo_1100452" data-name="Grupo 1100452" clip-path="url(#clip-path-9)">
                    <path id="Trazado_875910" data-name="Trazado 875910" d="M159.777,12.553h-6.19L158.984,0h6.191Z" transform="translate(-153.587 0)" fill="#6833a3"/>
                  </g>
                </g>
              </g>
              <g id="Grupo_1100457" data-name="Grupo 1100457" transform="translate(53.869)" opacity="0.4">
                <g id="Grupo_1100456" data-name="Grupo 1100456">
                  <g id="Grupo_1100455" data-name="Grupo 1100455" clip-path="url(#clip-path-4)">
                    <path id="Trazado_875911" data-name="Trazado 875911" d="M172.6,12.553h-6.19L171.8,0H178Z" transform="translate(-166.407 0)" fill="#6833a3"/>
                  </g>
                </g>
              </g>
            </g>
          </g>
        </g>
        <path id="Rectángulo_401917" data-name="Rectángulo 401917" d="M7.4,0H28.545a7.4,7.4,0,0,1,7.4,7.4V21.668a7.4,7.4,0,0,1-7.4,7.4H7.4a7.4,7.4,0,0,1-7.4-7.4V7.4A7.4,7.4,0,0,1,7.4,0Z" transform="translate(235.875 13.599)" fill="none" stroke="#6833a3" stroke-miterlimit="10" stroke-width="1"/>
        <rect id="Rectángulo_401918" data-name="Rectángulo 401918" width="10.192" height="2.707" transform="translate(248.75 26.776)" fill="#6833a3"/>
        <rect id="Rectángulo_401919" data-name="Rectángulo 401919" width="2.707" height="10.191" transform="translate(252.493 23.034)" fill="#6833a3"/>
        <path id="Trazado_875912" data-name="Trazado 875912" d="M103.193,60.706V57.973H99.248a5.7,5.7,0,0,0-.662-1.594l2.791-2.791-1.933-1.933-2.791,2.792a5.675,5.675,0,0,0-1.594-.662V49.838H92.326v3.946a5.7,5.7,0,0,0-1.593.662L87.94,51.655l-1.933,1.932L88.8,56.379a5.7,5.7,0,0,0-.662,1.593H84.191v2.733h3.946A5.714,5.714,0,0,0,88.8,62.3l-2.791,2.792,1.933,1.932,2.791-2.791a5.7,5.7,0,0,0,1.593.662V68.84h2.733V64.895a5.706,5.706,0,0,0,1.595-.662l2.791,2.791,1.933-1.932L98.585,62.3a5.7,5.7,0,0,0,.662-1.594Zm-9.5,1.236a2.6,2.6,0,1,1,2.6-2.6,2.606,2.606,0,0,1-2.6,2.6" transform="translate(-25.232 -14.936)" fill="#6833a3"/>
        <path id="Trazado_875913" data-name="Trazado 875913" d="M215.935,9.65V8.01h-2.369a3.413,3.413,0,0,0-.4-.957l1.677-1.676-1.16-1.16-1.677,1.677a3.4,3.4,0,0,0-.957-.4V3.125H209.41v2.37a3.419,3.419,0,0,0-.957.4l-1.677-1.676-1.16,1.16,1.677,1.676a3.378,3.378,0,0,0-.4.957h-2.37V9.65h2.37a3.369,3.369,0,0,0,.4.957l-1.677,1.677,1.16,1.16,1.677-1.677a3.383,3.383,0,0,0,.957.4v2.369h1.641V12.166a3.446,3.446,0,0,0,.957-.4l1.677,1.676,1.16-1.16-1.677-1.676a3.418,3.418,0,0,0,.4-.957Zm-5.7.742a1.563,1.563,0,1,1,1.562-1.563,1.564,1.564,0,0,1-1.562,1.563" transform="translate(-61.295 -0.937)" fill="#bc74e1"/>
        <path id="Trazado_875914" data-name="Trazado 875914" d="M256.693,39.474H139.834a7.994,7.994,0,0,0-1.915.24l-.313-1.307L134.5,41.514a7.907,7.907,0,0,0-.659.659l-.069.07v.006A7.991,7.991,0,0,0,131.8,47.5V250a8.028,8.028,0,0,0,8.029,8.028H256.693A8.028,8.028,0,0,0,264.722,250V47.5a8.028,8.028,0,0,0-8.028-8.028" transform="translate(-39.501 -11.51)" fill="#7ca1d6"/>
      </g>
    </g>
    <g id="Grupo_1100464" data-name="Grupo 1100464" transform="translate(95.395 24.873)">
      <g id="Grupo_1100463" data-name="Grupo 1100463" clip-path="url(#clip-path-11)">
        <rect id="Rectángulo_401921" data-name="Rectángulo 401921" width="132.917" height="218.552" transform="translate(0 0)" fill="url(#linear-gradient)"/>
      </g>
    </g>
    <g id="Grupo_1100493" data-name="Grupo 1100493">
      <g id="Grupo_1100492" data-name="Grupo 1100492" clip-path="url(#clip-path)">
        <path id="Trazado_875915" data-name="Trazado 875915" d="M243.926,54.766a1.725,1.725,0,0,1-1.726,1.726H198.166a1.725,1.725,0,1,1,0-3.45H242.2a1.725,1.725,0,0,1,1.726,1.725" transform="translate(-58.872 -15.896)" fill="#fff"/>
        <path id="Trazado_875916" data-name="Trazado 875916" d="M279.8,54.208a3.029,3.029,0,1,1-3.029-3.029,3.03,3.03,0,0,1,3.029,3.029" transform="translate(-82.038 -15.338)" fill="#fff"/>
        <path id="Rectángulo_401923" data-name="Rectángulo 401923" d="M9.921,0H84.259a9.922,9.922,0,0,1,9.922,9.922V34.977A9.921,9.921,0,0,1,84.26,44.9H9.921A9.921,9.921,0,0,1,0,34.977V9.921A9.921,9.921,0,0,1,9.921,0Z" transform="translate(47.146 63.19)" fill="#5b8cdd"/>
        <rect id="Rectángulo_401924" data-name="Rectángulo 401924" width="94.181" height="44.898" rx="9.921" transform="translate(49.464 60.872)" fill="#a9c7f9"/>
        <path id="Trazado_875917" data-name="Trazado 875917" d="M114.548,122.719l-14.061-5.1v-4.908l14.061-5.1V112.3l-12.3,4.218v-2.7l12.3,4.219Z" transform="translate(-30.115 -32.25)" fill="#fff"/>
        <path id="Trazado_875918" data-name="Trazado 875918" d="M129.029,125l9.1-25.972h5.514L134.543,125Z" transform="translate(-38.669 -29.678)" fill="#fff"/>
        <path id="Trazado_875919" data-name="Trazado 875919" d="M157.965,122.719v-4.686l12.3-4.219v2.7l-12.3-4.218v-4.687l14.061,5.1v4.908Z" transform="translate(-47.341 -32.25)" fill="#fff"/>
        <g id="Grupo_1100467" data-name="Grupo 1100467" transform="translate(155.376 56.805)" opacity="0.4" style="mix-blend-mode: overlay;isolation: isolate">
          <g id="Grupo_1100466" data-name="Grupo 1100466">
            <g id="Grupo_1100465" data-name="Grupo 1100465" clip-path="url(#clip-path-13)">
              <rect id="Rectángulo_401925" data-name="Rectángulo 401925" width="64.352" height="4.135" transform="translate(-0.001)" fill="#fff"/>
            </g>
          </g>
        </g>
        <g id="Grupo_1100470" data-name="Grupo 1100470" transform="translate(192.563 64.439)" opacity="0.4" style="mix-blend-mode: overlay;isolation: isolate">
          <g id="Grupo_1100469" data-name="Grupo 1100469">
            <g id="Grupo_1100468" data-name="Grupo 1100468" clip-path="url(#clip-path-14)">
              <rect id="Rectángulo_401927" data-name="Rectángulo 401927" width="27.164" height="4.135" fill="#fff"/>
            </g>
          </g>
        </g>
        <g id="Grupo_1100473" data-name="Grupo 1100473" transform="translate(208.71 84.479)" opacity="0.4" style="mix-blend-mode: overlay;isolation: isolate">
          <g id="Grupo_1100472" data-name="Grupo 1100472">
            <g id="Grupo_1100471" data-name="Grupo 1100471" clip-path="url(#clip-path-15)">
              <rect id="Rectángulo_401929" data-name="Rectángulo 401929" width="11.017" height="4.135" transform="translate(0 0.001)" fill="#fff"/>
            </g>
          </g>
        </g>
        <g id="Grupo_1100476" data-name="Grupo 1100476" transform="translate(172.163 72.786)" opacity="0.4" style="mix-blend-mode: overlay;isolation: isolate">
          <g id="Grupo_1100475" data-name="Grupo 1100475">
            <g id="Grupo_1100474" data-name="Grupo 1100474" clip-path="url(#clip-path-16)">
              <rect id="Rectángulo_401931" data-name="Rectángulo 401931" width="47.565" height="4.135" transform="translate(-0.001)" fill="#fff"/>
            </g>
          </g>
        </g>
        <g id="Grupo_1100479" data-name="Grupo 1100479" transform="translate(158.236 84.479)" opacity="0.4" style="mix-blend-mode: overlay;isolation: isolate">
          <g id="Grupo_1100478" data-name="Grupo 1100478">
            <g id="Grupo_1100477" data-name="Grupo 1100477" clip-path="url(#clip-path-17)">
              <rect id="Rectángulo_401933" data-name="Rectángulo 401933" width="43.13" height="4.135" transform="translate(0 0.001)" fill="#fff"/>
            </g>
          </g>
        </g>
        <g id="Grupo_1100482" data-name="Grupo 1100482" transform="translate(124.615 101.013)" opacity="0.4" style="mix-blend-mode: multiply;isolation: isolate">
          <g id="Grupo_1100481" data-name="Grupo 1100481">
            <g id="Grupo_1100480" data-name="Grupo 1100480" clip-path="url(#clip-path-18)">
              <path id="Trazado_875920" data-name="Trazado 875920" d="M226.2,144.241v29.336H179.944v28.562" transform="translate(-178.543 -144.241)" fill="none" stroke="#402083" stroke-miterlimit="10" stroke-width="4"/>
            </g>
          </g>
        </g>
        <g id="Grupo_1100485" data-name="Grupo 1100485" transform="translate(157.994 169.719)" opacity="0.4" style="mix-blend-mode: multiply;isolation: isolate">
          <g id="Grupo_1100484" data-name="Grupo 1100484">
            <g id="Grupo_1100483" data-name="Grupo 1100483" clip-path="url(#clip-path-19)">
              <path id="Trazado_875921" data-name="Trazado 875921" d="M254.17,276.076V244.349H225.607" transform="translate(-225.607 -242.948)" fill="none" stroke="#402083" stroke-miterlimit="10" stroke-width="4"/>
            </g>
          </g>
        </g>
        <path id="Rectángulo_401937" data-name="Rectángulo 401937" d="M9.921,0H73.442a9.921,9.921,0,0,1,9.921,9.921V34.977a9.92,9.92,0,0,1-9.92,9.92H9.922A9.922,9.922,0,0,1,0,34.975V9.921A9.921,9.921,0,0,1,9.921,0Z" transform="translate(75.156 149.351)" fill="#008487"/>
        <path id="Rectángulo_401938" data-name="Rectángulo 401938" d="M9.921,0H73.442a9.921,9.921,0,0,1,9.921,9.921V34.978a9.92,9.92,0,0,1-9.92,9.92H9.922A9.922,9.922,0,0,1,0,34.976V9.921A9.921,9.921,0,0,1,9.921,0Z" transform="translate(77.473 147.033)" fill="#00cbdc"/>
        <path id="Trazado_875922" data-name="Trazado 875922" d="M144.078,247.866a10.347,10.347,0,0,1-3.624-.618,8.5,8.5,0,0,1-2.89-1.76,7.987,7.987,0,0,1-1.9-2.7,9.139,9.139,0,0,1,0-6.9,8.007,8.007,0,0,1,1.9-2.7,8.5,8.5,0,0,1,2.89-1.759,10.347,10.347,0,0,1,3.624-.618,10.2,10.2,0,0,1,4.254.84,7.9,7.9,0,0,1,3.065,2.424l-3.474,3.1a5.63,5.63,0,0,0-1.6-1.411,3.887,3.887,0,0,0-1.969-.5,4.163,4.163,0,0,0-1.562.281,3.265,3.265,0,0,0-1.2.815,3.777,3.777,0,0,0-.782,1.293,5.247,5.247,0,0,0,0,3.379,3.777,3.777,0,0,0,.782,1.293,3.275,3.275,0,0,0,1.2.816,4.163,4.163,0,0,0,1.562.281,3.881,3.881,0,0,0,1.969-.5,5.628,5.628,0,0,0,1.6-1.41l3.474,3.1a8.081,8.081,0,0,1-3.065,2.412,10.092,10.092,0,0,1-4.254.851" transform="translate(-40.455 -69.171)" fill="#fff"/>
        <path id="Trazado_875923" data-name="Trazado 875923" d="M166.939,238.562h11.887v3.962H166.939Zm3.846-3.729h4.2v11.421h-4.2Z" transform="translate(-50.031 -70.378)" fill="#fff"/>
        <path id="Trazado_875924" data-name="Trazado 875924" d="M194.563,238.562H206.45v3.962H194.563Zm3.845-3.729h4.2v11.421h-4.2Z" transform="translate(-58.309 -70.378)" fill="#fff"/>
        <rect id="Rectángulo_401939" data-name="Rectángulo 401939" width="1.576" height="2.669" transform="translate(201.75 155.981)" fill="#fff"/>
        <rect id="Rectángulo_401940" data-name="Rectángulo 401940" width="1.576" height="2.669" transform="translate(201.75 151.195)" fill="#fff"/>
        <rect id="Rectángulo_401941" data-name="Rectángulo 401941" width="1.576" height="2.669" transform="translate(201.75 146.424)" fill="#fff"/>
        <rect id="Rectángulo_401942" data-name="Rectángulo 401942" width="1.576" height="2.669" transform="translate(201.75 170.359)" fill="#fff"/>
        <rect id="Rectángulo_401943" data-name="Rectángulo 401943" width="1.576" height="2.669" transform="translate(201.75 165.573)" fill="#fff"/>
        <rect id="Rectángulo_401944" data-name="Rectángulo 401944" width="1.576" height="2.669" transform="translate(201.75 160.802)" fill="#fff"/>
        <rect id="Rectángulo_401945" data-name="Rectángulo 401945" width="1.576" height="2.669" transform="translate(201.75 184.737)" fill="#fff"/>
        <rect id="Rectángulo_401946" data-name="Rectángulo 401946" width="1.576" height="2.669" transform="translate(201.75 179.951)" fill="#fff"/>
        <rect id="Rectángulo_401947" data-name="Rectángulo 401947" width="1.576" height="2.669" transform="translate(201.75 175.18)" fill="#fff"/>
        <rect id="Rectángulo_401948" data-name="Rectángulo 401948" width="1.576" height="2.669" transform="translate(201.75 199.115)" fill="#fff"/>
        <rect id="Rectángulo_401949" data-name="Rectángulo 401949" width="1.576" height="2.669" transform="translate(201.75 194.329)" fill="#fff"/>
        <rect id="Rectángulo_401950" data-name="Rectángulo 401950" width="1.576" height="2.669" transform="translate(201.75 189.558)" fill="#fff"/>
        <path id="Rectángulo_401951" data-name="Rectángulo 401951" d="M9.921,0H84.26a9.92,9.92,0,0,1,9.92,9.92V34.977A9.921,9.921,0,0,1,84.259,44.9H9.921A9.921,9.921,0,0,1,0,34.977V9.921A9.921,9.921,0,0,1,9.921,0Z" transform="translate(190.158 109.831)" fill="#235098"/>
        <path id="Rectángulo_401952" data-name="Rectángulo 401952" d="M9.921,0H84.259a9.922,9.922,0,0,1,9.922,9.922V34.977A9.921,9.921,0,0,1,84.26,44.9H9.921A9.921,9.921,0,0,1,0,34.977V9.921A9.921,9.921,0,0,1,9.921,0Z" transform="translate(192.475 107.513)" fill="#4883ed"/>
        <path id="Trazado_875925" data-name="Trazado 875925" d="M301.219,190.2a7.861,7.861,0,0,1-2.949-.528,5.588,5.588,0,0,1-2.191-1.543l2.53-2.989a4.942,4.942,0,0,0,1.1,1.026,2.021,2.021,0,0,0,1.116.349q1.514,0,1.514-1.733v-5.3h-4.742v-3.546h9.383V184.5a5.675,5.675,0,0,1-1.474,4.283,5.949,5.949,0,0,1-4.283,1.415" transform="translate(-88.733 -52.727)" fill="#fff"/>
        <path id="Trazado_875926" data-name="Trazado 875926" d="M317.813,189.881l6.1-13.945h4.623l6.1,13.945h-4.861l-4.5-11.715H327.1l-4.5,11.715Zm3.625-2.431,1.2-3.387h6.415l1.2,3.387Z" transform="translate(-95.247 -52.727)" fill="#fff"/>
        <path id="Trazado_875927" data-name="Trazado 875927" d="M351.19,189.88l-5.9-13.945h5.06l4.8,11.774h-3.009l4.941-11.774h4.622l-5.9,13.945Z" transform="translate(-103.482 -52.727)" fill="#fff"/>
        <path id="Trazado_875928" data-name="Trazado 875928" d="M372.206,189.881l6.095-13.945h4.623l6.1,13.945h-4.86l-4.5-11.715h1.833l-4.5,11.715Zm3.625-2.431,1.195-3.387h6.415l1.2,3.387Z" transform="translate(-111.548 -52.727)" fill="#fff"/>
        <rect id="Rectángulo_401953" data-name="Rectángulo 401953" width="2.35" height="1.576" transform="translate(127.755 122.774)" fill="#fff"/>
        <rect id="Rectángulo_401954" data-name="Rectángulo 401954" width="2.35" height="1.576" transform="translate(123.542 122.774)" fill="#fff"/>
        <rect id="Rectángulo_401955" data-name="Rectángulo 401955" width="2.35" height="1.576" transform="translate(119.341 122.774)" fill="#fff"/>
        <rect id="Rectángulo_401956" data-name="Rectángulo 401956" width="2.35" height="1.576" transform="translate(140.414 122.774)" fill="#fff"/>
        <rect id="Rectángulo_401957" data-name="Rectángulo 401957" width="2.35" height="1.576" transform="translate(136.2 122.774)" fill="#fff"/>
        <rect id="Rectángulo_401958" data-name="Rectángulo 401958" width="2.35" height="1.576" transform="translate(132 122.774)" fill="#fff"/>
        <rect id="Rectángulo_401959" data-name="Rectángulo 401959" width="2.35" height="1.576" transform="translate(153.073 122.774)" fill="#fff"/>
        <rect id="Rectángulo_401960" data-name="Rectángulo 401960" width="2.35" height="1.576" transform="translate(148.859 122.774)" fill="#fff"/>
        <rect id="Rectángulo_401961" data-name="Rectángulo 401961" width="2.35" height="1.576" transform="translate(144.659 122.774)" fill="#fff"/>
        <rect id="Rectángulo_401962" data-name="Rectángulo 401962" width="1.576" height="2.866" transform="translate(118.598 127.564)" fill="#fff"/>
        <rect id="Rectángulo_401963" data-name="Rectángulo 401963" width="1.576" height="2.866" transform="translate(118.598 132.703)" fill="#fff"/>
        <rect id="Rectángulo_401964" data-name="Rectángulo 401964" width="1.576" height="2.866" transform="translate(118.598 137.826)" fill="#fff"/>
        <g id="Grupo_1100488" data-name="Grupo 1100488" transform="translate(116.046 209.671)" opacity="0.4" style="mix-blend-mode: overlay;isolation: isolate">
          <g id="Grupo_1100487" data-name="Grupo 1100487">
            <g id="Grupo_1100486" data-name="Grupo 1100486" clip-path="url(#clip-path-20)">
              <rect id="Rectángulo_401965" data-name="Rectángulo 401965" width="95.985" height="14.544" transform="translate(0 -0.001)" fill="#fff"/>
            </g>
          </g>
        </g>
        <g id="Grupo_1100491" data-name="Grupo 1100491" transform="translate(127.868 213.743)" opacity="0.4">
          <g id="Grupo_1100490" data-name="Grupo 1100490">
            <g id="Grupo_1100489" data-name="Grupo 1100489" clip-path="url(#clip-path-21)">
              <path id="Trazado_875929" data-name="Trazado 875929" d="M186.015,311.693a3.845,3.845,0,0,1-1.366-.236,3.17,3.17,0,0,1-1.085-.672,3.107,3.107,0,0,1-.716-1.029,3.417,3.417,0,0,1,0-2.607,3.111,3.111,0,0,1,.716-1.028,3.183,3.183,0,0,1,1.085-.672,3.846,3.846,0,0,1,1.366-.236,3.77,3.77,0,0,1,1.545.3,2.969,2.969,0,0,1,1.135.872l-1.121,1.015a2.194,2.194,0,0,0-.664-.543,1.72,1.72,0,0,0-.805-.187,1.934,1.934,0,0,0-.7.125,1.511,1.511,0,0,0-.547.36,1.7,1.7,0,0,0-.356.566,2.131,2.131,0,0,0,0,1.459,1.69,1.69,0,0,0,.356.565,1.513,1.513,0,0,0,.547.361,1.934,1.934,0,0,0,.7.125,1.712,1.712,0,0,0,.805-.188,2.192,2.192,0,0,0,.664-.542l1.121,1.014a3.046,3.046,0,0,1-1.135.868,3.726,3.726,0,0,1-1.545.307" transform="translate(-182.588 -305.213)" fill="#fff"/>
              <path id="Trazado_875930" data-name="Trazado 875930" d="M197.781,311.693a3.845,3.845,0,0,1-1.38-.24,3.28,3.28,0,0,1-1.1-.681,3.129,3.129,0,0,1-.726-1.028,3.361,3.361,0,0,1,0-2.581,3.139,3.139,0,0,1,.726-1.029,3.289,3.289,0,0,1,1.1-.68,4.083,4.083,0,0,1,2.763,0,3.21,3.21,0,0,1,1.816,1.709,3.2,3.2,0,0,1-.726,3.614,3.275,3.275,0,0,1-1.09.676,3.836,3.836,0,0,1-1.384.24m0-1.459a1.76,1.76,0,0,0,.663-.125,1.542,1.542,0,0,0,.534-.361,1.7,1.7,0,0,0,.356-.565,2.145,2.145,0,0,0,0-1.464,1.718,1.718,0,0,0-.356-.561,1.54,1.54,0,0,0-.534-.36,1.827,1.827,0,0,0-1.326,0,1.533,1.533,0,0,0-.534.36,1.706,1.706,0,0,0-.356.561,2.145,2.145,0,0,0,0,1.464,1.69,1.69,0,0,0,.356.565,1.535,1.535,0,0,0,.534.361,1.755,1.755,0,0,0,.663.125" transform="translate(-186.104 -305.213)" fill="#fff"/>
              <path id="Trazado_875931" data-name="Trazado 875931" d="M208.071,311.623v-6.23h1.451l3.436,4.147h-.686v-4.147H214v6.23h-1.45l-3.436-4.148h.686v4.148Z" transform="translate(-190.225 -305.267)" fill="#fff"/>
              <path id="Trazado_875932" data-name="Trazado 875932" d="M220.857,311.623v-6.23h1.45l3.436,4.147h-.686v-4.147h1.727v6.23h-1.45l-3.436-4.148h.686v4.148Z" transform="translate(-194.057 -305.267)" fill="#fff"/>
              <path id="Trazado_875933" data-name="Trazado 875933" d="M235.387,310.261h3.258v1.362h-5v-6.231h4.887v1.361h-3.142Zm-.124-2.457h2.893v1.317h-2.893Z" transform="translate(-197.889 -305.267)" fill="#fff"/>
              <path id="Trazado_875934" data-name="Trazado 875934" d="M247.7,311.693a3.845,3.845,0,0,1-1.366-.236,3.17,3.17,0,0,1-1.085-.672,3.106,3.106,0,0,1-.716-1.029,3.417,3.417,0,0,1,0-2.607,3.111,3.111,0,0,1,.716-1.028,3.183,3.183,0,0,1,1.085-.672,3.847,3.847,0,0,1,1.366-.236,3.762,3.762,0,0,1,1.544.3,2.966,2.966,0,0,1,1.135.872l-1.121,1.015a2.194,2.194,0,0,0-.664-.543,1.72,1.72,0,0,0-.805-.187,1.937,1.937,0,0,0-.7.125,1.511,1.511,0,0,0-.547.36,1.71,1.71,0,0,0-.356.566,2.12,2.12,0,0,0,0,1.459,1.7,1.7,0,0,0,.356.565,1.513,1.513,0,0,0,.547.361,1.937,1.937,0,0,0,.7.125,1.711,1.711,0,0,0,.805-.188,2.192,2.192,0,0,0,.664-.542l1.121,1.014a3.043,3.043,0,0,1-1.135.868,3.718,3.718,0,0,1-1.544.307" transform="translate(-201.073 -305.213)" fill="#fff"/>
              <path id="Trazado_875935" data-name="Trazado 875935" d="M257.647,311.623V306.79h-1.913v-1.4h5.58v1.4h-1.9v4.833Z" transform="translate(-204.509 -305.267)" fill="#fff"/>
              <path id="Trazado_875936" data-name="Trazado 875936" d="M268.928,310.261h3.258v1.362h-5v-6.231h4.887v1.361h-3.142ZM268.8,307.8H271.7v1.317H268.8Z" transform="translate(-207.941 -305.267)" fill="#fff"/>
              <path id="Trazado_875937" data-name="Trazado 875937" d="M278.267,311.623v-6.231h2.946a4.093,4.093,0,0,1,1.816.382,2.948,2.948,0,0,1,1.224,1.077,3.323,3.323,0,0,1,0,3.307,2.938,2.938,0,0,1-1.224,1.081,4.083,4.083,0,0,1-1.816.383Zm1.763-1.406h1.113a2.043,2.043,0,0,0,.93-.2,1.463,1.463,0,0,0,.618-.588,2.027,2.027,0,0,0,0-1.847,1.469,1.469,0,0,0-.618-.583,2.043,2.043,0,0,0-.93-.2H280.03Z" transform="translate(-211.262 -305.267)" fill="#fff"/>
            </g>
          </g>
        </g>
        <path id="Trazado_875938" data-name="Trazado 875938" d="M246.613,15.07V8.4h3.212a3.933,3.933,0,0,1,1.616.305,2.3,2.3,0,0,1,1.424,2.211,2.367,2.367,0,0,1-.371,1.334,2.433,2.433,0,0,1-1.053.873,3.875,3.875,0,0,1-1.616.31h-1.963l1-.963v2.6Zm2.249-2.354-1-1.02h1.82a.984.984,0,0,0,.691-.209.84.84,0,0,0,0-1.144.98.98,0,0,0-.691-.21h-1.82l1-1.02Z" transform="translate(-73.908 -2.517)" fill="#6833a3"/>
        <path id="Trazado_875939" data-name="Trazado 875939" d="M260.683,15.07V12.144l.514,1.344L258.166,8.4h2.373l2.049,3.478h-1.382L263.275,8.4h2.173l-3.012,5.089.5-1.344V15.07Z" transform="translate(-77.371 -2.517)" fill="#6833a3"/>
        <path id="Trazado_875940" data-name="Trazado 875940" d="M272.653,15.07V10.143H270.7V8.4h6.156v1.744H274.9V15.07Z" transform="translate(-81.127 -2.517)" fill="#6833a3"/>
        <path id="Trazado_875941" data-name="Trazado 875941" d="M285.291,15.07h-2.249V8.4h2.249Zm2.23-2.459h-2.382V10.763h2.382ZM287.368,8.4h2.249V15.07h-2.249Z" transform="translate(-84.826 -2.517)" fill="#6833a3"/>
        <path id="Trazado_875942" data-name="Trazado 875942" d="M300.1,15.157a4.279,4.279,0,0,1-1.511-.258,3.51,3.51,0,0,1-1.2-.73,3.335,3.335,0,0,1-.786-1.11,3.6,3.6,0,0,1,0-2.787,3.366,3.366,0,0,1,.786-1.105,3.543,3.543,0,0,1,1.2-.73,4.525,4.525,0,0,1,3.006,0,3.558,3.558,0,0,1,1.192.73,3.374,3.374,0,0,1,.786,1.105,3.6,3.6,0,0,1,0,2.787,3.343,3.343,0,0,1-.786,1.11,3.524,3.524,0,0,1-1.192.73,4.21,4.21,0,0,1-1.5.258m-.01-1.821a1.5,1.5,0,0,0,.586-.114,1.4,1.4,0,0,0,.477-.329,1.5,1.5,0,0,0,.319-.523,2.21,2.21,0,0,0,0-1.4,1.5,1.5,0,0,0-.319-.523,1.407,1.407,0,0,0-.477-.329,1.562,1.562,0,0,0-1.172,0,1.4,1.4,0,0,0-.476.329,1.494,1.494,0,0,0-.319.523,2.21,2.21,0,0,0,0,1.4,1.494,1.494,0,0,0,.319.523,1.4,1.4,0,0,0,.476.329,1.508,1.508,0,0,0,.586.114" transform="translate(-88.806 -2.452)" fill="#6833a3"/>
        <path id="Trazado_875943" data-name="Trazado 875943" d="M310.966,15.07V8.4h1.849l3.392,4.06h-.857V8.4h2.192V15.07h-1.849L312.3,11.01h.858v4.06Z" transform="translate(-93.194 -2.517)" fill="#6833a3"/>
        <path id="Trazado_875944" data-name="Trazado 875944" d="M397.1,122.434a3.456,3.456,0,1,1-3.456-3.457A3.456,3.456,0,0,1,397.1,122.434Z" transform="translate(-116.937 -35.657)" fill="none" stroke="#6833a3" stroke-miterlimit="10" stroke-width="3"/>
        <path id="Trazado_875945" data-name="Trazado 875945" d="M417.987,82.985a2.526,2.526,0,1,1-2.526-2.526A2.525,2.525,0,0,1,417.987,82.985Z" transform="translate(-123.754 -24.113)" fill="none" stroke="#6833a3" stroke-miterlimit="10" stroke-width="2"/>
        <path id="Trazado_875946" data-name="Trazado 875946" d="M58.845,41.02a2.526,2.526,0,1,1-2.526-2.526A2.525,2.525,0,0,1,58.845,41.02Z" transform="translate(-16.122 -11.536)" fill="none" stroke="#6833a3" stroke-miterlimit="10" stroke-width="2"/>
      </g>
    </g>
  </g>
</svg>
