<svg xmlns="http://www.w3.org/2000/svg" width="60" height="60" viewBox="0 0 60 60">
  <g id="Grupo_1100339" data-name="Grupo 1100339" transform="translate(-300 -891)">
    <rect id="Rectángulo_401237" data-name="Rectángulo 401237" width="60" height="60" rx="10" transform="translate(300 891)" fill="#fff" opacity="0.3"/>
    <g id="Grupo_1099453" data-name="Grupo 1099453" transform="translate(301.793 892.793)">
      <path id="Trazado_874251" data-name="Trazado 874251" d="M39.423,76.613A2.986,2.986,0,1,0,42.41,79.6,2.986,2.986,0,0,0,39.423,76.613Zm0,4.574A1.588,1.588,0,1,1,41.011,79.6,1.588,1.588,0,0,1,39.423,81.187Z" transform="translate(-19.144 -43.27)" fill="#3a1d71"/>
      <path id="Trazado_874252" data-name="Trazado 874252" d="M51.353,13.094H49.184a8.659,8.659,0,0,0-.578-1.4l1.533-1.534a.7.7,0,0,0,0-.989l-2.7-2.7a.7.7,0,0,0-.989,0L44.912,8a8.593,8.593,0,0,0-1.4-.579V5.256a.7.7,0,0,0-.7-.7H38.99a.7.7,0,0,0-.7.7V7.425a8.659,8.659,0,0,0-1.4.578L35.36,6.47a.7.7,0,0,0-.988,0l-2.7,2.7a.7.7,0,0,0,0,.989L33.2,11.7a8.621,8.621,0,0,0-.578,1.4H30.453a.7.7,0,0,0-.7.7v3.825a.7.7,0,0,0,.7.7h.311l-7.036,6.227V21.306a.7.7,0,0,0-.7-.7h-5.5a.7.7,0,0,0-.7.7v3.345a12.123,12.123,0,0,0-2.371.982l-2.365-2.365a.7.7,0,0,0-.989,0L7.218,27.156a.7.7,0,0,0,0,.989l2.365,2.365A12.088,12.088,0,0,0,8.6,32.881H5.256a.7.7,0,0,0-.7.7v5.5a.7.7,0,0,0,.7.7H8.6a12.1,12.1,0,0,0,.982,2.371L7.218,44.514a.7.7,0,0,0,0,.989l3.888,3.888a.719.719,0,0,0,.989,0l2.365-2.365a12.1,12.1,0,0,0,2.371.982v3.345a.7.7,0,0,0,.7.7h5.5a.7.7,0,0,0,.7-.7V48.008a12.088,12.088,0,0,0,2.371-.982l2.365,2.365a.7.7,0,0,0,.989,0L33.343,45.5a.7.7,0,0,0,0-.989l-2.365-2.365a12.124,12.124,0,0,0,.982-2.371h3.345a.7.7,0,0,0,.7-.7v-5.5a.7.7,0,0,0-.7-.7h-3.24l6.227-7.036v.311a.7.7,0,0,0,.7.7h3.825a.7.7,0,0,0,.7-.7V23.987a8.556,8.556,0,0,0,1.4-.578l1.534,1.534a.7.7,0,0,0,.989,0l2.7-2.7a.7.7,0,0,0,0-.988l-1.534-1.534a8.66,8.66,0,0,0,.578-1.4h2.169a.7.7,0,0,0,.7-.7V13.793a.7.7,0,0,0-.7-.7ZM40.9,19.076A3.372,3.372,0,1,1,44.275,15.7,3.372,3.372,0,0,1,40.9,19.076Zm0,1.4c.1,0,.19-.009.284-.014l-2.046,2.312a7.231,7.231,0,0,1-2.005-.832.7.7,0,0,0-.856.1l-1.414,1.414-1.718-1.718,1.414-1.414a.7.7,0,0,0,.1-.856,7.231,7.231,0,0,1-.832-2.005l2.312-2.046c-.006.095-.014.189-.014.284A4.775,4.775,0,0,0,40.9,20.474ZM23.99,39.9a5.147,5.147,0,1,1-7.279-7.279l.345-.3a5.148,5.148,0,0,1,7.238,7.239Zm-3.711-10.12c-.127,0-.252.012-.378.019l4.059-3.591a10.713,10.713,0,0,1,1.893.9.7.7,0,0,0,.857-.1l2.249-2.25,2.9,2.9L29.611,29.9a.7.7,0,0,0-.1.857,10.714,10.714,0,0,1,.9,1.893l-3.593,4.058c.007-.125.019-.25.019-.378A6.559,6.559,0,0,0,20.279,29.778Zm10.7.731,2.365-2.365a.7.7,0,0,0,0-.989l-3.888-3.888a.719.719,0,0,0-.989,0L26.1,25.633c-.314-.171-.636-.324-.964-.467l7.548-6.679a8.656,8.656,0,0,0,.517,1.228l-1.533,1.534a.7.7,0,0,0,0,.988l2.7,2.7a.7.7,0,0,0,.988,0l1.534-1.533a8.657,8.657,0,0,0,1.228.517l-6.679,7.548c-.143-.328-.3-.65-.467-.964Zm.447,3.77H34.6v4.1H31.423a.7.7,0,0,0-.679.532A10.709,10.709,0,0,1,29.505,41.9a.7.7,0,0,0,.1.857l2.249,2.249-2.9,2.9L26.71,45.659a.7.7,0,0,0-.857-.1,10.71,10.71,0,0,1-2.991,1.238.7.7,0,0,0-.532.679v3.181h-4.1V47.472a.7.7,0,0,0-.532-.679,10.709,10.709,0,0,1-2.991-1.238.7.7,0,0,0-.857.1L11.6,47.907l-2.9-2.9,2.249-2.249a.7.7,0,0,0,.1-.857,10.709,10.709,0,0,1-1.238-2.991.7.7,0,0,0-.679-.532H5.955v-4.1H9.136a.7.7,0,0,0,.679-.532,10.709,10.709,0,0,1,1.238-2.991.7.7,0,0,0-.1-.857L8.7,27.65l2.9-2.9L13.849,27a.7.7,0,0,0,.857.1A10.709,10.709,0,0,1,17.7,25.863a.7.7,0,0,0,.532-.679V22h4.1v3.181a.7.7,0,0,0,.167.448l-6.346,5.615c-.083.068-.16.141-.24.212l-.233.207a.7.7,0,0,0-.1.11,6.544,6.544,0,1,0,9.251,9.257.688.688,0,0,0,.113-.1l.207-.233c.071-.08.144-.157.212-.24l5.614-6.346A.7.7,0,0,0,31.423,34.279Zm19.231-17.36h-2a.7.7,0,0,0-.679.532,7.231,7.231,0,0,1-.837,2.022.7.7,0,0,0,.1.856l1.414,1.414L46.939,23.46l-1.414-1.414a.7.7,0,0,0-.856-.1,7.228,7.228,0,0,1-2.023.836.7.7,0,0,0-.532.679v2H39.69V24.264l4.615-5.216c.006-.007.01-.016.016-.023a4.765,4.765,0,1,0-6.738-6.738c-.007.007-.016.011-.023.017l-5.216,4.615H31.152V14.493h2a.7.7,0,0,0,.679-.532,7.226,7.226,0,0,1,.837-2.021.7.7,0,0,0-.1-.856L33.15,9.669l1.718-1.718L36.28,9.368a.7.7,0,0,0,.856.1,7.231,7.231,0,0,1,2.021-.837.7.7,0,0,0,.532-.679v-2h2.427v2a.7.7,0,0,0,.532.679,7.228,7.228,0,0,1,2.022.837.7.7,0,0,0,.856-.1L46.94,7.954l1.716,1.718-1.415,1.411a.7.7,0,0,0-.1.856,7.225,7.225,0,0,1,.837,2.021.7.7,0,0,0,.679.532h2Z" transform="translate(0 0)" fill="#3a1d71"/>
      <path id="Trazado_874253" data-name="Trazado 874253" d="M92.221,26.945a2.2,2.2,0,1,0,2.205,2.205A2.2,2.2,0,0,0,92.221,26.945Zm0,3.011a.807.807,0,1,1,.807-.806A.807.807,0,0,1,92.221,29.956Z" transform="translate(-51.319 -13.444)" fill="#3a1d71"/>
    </g>
  </g>
</svg>
