<svg xmlns="http://www.w3.org/2000/svg" xmlns:xlink="http://www.w3.org/1999/xlink" width="173" height="222.163" viewBox="0 0 173 222.163">
  <defs>
    <clipPath id="clip-path">
      <rect id="Rectángulo_401063" data-name="Rectángulo 401063" width="173" height="222.163" fill="#12263f" opacity="0.4"/>
    </clipPath>
    <filter id="Elipse_11447" x="-57.803" y="-59.381" width="444.421" height="477.021" filterUnits="userSpaceOnUse">
      <feOffset dx="9.39" dy="9.39" input="SourceAlpha"/>
      <feGaussianBlur stdDeviation="25.04" result="blur"/>
      <feFlood flood-opacity="0.078"/>
      <feComposite operator="in" in2="blur"/>
      <feComposite in="SourceGraphic"/>
    </filter>
  </defs>
  <g id="Grupo_1102546" data-name="Grupo 1102546" transform="translate(-1037 -2632.796)">
    <g id="Enmascarar_grupo_1098653" data-name="Enmascarar grupo 1098653" transform="translate(1037 2632.796)" opacity="0.2" clip-path="url(#clip-path)">
      <g transform="matrix(1, 0, 0, 1, 0, 0)" filter="url(#Elipse_11447)">
        <ellipse id="Elipse_11447-2" data-name="Elipse 11447" cx="147.091" cy="163.391" rx="147.091" ry="163.391" transform="translate(7.93 6.35)" fill="#fff"/>
      </g>
    </g>
    <g id="Grupo_1100507" data-name="Grupo 1100507" transform="translate(1095 2744)" opacity="0.5">
      <path id="Trazado_875947" data-name="Trazado 875947" d="M82.095,17.757h-2.63V3.953A3.957,3.957,0,0,0,75.512,0H59.364a1.245,1.245,0,0,0,0,2.49H75.512a1.464,1.464,0,0,1,1.463,1.463v6.613H8.025V3.953A1.464,1.464,0,0,1,9.488,2.49H53.553a1.245,1.245,0,1,0,0-2.49H9.488A3.957,3.957,0,0,0,5.535,3.953v13.8H2.905A2.909,2.909,0,0,0,0,20.662V30.821a1.245,1.245,0,1,0,2.49,0V20.662a.416.416,0,0,1,.415-.415h2.63V54.923a3.957,3.957,0,0,0,3.953,3.953H75.512a3.957,3.957,0,0,0,3.953-3.953V47.268a1.245,1.245,0,1,0-2.49,0v7.655a1.464,1.464,0,0,1-1.463,1.463H59.957v-4.06a1.775,1.775,0,0,0-1.545-1.756l-1.523-.2a15.16,15.16,0,0,0-.789-1.9l.939-1.216a1.775,1.775,0,0,0-.149-2.335L52.8,40.829a1.774,1.774,0,0,0-2.335-.149l-1.216.939a15.162,15.162,0,0,0-1.9-.789l-.2-1.523a1.774,1.774,0,0,0-1.756-1.545H39.607a1.774,1.774,0,0,0-1.756,1.545l-.2,1.523a15.161,15.161,0,0,0-1.9.789l-1.216-.939a1.775,1.775,0,0,0-2.334.149L28.11,44.919a1.774,1.774,0,0,0-.149,2.335l.939,1.215a15.134,15.134,0,0,0-.789,1.9l-1.524.2a1.774,1.774,0,0,0-1.545,1.756v4.06H9.488a1.464,1.464,0,0,1-1.463-1.463V13.056h68.95v28.4a1.245,1.245,0,1,0,2.49,0V20.247h2.63a.416.416,0,0,1,.415.415v40.93H2.49V36.631a1.245,1.245,0,0,0-2.49,0V67.147a2.909,2.909,0,0,0,2.905,2.905H13a1.245,1.245,0,0,0,0-2.49H2.905a.416.416,0,0,1-.415-.415V64.082H82.51v3.064a.416.416,0,0,1-.415.415H18.815a1.245,1.245,0,0,0,0,2.49H28.8l-3.646,6.807H20.09a2.077,2.077,0,0,0-2.075,2.075v3.991A2.077,2.077,0,0,0,20.09,85H64.527A2.077,2.077,0,0,0,66.6,82.925V78.934a2.077,2.077,0,0,0-2.075-2.075h-4.68L56.2,70.052H82.095A2.909,2.909,0,0,0,85,67.147V20.662a2.909,2.909,0,0,0-2.905-2.905ZM50.151,56.386H34.85a7.738,7.738,0,1,1,15.3,0ZM27.533,52.959l1.35-.173a1.777,1.777,0,0,0,1.47-1.249,12.651,12.651,0,0,1,.955-2.3,1.777,1.777,0,0,0-.156-1.924l-.833-1.078,3.2-3.2,1.078.833a1.776,1.776,0,0,0,1.924.156,12.644,12.644,0,0,1,2.3-.955,1.777,1.777,0,0,0,1.248-1.47l.173-1.35h4.519l.173,1.35a1.778,1.778,0,0,0,1.249,1.47,12.647,12.647,0,0,1,2.3.954,1.777,1.777,0,0,0,1.924-.156l1.078-.833,3.2,3.2-.833,1.078a1.777,1.777,0,0,0-.156,1.923,12.628,12.628,0,0,1,.955,2.3,1.777,1.777,0,0,0,1.47,1.249l1.35.173v3.427H52.661a10.229,10.229,0,1,0-20.322,0H27.533Zm36.579,26.39V82.51H20.5V79.349Zm-29.881-2.49a14.737,14.737,0,0,1,16.538,0Zm22.791,0H54.648a17.188,17.188,0,0,0-24.3,0H27.978l3.646-6.807H53.376Z" fill="#e3dfeb"/>
      <path id="Trazado_875948" data-name="Trazado 875948" d="M191.5,119.379a1.594,1.594,0,0,0-1.481,1.021l-4.116,10.808a1.245,1.245,0,1,0,2.327.886l.74-1.944H194l.732,1.941a1.245,1.245,0,0,0,2.33-.879L192.986,120.4A1.592,1.592,0,0,0,191.5,119.379Zm-1.581,8.281,1.577-4.142,1.563,4.142Z" transform="translate(-154.974 -99.56)" fill="#e3dfeb"/>
      <path id="Trazado_875949" data-name="Trazado 875949" d="M306.789,132.814a1.244,1.244,0,0,0,1.607-.721l.74-1.944h5.029l.732,1.941a1.245,1.245,0,0,0,2.33-.879L313.149,120.4a1.585,1.585,0,0,0-2.964,0l-4.116,10.808A1.245,1.245,0,0,0,306.789,132.814Zm4.873-9.3,1.563,4.142h-3.141Z" transform="translate(-255.188 -99.559)" fill="#e3dfeb"/>
      <path id="Trazado_875950" data-name="Trazado 875950" d="M141.708,120.624v8.813a.987.987,0,0,1-.494.87c-.576.32-1.229-.286-1.271-.327a1.245,1.245,0,0,0-1.758,1.764,3.958,3.958,0,0,0,2.67,1.156,3.192,3.192,0,0,0,1.567-.416,3.478,3.478,0,0,0,1.775-3.048v-8.813a1.245,1.245,0,1,0-2.49,0Z" transform="translate(-114.943 -99.56)" fill="#e3dfeb"/>
      <path id="Trazado_875951" data-name="Trazado 875951" d="M253.592,132.893a1.576,1.576,0,0,0,1.5-1.081l3.583-10.8a1.245,1.245,0,0,0-2.363-.784l-2.738,8.251-2.873-8.267a1.245,1.245,0,1,0-2.352.817l3.754,10.8A1.58,1.58,0,0,0,253.592,132.893Z" transform="translate(-207.06 -99.558)" fill="#e3dfeb"/>
      <path id="Trazado_875952" data-name="Trazado 875952" d="M90.009,126.684a1.245,1.245,0,0,0-1.761,0l-4.537,4.537a1.245,1.245,0,0,0,0,1.761l4.537,4.537a1.245,1.245,0,0,0,1.761-1.761L86.352,132.1l3.657-3.657A1.245,1.245,0,0,0,90.009,126.684Z" transform="translate(-69.509 -105.348)" fill="#e3dfeb"/>
      <path id="Trazado_875953" data-name="Trazado 875953" d="M386.688,137.519a1.245,1.245,0,0,0,1.761,0l4.537-4.537a1.245,1.245,0,0,0,0-1.761l-4.537-4.537a1.245,1.245,0,1,0-1.761,1.761l3.657,3.657-3.657,3.657A1.245,1.245,0,0,0,386.688,137.519Z" transform="translate(-322.188 -105.348)" fill="#e3dfeb"/>
      <circle id="Elipse_11587" data-name="Elipse 11587" cx="1.245" cy="1.245" r="1.245" transform="translate(11.274 5.282)" fill="#e3dfeb"/>
      <circle id="Elipse_11588" data-name="Elipse 11588" cx="1.245" cy="1.245" r="1.245" transform="translate(16.939 5.282)" fill="#e3dfeb"/>
      <circle id="Elipse_11589" data-name="Elipse 11589" cx="1.245" cy="1.245" r="1.245" transform="translate(22.603 5.282)" fill="#e3dfeb"/>
    </g>
  </g>
</svg>
