<svg xmlns="http://www.w3.org/2000/svg" width="1331.815" height="702.172" viewBox="0 0 1331.815 702.172">
  <g id="Grupo_1099908" data-name="Grupo 1099908" transform="translate(10878.499 10491.049)">
    <path id="Unión_4" data-name="Unión 4" d="M214.574,700.926C107.035,696.666,19.764,685.2,0,672.828V32.144C9.659,26.906,67.079,17.224,120.512,10.3c41.8-5.419,81.071-8.792,94.024-9.306,108.634-4.3,162.588,6.326,219.417,14.289,56.829,9.114,241.177,42.28,310.481,56.249S920.916,95.707,989.77,97.191c67.605,2.634,140.7-7.066,214.149-17.983,68.728-10.39,122.849-35.732,127.9-38.146V80.177c-.468,47.822-1.3,132.7-2.116,217.171h-.377c.93,119.388,1.952,249.287,2.493,317.89V663.88c-5.047-2.414-59.169-27.755-127.9-38.146-73.448-10.916-146.543-20.617-214.149-17.982-68.854,1.483-176.032,11.691-245.336,25.662s-253.652,47.135-310.481,56.249c-45.453,6.369-89.057,12.507-160.267,12.508C255.861,702.172,236.322,701.788,214.574,700.926Z" transform="translate(-10878.499 -10491.049)" fill="#f2f6ff"/>
  </g>
</svg>
