<svg id="Grupo_1100419" data-name="Grupo 1100419" xmlns="http://www.w3.org/2000/svg" width="190" height="190" viewBox="0 0 190 190">
  <path id="Trazado_875863" data-name="Trazado 875863" d="M190,95a94.95,94.95,0,0,1-47,81.995c-.756.446-1.524.88-2.3,1.3a95.193,95.193,0,0,1-81.905,4.56q-2.687-1.1-5.289-2.373A95.008,95.008,0,1,1,190,95Z" fill="#fff"/>
  <g id="Grupo_1100417" data-name="Grupo 1100417" transform="translate(46.174 1.709)">
    <path id="Trazado_875864" data-name="Trazado 875864" d="M238.87,4.605c2.815,10.75,2.048,16.126-12.8,28.412s-17.149,12.542-17.149,20.221,11.39,19.837,16.893,23.292a42.942,42.942,0,0,0-2.944-5.5c-2.048-3.327-8.318-8.959-7.167-17.533s19.261-19.517,23.932-27.772S243.222,10.492,238.87,4.605Z" transform="translate(-177.567 -4.605)" fill="#de0a17"/>
    <path id="Trazado_875865" data-name="Trazado 875865" d="M285.183,77.717c-12.8,4.223-28.667,10.878-28.667,23.8s8.19,10.494,8.19,17.405-4.479,8.959-4.479,8.959,11.774-4.479,11.262-13.438-7.551-7.679-7.551-16C263.939,87.92,285.183,77.717,285.183,77.717Z" transform="translate(-207.499 -50.586)" fill="#de0a17"/>
    <path id="Trazado_875866" data-name="Trazado 875866" d="M175.027,201.181c-12.8,0-21.628,4.735-21.628,7.423s15.741,5.247,32.763,4.1,25.98-2.559,32.763-6.655c0,0-12.03,2.815-21.245,2.815s-35.549,1.647-34.938-2.3,15.87-5.375,15.87-5.375Z" transform="translate(-142.648 -128.233)" fill="#de0a17"/>
    <path id="Trazado_875867" data-name="Trazado 875867" d="M187.584,241.531c-6.783,2.432-8.575,4.863-4.607,7.423s11.774,3.327,22.524,3.327,25.724-3.712,25.724-3.712l-4.863-3.84s-6.655,2.432-19.325,2.432S181.633,247.482,187.584,241.531Z" transform="translate(-159.94 -153.609)" fill="#de0a17"/>
    <path id="Trazado_875868" data-name="Trazado 875868" d="M197.222,280.5c-6.655,2.3-8.063,5.375-2.176,8.19s17.149,3.327,25.468,2.176a84.193,84.193,0,0,0,15.357-3.712s-4.543-1.728-6.655-3.84a106.508,106.508,0,0,1-18.941,2.048C201.061,285.364,193.639,284.085,197.222,280.5Z" transform="translate(-166.506 -178.118)" fill="#de0a17"/>
    <path id="Trazado_875869" data-name="Trazado 875869" d="M333.634,199.391s3.2-4.351,11.262-1.024,7.807,12.286.512,17.661a46.211,46.211,0,0,1-16.126,7.167s16.382-7.167,16-16S337.345,198.623,333.634,199.391Z" transform="translate(-253.262 -125.675)" fill="#de0a17"/>
    <path id="Trazado_875870" data-name="Trazado 875870" d="M139.274,314.371c25.213,4.607,63.607-.127,70.388-1.789s4.3-5.275,4.3-5.275c1.658,1.171,2.4,2.461,1.716,3.866-3.713,7.679-39.035,8.957-49.4,8.957s-41.849-.638-41.849-6.27c0-5.563,14.855-9,20.4-7.725C134.4,309.119,128.208,312.348,139.274,314.371Z" transform="translate(-124.427 -194.072)" fill="#de0a17"/>
    <path id="Trazado_875871" data-name="Trazado 875871" d="M172.194,337.6s8.927,6.815,53.367,2.879c17.757-1.44,25.148-5.855,26.108-10.75a67.016,67.016,0,0,1-18.237,6.527C223.354,338.178,206.748,341.154,172.194,337.6Z" transform="translate(-154.468 -209.079)" fill="#de0a17"/>
    <path id="Trazado_875872" data-name="Trazado 875872" d="M153.734,377.49h-7.379c.163,6.192.326,11.633.326,17.286,0,4.308-.163,9.368-.163,14.428a16.09,16.09,0,0,1-2.311,8.686q2.6,1.268,5.289,2.373a17.964,17.964,0,0,0,4.075-12.187c-.109-4.095-.109-9.368-.109-13.3C153.462,388.906,153.571,383.2,153.734,377.49Z" transform="translate(-136.867 -239.115)" fill="#de0a17"/>
    <path id="Trazado_875873" data-name="Trazado 875873" d="M269.177,405.187l-4.471,13.246c-.806,2.424-1.4,4.739-1.939,7.053h-.485a36.886,36.886,0,0,0-1.83-7.053L259,414.179c-1.078-3.013-1.993-6.192-2.8-9.26l-7.429.915,10.338,26.813,5.331-.539,6.3-16.313c1.241-3.176,2.854-6.949,4.362-10.287Z" transform="translate(-202.627 -256.365)" fill="#de0a17"/>
    <path id="Trazado_875874" data-name="Trazado 875874" d="M339.864,404.908a21.914,21.914,0,0,0-11.036,3.18l1.183,4.2.43.268c2.962-2.152,5.6-3.176,7.646-3.176a4.537,4.537,0,0,1,4.793,4.742v2.365c-11.792,1.78-14.7,5.44-14.7,9.694a6.511,6.511,0,0,0,6.731,6.891c2.962,0,5.545-1.776,7.864-3.715l.481.109a3.981,3.981,0,0,0,3.846,3.482c.772-.423,1.539-.857,2.3-1.3V413.31C349.4,407.657,346.006,404.908,339.864,404.908Zm3.017,21.164c-1.935,1.671-3.552,2.532-5.006,2.532a3.209,3.209,0,0,1-3.339-3.5c0-2.478,1.667-4.308,8.344-5.277v6.247Z" transform="translate(-252.569 -256.358)" fill="#de0a17"/>
    <path id="Trazado_875875" data-name="Trazado 875875" d="M195.209,404.919a21.924,21.924,0,0,0-11.039,3.176l1.186,4.2.43.271c2.962-2.156,5.6-3.18,7.646-3.18a4.536,4.536,0,0,1,4.793,4.739v2.369c-11.792,1.78-14.7,5.44-14.7,9.694a6.509,6.509,0,0,0,6.731,6.891c2.959,0,5.545-1.776,7.86-3.715l.485.109c.539,2.745,2.532,3.556,4.576,3.5a7.6,7.6,0,0,0,1.563-.174V413.318C204.74,407.664,201.347,404.919,195.209,404.919Zm3.017,21.16c-1.939,1.671-3.556,2.532-5.01,2.532a3.211,3.211,0,0,1-3.339-3.5c0-2.478,1.671-4.308,8.348-5.277Z" transform="translate(-161.595 -256.365)" fill="#de0a17"/>
  </g>
</svg>
