<svg xmlns="http://www.w3.org/2000/svg" xmlns:xlink="http://www.w3.org/1999/xlink" width="92.782" height="130.018" viewBox="0 0 92.782 130.018">
  <defs>
    <clipPath id="clip-path">
      <rect id="Rectángulo_401885" data-name="Rectángulo 401885" width="92.782" height="130.018" transform="translate(0 0)" fill="#12263f"/>
    </clipPath>
    <filter id="Elipse_11585" x="-54.761" y="-31.619" width="296.041" height="295.461" filterUnits="userSpaceOnUse">
      <feOffset dx="9.39" dy="9.39" input="SourceAlpha"/>
      <feGaussianBlur stdDeviation="25.04" result="blur"/>
      <feFlood flood-opacity="0.078"/>
      <feComposite operator="in" in2="blur"/>
      <feComposite in="SourceGraphic"/>
    </filter>
  </defs>
  <g id="Enmascarar_grupo_1098741" data-name="Enmascarar grupo 1098741" clip-path="url(#clip-path)">
    <g transform="matrix(1, 0, 0, 1, 0, 0)" filter="url(#Elipse_11585)">
      <ellipse id="Elipse_11585-2" data-name="Elipse 11585" cx="72.9" cy="72.61" rx="72.9" ry="72.61" transform="translate(10.97 34.11)" fill="#fff" opacity="0.3"/>
    </g>
    <ellipse id="Elipse_11586" data-name="Elipse 11586" cx="25.814" cy="25.814" rx="25.814" ry="25.814" transform="translate(58.363 14.863)" fill="none" stroke="#fff" stroke-width="10" opacity="0.4"/>
    <path id="Trazado_875822" data-name="Trazado 875822" d="M161.721,433.017l1.037-1.326-4.035-3.177,4.035-3.178-1.037-1.325-5.718,4.5Zm11.684-1.326-4.035-3.177,4.035-3.178-1.036-1.325-5.718,4.5,5.718,4.5Zm11.19,0-1.038-.818-3-2.36,4.035-3.178-1.036-1.325-5.718,4.5,5.718,4.5Z" transform="translate(-153.609 -313.17)" fill="#3a1d71" fill-rule="evenodd"/>
  </g>
</svg>
