<svg xmlns="http://www.w3.org/2000/svg" xmlns:xlink="http://www.w3.org/1999/xlink" width="400" height="350" viewBox="0 0 400 350">
  <defs>
    <clipPath id="clip-path">
      <rect id="Rectángulo_402720" data-name="Rectángulo 402720" width="400" height="350" fill="none"/>
    </clipPath>
    <clipPath id="clip-path-3">
      <rect id="Rectángulo_402615" data-name="Rectángulo 402615" width="191.308" height="51.313" fill="none"/>
    </clipPath>
    <clipPath id="clip-path-4">
      <rect id="Rectángulo_402616" data-name="Rectángulo 402616" width="132.891" height="71.04" fill="none"/>
    </clipPath>
    <clipPath id="clip-path-5">
      <rect id="Rectángulo_402617" data-name="Rectángulo 402617" width="63.217" height="11.139" fill="none"/>
    </clipPath>
    <clipPath id="clip-path-6">
      <rect id="Rectángulo_402618" data-name="Rectángulo 402618" width="13.865" height="14.822" fill="none"/>
    </clipPath>
    <clipPath id="clip-path-7">
      <rect id="Rectángulo_402620" data-name="Rectángulo 402620" width="59.793" height="1.342" fill="none"/>
    </clipPath>
    <clipPath id="clip-path-11">
      <rect id="Rectángulo_402626" data-name="Rectángulo 402626" width="13.866" height="14.822" fill="none"/>
    </clipPath>
    <clipPath id="clip-path-15">
      <rect id="Rectángulo_402633" data-name="Rectángulo 402633" width="397.654" height="16.397" fill="none"/>
    </clipPath>
    <clipPath id="clip-path-16">
      <rect id="Rectángulo_402716" data-name="Rectángulo 402716" width="9.801" height="17.089" fill="none"/>
    </clipPath>
    <clipPath id="clip-path-17">
      <rect id="Rectángulo_402717" data-name="Rectángulo 402717" width="22.774" height="24.568" fill="none"/>
    </clipPath>
    <clipPath id="clip-path-18">
      <rect id="Rectángulo_402718" data-name="Rectángulo 402718" width="17.038" height="39.904" fill="none"/>
    </clipPath>
  </defs>
  <g id="Grupo_1102548" data-name="Grupo 1102548" transform="translate(-1020 -3584)">
    <rect id="Rectángulo_402613" data-name="Rectángulo 402613" width="400" height="238" transform="translate(1020 3584)" fill="#f2e5fd"/>
    <g id="Grupo_1102058" data-name="Grupo 1102058" transform="translate(1020 3678)">
      <g id="Grupo_1102057" data-name="Grupo 1102057" transform="translate(0 -94)" clip-path="url(#clip-path)">
        <path id="Trazado_877096" data-name="Trazado 877096" d="M286.994,241.227l-7.591-2.769v-2.664l7.591-2.769v2.544l-6.639,2.29v-1.467l6.639,2.29Z" transform="translate(-115.921 -1.416)" fill="#323247"/>
        <path id="Trazado_877097" data-name="Trazado 877097" d="M292.758,241.578l4.912-14.1h2.977l-4.912,14.1Z" transform="translate(-121.462 0.867)" fill="#323247"/>
        <path id="Trazado_877098" data-name="Trazado 877098" d="M306.368,241.227v-2.544l6.639-2.29v1.467l-6.639-2.29v-2.544l7.591,2.769v2.664Z" transform="translate(-127.108 -1.416)" fill="#323247"/>
        <g id="Grupo_1102056" data-name="Grupo 1102056">
          <g id="Grupo_1102055" data-name="Grupo 1102055" clip-path="url(#clip-path)">
            <path id="Trazado_877099" data-name="Trazado 877099" d="M383.806,129.448c-.872,19.218-19.66,33.943-33.734,34.832-18.594,1.175-31.882-15.685-33.734-34.832-1.6-16.588,4.255-16.341,8.618-23.255,5.287-8.377,15.14-13.007,25.115-13.007,18.631,0,34.908,10.406,33.734,36.261" transform="translate(-131.133 56.153)" fill="#b83d5d"/>
            <rect id="Rectángulo_402614" data-name="Rectángulo 402614" width="26.146" height="32.913" transform="translate(205.867 218.639)" fill="#e3b5aa"/>
            <path id="Trazado_877100" data-name="Trazado 877100" d="M422.648,174.616c4.664-7.116,10.6-7.428,13.076.988s-5.7,15.342-12.359,12.787-.717-13.774-.717-13.774" transform="translate(-174.339 24.826)" fill="#e3b5aa"/>
            <path id="Trazado_877101" data-name="Trazado 877101" d="M432.28,178.645c3.124-.575,4.725,8.784-2.126,9.093l1.41-3.265-1.323-2.717Z" transform="translate(-178.465 20.982)" fill="#d78f97"/>
            <path id="Trazado_877102" data-name="Trazado 877102" d="M428.4,188.35c3.993-4.28,1.112-7.265,1.112-7.265s3.8-7.839,5.325-1.831" transform="translate(-177.739 21.654)" fill="none" stroke="#c87e84" stroke-miterlimit="10" stroke-width="0.5"/>
            <path id="Trazado_877103" data-name="Trazado 877103" d="M314.023,174.616c-4.664-7.116-10.6-7.428-13.076.988s5.7,15.342,12.359,12.787.717-13.774.717-13.774" transform="translate(-124.671 24.826)" fill="#e3b5aa"/>
            <path id="Trazado_877104" data-name="Trazado 877104" d="M312.306,178.645c-3.124-.575-4.725,8.784,2.126,9.093l-1.41-3.265,1.323-2.717Z" transform="translate(-128.46 20.982)" fill="#d78f97"/>
            <path id="Trazado_877105" data-name="Trazado 877105" d="M315.028,188.35c-3.994-4.28-1.112-7.265-1.112-7.265s-3.8-7.839-5.324-1.831" transform="translate(-128.031 21.654)" fill="none" stroke="#c87e84" stroke-miterlimit="10" stroke-width="0.5"/>
            <path id="Trazado_877106" data-name="Trazado 877106" d="M377.987,212.215v12.244c-9.4,12.8-26.146,8.64-26.146,8.64l.293-20.884Z" transform="translate(-145.974 7.151)" fill="#c87e84"/>
            <path id="Trazado_877107" data-name="Trazado 877107" d="M354.145,188.216h0A28.339,28.339,0,0,1,325.884,159.8V139.035a19.141,19.141,0,0,1,19.088-19.193h18.346a19.141,19.141,0,0,1,19.088,19.193V159.8a28.339,28.339,0,0,1-28.261,28.416" transform="translate(-135.205 45.179)" fill="#e3b5aa"/>
            <path id="Trazado_877108" data-name="Trazado 877108" d="M375.449,194.075a4.348,4.348,0,1,1-8.7,0" transform="translate(-152.161 14.619)" fill="none" stroke="#b83d5d" stroke-miterlimit="10" stroke-width="1"/>
            <path id="Trazado_877109" data-name="Trazado 877109" d="M329.66,111.139s-4.951-8.25,1.249-15.524c0,0,4.455,8.293-1.249,15.524" transform="translate(-135.995 55.153)" fill="#b83d5d"/>
            <path id="Trazado_877110" data-name="Trazado 877110" d="M324.415,117.742s-6.893,6.693-15.329,2.24c0,0,7.045-6.217,15.329-2.24" transform="translate(-128.236 46.591)" fill="#b83d5d"/>
            <path id="Trazado_877111" data-name="Trazado 877111" d="M351.85,173.762c0,2.349-1,4.254-2.223,4.254s-2.223-1.905-2.223-4.254,1-4.254,2.223-4.254,2.223,1.9,2.223,4.254" transform="translate(-144.133 24.733)" fill="#36364f"/>
            <path id="Trazado_877214" data-name="Trazado 877214" d="M11.378-.027a11.336,11.336,0,0,1,11.352,11.4,11.465,11.465,0,0,1-11.4,11.449A11.336,11.336,0,0,1-.027,11.422,11.465,11.465,0,0,1,11.378-.027Z" transform="translate(189.496 191.994) rotate(-22.5)" fill="none" stroke="#fff" stroke-width="4"/>
            <path id="Trazado_877112" data-name="Trazado 877112" d="M397.81,173.762c0,2.349-1,4.254-2.223,4.254s-2.223-1.905-2.223-4.254,1-4.254,2.223-4.254,2.223,1.9,2.223,4.254" transform="translate(-163.202 24.733)" fill="#36364f"/>
            <path id="Trazado_877215" data-name="Trazado 877215" d="M11.378-.027a11.336,11.336,0,0,1,11.352,11.4,11.465,11.465,0,0,1-11.4,11.449A11.336,11.336,0,0,1-.027,11.422,11.465,11.465,0,0,1,11.378-.027Z" transform="translate(218.686 191.994) rotate(-22.5)" fill="none" stroke="#fff" stroke-width="4"/>
            <path id="Trazado_877113" data-name="Trazado 877113" d="M331.87,121.372s17.954-9.517,29.884-2.619,13.272,21.142,25.053,17.456c0,0,8.947-3.961-.9-17.756s-16.576-16.494-29.389-13.494-21.151,5.331-24.653,16.414" transform="translate(-137.689 51.76)" fill="#b83d5d"/>
            <path id="Trazado_877114" data-name="Trazado 877114" d="M330.7,126.207s5.927-7.9,14.222-9.99,17.471,8.171,17.471,8.171-21.255-3.046-31.694,1.818" transform="translate(-137.201 46.787)" fill="#9a304f"/>
            <path id="Trazado_877115" data-name="Trazado 877115" d="M325.037,150.287s2,14.664,0,23.613c0,0-2.922-22.739,0-23.613" transform="translate(-134.315 32.646)" fill="#b83d5d"/>
            <path id="Trazado_877116" data-name="Trazado 877116" d="M421.5,150.287s-2,14.664,0,23.613c0,0,2.922-22.739,0-23.613" transform="translate(-174.508 32.646)" fill="#b83d5d"/>
            <path id="Trazado_877117" data-name="Trazado 877117" d="M349.838,147.166c-3.084-1.484-8.568-3.113-13.65.526a1.194,1.194,0,0,0,.5,2.137,37.82,37.82,0,0,0,6.616.558,27.927,27.927,0,0,0,6.312-.992,1.2,1.2,0,0,0,.219-2.229" transform="translate(-139.277 34.622)" fill="#b83d5d"/>
            <path id="Trazado_877118" data-name="Trazado 877118" d="M400.734,147.166c-3.084-1.484-8.568-3.113-13.65.526a1.194,1.194,0,0,0,.5,2.137,37.813,37.813,0,0,0,6.616.558,27.927,27.927,0,0,0,6.312-.992,1.2,1.2,0,0,0,.219-2.229" transform="translate(-160.393 34.622)" fill="#b83d5d"/>
            <path id="Trazado_877119" data-name="Trazado 877119" d="M376.052,209.734a9.442,9.442,0,0,1-1.114,1.623c-1.511,1.829-4.076,3.585-8.471,3.666l-.006.019-.322-.006-.012-.026c-4.121-.081-6.66-1.641-8.192-3.361a9.278,9.278,0,0,1-1.367-1.945,9.648,9.648,0,0,1-.923-2.524l21.339.04a8.8,8.8,0,0,1-.932,2.514" transform="translate(-147.552 9.224)" fill="#c33e5d"/>
            <path id="Trazado_877120" data-name="Trazado 877120" d="M376.052,209.734a9.442,9.442,0,0,1-1.114,1.623,19.976,19.976,0,0,0-17,.292,9.278,9.278,0,0,1-1.367-1.945,9.648,9.648,0,0,1-.923-2.524l21.339.04a8.8,8.8,0,0,1-.932,2.514" transform="translate(-147.552 9.224)" fill="#36364f"/>
            <path id="Trazado_877121" data-name="Trazado 877121" d="M393.557,346.3l-191.308.2s3.569-7.507,8.706-17.456c.38-.735.772-1.488,1.17-2.253,7.016-13.455,16.453-30.452,23.82-39.671,8.484-10.613,28.53-18.179,42.146-22.315,7.934-2.406,13.68-3.648,13.68-3.648h21.977s5.161,1.112,12.451,3.283c13.6,4.042,33.942,12.337,43.374,22.68a50.574,50.574,0,0,1,5.845,8.066c11.609,19.4,18.138,51.113,18.138,51.113" transform="translate(-83.911 -12.998)" fill="#eba154"/>
            <g id="Grupo_1102009" data-name="Grupo 1102009" transform="translate(118.338 282.19)" opacity="0.5">
              <g id="Grupo_1102008" data-name="Grupo 1102008">
                <g id="Grupo_1102007" data-name="Grupo 1102007" clip-path="url(#clip-path-3)">
                  <path id="Trazado_877122" data-name="Trazado 877122" d="M393.557,370.112l-191.308.2s3.569-7.507,8.706-17.456c95.468,28.217,145.777-18.025,157.257-30.543a10.12,10.12,0,0,1,7.16-3.314h.046c11.609,19.4,18.138,51.113,18.138,51.113" transform="translate(-202.249 -318.999)" fill="#d9751f"/>
                </g>
              </g>
            </g>
            <line id="Línea_749" data-name="Línea 749" x2="6.003" transform="translate(215.938 200.122)" fill="none" stroke="#fff" stroke-miterlimit="10" stroke-width="4"/>
            <path id="Trazado_877123" data-name="Trazado 877123" d="M379.977,264.437c-23.681,26.2-48.107.37-48.107.37,7.935-2.411,13.682-3.653,13.682-3.653h21.976s5.16,1.115,12.449,3.283" transform="translate(-137.689 -12.996)" fill="#e3b5aa"/>
            <line id="Línea_750" data-name="Línea 750" y2="29.877" transform="translate(166.652 303.662)" fill="none" stroke="#dc831e" stroke-miterlimit="10" stroke-width="3"/>
            <line id="Línea_751" data-name="Línea 751" x1="7.979" y1="10.229" transform="translate(158.674 312.476)" fill="none" stroke="#dc831e" stroke-miterlimit="10" stroke-width="3"/>
            <line id="Línea_752" data-name="Línea 752" y2="29.877" transform="translate(270.686 303.662)" fill="none" stroke="#dc831e" stroke-miterlimit="10" stroke-width="3"/>
            <line id="Línea_753" data-name="Línea 753" y1="9.082" x2="7.085" transform="translate(270.686 313.623)" fill="none" stroke="#dc831e" stroke-miterlimit="10" stroke-width="3"/>
            <path id="Trazado_877124" data-name="Trazado 877124" d="M329.932,286s29.363,20.163,49.241-.979" transform="translate(-136.885 -22.823)" fill="none" stroke="#dc831e" stroke-miterlimit="10" stroke-width="3"/>
            <path id="Trazado_877125" data-name="Trazado 877125" d="M417.673,347.333l6.259-8.252-.078,2.246-6-8.043H422.4l3.792,5.249-1.714.052,3.921-5.3h4.311l-6.025,7.965v-2.193l6.234,8.278h-4.6l-3.974-5.588,1.688.235-3.947,5.354Z" transform="translate(-173.287 -42.69)" fill="#fff"/>
            <path id="Trazado_877126" data-name="Trazado 877126" d="M330.573,100.524c6.593-27.862,72.645-24.8,60.354,29.451-3.682,16.25-30.6-36.938-53.835-23.889a4.549,4.549,0,0,1-5.353-.644,4.99,4.99,0,0,1-1.166-4.917" transform="translate(-137.073 60.251)" fill="#b83d5d"/>
            <path id="Trazado_877127" data-name="Trazado 877127" d="M283.212,356.224a.209.209,0,0,1-.064.012,4.405,4.405,0,0,1-.486.024H154.528a5.409,5.409,0,0,1-5.383-5.418l-.018-.059L129.175,294.1a6.649,6.649,0,0,1,6.237-8.878H218.6a6.622,6.622,0,0,1,6.243,4.436l21.5,61.08.035.106h36.4c3.341,0,3.71,5.024.427,5.383" transform="translate(-53.433 -22.903)" fill="#80abbd"/>
            <path id="Trazado_877128" data-name="Trazado 877128" d="M215.915,337.49c2.1,6.151-.276,12.549-5.314,14.291s-10.828-1.831-12.93-7.982.274-12.549,5.313-14.291,10.828,1.832,12.932,7.982" transform="translate(-81.693 -40.954)" fill="#fff"/>
            <path id="Trazado_877129" data-name="Trazado 877129" d="M344.5,350.841H308.1s-.011-.037-.031-.106l-21.507-61.08a6.618,6.618,0,0,0-6.241-4.433h-2.782s6.215.408,7.769,6,22.791,64.92,22.791,64.92l1.57.116h34.706c.168,0,.331-.005.489-.021,3.35-.307,3-5.4-.363-5.4" transform="translate(-115.147 -22.904)" fill="#4b7195"/>
            <g id="Grupo_1102012" data-name="Grupo 1102012" transform="translate(96.888 262.316)" opacity="0.4">
              <g id="Grupo_1102011" data-name="Grupo 1102011">
                <g id="Grupo_1102010" data-name="Grupo 1102010" clip-path="url(#clip-path-4)">
                  <path id="Trazado_877130" data-name="Trazado 877130" d="M298.48,356.224a.209.209,0,0,1-.064.012,4.405,4.405,0,0,1-.486.024H169.8a5.351,5.351,0,0,1-4.207-2.041c75.737,6.542,68.283-69,68.283-69a6.622,6.622,0,0,1,6.243,4.436l21.5,61.08.035.106h35.826c.386,1.783.726,3.577,1,5.383" transform="translate(-165.589 -285.219)" fill="#5a93a0"/>
                </g>
              </g>
            </g>
            <path id="Trazado_877131" data-name="Trazado 877131" d="M82.665,342.364v1.9c-3.409.392-4.243,3.29-4.243,6.819v1.167c0,3.528.834,6.427,4.243,6.819v1.887H17.489a4.854,4.854,0,0,1-4.841-4.868v-8.842a4.862,4.862,0,0,1,4.841-4.877Z" transform="translate(-5.247 -46.428)" fill="#4b7195"/>
            <path id="Trazado_877132" data-name="Trazado 877132" d="M85.474,358.417a1.415,1.415,0,0,1-1.324,1.941l-62.283.046v-14.9l62.283.045a1.4,1.4,0,0,1,.934.356,1.378,1.378,0,0,1,.39,1.586,13.737,13.737,0,0,0-.5,4.877v1.167a13.74,13.74,0,0,0,.5,4.877" transform="translate(-9.072 -47.723)" fill="#fff"/>
            <g id="Grupo_1102015" data-name="Grupo 1102015" transform="translate(12.795 297.786)" opacity="0.4">
              <g id="Grupo_1102014" data-name="Grupo 1102014">
                <g id="Grupo_1102013" data-name="Grupo 1102013" clip-path="url(#clip-path-5)">
                  <path id="Trazado_877133" data-name="Trazado 877133" d="M85.084,345.91c-1.2.064-56.236,2.926-60.008,8.3a5.334,5.334,0,0,1-3.209,2.434v-11.14l62.283.046a1.4,1.4,0,0,1,.934.355" transform="translate(-21.867 -345.509)" fill="#a3d5e6"/>
                </g>
              </g>
            </g>
            <path id="Trazado_877134" data-name="Trazado 877134" d="M21.252,360.957H15.775a3.135,3.135,0,0,1-3.126-3.144v-12.3a3.135,3.135,0,0,1,3.126-3.143h5.477Z" transform="translate(-5.248 -46.431)" fill="#4b7195"/>
            <g id="Grupo_1102018" data-name="Grupo 1102018" transform="translate(62.645 297.823)" opacity="0.4">
              <g id="Grupo_1102017" data-name="Grupo 1102017">
                <g id="Grupo_1102016" data-name="Grupo 1102016" clip-path="url(#clip-path-6)">
                  <path id="Trazado_877135" data-name="Trazado 877135" d="M120.821,358.442a1.415,1.415,0,0,1-1.324,1.941l-12.434.009c9.878-1.13,9.261-9.289,9.261-9.289.109-.392-7.805-5.178-7.669-5.533l10.843.009a1.4,1.4,0,0,1,.934.356,1.378,1.378,0,0,1,.39,1.586,13.736,13.736,0,0,0-.5,4.877v1.167a13.74,13.74,0,0,0,.5,4.877" transform="translate(-107.064 -345.571)" fill="#a3d5e6"/>
                </g>
              </g>
            </g>
            <g id="Grupo_1102021" data-name="Grupo 1102021" transform="translate(16.11 304.147)" opacity="0.4">
              <g id="Grupo_1102020" data-name="Grupo 1102020">
                <g id="Grupo_1102019" data-name="Grupo 1102019" clip-path="url(#clip-path-7)">
                  <rect id="Rectángulo_402619" data-name="Rectángulo 402619" width="59.793" height="1.343" transform="translate(0 0)" fill="#a3d5e6"/>
                </g>
              </g>
            </g>
            <g id="Grupo_1102024" data-name="Grupo 1102024" transform="translate(16.11 301.124)" opacity="0.4">
              <g id="Grupo_1102023" data-name="Grupo 1102023">
                <g id="Grupo_1102022" data-name="Grupo 1102022" clip-path="url(#clip-path-7)">
                  <rect id="Rectángulo_402621" data-name="Rectángulo 402621" width="59.793" height="1.343" transform="translate(0 0)" fill="#a3d5e6"/>
                </g>
              </g>
            </g>
            <g id="Grupo_1102027" data-name="Grupo 1102027" transform="translate(16.11 307.993)" opacity="0.4">
              <g id="Grupo_1102026" data-name="Grupo 1102026">
                <g id="Grupo_1102025" data-name="Grupo 1102025" clip-path="url(#clip-path-7)">
                  <rect id="Rectángulo_402623" data-name="Rectángulo 402623" width="59.793" height="1.343" transform="translate(0 0)" fill="#a3d5e6"/>
                </g>
              </g>
            </g>
            <path id="Trazado_877136" data-name="Trazado 877136" d="M92.3,359.958,89.12,356.77l-3.18,3.188v-8.777H92.3Z" transform="translate(-35.656 -50.058)" fill="#c33e5d"/>
            <path id="Trazado_877137" data-name="Trazado 877137" d="M94.58,373.85v1.9c-3.409.392-4.243,3.29-4.243,6.819v1.167c0,3.528.834,6.427,4.243,6.819v1.887H29.4a4.854,4.854,0,0,1-4.841-4.868v-8.842A4.862,4.862,0,0,1,29.4,373.85Z" transform="translate(-10.191 -59.39)" fill="#c33e5d"/>
            <path id="Trazado_877138" data-name="Trazado 877138" d="M97.389,389.9a1.415,1.415,0,0,1-1.324,1.941l-62.284.046V377l62.284.045A1.4,1.4,0,0,1,97,377.4a1.378,1.378,0,0,1,.39,1.586,13.737,13.737,0,0,0-.5,4.877v1.167a13.74,13.74,0,0,0,.5,4.877" transform="translate(-14.016 -60.685)" fill="#fff"/>
            <g id="Grupo_1102030" data-name="Grupo 1102030" transform="translate(19.766 316.31)" opacity="0.4">
              <g id="Grupo_1102029" data-name="Grupo 1102029">
                <g id="Grupo_1102028" data-name="Grupo 1102028" clip-path="url(#clip-path-5)">
                  <path id="Trazado_877139" data-name="Trazado 877139" d="M97,377.4c-1.2.064-56.236,2.926-60.008,8.3a5.333,5.333,0,0,1-3.209,2.434V377l62.284.046A1.4,1.4,0,0,1,97,377.4" transform="translate(-33.782 -376.995)" fill="#a3d5e6"/>
                </g>
              </g>
            </g>
            <path id="Trazado_877140" data-name="Trazado 877140" d="M33.167,392.443H27.69a3.135,3.135,0,0,1-3.126-3.144V377a3.135,3.135,0,0,1,3.126-3.143h5.477Z" transform="translate(-10.191 -59.393)" fill="#c33e5d"/>
            <g id="Grupo_1102033" data-name="Grupo 1102033" transform="translate(69.616 316.347)" opacity="0.4">
              <g id="Grupo_1102032" data-name="Grupo 1102032">
                <g id="Grupo_1102031" data-name="Grupo 1102031" clip-path="url(#clip-path-11)">
                  <path id="Trazado_877141" data-name="Trazado 877141" d="M132.736,389.928a1.415,1.415,0,0,1-1.324,1.941l-12.434.009c9.878-1.13,9.261-9.289,9.261-9.289.109-.392-7.805-5.178-7.67-5.533l10.843.009a1.4,1.4,0,0,1,.934.356,1.378,1.378,0,0,1,.39,1.586,13.737,13.737,0,0,0-.5,4.877v1.167a13.738,13.738,0,0,0,.5,4.877" transform="translate(-118.978 -377.057)" fill="#a3d5e6"/>
                </g>
              </g>
            </g>
            <g id="Grupo_1102036" data-name="Grupo 1102036" transform="translate(23.081 322.671)" opacity="0.4">
              <g id="Grupo_1102035" data-name="Grupo 1102035">
                <g id="Grupo_1102034" data-name="Grupo 1102034" clip-path="url(#clip-path-7)">
                  <rect id="Rectángulo_402627" data-name="Rectángulo 402627" width="59.793" height="1.343" transform="translate(0 0)" fill="#a3d5e6"/>
                </g>
              </g>
            </g>
            <g id="Grupo_1102039" data-name="Grupo 1102039" transform="translate(23.081 319.647)" opacity="0.4">
              <g id="Grupo_1102038" data-name="Grupo 1102038">
                <g id="Grupo_1102037" data-name="Grupo 1102037" clip-path="url(#clip-path-7)">
                  <rect id="Rectángulo_402629" data-name="Rectángulo 402629" width="59.793" height="1.343" transform="translate(0 0)" fill="#a3d5e6"/>
                </g>
              </g>
            </g>
            <g id="Grupo_1102042" data-name="Grupo 1102042" transform="translate(23.081 326.517)" opacity="0.4">
              <g id="Grupo_1102041" data-name="Grupo 1102041">
                <g id="Grupo_1102040" data-name="Grupo 1102040" clip-path="url(#clip-path-7)">
                  <rect id="Rectángulo_402631" data-name="Rectángulo 402631" width="59.793" height="1.343" transform="translate(0 0)" fill="#a3d5e6"/>
                </g>
              </g>
            </g>
            <path id="Trazado_877142" data-name="Trazado 877142" d="M125.7,393.082l-3.359-3.369-3.359,3.369v-9.274H125.7Z" transform="translate(-49.363 -63.49)" fill="#c33e5d"/>
            <path id="Trazado_877143" data-name="Trazado 877143" d="M401.663,413.908v1.359a7.5,7.5,0,0,1-7.484,7.519H11.493a7.5,7.5,0,0,1-7.244-5.618.022.022,0,0,0-.006-.018,7.716,7.716,0,0,1-.234-1.883v-1.359a7.5,7.5,0,0,1,7.484-7.519H394.18a7.5,7.5,0,0,1,7.484,7.519" transform="translate(-1.663 -72.786)" fill="#47547c"/>
            <g id="Grupo_1102045" data-name="Grupo 1102045" transform="translate(2.346 333.603)" opacity="0.5">
              <g id="Grupo_1102044" data-name="Grupo 1102044">
                <g id="Grupo_1102043" data-name="Grupo 1102043" clip-path="url(#clip-path-15)">
                  <path id="Trazado_877144" data-name="Trazado 877144" d="M401.663,413.908v1.359a7.5,7.5,0,0,1-7.484,7.519H11.493a7.5,7.5,0,0,1-7.244-5.618.022.022,0,0,0-.006-.018c-.158-1.206-.234-1.883-.234-1.883,214.592,7.519,390.171-8.878,390.171-8.878a7.5,7.5,0,0,1,7.484,7.519" transform="translate(-4.009 -406.389)" fill="#2b2b3f"/>
                </g>
              </g>
            </g>
            <g id="Grupo_1102059" data-name="Grupo 1102059" transform="translate(333.941 33.739)">
              <path id="Trazado_877145" data-name="Trazado 877145" d="M649.961,58.541c0-.049.006-.091.006-.141s-.006-.092-.006-.135a16.533,16.533,0,0,0,2.1-1.151,17.355,17.355,0,0,0,2.2-1.788l-.152-.6a15.373,15.373,0,0,0-.646-1.99c-.134-.319-.292-.631-.444-.943a6.345,6.345,0,0,0-.5-.918l-.317-.527a16.015,16.015,0,0,0-2.807.294,14.9,14.9,0,0,0-2.289.68l-.194-.2a15.2,15.2,0,0,0,.669-2.3,15.7,15.7,0,0,0,.3-2.822l-.524-.318a6.643,6.643,0,0,0-.913-.5c-.311-.153-.621-.312-.944-.447a15.179,15.179,0,0,0-1.973-.649l-.6-.153a16.976,16.976,0,0,0-1.778,2.21,15.851,15.851,0,0,0-1.144,2.113c-.043,0-.091-.012-.134-.012s-.091.012-.14.012a15.264,15.264,0,0,0-1.145-2.113,16.916,16.916,0,0,0-1.772-2.21l-.6.153a14.977,14.977,0,0,0-1.979.649c-.317.135-.627.294-.944.447a7.04,7.04,0,0,0-.913.5l-.524.318a16.9,16.9,0,0,0,.3,2.822,15.291,15.291,0,0,0,.676,2.3c-.067.067-.134.128-.194.2a15.106,15.106,0,0,0-2.29-.68,16.068,16.068,0,0,0-2.807-.294l-.322.527a7.719,7.719,0,0,0-.5.918c-.146.312-.3.624-.439.943a14.6,14.6,0,0,0-.645,1.99l-.152.6a16.911,16.911,0,0,0,2.2,1.788,16.039,16.039,0,0,0,2.095,1.151c0,.043-.006.086-.006.135s.006.092.006.141a15.379,15.379,0,0,0-2.095,1.151,16.85,16.85,0,0,0-2.2,1.781l.152.6a14.612,14.612,0,0,0,.645,1.99c.134.318.293.631.439.949a8.228,8.228,0,0,0,.5.912l.322.526a16.068,16.068,0,0,0,2.807-.294,15.107,15.107,0,0,0,2.29-.68c.06.067.128.135.194.2a15.284,15.284,0,0,0-.676,2.3,16.978,16.978,0,0,0-.3,2.823l.524.324a7.772,7.772,0,0,0,.913.5c.317.153.627.312.944.447a14.159,14.159,0,0,0,1.979.649l.6.153a16.915,16.915,0,0,0,1.772-2.21,15.293,15.293,0,0,0,1.145-2.112,1.121,1.121,0,0,0,.14.012,1.031,1.031,0,0,0,.134-.012,15.882,15.882,0,0,0,1.144,2.112,16.976,16.976,0,0,0,1.778,2.21l.6-.153a14.335,14.335,0,0,0,1.973-.649c.323-.135.633-.294.944-.447a7.292,7.292,0,0,0,.913-.5l.524-.324a15.764,15.764,0,0,0-.3-2.823,15.2,15.2,0,0,0-.669-2.3c.067-.061.128-.129.194-.2a14.9,14.9,0,0,0,2.289.68,16.016,16.016,0,0,0,2.807.294l.317-.526a6.673,6.673,0,0,0,.5-.912c.152-.318.31-.631.444-.949a15.381,15.381,0,0,0,.646-1.99l.152-.6a17.292,17.292,0,0,0-2.2-1.781,15.835,15.835,0,0,0-2.1-1.151m-10.09,4.715A4.856,4.856,0,1,1,644.7,58.4a4.842,4.842,0,0,1-4.828,4.855" transform="translate(-593.445 -43.932)" fill="#eba154"/>
              <path id="Trazado_877146" data-name="Trazado 877146" d="M603.313,81.261H570.73v32.265h9.048" transform="translate(-570.73 -59.3)" fill="none" stroke="#fd783d" stroke-miterlimit="10" stroke-width="1" stroke-dasharray="4 4"/>
              <rect id="Rectángulo_402634" data-name="Rectángulo 402634" width="17.913" height="3.219" transform="translate(9.824 71.496)" fill="#fff"/>
              <rect id="Rectángulo_402635" data-name="Rectángulo 402635" width="27.54" height="3.219" transform="translate(9.824 77.451)" fill="#fff"/>
              <rect id="Rectángulo_402636" data-name="Rectángulo 402636" width="9.38" height="3.219" transform="translate(9.824 83.407)" fill="#fff"/>
              <rect id="Rectángulo_402637" data-name="Rectángulo 402637" width="9.38" height="3.219" transform="translate(23.031 83.407)" fill="#eba154"/>
              <rect id="Rectángulo_402638" data-name="Rectángulo 402638" width="13.47" height="3.219" transform="translate(35.768 83.407)" fill="#eba154"/>
              <rect id="Rectángulo_402639" data-name="Rectángulo 402639" width="8.179" height="3.219" transform="translate(41.058 77.451)" fill="#eba154"/>
              <rect id="Rectángulo_402640" data-name="Rectángulo 402640" width="17.913" height="3.219" transform="translate(31.325 71.496)" fill="#eba154"/>
              <rect id="Rectángulo_402641" data-name="Rectángulo 402641" width="0.597" height="35.878" transform="translate(55.201 50.65)" fill="#fff"/>
              <rect id="Rectángulo_402642" data-name="Rectángulo 402642" width="18.421" height="3.31" transform="translate(10.1 51.968)" fill="#fff"/>
              <rect id="Rectángulo_402643" data-name="Rectángulo 402643" width="28.319" height="3.31" transform="translate(10.1 58.092)" fill="#fff"/>
              <rect id="Rectángulo_402644" data-name="Rectángulo 402644" width="9.646" height="3.31" transform="translate(10.101 64.216)" fill="#fff"/>
              <rect id="Rectángulo_402645" data-name="Rectángulo 402645" width="9.646" height="3.31" transform="translate(23.683 64.216)" fill="#eba154"/>
              <rect id="Rectángulo_402646" data-name="Rectángulo 402646" width="13.851" height="3.31" transform="translate(36.781 64.216)" fill="#eba154"/>
              <rect id="Rectángulo_402647" data-name="Rectángulo 402647" width="8.411" height="3.31" transform="translate(42.22 58.092)" fill="#eba154"/>
              <rect id="Rectángulo_402648" data-name="Rectángulo 402648" width="18.421" height="3.31" transform="translate(32.211 51.968)" fill="#eba154"/>
            </g>
            <rect id="Rectángulo_402649" data-name="Rectángulo 402649" width="53.006" height="104.733" transform="translate(267.918 110.638)" fill="#49496b"/>
            <rect id="Rectángulo_402650" data-name="Rectángulo 402650" width="39.797" height="4.25" transform="translate(273.957 132.913)" fill="#fff"/>
            <rect id="Rectángulo_402651" data-name="Rectángulo 402651" width="26.339" height="4.25" transform="translate(273.957 142.323)" fill="#fff"/>
            <rect id="Rectángulo_402652" data-name="Rectángulo 402652" width="9.546" height="4.25" transform="translate(304.208 142.323)" fill="#eba154"/>
            <rect id="Rectángulo_402653" data-name="Rectángulo 402653" width="24.662" height="4.25" transform="translate(289.092 151.734)" fill="#eba154"/>
            <rect id="Rectángulo_402654" data-name="Rectángulo 402654" width="11.55" height="4.25" transform="translate(273.957 151.734)" fill="#fff"/>
            <rect id="Rectángulo_402655" data-name="Rectángulo 402655" width="21.036" height="4.25" transform="translate(273.957 161.146)" fill="#fff"/>
            <rect id="Rectángulo_402656" data-name="Rectángulo 402656" width="15.521" height="4.25" transform="translate(298.233 161.146)" fill="#eba154"/>
            <rect id="Rectángulo_402657" data-name="Rectángulo 402657" width="28.247" height="4.25" transform="translate(285.507 170.556)" fill="#eba154"/>
            <rect id="Rectángulo_402658" data-name="Rectángulo 402658" width="8.539" height="4.25" transform="translate(273.957 170.556)" fill="#fff"/>
            <rect id="Rectángulo_402659" data-name="Rectángulo 402659" width="17.077" height="4.25" transform="translate(273.957 179.967)" fill="#fff"/>
            <rect id="Rectángulo_402660" data-name="Rectángulo 402660" width="19.899" height="4.25" transform="translate(293.855 179.967)" fill="#eba154"/>
            <path id="Trazado_877147" data-name="Trazado 877147" d="M531.131,186.711v1.2l-4.356,1.666v-1.15l3.047-1.114-3.047-1.122v-1.141Z" transform="translate(-218.552 18.336)" fill="#eba154"/>
            <path id="Trazado_877148" data-name="Trazado 877148" d="M509.965,185.046v1.141l-3.047,1.123,3.047,1.114v1.15l-4.356-1.666v-1.2Z" transform="translate(-209.771 18.336)" fill="#eba154"/>
            <path id="Trazado_877149" data-name="Trazado 877149" d="M519.561,179.565h1.363l-3.235,9.285h-1.362Z" transform="translate(-214.217 20.593)" fill="#eba154"/>
            <path id="Trazado_877150" data-name="Trazado 877150" d="M495.989,47.42v1.567l-5.708,2.183V49.663l3.993-1.459-3.993-1.471v-1.5Z" transform="translate(-203.411 75.892)" fill="#eba154"/>
            <path id="Trazado_877151" data-name="Trazado 877151" d="M478.049,45.238v1.5L474.055,48.2l3.993,1.459V51.17l-5.708-2.182V47.42Z" transform="translate(-195.968 75.892)" fill="#eba154"/>
            <path id="Trazado_877152" data-name="Trazado 877152" d="M462.075,7.589H459.53V0h2.545Zm2.523-2.8h-2.7v-2.1h2.7ZM464.425,0h2.545V7.589h-2.545Z" transform="translate(-190.653 94.516)" fill="#fff"/>
            <path id="Trazado_877153" data-name="Trazado 877153" d="M475.578,7.589v-5.6h-2.211V0h6.965V1.985h-2.21v5.6Z" transform="translate(-196.394 94.516)" fill="#fff"/>
            <path id="Trazado_877154" data-name="Trazado 877154" d="M486.4,7.589V0h2.091l3.019,4.954h-1.1L493.339,0h2.092l.022,7.589h-2.318l-.022-4.076h.366l-2,3.393h-1.122l-2.091-3.393h.452V7.589Z" transform="translate(-201.799 94.516)" fill="#fff"/>
            <path id="Trazado_877155" data-name="Trazado 877155" d="M503.975,7.589V0h2.545v5.6h3.407V7.589Z" transform="translate(-209.093 94.516)" fill="#fff"/>
            <path id="Trazado_877156" data-name="Trazado 877156" d="M22.642,207.092a13.283,13.283,0,0,0-3.749-2.6c-.025-.014-.05-.024-.075-.035a13.3,13.3,0,0,0-6.251-1.184,13.117,13.117,0,0,0-4.41,1.022c-.089.038-.18.077-.268.117a13.249,13.249,0,0,0-5.972,5.315,13.433,13.433,0,0,0-.762,12.359,13.323,13.323,0,1,0,21.488-14.995m-5.57,18.023A9.264,9.264,0,0,1,5.263,212.093l.03-.056a9.2,9.2,0,0,1,4.256-3.881,8.8,8.8,0,0,1,1.062-.4c.037-.013.075-.025.112-.036a9.144,9.144,0,0,1,5.505.11.085.085,0,0,1,.021.005,9.3,9.3,0,0,1,.821,17.278" transform="translate(0 10.841)" fill="#64648e"/>
            <path id="Trazado_877213" data-name="Trazado 877213" d="M22.642,207.092a13.283,13.283,0,0,0-3.749-2.6c-.025-.014-.05-.024-.075-.035a13.3,13.3,0,0,0-6.251-1.184,13.117,13.117,0,0,0-4.41,1.022c-.089.038-.18.077-.268.117a13.249,13.249,0,0,0-5.972,5.315,13.433,13.433,0,0,0-.762,12.359,13.323,13.323,0,1,0,21.488-14.995m-5.57,18.023A9.264,9.264,0,0,1,5.263,212.093l.03-.056a9.2,9.2,0,0,1,4.256-3.881,8.8,8.8,0,0,1,1.062-.4c.037-.013.075-.025.112-.036a9.144,9.144,0,0,1,5.505.11.085.085,0,0,1,.021.005,9.3,9.3,0,0,1,.821,17.278" transform="translate(39.424 10.841)" fill="#64648e"/>
            <path id="Trazado_877157" data-name="Trazado 877157" d="M30.4,205.335a13.373,13.373,0,0,1,7.2,8.4l-3.776,1.682a9.251,9.251,0,0,0-6.064-6.736l-.021-.006,2.589-3.375" transform="translate(-11.508 9.998)" fill="#eba154"/>
            <line id="Línea_754" data-name="Línea 754" x1="2.643" y2="3.345" transform="translate(16.25 215.334)" fill="#eba154"/>
            <path id="Trazado_877158" data-name="Trazado 877158" d="M22.035,207.838l-.021-.005a9.138,9.138,0,0,0-5.5-.11c-.038.011-.075.022-.113.035L13.942,204.3a13.088,13.088,0,0,1,4.409-1.022,13.3,13.3,0,0,1,6.251,1.183" transform="translate(-5.784 10.84)" fill="#b83d5d"/>
            <line id="Línea_755" data-name="Línea 755" y2="1.177" transform="translate(14.372 240.859)" fill="none" stroke="#fd783d" stroke-miterlimit="10" stroke-width="1"/>
            <line id="Línea_756" data-name="Línea 756" y2="16.888" transform="translate(14.372 244.288)" fill="none" stroke="#fd783d" stroke-miterlimit="10" stroke-width="1" stroke-dasharray="3.827 3.827"/>
            <path id="Trazado_877159" data-name="Trazado 877159" d="M24.563,285.194v1.177h1.17" transform="translate(-10.191 -22.892)" fill="none" stroke="#fd783d" stroke-miterlimit="10" stroke-width="1"/>
            <line id="Línea_757" data-name="Línea 757" x2="32.509" transform="translate(17.95 263.478)" fill="none" stroke="#fd783d" stroke-miterlimit="10" stroke-width="1" stroke-dasharray="4.116 4.116"/>
            <path id="Trazado_877160" data-name="Trazado 877160" d="M88.3,286.371h1.17v-1.177" transform="translate(-36.633 -22.892)" fill="none" stroke="#fd783d" stroke-miterlimit="10" stroke-width="1"/>
            <line id="Línea_758" data-name="Línea 758" y1="17.185" transform="translate(52.834 242.825)" fill="none" stroke="#fd783d" stroke-miterlimit="10" stroke-width="1" stroke-dasharray="3.895 3.895"/>
            <line id="Línea_759" data-name="Línea 759" y1="1.177" transform="translate(52.834 240.503)" fill="none" stroke="#fd783d" stroke-miterlimit="10" stroke-width="1"/>
            <rect id="Rectángulo_402661" data-name="Rectángulo 402661" width="112.838" height="135.266" transform="translate(38.796 33.739)" fill="#49496b"/>
            <rect id="Rectángulo_402662" data-name="Rectángulo 402662" width="112.838" height="17.168" transform="translate(38.796 27.15)" fill="#64648e"/>
            <path id="Trazado_877161" data-name="Trazado 877161" d="M233.961,229.347v1.114l-4.058,1.551v-1.071l2.839-1.037-2.839-1.046V227.8Z" transform="translate(-95.384 -69.647)" fill="#eba154"/>
            <path id="Trazado_877162" data-name="Trazado 877162" d="M214.244,227.8v1.063l-2.839,1.045,2.839,1.037v1.071l-4.058-1.551v-1.114Z" transform="translate(-87.204 -69.647)" fill="#eba154"/>
            <path id="Trazado_877163" data-name="Trazado 877163" d="M220.17,231.338l3.014-8.651h1.27l-3.015,8.651Z" transform="translate(-91.346 -67.544)" fill="#eba154"/>
            <path id="Trazado_877164" data-name="Trazado 877164" d="M108.416,51.559v1.39l-5.06,1.934V53.547l3.54-1.293-3.54-1.3V49.624Z" transform="translate(-42.881 3.703)" fill="#eba154"/>
            <path id="Trazado_877165" data-name="Trazado 877165" d="M92.512,49.624V50.95l-3.54,1.3,3.54,1.293v1.336l-5.06-1.934v-1.39Z" transform="translate(-36.283 3.702)" fill="#eba154"/>
            <path id="Trazado_877166" data-name="Trazado 877166" d="M80.167,21.916l-1.855-5.7h1.361l1.612,5.05H80.6l1.685-5.05H83.5l1.62,5.05h-.657l1.652-5.05h1.256l-1.855,5.7h-1.41l-1.434-4.431h.373l-1.474,4.431Z" transform="translate(-32.491 17.456)" fill="#fff"/>
            <path id="Trazado_877167" data-name="Trazado 877167" d="M96.353,20.857H99.44v1.059H95.049v-5.7h4.285v1.058H96.353Zm-.1-2.346h2.73v1.026h-2.73Z" transform="translate(-39.435 17.456)" fill="#fff"/>
            <path id="Trazado_877168" data-name="Trazado 877168" d="M104.338,21.916v-5.7h2.771a2.646,2.646,0,0,1,1.607.407,1.284,1.284,0,0,1,.539,1.075,1.372,1.372,0,0,1-.219.778,1.431,1.431,0,0,1-.6.509,2.032,2.032,0,0,1-.875.179l.154-.334a2.416,2.416,0,0,1,.948.175,1.424,1.424,0,0,1,.644.517,1.465,1.465,0,0,1,.231.839,1.329,1.329,0,0,1-.575,1.144,2.9,2.9,0,0,1-1.693.411Zm1.3-.994h1.531a1.456,1.456,0,0,0,.774-.167.584.584,0,0,0,.263-.533.6.6,0,0,0-.263-.534,1.4,1.4,0,0,0-.774-.175h-1.628v-.961h1.4a1.338,1.338,0,0,0,.733-.167.567.567,0,0,0,.256-.509.559.559,0,0,0-.256-.5,1.339,1.339,0,0,0-.733-.166h-1.3Z" transform="translate(-43.288 17.456)" fill="#fff"/>
            <path id="Trazado_877169" data-name="Trazado 877169" d="M118.846,21.916v-5.7h2.576a3.579,3.579,0,0,1,1.628.354,2.692,2.692,0,0,1,1.1.99,3.052,3.052,0,0,1,0,3.009,2.685,2.685,0,0,1-1.1.994,3.571,3.571,0,0,1-1.628.354Zm1.312-1.083h1.2a2.113,2.113,0,0,0,.984-.216,1.552,1.552,0,0,0,.648-.615,2.022,2.022,0,0,0,0-1.877,1.568,1.568,0,0,0-.648-.611,2.113,2.113,0,0,0-.984-.216h-1.2Z" transform="translate(-49.308 17.456)" fill="#fff"/>
            <path id="Trazado_877170" data-name="Trazado 877170" d="M131.585,20.857h3.086v1.059h-4.391v-5.7h4.285v1.058h-2.981Zm-.1-2.346h2.73v1.026h-2.73Z" transform="translate(-54.052 17.456)" fill="#fff"/>
            <path id="Trazado_877171" data-name="Trazado 877171" d="M140.6,21.916l-2.446-5.7h1.418l2.138,5.05h-.834l2.171-5.05h1.3l-2.455,5.7Z" transform="translate(-57.32 17.456)" fill="#fff"/>
            <path id="Trazado_877172" data-name="Trazado 877172" d="M150.855,20.857h3.086v1.059h-4.391v-5.7h4.285v1.058h-2.981Zm-.1-2.346h2.73v1.026h-2.73Z" transform="translate(-62.047 17.456)" fill="#fff"/>
            <path id="Trazado_877173" data-name="Trazado 877173" d="M158.84,21.916v-5.7h1.312v4.626H163v1.075Z" transform="translate(-65.901 17.456)" fill="#fff"/>
            <path id="Trazado_877174" data-name="Trazado 877174" d="M169.537,21.945a3.432,3.432,0,0,1-1.243-.219,2.938,2.938,0,0,1-.988-.62,2.818,2.818,0,0,1-.648-.937,3.1,3.1,0,0,1,0-2.346,2.8,2.8,0,0,1,.652-.937,3,3,0,0,1,.988-.619,3.565,3.565,0,0,1,2.466,0,2.959,2.959,0,0,1,.98.619,2.987,2.987,0,0,1,.652,3.286,2.811,2.811,0,0,1-.652.937,3,3,0,0,1-.98.615,3.346,3.346,0,0,1-1.227.219m-.008-1.124a1.834,1.834,0,0,0,.7-.131,1.678,1.678,0,0,0,.563-.374,1.7,1.7,0,0,0,.377-.578,2.118,2.118,0,0,0,0-1.483,1.755,1.755,0,0,0-.372-.578,1.626,1.626,0,0,0-.563-.374,1.865,1.865,0,0,0-.7-.131,1.839,1.839,0,0,0-.7.131,1.675,1.675,0,0,0-.563.374,1.721,1.721,0,0,0-.377.578,2.115,2.115,0,0,0,0,1.478,1.744,1.744,0,0,0,.373.582,1.627,1.627,0,0,0,.563.374,1.871,1.871,0,0,0,.705.131" transform="translate(-69.048 17.525)" fill="#fff"/>
            <path id="Trazado_877175" data-name="Trazado 877175" d="M178.72,21.916v-5.7h2.455a3.171,3.171,0,0,1,1.312.248,1.922,1.922,0,0,1,.85.712,2.179,2.179,0,0,1,0,2.207,1.921,1.921,0,0,1-.85.712,3.171,3.171,0,0,1-1.312.248h-1.725l.583-.595v2.167Zm1.312-2.02-.583-.627H181.1a1.352,1.352,0,0,0,.907-.261.91.91,0,0,0,.3-.725.92.92,0,0,0-.3-.733,1.352,1.352,0,0,0-.907-.261h-1.653l.583-.627Z" transform="translate(-74.149 17.456)" fill="#fff"/>
            <rect id="Rectángulo_402663" data-name="Rectángulo 402663" width="1.312" height="5.701" transform="translate(110.42 33.671)" fill="#fff"/>
            <path id="Trazado_877176" data-name="Trazado 877176" d="M193.256,21.916v-5.7h1.085l3.346,4.1h-.527v-4.1h1.3v5.7h-1.078l-3.353-4.1h.527v4.1Z" transform="translate(-80.179 17.456)" fill="#fff"/>
            <path id="Trazado_877177" data-name="Trazado 877177" d="M206.927,21.945a3.429,3.429,0,0,1-1.235-.215,2.9,2.9,0,0,1-.98-.615,2.822,2.822,0,0,1-.648-.936,3.14,3.14,0,0,1,0-2.362,2.8,2.8,0,0,1,.652-.937,2.929,2.929,0,0,1,.988-.615,3.742,3.742,0,0,1,2.6.036,2.684,2.684,0,0,1,1.017.733l-.843.782a2.062,2.062,0,0,0-.672-.485,1.966,1.966,0,0,0-.794-.159,2.083,2.083,0,0,0-.753.131,1.665,1.665,0,0,0-.968.952,1.985,1.985,0,0,0-.133.741,1.959,1.959,0,0,0,.133.733,1.728,1.728,0,0,0,.381.582,1.662,1.662,0,0,0,.583.379,2.029,2.029,0,0,0,.741.13,2.307,2.307,0,0,0,.758-.126,2.185,2.185,0,0,0,.717-.427l.745.953a3.424,3.424,0,0,1-1.074.537,4.126,4.126,0,0,1-1.219.187m1.094-.9V18.908h1.2v2.313Z" transform="translate(-84.568 17.525)" fill="#fff"/>
            <rect id="Rectángulo_402664" data-name="Rectángulo 402664" width="33.168" height="6.107" transform="translate(58.305 66.836)" fill="#54b3cd"/>
            <rect id="Rectángulo_402665" data-name="Rectángulo 402665" width="16.584" height="6.107" transform="translate(96.146 66.836)" fill="#eba154"/>
            <rect id="Rectángulo_402666" data-name="Rectángulo 402666" width="22.842" height="6.107" transform="translate(116.55 66.836)" fill="#fff"/>
            <rect id="Rectángulo_402667" data-name="Rectángulo 402667" width="15.48" height="6.107" transform="translate(58.304 77.74)" fill="#54b3cd"/>
            <rect id="Rectángulo_402668" data-name="Rectángulo 402668" width="26.441" height="6.107" transform="translate(77.997 77.74)" fill="#eba154"/>
            <rect id="Rectángulo_402669" data-name="Rectángulo 402669" width="30.645" height="6.107" transform="translate(108.747 77.74)" fill="#fff"/>
            <rect id="Rectángulo_402670" data-name="Rectángulo 402670" width="20.377" height="6.107" transform="translate(58.304 88.644)" fill="#54b3cd"/>
            <rect id="Rectángulo_402671" data-name="Rectángulo 402671" width="38.332" height="6.107" transform="translate(81.999 88.644)" fill="#eba154"/>
            <rect id="Rectángulo_402672" data-name="Rectángulo 402672" width="14.954" height="6.107" transform="translate(124.438 88.644)" fill="#fff"/>
            <rect id="Rectángulo_402673" data-name="Rectángulo 402673" width="25.695" height="6.107" transform="translate(58.304 99.548)" fill="#54b3cd"/>
            <rect id="Rectángulo_402674" data-name="Rectángulo 402674" width="24.94" height="6.107" transform="translate(87.79 99.548)" fill="#eba154"/>
            <rect id="Rectángulo_402675" data-name="Rectángulo 402675" width="22.842" height="6.107" transform="translate(116.55 99.548)" fill="#fff"/>
            <rect id="Rectángulo_402676" data-name="Rectángulo 402676" width="11.268" height="6.107" transform="translate(58.304 110.452)" fill="#54b3cd"/>
            <rect id="Rectángulo_402677" data-name="Rectángulo 402677" width="22.325" height="6.107" transform="translate(73.364 110.452)" fill="#eba154"/>
            <rect id="Rectángulo_402678" data-name="Rectángulo 402678" width="40.228" height="6.107" transform="translate(99.164 110.452)" fill="#fff"/>
            <rect id="Rectángulo_402679" data-name="Rectángulo 402679" width="32.224" height="6.107" transform="translate(58.305 121.356)" fill="#54b3cd"/>
            <rect id="Rectángulo_402680" data-name="Rectángulo 402680" width="9.908" height="6.107" transform="translate(94.531 121.356)" fill="#eba154"/>
            <rect id="Rectángulo_402681" data-name="Rectángulo 402681" width="30.645" height="6.107" transform="translate(108.747 121.356)" fill="#fff"/>
            <rect id="Rectángulo_402682" data-name="Rectángulo 402682" width="41.956" height="6.107" transform="translate(58.304 132.26)" fill="#54b3cd"/>
            <rect id="Rectángulo_402683" data-name="Rectángulo 402683" width="17.165" height="6.107" transform="translate(103.797 132.26)" fill="#eba154"/>
            <rect id="Rectángulo_402684" data-name="Rectángulo 402684" width="14.954" height="6.107" transform="translate(124.438 132.26)" fill="#fff"/>
            <rect id="Rectángulo_402685" data-name="Rectángulo 402685" width="12.847" height="6.107" transform="translate(58.305 143.164)" fill="#54b3cd"/>
            <rect id="Rectángulo_402686" data-name="Rectángulo 402686" width="15.64" height="6.107" transform="translate(74.889 143.164)" fill="#eba154"/>
            <rect id="Rectángulo_402687" data-name="Rectángulo 402687" width="44.861" height="6.107" transform="translate(94.53 143.164)" fill="#fff"/>
            <rect id="Rectángulo_402688" data-name="Rectángulo 402688" width="1.235" height="82.435" transform="translate(143.827 66.836)" fill="#fff"/>
            <path id="Trazado_877178" data-name="Trazado 877178" d="M82.7,75.64a3.037,3.037,0,1,1-3.037-3.054A3.046,3.046,0,0,1,82.7,75.64" transform="translate(-31.793 -5.75)" fill="#fff"/>
            <path id="Trazado_877179" data-name="Trazado 877179" d="M82.7,94.174a3.037,3.037,0,1,1-3.037-3.054A3.046,3.046,0,0,1,82.7,94.174" transform="translate(-31.793 -13.38)" fill="#fff"/>
            <path id="Trazado_877180" data-name="Trazado 877180" d="M82.7,112.708a3.037,3.037,0,1,1-3.037-3.054,3.046,3.046,0,0,1,3.037,3.054" transform="translate(-31.793 -21.01)" fill="#fff"/>
            <path id="Trazado_877181" data-name="Trazado 877181" d="M82.7,131.242a3.037,3.037,0,1,1-3.037-3.054,3.046,3.046,0,0,1,3.037,3.054" transform="translate(-31.793 -28.64)" fill="#fff"/>
            <path id="Trazado_877182" data-name="Trazado 877182" d="M82.7,149.776a3.037,3.037,0,1,1-3.037-3.054,3.046,3.046,0,0,1,3.037,3.054" transform="translate(-31.793 -36.27)" fill="#fff"/>
            <path id="Trazado_877183" data-name="Trazado 877183" d="M82.7,168.31a3.037,3.037,0,1,1-3.037-3.054A3.046,3.046,0,0,1,82.7,168.31" transform="translate(-31.793 -43.901)" fill="#fff"/>
            <path id="Trazado_877184" data-name="Trazado 877184" d="M82.7,186.844a3.037,3.037,0,1,1-3.037-3.054,3.046,3.046,0,0,1,3.037,3.054" transform="translate(-31.793 -51.531)" fill="#fff"/>
            <path id="Trazado_877185" data-name="Trazado 877185" d="M82.7,205.378a3.037,3.037,0,1,1-3.037-3.054,3.046,3.046,0,0,1,3.037,3.054" transform="translate(-31.793 -59.161)" fill="#fff"/>
            <path id="Trazado_877186" data-name="Trazado 877186" d="M246.171,19.15a3.1,3.1,0,1,1-3.1-3.115,3.106,3.106,0,0,1,3.1,3.115" transform="translate(-99.563 17.53)" fill="#b83d5d"/>
            <path id="Trazado_877187" data-name="Trazado 877187" d="M233.052,19.027a3.121,3.121,0,1,1-3.121-3.138,3.129,3.129,0,0,1,3.121,3.138" transform="translate(-94.1 17.591)" fill="#fff"/>
            <rect id="Rectángulo_402689" data-name="Rectángulo 402689" width="10.931" height="3.079" transform="translate(166.652 120.028)" fill="#47547c"/>
            <rect id="Rectángulo_402690" data-name="Rectángulo 402690" width="33.442" height="3.079" transform="translate(166.652 114.545)" fill="#64648e"/>
            <line id="Línea_760" data-name="Línea 760" y2="1.177" transform="translate(185.973 123.694)" fill="none" stroke="#fd783d" stroke-miterlimit="10" stroke-width="1"/>
            <line id="Línea_761" data-name="Línea 761" y2="6.952" transform="translate(185.973 126.857)" fill="none" stroke="#fd783d" stroke-miterlimit="10" stroke-width="1" stroke-dasharray="3.376 3.376"/>
            <path id="Trazado_877188" data-name="Trazado 877188" d="M317.841,68.477v1.177h1.17" transform="translate(-131.868 66.325)" fill="none" stroke="#fd783d" stroke-miterlimit="10" stroke-width="1"/>
            <line id="Línea_762" data-name="Línea 762" x2="34.546" transform="translate(189.371 135.979)" fill="none" stroke="#fd783d" stroke-miterlimit="10" stroke-width="1" stroke-dasharray="3.809 3.809"/>
            <path id="Trazado_877189" data-name="Trazado 877189" d="M384.595,69.653h1.17V68.477" transform="translate(-159.563 66.325)" fill="none" stroke="#fd783d" stroke-miterlimit="10" stroke-width="1"/>
            <line id="Línea_763" data-name="Línea 763" y1="3.581" transform="translate(226.202 128.835)" fill="none" stroke="#fd783d" stroke-miterlimit="10" stroke-width="1" stroke-dasharray="4.057 4.057"/>
            <line id="Línea_764" data-name="Línea 764" y1="1.177" transform="translate(226.202 126.465)" fill="none" stroke="#fd783d" stroke-miterlimit="10" stroke-width="1"/>
            <path id="Trazado_877190" data-name="Trazado 877190" d="M289.559,14.965a4.769,4.769,0,0,1-1.676-.287,3.94,3.94,0,0,1-1.337-.818,3.723,3.723,0,0,1-.879-1.258,4.268,4.268,0,0,1,0-3.209,3.723,3.723,0,0,1,.879-1.258,3.949,3.949,0,0,1,1.337-.818,4.756,4.756,0,0,1,1.676-.287,4.7,4.7,0,0,1,1.968.39,3.653,3.653,0,0,1,1.418,1.127l-1.607,1.442a2.608,2.608,0,0,0-.738-.656,1.79,1.79,0,0,0-.91-.233,1.93,1.93,0,0,0-.723.13,1.526,1.526,0,0,0-.555.379,1.759,1.759,0,0,0-.362.6,2.453,2.453,0,0,0,0,1.572,1.751,1.751,0,0,0,.362.6,1.518,1.518,0,0,0,.555.379,1.918,1.918,0,0,0,.723.13,1.785,1.785,0,0,0,.91-.233,2.6,2.6,0,0,0,.738-.656l1.607,1.442a3.739,3.739,0,0,1-1.418,1.122,4.648,4.648,0,0,1-1.968.4" transform="translate(-118.39 91.622)" fill="#fff"/>
            <path id="Trazado_877191" data-name="Trazado 877191" d="M301.873,14.965a7.655,7.655,0,0,1-1.833-.217,5.184,5.184,0,0,1-1.456-.564l.819-1.864a5.256,5.256,0,0,0,1.2.5,4.673,4.673,0,0,0,1.288.189,2.685,2.685,0,0,0,.577-.049.661.661,0,0,0,.307-.141.3.3,0,0,0,.1-.222.362.362,0,0,0-.226-.325,2.4,2.4,0,0,0-.6-.2q-.372-.081-.814-.174a7.5,7.5,0,0,1-.889-.244,3.474,3.474,0,0,1-.82-.4,1.867,1.867,0,0,1-.6-.656,2.06,2.06,0,0,1-.226-1.014A2.235,2.235,0,0,1,299.1,8.3a2.693,2.693,0,0,1,1.175-.927,4.8,4.8,0,0,1,1.946-.347,7.061,7.061,0,0,1,1.51.162,4.745,4.745,0,0,1,1.337.5L304.3,9.545a5.73,5.73,0,0,0-1.083-.423,3.908,3.908,0,0,0-1.019-.141,2.082,2.082,0,0,0-.582.065.635.635,0,0,0-.307.174.363.363,0,0,0-.092.238.344.344,0,0,0,.227.309,2.428,2.428,0,0,0,.6.19q.372.076.82.162a6.79,6.79,0,0,1,.889.238,3.514,3.514,0,0,1,.814.4,1.884,1.884,0,0,1,.6.65,2,2,0,0,1,.227,1,2.222,2.222,0,0,1-.394,1.274,2.726,2.726,0,0,1-1.17.932,4.734,4.734,0,0,1-1.952.352" transform="translate(-123.879 91.622)" fill="#fff"/>
            <path id="Trazado_877192" data-name="Trazado 877192" d="M313.98,14.965a7.655,7.655,0,0,1-1.833-.217,5.185,5.185,0,0,1-1.456-.564l.819-1.864a5.254,5.254,0,0,0,1.2.5,4.673,4.673,0,0,0,1.288.189,2.685,2.685,0,0,0,.577-.049.661.661,0,0,0,.307-.141.3.3,0,0,0,.1-.222.362.362,0,0,0-.226-.325,2.4,2.4,0,0,0-.6-.2q-.372-.081-.814-.174a7.5,7.5,0,0,1-.889-.244,3.474,3.474,0,0,1-.82-.4,1.867,1.867,0,0,1-.6-.656,2.06,2.06,0,0,1-.226-1.014A2.235,2.235,0,0,1,311.2,8.3a2.693,2.693,0,0,1,1.175-.927,4.8,4.8,0,0,1,1.946-.347,7.062,7.062,0,0,1,1.51.162,4.745,4.745,0,0,1,1.337.5l-.766,1.854a5.73,5.73,0,0,0-1.083-.423,3.908,3.908,0,0,0-1.019-.141,2.082,2.082,0,0,0-.582.065.635.635,0,0,0-.307.174.363.363,0,0,0-.092.238.344.344,0,0,0,.227.309,2.429,2.429,0,0,0,.6.19q.372.076.82.162a6.788,6.788,0,0,1,.889.238,3.513,3.513,0,0,1,.814.4,1.885,1.885,0,0,1,.6.65,2,2,0,0,1,.227,1,2.223,2.223,0,0,1-.394,1.274,2.726,2.726,0,0,1-1.17.932,4.734,4.734,0,0,1-1.952.352" transform="translate(-128.902 91.622)" fill="#fff"/>
            <path id="Trazado_877193" data-name="Trazado 877193" d="M388.912,28.309a9.1,9.1,0,0,0-.431-1.183,9.2,9.2,0,0,0-4.561-4.641.161.161,0,0,0-.054-.024,9.151,9.151,0,0,0-7.4-.115c-.061.029-.126.054-.187.082a9.166,9.166,0,0,0-4.139,3.685,9.319,9.319,0,0,0-.532,8.575,9.241,9.241,0,0,0,17.3-6.379m-6.254,8.481a6.4,6.4,0,0,1-8.459-3.261,6.66,6.66,0,0,1-.3-.808,6.459,6.459,0,0,1,.564-4.963.225.225,0,0,1,.02-.041,6.372,6.372,0,0,1,2.951-2.693,6.277,6.277,0,0,1,.739-.274.241.241,0,0,1,.078-.024,6.341,6.341,0,0,1,3.818.073s.008,0,.012,0a6.46,6.46,0,0,1,2.728,1.8,6.319,6.319,0,0,1,1.083,1.681,6.608,6.608,0,0,1,.4,1.191,6.478,6.478,0,0,1-3.636,7.313" transform="translate(-153.846 85.614)" fill="#64648e"/>
            <path id="Trazado_877194" data-name="Trazado 877194" d="M389.1,32.721h-2.911a6.439,6.439,0,0,0,.106-3.245,6.6,6.6,0,0,0-.4-1.191,6.319,6.319,0,0,0-1.083-1.681,6.46,6.46,0,0,0-2.728-1.8s-.008,0-.012,0a6.341,6.341,0,0,0-3.818-.073.24.24,0,0,0-.078.024,6.28,6.28,0,0,0-.739.274,6.373,6.373,0,0,0-2.951,2.693.266.266,0,0,0-.02.041,6.459,6.459,0,0,0-.564,4.963h-2.909a9.321,9.321,0,0,1,1.153-6.607,9.166,9.166,0,0,1,4.139-3.685c.061-.028.126-.053.187-.082a9.151,9.151,0,0,1,7.4.115.155.155,0,0,1,.054.024,9.2,9.2,0,0,1,4.562,4.641,9.073,9.073,0,0,1,.431,1.183,9.273,9.273,0,0,1,.187,4.412" transform="translate(-153.847 85.614)" fill="#b83d5d"/>
            <rect id="Rectángulo_402691" data-name="Rectángulo 402691" width="20.32" height="3.079" transform="translate(179.774 120.028)" fill="#64648e"/>
            <path id="Trazado_877195" data-name="Trazado 877195" d="M20.4,22.35a3.747,3.747,0,0,1-2.7-.87,3.224,3.224,0,0,1-.9-2.439V17.083a.661.661,0,0,0-.185-.521.7.7,0,0,0-.479-.163h-.51V13.758h.51a.677.677,0,0,0,.479-.171.662.662,0,0,0,.185-.512V11.116a3.224,3.224,0,0,1,.9-2.439,3.747,3.747,0,0,1,2.7-.87h1.144v2.642h-.155a1.1,1.1,0,0,0-.819.279,1.075,1.075,0,0,0-.279.792V13a2.923,2.923,0,0,1-.247,1.328,1.406,1.406,0,0,1-.781.676,4.955,4.955,0,0,1-1.367.264v-.373a4.977,4.977,0,0,1,1.367.264,1.406,1.406,0,0,1,.781.676,2.923,2.923,0,0,1,.247,1.328v1.476a1.075,1.075,0,0,0,.279.792,1.1,1.1,0,0,0,.819.279h.155V22.35Z" transform="translate(-6.483 91.302)" fill="#323247"/>
            <path id="Trazado_877196" data-name="Trazado 877196" d="M35.337,22.35H34.194V19.709h.154a1.1,1.1,0,0,0,.819-.279,1.073,1.073,0,0,0,.279-.792V17.161a2.844,2.844,0,0,1,.255-1.328,1.44,1.44,0,0,1,.781-.676,4.872,4.872,0,0,1,1.36-.264v.373A4.851,4.851,0,0,1,36.481,15a1.44,1.44,0,0,1-.781-.676A2.844,2.844,0,0,1,35.446,13V11.52a1.073,1.073,0,0,0-.279-.792,1.1,1.1,0,0,0-.819-.279h-.154V7.807h1.143a3.75,3.75,0,0,1,2.7.87,3.227,3.227,0,0,1,.9,2.439v1.958a.66.66,0,0,0,.185.512.675.675,0,0,0,.479.171h.51V16.4H39.6a.7.7,0,0,0-.479.163.659.659,0,0,0-.185.521v1.958a3.227,3.227,0,0,1-.9,2.439,3.75,3.75,0,0,1-2.7.87" transform="translate(-14.187 91.302)" fill="#323247"/>
            <rect id="Rectángulo_402692" data-name="Rectángulo 402692" width="12.018" height="5.767" transform="translate(8.363 128.037)" fill="#fff"/>
            <rect id="Rectángulo_402693" data-name="Rectángulo 402693" width="12.018" height="5.767" transform="translate(8.363 138.112)" fill="#fff"/>
            <rect id="Rectángulo_402694" data-name="Rectángulo 402694" width="12.018" height="5.767" transform="translate(8.363 148.187)" fill="#eba154"/>
            <rect id="Rectángulo_402695" data-name="Rectángulo 402695" width="12.018" height="5.767" transform="translate(8.363 158.262)" fill="#eba154"/>
            <rect id="Rectángulo_402696" data-name="Rectángulo 402696" width="12.018" height="5.767" transform="translate(8.363 168.337)" fill="#eba154"/>
            <rect id="Rectángulo_402697" data-name="Rectángulo 402697" width="12.018" height="5.767" transform="translate(8.363 178.412)" fill="#eba154"/>
            <rect id="Rectángulo_402698" data-name="Rectángulo 402698" width="12.018" height="5.767" transform="translate(8.363 188.487)" fill="#eba154"/>
            <g id="Grupo_1102060" data-name="Grupo 1102060" transform="translate(150.854 177.207) rotate(90)">
              <rect id="Rectángulo_402721" data-name="Rectángulo 402721" width="25.543" height="5.735" transform="translate(0)" fill="#fff"/>
              <rect id="Rectángulo_402722" data-name="Rectángulo 402722" width="25.543" height="5.735" transform="translate(0 17.72)" fill="#fff"/>
              <rect id="Rectángulo_402723" data-name="Rectángulo 402723" width="25.543" height="5.735" transform="translate(0 35.442)" fill="#eba154"/>
              <rect id="Rectángulo_402724" data-name="Rectángulo 402724" width="25.543" height="5.735" transform="translate(0 53.161)" fill="#eba154"/>
              <rect id="Rectángulo_402725" data-name="Rectángulo 402725" width="25.543" height="5.735" transform="translate(0 70.881)" fill="#eba154"/>
              <rect id="Rectángulo_402726" data-name="Rectángulo 402726" width="25.543" height="5.735" transform="translate(0 88.603)" fill="#eba154"/>
              <rect id="Rectángulo_402727" data-name="Rectángulo 402727" width="25.543" height="5.735" transform="translate(0 106.323)" fill="#eba154"/>
            </g>
            <path id="Trazado_877197" data-name="Trazado 877197" d="M600.427,240.978c0-.042.005-.078.005-.12s-.005-.079-.005-.115a14.225,14.225,0,0,0,1.8-.984,14.789,14.789,0,0,0,1.879-1.529l-.13-.513a13.17,13.17,0,0,0-.552-1.7c-.114-.272-.25-.54-.38-.807a5.428,5.428,0,0,0-.427-.785l-.271-.45a13.74,13.74,0,0,0-2.4.251,12.719,12.719,0,0,0-1.957.581l-.167-.168a13.124,13.124,0,0,0,.573-1.969,13.45,13.45,0,0,0,.255-2.414l-.448-.272a5.809,5.809,0,0,0-.781-.429c-.266-.131-.531-.267-.807-.382a12.944,12.944,0,0,0-1.687-.555l-.51-.131a14.437,14.437,0,0,0-1.521,1.89,13.544,13.544,0,0,0-.979,1.806c-.037,0-.078-.01-.115-.01s-.078.01-.12.01a12.97,12.97,0,0,0-.979-1.806,14.392,14.392,0,0,0-1.515-1.89l-.51.131a12.734,12.734,0,0,0-1.692.555c-.271.115-.537.251-.807.382a6.148,6.148,0,0,0-.781.429l-.448.272a14.486,14.486,0,0,0,.255,2.414,13.061,13.061,0,0,0,.578,1.969c-.057.058-.115.11-.166.168a12.912,12.912,0,0,0-1.958-.581,13.781,13.781,0,0,0-2.4-.251l-.276.45a6.6,6.6,0,0,0-.427.785c-.125.267-.26.534-.375.807a12.481,12.481,0,0,0-.552,1.7l-.13.513a14.434,14.434,0,0,0,1.879,1.529,13.817,13.817,0,0,0,1.792.984c0,.036-.005.074-.005.115s.005.078.005.12a13.154,13.154,0,0,0-1.792.985,14.336,14.336,0,0,0-1.879,1.523l.13.513a12.488,12.488,0,0,0,.552,1.7c.115.272.25.539.375.811a6.965,6.965,0,0,0,.427.78l.276.451a13.721,13.721,0,0,0,2.4-.252,12.913,12.913,0,0,0,1.958-.581c.051.057.109.115.166.167a13.069,13.069,0,0,0-.578,1.969,14.54,14.54,0,0,0-.255,2.413l.448.278a6.751,6.751,0,0,0,.781.424c.271.131.536.267.807.382a12.089,12.089,0,0,0,1.692.555l.51.131a14.354,14.354,0,0,0,1.515-1.89,12.938,12.938,0,0,0,.979-1.806.912.912,0,0,0,.12.011.844.844,0,0,0,.115-.011,13.51,13.51,0,0,0,.979,1.806,14.4,14.4,0,0,0,1.521,1.89l.51-.131a12.275,12.275,0,0,0,1.687-.555c.276-.115.541-.251.807-.382a6.345,6.345,0,0,0,.781-.424l.448-.278a13.5,13.5,0,0,0-.255-2.413,13.132,13.132,0,0,0-.573-1.969c.057-.052.109-.11.167-.167a12.72,12.72,0,0,0,1.957.581,13.679,13.679,0,0,0,2.4.252l.271-.451a5.665,5.665,0,0,0,.427-.78c.13-.272.266-.54.38-.811a13.178,13.178,0,0,0,.552-1.7l.13-.513a14.686,14.686,0,0,0-1.879-1.523,13.526,13.526,0,0,0-1.8-.985M591.8,245.01a4.152,4.152,0,1,1,4.129-4.152,4.14,4.14,0,0,1-4.129,4.152" transform="translate(-240.425 -42.679)" fill="#323247"/>
            <rect id="Rectángulo_402699" data-name="Rectángulo 402699" width="5.452" height="24.691" transform="translate(316.605 226.013)" fill="#b83d5d"/>
            <rect id="Rectángulo_402700" data-name="Rectángulo 402700" width="5.844" height="13.811" transform="translate(308.562 236.892)" fill="#64648e"/>
            <rect id="Rectángulo_402701" data-name="Rectángulo 402701" width="5.844" height="9.392" transform="translate(300.467 241.312)" fill="#fd783d"/>
            <line id="Línea_765" data-name="Línea 765" x1="1.17" transform="translate(298.262 246.77)" fill="none" stroke="#fd783d" stroke-miterlimit="10" stroke-width="1"/>
            <line id="Línea_766" data-name="Línea 766" x1="4.451" transform="translate(290.844 246.77)" fill="none" stroke="#fd783d" stroke-miterlimit="10" stroke-width="1" stroke-dasharray="5.071 5.071"/>
            <path id="Trazado_877198" data-name="Trazado 877198" d="M493.709,258.794h-1.17v1.177" transform="translate(-204.348 -12.024)" fill="none" stroke="#fd783d" stroke-miterlimit="10" stroke-width="1"/>
            <line id="Línea_767" data-name="Línea 767" y2="16.505" transform="translate(288.191 250.148)" fill="none" stroke="#fd783d" stroke-miterlimit="10" stroke-width="1" stroke-dasharray="3.74 3.74"/>
            <path id="Trazado_877199" data-name="Trazado 877199" d="M492.539,294.459v1.177h1.17" transform="translate(-204.348 -26.707)" fill="none" stroke="#fd783d" stroke-miterlimit="10" stroke-width="1"/>
            <line id="Línea_768" data-name="Línea 768" x2="6.954" transform="translate(291.348 268.929)" fill="none" stroke="#fd783d" stroke-miterlimit="10" stroke-width="1" stroke-dasharray="3.396 3.396"/>
            <line id="Línea_769" data-name="Línea 769" x2="1.17" transform="translate(299.296 268.929)" fill="none" stroke="#fd783d" stroke-miterlimit="10" stroke-width="1"/>
            <rect id="Rectángulo_402702" data-name="Rectángulo 402702" width="15.465" height="2.779" transform="translate(302.317 267.832)" fill="#fff"/>
            <rect id="Rectángulo_402703" data-name="Rectángulo 402703" width="10.696" height="2.779" transform="translate(302.317 272.973)" fill="#fff"/>
            <rect id="Rectángulo_402704" data-name="Rectángulo 402704" width="13.538" height="2.779" transform="translate(302.318 278.115)" fill="#fff"/>
            <rect id="Rectángulo_402705" data-name="Rectángulo 402705" width="3.161" height="2.779" transform="translate(318.657 278.115)" fill="#eba154"/>
            <rect id="Rectángulo_402706" data-name="Rectángulo 402706" width="11.628" height="2.779" transform="translate(324.715 278.115)" fill="#eba154"/>
            <rect id="Rectángulo_402707" data-name="Rectángulo 402707" width="19.902" height="2.779" transform="translate(316.441 272.973)" fill="#eba154"/>
            <rect id="Rectángulo_402708" data-name="Rectángulo 402708" width="15.464" height="2.779" transform="translate(320.879 267.832)" fill="#eba154"/>
            <rect id="Rectángulo_402709" data-name="Rectángulo 402709" width="10.19" height="4.89" transform="translate(379.186 239.805)" fill="#b83d5d"/>
            <rect id="Rectángulo_402710" data-name="Rectángulo 402710" width="10.19" height="4.89" transform="translate(379.186 248.347)" fill="#b83d5d"/>
            <rect id="Rectángulo_402711" data-name="Rectángulo 402711" width="10.19" height="4.89" transform="translate(379.186 256.889)" fill="#b83d5d"/>
            <rect id="Rectángulo_402712" data-name="Rectángulo 402712" width="10.19" height="4.89" transform="translate(379.186 265.431)" fill="#b83d5d"/>
            <rect id="Rectángulo_402713" data-name="Rectángulo 402713" width="10.19" height="4.89" transform="translate(379.186 273.973)" fill="#fff"/>
            <rect id="Rectángulo_402714" data-name="Rectángulo 402714" width="10.19" height="4.89" transform="translate(379.186 282.515)" fill="#fff"/>
            <rect id="Rectángulo_402715" data-name="Rectángulo 402715" width="10.19" height="4.89" transform="translate(379.186 291.057)" fill="#fff"/>
            <path id="Trazado_877200" data-name="Trazado 877200" d="M573.374,345.727a15.566,15.566,0,0,1-9.66-2.284c-10.748-6.688-12.991-25.551-13.146-26.967.094.435,1.154,2.741,12.326,10.3q1.395.946,2.558,1.917l.04.032c9.736,8.107,7.881,17,7.881,17" transform="translate(-228.424 -35.77)" fill="#0c8068"/>
            <path id="Trazado_877201" data-name="Trazado 877201" d="M550.554,316.335s10.037,24.765,21.172,27.372" transform="translate(-228.418 -35.712)" fill="none" stroke="#0a6d53" stroke-miterlimit="10" stroke-width="1"/>
            <g id="Grupo_1102048" data-name="Grupo 1102048" transform="translate(335.29 292.921)" opacity="0.5">
              <g id="Grupo_1102047" data-name="Grupo 1102047">
                <g id="Grupo_1102046" data-name="Grupo 1102046" clip-path="url(#clip-path-16)">
                  <path id="Trazado_877202" data-name="Trazado 877202" d="M582.7,354.275a15.566,15.566,0,0,1-9.66-2.284c2.14-5.091,1.738-14.752,1.738-14.752l.04.032c9.736,8.107,7.881,17,7.881,17" transform="translate(-573.035 -337.239)" fill="#0a6d53"/>
                </g>
              </g>
            </g>
            <path id="Trazado_877203" data-name="Trazado 877203" d="M621.806,318.819c-.043.264-.193,1.178-.493,2.525v0c-1.586,7.141-7.31,26.355-22.709,24.429a12.49,12.49,0,0,1,.259-4.116c.762-3.626,3.211-9.025,10.66-13.553,11.053-6.722,12.172-8.88,12.283-9.29" transform="translate(-248.326 -36.735)" fill="#0c8068"/>
            <path id="Trazado_877204" data-name="Trazado 877204" d="M622.137,321.412S614.234,342,600.524,346.2" transform="translate(-249.15 -37.802)" fill="none" stroke="#0a6d53" stroke-miterlimit="10" stroke-width="1"/>
            <g id="Grupo_1102051" data-name="Grupo 1102051" transform="translate(350.213 284.609)" opacity="0.5">
              <g id="Grupo_1102050" data-name="Grupo 1102050">
                <g id="Grupo_1102049" data-name="Grupo 1102049" clip-path="url(#clip-path-17)">
                  <path id="Trazado_877205" data-name="Trazado 877205" d="M621.313,323.111v0c-1.586,7.14-7.31,26.354-22.709,24.429a12.5,12.5,0,0,1,.26-4.116h.016c12.812.689,22.434-20.318,22.434-20.318" transform="translate(-598.539 -323.111)" fill="#0a6d53"/>
                </g>
              </g>
            </g>
            <path id="Trazado_877206" data-name="Trazado 877206" d="M590.316,331.035c-.381.665-6-1.685-8.537-8.483h0c-1.521-4.084-1.927-9.774.587-17.376,6.6-19.967,3.882-23.731,3.8-23.836a24.2,24.2,0,0,1,9.573,9.9.3.3,0,0,0,.015.027c4.071,7.691,5.659,20.363-5.437,39.769" transform="translate(-240.865 -21.305)" fill="#159a7a"/>
            <path id="Trazado_877207" data-name="Trazado 877207" d="M590.137,281.335s8.612,10.925,5.333,31.706-1.178,17.991-1.178,17.991" transform="translate(-244.84 -21.304)" fill="none" stroke="#0c8068" stroke-miterlimit="10" stroke-width="1"/>
            <g id="Grupo_1102054" data-name="Grupo 1102054" transform="translate(340.913 269.934)" opacity="0.5">
              <g id="Grupo_1102053" data-name="Grupo 1102053">
                <g id="Grupo_1102052" data-name="Grupo 1102052" clip-path="url(#clip-path-18)">
                  <path id="Trazado_877208" data-name="Trazado 877208" d="M591.183,337.962c-.381.665-6-1.685-8.537-8.483,14.178,4.05,13.959-31.313,13.959-31.313a.306.306,0,0,0,.015.027c4.071,7.691,5.659,20.363-5.437,39.769" transform="translate(-582.645 -298.167)" fill="#0c8068"/>
                </g>
              </g>
            </g>
            <path id="Trazado_877209" data-name="Trazado 877209" d="M550.552,316.334s0,.022.006.07a.183.183,0,0,1-.006-.07" transform="translate(-228.417 -35.712)" fill="#0c8068"/>
            <path id="Trazado_877210" data-name="Trazado 877210" d="M598.648,365.3v15.959a8.43,8.43,0,0,1-8.408,8.454h-7.465a8.389,8.389,0,0,1-7.18-4.054h0a8.458,8.458,0,0,1-1.225-4.4V365.3Z" transform="translate(-238.298 -55.872)" fill="#eba154"/>
            <path id="Trazado_877211" data-name="Trazado 877211" d="M598.466,361.785H572.422a.621.621,0,0,0-.62.623v.824a.621.621,0,0,0,.62.623h26.044a.621.621,0,0,0,.62-.623v-.824a.621.621,0,0,0-.62-.623" transform="translate(-237.233 -54.423)" fill="#eba154"/>
            <path id="Trazado_877212" data-name="Trazado 877212" d="M599.518,365.3v15.959a8.43,8.43,0,0,1-8.407,8.454h-7.465a8.389,8.389,0,0,1-7.18-4.054c17.783,5.616,21.646-7.533,20.958-12.748s-7.093-7.611-7.093-7.611Z" transform="translate(-239.168 -55.872)" fill="#dc831e"/>
          </g>
        </g>
      </g>
    </g>
  </g>
</svg>
