<svg xmlns="http://www.w3.org/2000/svg" xmlns:xlink="http://www.w3.org/1999/xlink" width="103" height="103" viewBox="0 0 103 103">
  <defs>
    <filter id="Elipse_11590" x="0" y="0" width="103" height="103" filterUnits="userSpaceOnUse">
      <feOffset input="SourceAlpha"/>
      <feGaussianBlur stdDeviation="3" result="blur"/>
      <feFlood flood-opacity="0.161"/>
      <feComposite operator="in" in2="blur"/>
      <feComposite in="SourceGraphic"/>
    </filter>
    <linearGradient id="linear-gradient" x1="0.5" y1="1" x2="0.5" gradientUnits="objectBoundingBox">
      <stop offset="0" stop-color="#9f2fff"/>
      <stop offset="1" stop-color="#0bb1d3"/>
    </linearGradient>
  </defs>
  <g id="Grupo_1102546" data-name="Grupo 1102546" transform="translate(-276 -4014)">
    <g transform="matrix(1, 0, 0, 1, 276, 4014)" filter="url(#Elipse_11590)">
      <circle id="Elipse_11590-2" data-name="Elipse 11590" cx="42.5" cy="42.5" r="42.5" transform="translate(9 9)" fill="#00ffdf"/>
    </g>
    <path id="Trazado_877993" data-name="Trazado 877993" d="M44.548,7.452H26.806V1H1V18.742H7.452V46.968A4.037,4.037,0,0,0,11.484,51H44.548V49.387h-.806a2.419,2.419,0,0,1,0-4.839h.806V34.871H51V17.129H44.548ZM2.613,2.613H25.194V17.129H2.613ZM40.537,49.387H11.484a2.419,2.419,0,0,1,0-4.839H40.537a3.951,3.951,0,0,0,0,4.839Zm2.4-6.452H11.484a3.991,3.991,0,0,0-2.419.827V18.742H26.806V9.065H42.935v8.065H31.645V34.871h11.29Zm6.452-9.677H33.258V18.742H49.387Zm-4.839-4.839A3.218,3.218,0,0,0,43.454,26a3.224,3.224,0,0,0-2.131-5.645H38.1v11.29h3.226A3.229,3.229,0,0,0,44.548,28.419ZM39.71,21.968h1.613a1.613,1.613,0,1,1,0,3.226H39.71Zm0,4.839h1.613a1.613,1.613,0,1,1,0,3.226H39.71ZM21.968,31.487,30.748,26l-8.78-5.487v3.068H10.677v4.839h11.29ZM12.29,26.806V25.194h11.29V23.423L27.7,26l-4.123,2.577V26.806Zm0,8.065H10.677V33.258H12.29ZM13.9,33.258H30.032v1.613H13.9Zm12.9,8.065H41.323V36.484H26.806ZM28.419,38.1H39.71V39.71H28.419ZM10.677,36.484H25.194V38.1H10.677Zm0,3.226H25.194v1.613H10.677ZM41.323,12.29h-12.9V10.677h12.9ZM39.71,13.9h1.613v1.613H39.71ZM38.1,15.516H28.419V13.9H38.1ZM7.452,4.226A3.229,3.229,0,0,0,4.226,7.452v8.065H5.839V12.29H9.065v3.226h1.613V7.452A3.229,3.229,0,0,0,7.452,4.226ZM5.839,10.677V7.452a1.613,1.613,0,1,1,3.226,0v3.226ZM12.29,4.226h11.29V5.839H12.29ZM13.9,9.065H12.29V7.452H13.9Zm1.613-1.613h8.065V9.065H15.516ZM12.29,10.677h11.29V12.29H12.29ZM21.968,13.9h1.613v1.613H21.968Zm-9.677,0h8.065v1.613H12.29ZM10.677,46.161H12.29v1.613H10.677Zm3.226,0H38.1v1.613H13.9Z" transform="translate(302 4040)" fill="url(#linear-gradient)"/>
  </g>
</svg>
