<svg xmlns="http://www.w3.org/2000/svg" width="73.259" height="73.259" viewBox="0 0 73.259 73.259">
  <g id="Grupo_1100424" data-name="Grupo 1100424" transform="translate(7936 8404)">
    <path id="Trazado_875880" data-name="Trazado 875880" d="M73.259,36.629A36.63,36.63,0,1,1,36.629,0a36.63,36.63,0,0,1,36.63,36.629" transform="translate(-7936 -8404)" fill="#d6e1fd"/>
    <path id="Trazado_875881" data-name="Trazado 875881" d="M9.6,11.888A36.627,36.627,0,0,0,61.35,63.635Z" transform="translate(-7936 -8404)" fill="#aec4fa"/>
    <path id="Trazado_875882" data-name="Trazado 875882" d="M66.417,36.629A29.787,29.787,0,1,1,36.63,6.842,29.788,29.788,0,0,1,66.417,36.629" transform="translate(-7936 -8404)" fill="#fff"/>
    <path id="Trazado_878003" data-name="Trazado 878003" d="M3.92-19.382H7.005V0H11V-25.407H8.312C7.695-23.7,7.005-22.213,3.92-22.213Z" transform="translate(-7908.305 -8354.72)" fill="#585f6b"/>
  </g>
</svg>
